<?xml version="1.0" encoding="utf-8" standalone="no"?>
<!DOCTYPE svg PUBLIC "-//W3C//DTD SVG 1.1//EN"
  "http://www.w3.org/Graphics/SVG/1.1/DTD/svg11.dtd">
<svg xmlns:xlink="http://www.w3.org/1999/xlink" width="593.653055pt" height="208.360529pt" viewBox="0 0 593.653055 208.360529" xmlns="http://www.w3.org/2000/svg" version="1.1">
 <metadata>
  <rdf:RDF xmlns:dc="http://purl.org/dc/elements/1.1/" xmlns:cc="http://creativecommons.org/ns#" xmlns:rdf="http://www.w3.org/1999/02/22-rdf-syntax-ns#">
   <cc:Work>
    <dc:type rdf:resource="http://purl.org/dc/dcmitype/StillImage"/>
    <dc:date>2024-10-21T17:27:42.603145</dc:date>
    <dc:format>image/svg+xml</dc:format>
    <dc:creator>
     <cc:Agent>
      <dc:title>Matplotlib v3.8.2, https://matplotlib.org/</dc:title>
     </cc:Agent>
    </dc:creator>
   </cc:Work>
  </rdf:RDF>
 </metadata>
 <defs>
  <style type="text/css">*{stroke-linejoin: round; stroke-linecap: butt}</style>
 </defs>
 <g id="figure_1">
  <g id="patch_1">
   <path d="M 0 208.360529 
L 593.653055 208.360529 
L 593.653055 0 
L 0 0 
z
" style="fill: #ffffff"/>
  </g>
  <g id="axes_1">
   <g id="patch_2">
    <path d="M 126.477187 139.138125 
L 372.060456 139.138125 
L 372.060456 22.318125 
L 126.477187 22.318125 
z
" style="fill: #ffffff"/>
   </g>
   <g id="matplotlib.axis_1">
    <g id="xtick_1">
     <g id="line2d_1">
      <path d="M 167.407732 139.138125 
L 167.407732 22.318125 
" clip-path="url(#p3231fde872)" style="fill: none; stroke: #cccccc; stroke-linecap: round"/>
     </g>
     <g id="text_1">
      <!-- batch 0 -->
      <g style="fill: #262626" transform="translate(136.409276 183.929162) rotate(-45) scale(0.11 -0.11)">
       <defs>
        <path id="DejaVuSans-62" d="M 3116 1747 
Q 3116 2381 2855 2742 
Q 2594 3103 2138 3103 
Q 1681 3103 1420 2742 
Q 1159 2381 1159 1747 
Q 1159 1113 1420 752 
Q 1681 391 2138 391 
Q 2594 391 2855 752 
Q 3116 1113 3116 1747 
z
M 1159 2969 
Q 1341 3281 1617 3432 
Q 1894 3584 2278 3584 
Q 2916 3584 3314 3078 
Q 3713 2572 3713 1747 
Q 3713 922 3314 415 
Q 2916 -91 2278 -91 
Q 1894 -91 1617 61 
Q 1341 213 1159 525 
L 1159 0 
L 581 0 
L 581 4863 
L 1159 4863 
L 1159 2969 
z
" transform="scale(0.015625)"/>
        <path id="DejaVuSans-61" d="M 2194 1759 
Q 1497 1759 1228 1600 
Q 959 1441 959 1056 
Q 959 750 1161 570 
Q 1363 391 1709 391 
Q 2188 391 2477 730 
Q 2766 1069 2766 1631 
L 2766 1759 
L 2194 1759 
z
M 3341 1997 
L 3341 0 
L 2766 0 
L 2766 531 
Q 2569 213 2275 61 
Q 1981 -91 1556 -91 
Q 1019 -91 701 211 
Q 384 513 384 1019 
Q 384 1609 779 1909 
Q 1175 2209 1959 2209 
L 2766 2209 
L 2766 2266 
Q 2766 2663 2505 2880 
Q 2244 3097 1772 3097 
Q 1472 3097 1187 3025 
Q 903 2953 641 2809 
L 641 3341 
Q 956 3463 1253 3523 
Q 1550 3584 1831 3584 
Q 2591 3584 2966 3190 
Q 3341 2797 3341 1997 
z
" transform="scale(0.015625)"/>
        <path id="DejaVuSans-74" d="M 1172 4494 
L 1172 3500 
L 2356 3500 
L 2356 3053 
L 1172 3053 
L 1172 1153 
Q 1172 725 1289 603 
Q 1406 481 1766 481 
L 2356 481 
L 2356 0 
L 1766 0 
Q 1100 0 847 248 
Q 594 497 594 1153 
L 594 3053 
L 172 3053 
L 172 3500 
L 594 3500 
L 594 4494 
L 1172 4494 
z
" transform="scale(0.015625)"/>
        <path id="DejaVuSans-63" d="M 3122 3366 
L 3122 2828 
Q 2878 2963 2633 3030 
Q 2388 3097 2138 3097 
Q 1578 3097 1268 2742 
Q 959 2388 959 1747 
Q 959 1106 1268 751 
Q 1578 397 2138 397 
Q 2388 397 2633 464 
Q 2878 531 3122 666 
L 3122 134 
Q 2881 22 2623 -34 
Q 2366 -91 2075 -91 
Q 1284 -91 818 406 
Q 353 903 353 1747 
Q 353 2603 823 3093 
Q 1294 3584 2113 3584 
Q 2378 3584 2631 3529 
Q 2884 3475 3122 3366 
z
" transform="scale(0.015625)"/>
        <path id="DejaVuSans-68" d="M 3513 2113 
L 3513 0 
L 2938 0 
L 2938 2094 
Q 2938 2591 2744 2837 
Q 2550 3084 2163 3084 
Q 1697 3084 1428 2787 
Q 1159 2491 1159 1978 
L 1159 0 
L 581 0 
L 581 4863 
L 1159 4863 
L 1159 2956 
Q 1366 3272 1645 3428 
Q 1925 3584 2291 3584 
Q 2894 3584 3203 3211 
Q 3513 2838 3513 2113 
z
" transform="scale(0.015625)"/>
        <path id="DejaVuSans-20" transform="scale(0.015625)"/>
        <path id="DejaVuSans-30" d="M 2034 4250 
Q 1547 4250 1301 3770 
Q 1056 3291 1056 2328 
Q 1056 1369 1301 889 
Q 1547 409 2034 409 
Q 2525 409 2770 889 
Q 3016 1369 3016 2328 
Q 3016 3291 2770 3770 
Q 2525 4250 2034 4250 
z
M 2034 4750 
Q 2819 4750 3233 4129 
Q 3647 3509 3647 2328 
Q 3647 1150 3233 529 
Q 2819 -91 2034 -91 
Q 1250 -91 836 529 
Q 422 1150 422 2328 
Q 422 3509 836 4129 
Q 1250 4750 2034 4750 
z
" transform="scale(0.015625)"/>
       </defs>
       <use xlink:href="#DejaVuSans-62"/>
       <use xlink:href="#DejaVuSans-61" x="63.476562"/>
       <use xlink:href="#DejaVuSans-74" x="124.755859"/>
       <use xlink:href="#DejaVuSans-63" x="163.964844"/>
       <use xlink:href="#DejaVuSans-68" x="218.945312"/>
       <use xlink:href="#DejaVuSans-20" x="282.324219"/>
       <use xlink:href="#DejaVuSans-30" x="314.111328"/>
      </g>
     </g>
    </g>
    <g id="xtick_2">
     <g id="line2d_2">
      <path d="M 249.268822 139.138125 
L 249.268822 22.318125 
" clip-path="url(#p3231fde872)" style="fill: none; stroke: #cccccc; stroke-linecap: round"/>
     </g>
     <g id="text_2">
      <!-- batch 1 -->
      <g style="fill: #262626" transform="translate(218.270365 183.929162) rotate(-45) scale(0.11 -0.11)">
       <defs>
        <path id="DejaVuSans-31" d="M 794 531 
L 1825 531 
L 1825 4091 
L 703 3866 
L 703 4441 
L 1819 4666 
L 2450 4666 
L 2450 531 
L 3481 531 
L 3481 0 
L 794 0 
L 794 531 
z
" transform="scale(0.015625)"/>
       </defs>
       <use xlink:href="#DejaVuSans-62"/>
       <use xlink:href="#DejaVuSans-61" x="63.476562"/>
       <use xlink:href="#DejaVuSans-74" x="124.755859"/>
       <use xlink:href="#DejaVuSans-63" x="163.964844"/>
       <use xlink:href="#DejaVuSans-68" x="218.945312"/>
       <use xlink:href="#DejaVuSans-20" x="282.324219"/>
       <use xlink:href="#DejaVuSans-31" x="314.111328"/>
      </g>
     </g>
    </g>
    <g id="xtick_3">
     <g id="line2d_3">
      <path d="M 331.129911 139.138125 
L 331.129911 22.318125 
" clip-path="url(#p3231fde872)" style="fill: none; stroke: #cccccc; stroke-linecap: round"/>
     </g>
     <g id="text_3">
      <!-- batch 2 -->
      <g style="fill: #262626" transform="translate(300.131454 183.929162) rotate(-45) scale(0.11 -0.11)">
       <defs>
        <path id="DejaVuSans-32" d="M 1228 531 
L 3431 531 
L 3431 0 
L 469 0 
L 469 531 
Q 828 903 1448 1529 
Q 2069 2156 2228 2338 
Q 2531 2678 2651 2914 
Q 2772 3150 2772 3378 
Q 2772 3750 2511 3984 
Q 2250 4219 1831 4219 
Q 1534 4219 1204 4116 
Q 875 4013 500 3803 
L 500 4441 
Q 881 4594 1212 4672 
Q 1544 4750 1819 4750 
Q 2544 4750 2975 4387 
Q 3406 4025 3406 3419 
Q 3406 3131 3298 2873 
Q 3191 2616 2906 2266 
Q 2828 2175 2409 1742 
Q 1991 1309 1228 531 
z
" transform="scale(0.015625)"/>
       </defs>
       <use xlink:href="#DejaVuSans-62"/>
       <use xlink:href="#DejaVuSans-61" x="63.476562"/>
       <use xlink:href="#DejaVuSans-74" x="124.755859"/>
       <use xlink:href="#DejaVuSans-63" x="163.964844"/>
       <use xlink:href="#DejaVuSans-68" x="218.945312"/>
       <use xlink:href="#DejaVuSans-20" x="282.324219"/>
       <use xlink:href="#DejaVuSans-32" x="314.111328"/>
      </g>
     </g>
    </g>
    <g id="text_4">
     <!-- Batch -->
     <g style="fill: #262626" transform="translate(232.021634 198.664904) scale(0.12 -0.12)">
      <defs>
       <path id="DejaVuSans-42" d="M 1259 2228 
L 1259 519 
L 2272 519 
Q 2781 519 3026 730 
Q 3272 941 3272 1375 
Q 3272 1813 3026 2020 
Q 2781 2228 2272 2228 
L 1259 2228 
z
M 1259 4147 
L 1259 2741 
L 2194 2741 
Q 2656 2741 2882 2914 
Q 3109 3088 3109 3444 
Q 3109 3797 2882 3972 
Q 2656 4147 2194 4147 
L 1259 4147 
z
M 628 4666 
L 2241 4666 
Q 2963 4666 3353 4366 
Q 3744 4066 3744 3513 
Q 3744 3084 3544 2831 
Q 3344 2578 2956 2516 
Q 3422 2416 3680 2098 
Q 3938 1781 3938 1306 
Q 3938 681 3513 340 
Q 3088 0 2303 0 
L 628 0 
L 628 4666 
z
" transform="scale(0.015625)"/>
      </defs>
      <use xlink:href="#DejaVuSans-42"/>
      <use xlink:href="#DejaVuSans-61" x="68.603516"/>
      <use xlink:href="#DejaVuSans-74" x="129.882812"/>
      <use xlink:href="#DejaVuSans-63" x="169.091797"/>
      <use xlink:href="#DejaVuSans-68" x="224.072266"/>
     </g>
    </g>
   </g>
   <g id="matplotlib.axis_2">
    <g id="ytick_1">
     <g id="line2d_4">
      <path d="M 126.477187 109.933125 
L 372.060456 109.933125 
" clip-path="url(#p3231fde872)" style="fill: none; stroke: #cccccc; stroke-linecap: round"/>
     </g>
     <g id="text_5">
      <!-- before correction -->
      <g style="fill: #262626" transform="translate(22.81375 114.112266) scale(0.11 -0.11)">
       <defs>
        <path id="DejaVuSans-65" d="M 3597 1894 
L 3597 1613 
L 953 1613 
Q 991 1019 1311 708 
Q 1631 397 2203 397 
Q 2534 397 2845 478 
Q 3156 559 3463 722 
L 3463 178 
Q 3153 47 2828 -22 
Q 2503 -91 2169 -91 
Q 1331 -91 842 396 
Q 353 884 353 1716 
Q 353 2575 817 3079 
Q 1281 3584 2069 3584 
Q 2775 3584 3186 3129 
Q 3597 2675 3597 1894 
z
M 3022 2063 
Q 3016 2534 2758 2815 
Q 2500 3097 2075 3097 
Q 1594 3097 1305 2825 
Q 1016 2553 972 2059 
L 3022 2063 
z
" transform="scale(0.015625)"/>
        <path id="DejaVuSans-66" d="M 2375 4863 
L 2375 4384 
L 1825 4384 
Q 1516 4384 1395 4259 
Q 1275 4134 1275 3809 
L 1275 3500 
L 2222 3500 
L 2222 3053 
L 1275 3053 
L 1275 0 
L 697 0 
L 697 3053 
L 147 3053 
L 147 3500 
L 697 3500 
L 697 3744 
Q 697 4328 969 4595 
Q 1241 4863 1831 4863 
L 2375 4863 
z
" transform="scale(0.015625)"/>
        <path id="DejaVuSans-6f" d="M 1959 3097 
Q 1497 3097 1228 2736 
Q 959 2375 959 1747 
Q 959 1119 1226 758 
Q 1494 397 1959 397 
Q 2419 397 2687 759 
Q 2956 1122 2956 1747 
Q 2956 2369 2687 2733 
Q 2419 3097 1959 3097 
z
M 1959 3584 
Q 2709 3584 3137 3096 
Q 3566 2609 3566 1747 
Q 3566 888 3137 398 
Q 2709 -91 1959 -91 
Q 1206 -91 779 398 
Q 353 888 353 1747 
Q 353 2609 779 3096 
Q 1206 3584 1959 3584 
z
" transform="scale(0.015625)"/>
        <path id="DejaVuSans-72" d="M 2631 2963 
Q 2534 3019 2420 3045 
Q 2306 3072 2169 3072 
Q 1681 3072 1420 2755 
Q 1159 2438 1159 1844 
L 1159 0 
L 581 0 
L 581 3500 
L 1159 3500 
L 1159 2956 
Q 1341 3275 1631 3429 
Q 1922 3584 2338 3584 
Q 2397 3584 2469 3576 
Q 2541 3569 2628 3553 
L 2631 2963 
z
" transform="scale(0.015625)"/>
        <path id="DejaVuSans-69" d="M 603 3500 
L 1178 3500 
L 1178 0 
L 603 0 
L 603 3500 
z
M 603 4863 
L 1178 4863 
L 1178 4134 
L 603 4134 
L 603 4863 
z
" transform="scale(0.015625)"/>
        <path id="DejaVuSans-6e" d="M 3513 2113 
L 3513 0 
L 2938 0 
L 2938 2094 
Q 2938 2591 2744 2837 
Q 2550 3084 2163 3084 
Q 1697 3084 1428 2787 
Q 1159 2491 1159 1978 
L 1159 0 
L 581 0 
L 581 3500 
L 1159 3500 
L 1159 2956 
Q 1366 3272 1645 3428 
Q 1925 3584 2291 3584 
Q 2894 3584 3203 3211 
Q 3513 2838 3513 2113 
z
" transform="scale(0.015625)"/>
       </defs>
       <use xlink:href="#DejaVuSans-62"/>
       <use xlink:href="#DejaVuSans-65" x="63.476562"/>
       <use xlink:href="#DejaVuSans-66" x="125"/>
       <use xlink:href="#DejaVuSans-6f" x="160.205078"/>
       <use xlink:href="#DejaVuSans-72" x="221.386719"/>
       <use xlink:href="#DejaVuSans-65" x="260.25"/>
       <use xlink:href="#DejaVuSans-20" x="321.773438"/>
       <use xlink:href="#DejaVuSans-63" x="353.560547"/>
       <use xlink:href="#DejaVuSans-6f" x="408.541016"/>
       <use xlink:href="#DejaVuSans-72" x="469.722656"/>
       <use xlink:href="#DejaVuSans-72" x="509.085938"/>
       <use xlink:href="#DejaVuSans-65" x="547.949219"/>
       <use xlink:href="#DejaVuSans-63" x="609.472656"/>
       <use xlink:href="#DejaVuSans-74" x="664.453125"/>
       <use xlink:href="#DejaVuSans-69" x="703.662109"/>
       <use xlink:href="#DejaVuSans-6f" x="731.445312"/>
       <use xlink:href="#DejaVuSans-6e" x="792.626953"/>
      </g>
     </g>
    </g>
    <g id="ytick_2">
     <g id="line2d_5">
      <path d="M 126.477187 51.523125 
L 372.060456 51.523125 
" clip-path="url(#p3231fde872)" style="fill: none; stroke: #cccccc; stroke-linecap: round"/>
     </g>
     <g id="text_6">
      <!-- after correction -->
      <g style="fill: #262626" transform="translate(32.187812 55.702266) scale(0.11 -0.11)">
       <use xlink:href="#DejaVuSans-61"/>
       <use xlink:href="#DejaVuSans-66" x="61.279297"/>
       <use xlink:href="#DejaVuSans-74" x="94.734375"/>
       <use xlink:href="#DejaVuSans-65" x="133.943359"/>
       <use xlink:href="#DejaVuSans-72" x="195.466797"/>
       <use xlink:href="#DejaVuSans-20" x="236.580078"/>
       <use xlink:href="#DejaVuSans-63" x="268.367188"/>
       <use xlink:href="#DejaVuSans-6f" x="323.347656"/>
       <use xlink:href="#DejaVuSans-72" x="384.529297"/>
       <use xlink:href="#DejaVuSans-72" x="423.892578"/>
       <use xlink:href="#DejaVuSans-65" x="462.755859"/>
       <use xlink:href="#DejaVuSans-63" x="524.279297"/>
       <use xlink:href="#DejaVuSans-74" x="579.259766"/>
       <use xlink:href="#DejaVuSans-69" x="618.46875"/>
       <use xlink:href="#DejaVuSans-6f" x="646.251953"/>
       <use xlink:href="#DejaVuSans-6e" x="707.433594"/>
      </g>
     </g>
    </g>
    <g id="text_7">
     <!-- Method -->
     <g style="fill: #262626" transform="translate(16.318125 103.231875) rotate(-90) scale(0.12 -0.12)">
      <defs>
       <path id="DejaVuSans-4d" d="M 628 4666 
L 1569 4666 
L 2759 1491 
L 3956 4666 
L 4897 4666 
L 4897 0 
L 4281 0 
L 4281 4097 
L 3078 897 
L 2444 897 
L 1241 4097 
L 1241 0 
L 628 0 
L 628 4666 
z
" transform="scale(0.015625)"/>
       <path id="DejaVuSans-64" d="M 2906 2969 
L 2906 4863 
L 3481 4863 
L 3481 0 
L 2906 0 
L 2906 525 
Q 2725 213 2448 61 
Q 2172 -91 1784 -91 
Q 1150 -91 751 415 
Q 353 922 353 1747 
Q 353 2572 751 3078 
Q 1150 3584 1784 3584 
Q 2172 3584 2448 3432 
Q 2725 3281 2906 2969 
z
M 947 1747 
Q 947 1113 1208 752 
Q 1469 391 1925 391 
Q 2381 391 2643 752 
Q 2906 1113 2906 1747 
Q 2906 2381 2643 2742 
Q 2381 3103 1925 3103 
Q 1469 3103 1208 2742 
Q 947 2381 947 1747 
z
" transform="scale(0.015625)"/>
      </defs>
      <use xlink:href="#DejaVuSans-4d"/>
      <use xlink:href="#DejaVuSans-65" x="86.279297"/>
      <use xlink:href="#DejaVuSans-74" x="147.802734"/>
      <use xlink:href="#DejaVuSans-68" x="187.011719"/>
      <use xlink:href="#DejaVuSans-6f" x="250.390625"/>
      <use xlink:href="#DejaVuSans-64" x="311.572266"/>
     </g>
    </g>
   </g>
   <g id="PathCollection_1">
    <path d="M 167.407732 114.933125 
C 168.733748 114.933125 170.005632 114.406293 170.943266 113.468659 
C 171.880901 112.531024 172.407732 111.25914 172.407732 109.933125 
C 172.407732 108.607109 171.880901 107.335226 170.943266 106.397591 
C 170.005632 105.459957 168.733748 104.933125 167.407732 104.933125 
C 166.081717 104.933125 164.809833 105.459957 163.872198 106.397591 
C 162.934564 107.335226 162.407732 108.607109 162.407732 109.933125 
C 162.407732 111.25914 162.934564 112.531024 163.872198 113.468659 
C 164.809833 114.406293 166.081717 114.933125 167.407732 114.933125 
z
" clip-path="url(#p3231fde872)" style="fill: #0173b2; stroke: #ffffff; stroke-width: 0.800031"/>
    <path d="M 249.268822 125.744513 
C 253.462051 125.744513 257.484101 124.078526 260.449161 121.113465 
C 263.414222 118.148404 265.08021 114.126354 265.08021 109.933125 
C 265.08021 105.739896 263.414222 101.717846 260.449161 98.752785 
C 257.484101 95.787724 253.462051 94.121737 249.268822 94.121737 
C 245.075592 94.121737 241.053542 95.787724 238.088482 98.752785 
C 235.123421 101.717846 233.457433 105.739896 233.457433 109.933125 
C 233.457433 114.126354 235.123421 118.148404 238.088482 121.113465 
C 241.053542 124.078526 245.075592 125.744513 249.268822 125.744513 
z
" clip-path="url(#p3231fde872)" style="fill: #de8f05; stroke: #ffffff; stroke-width: 0.800031"/>
    <path d="M 331.129911 114.933515 
C 332.45603 114.933515 333.728013 114.406642 334.66572 113.468934 
C 335.603428 112.531227 336.1303 111.259244 336.1303 109.933125 
C 336.1303 108.607006 335.603428 107.335023 334.66572 106.397316 
C 333.728013 105.459608 332.45603 104.932735 331.129911 104.932735 
C 329.803792 104.932735 328.531809 105.459608 327.594101 106.397316 
C 326.656394 107.335023 326.129521 108.607006 326.129521 109.933125 
C 326.129521 111.259244 326.656394 112.531227 327.594101 113.468934 
C 328.531809 114.406642 329.803792 114.933515 331.129911 114.933515 
z
" clip-path="url(#p3231fde872)" style="fill: #029e73; stroke: #ffffff; stroke-width: 0.800031"/>
    <path d="M 167.407732 67.328599 
C 171.599393 67.328599 175.619938 65.663234 178.58389 62.699283 
C 181.547842 59.735331 183.213206 55.714786 183.213206 51.523125 
C 183.213206 47.331464 181.547842 43.310919 178.58389 40.346967 
C 175.619938 37.383016 171.599393 35.717651 167.407732 35.717651 
C 163.216072 35.717651 159.195526 37.383016 156.231574 40.346967 
C 153.267623 43.310919 151.602258 47.331464 151.602258 51.523125 
C 151.602258 55.714786 153.267623 59.735331 156.231574 62.699283 
C 159.195526 65.663234 163.216072 67.328599 167.407732 67.328599 
z
" clip-path="url(#p3231fde872)" style="fill: #0173b2; stroke: #ffffff; stroke-width: 0.800031"/>
    <path d="M 249.268822 56.535187 
C 250.598036 56.535187 251.872988 56.007085 252.812885 55.067188 
C 253.752781 54.127292 254.280884 52.852339 254.280884 51.523125 
C 254.280884 50.193911 253.752781 48.918958 252.812885 47.979062 
C 251.872988 47.039165 250.598036 46.511063 249.268822 46.511063 
C 247.939607 46.511063 246.664655 47.039165 245.724758 47.979062 
C 244.784862 48.918958 244.256759 50.193911 244.256759 51.523125 
C 244.256759 52.852339 244.784862 54.127292 245.724758 55.067188 
C 246.664655 56.007085 247.939607 56.535187 249.268822 56.535187 
z
" clip-path="url(#p3231fde872)" style="fill: #de8f05; stroke: #ffffff; stroke-width: 0.800031"/>
    <path d="M 331.129911 56.530132 
C 332.457785 56.530132 333.731451 56.002563 334.6704 55.063614 
C 335.609348 54.124665 336.136918 52.850999 336.136918 51.523125 
C 336.136918 50.195251 335.609348 48.921585 334.6704 47.982636 
C 333.731451 47.043687 332.457785 46.516118 331.129911 46.516118 
C 329.802037 46.516118 328.528371 47.043687 327.589422 47.982636 
C 326.650473 48.921585 326.122903 50.195251 326.122903 51.523125 
C 326.122903 52.850999 326.650473 54.124665 327.589422 55.063614 
C 328.528371 56.002563 329.802037 56.530132 331.129911 56.530132 
z
" clip-path="url(#p3231fde872)" style="fill: #029e73; stroke: #ffffff; stroke-width: 0.800031"/>
   </g>
   <g id="PathCollection_2"/>
   <g id="PathCollection_3"/>
   <g id="PathCollection_4"/>
   <g id="PathCollection_5"/>
   <g id="PathCollection_6"/>
   <g id="PathCollection_7"/>
   <g id="PathCollection_8"/>
   <g id="patch_3">
    <path d="M 126.477187 139.138125 
L 126.477187 22.318125 
" style="fill: none; stroke: #cccccc; stroke-width: 1.25; stroke-linejoin: miter; stroke-linecap: square"/>
   </g>
   <g id="patch_4">
    <path d="M 126.477188 139.138125 
L 372.060455 139.138125 
" style="fill: none; stroke: #cccccc; stroke-width: 1.25; stroke-linejoin: miter; stroke-linecap: square"/>
   </g>
   <g id="text_8">
    <!-- Classification of unseen batch images -->
    <g style="fill: #262626" transform="translate(135.487259 16.318125) scale(0.12 -0.12)">
     <defs>
      <path id="DejaVuSans-43" d="M 4122 4306 
L 4122 3641 
Q 3803 3938 3442 4084 
Q 3081 4231 2675 4231 
Q 1875 4231 1450 3742 
Q 1025 3253 1025 2328 
Q 1025 1406 1450 917 
Q 1875 428 2675 428 
Q 3081 428 3442 575 
Q 3803 722 4122 1019 
L 4122 359 
Q 3791 134 3420 21 
Q 3050 -91 2638 -91 
Q 1578 -91 968 557 
Q 359 1206 359 2328 
Q 359 3453 968 4101 
Q 1578 4750 2638 4750 
Q 3056 4750 3426 4639 
Q 3797 4528 4122 4306 
z
" transform="scale(0.015625)"/>
      <path id="DejaVuSans-6c" d="M 603 4863 
L 1178 4863 
L 1178 0 
L 603 0 
L 603 4863 
z
" transform="scale(0.015625)"/>
      <path id="DejaVuSans-73" d="M 2834 3397 
L 2834 2853 
Q 2591 2978 2328 3040 
Q 2066 3103 1784 3103 
Q 1356 3103 1142 2972 
Q 928 2841 928 2578 
Q 928 2378 1081 2264 
Q 1234 2150 1697 2047 
L 1894 2003 
Q 2506 1872 2764 1633 
Q 3022 1394 3022 966 
Q 3022 478 2636 193 
Q 2250 -91 1575 -91 
Q 1294 -91 989 -36 
Q 684 19 347 128 
L 347 722 
Q 666 556 975 473 
Q 1284 391 1588 391 
Q 1994 391 2212 530 
Q 2431 669 2431 922 
Q 2431 1156 2273 1281 
Q 2116 1406 1581 1522 
L 1381 1569 
Q 847 1681 609 1914 
Q 372 2147 372 2553 
Q 372 3047 722 3315 
Q 1072 3584 1716 3584 
Q 2034 3584 2315 3537 
Q 2597 3491 2834 3397 
z
" transform="scale(0.015625)"/>
      <path id="DejaVuSans-75" d="M 544 1381 
L 544 3500 
L 1119 3500 
L 1119 1403 
Q 1119 906 1312 657 
Q 1506 409 1894 409 
Q 2359 409 2629 706 
Q 2900 1003 2900 1516 
L 2900 3500 
L 3475 3500 
L 3475 0 
L 2900 0 
L 2900 538 
Q 2691 219 2414 64 
Q 2138 -91 1772 -91 
Q 1169 -91 856 284 
Q 544 659 544 1381 
z
M 1991 3584 
L 1991 3584 
z
" transform="scale(0.015625)"/>
      <path id="DejaVuSans-6d" d="M 3328 2828 
Q 3544 3216 3844 3400 
Q 4144 3584 4550 3584 
Q 5097 3584 5394 3201 
Q 5691 2819 5691 2113 
L 5691 0 
L 5113 0 
L 5113 2094 
Q 5113 2597 4934 2840 
Q 4756 3084 4391 3084 
Q 3944 3084 3684 2787 
Q 3425 2491 3425 1978 
L 3425 0 
L 2847 0 
L 2847 2094 
Q 2847 2600 2669 2842 
Q 2491 3084 2119 3084 
Q 1678 3084 1418 2786 
Q 1159 2488 1159 1978 
L 1159 0 
L 581 0 
L 581 3500 
L 1159 3500 
L 1159 2956 
Q 1356 3278 1631 3431 
Q 1906 3584 2284 3584 
Q 2666 3584 2933 3390 
Q 3200 3197 3328 2828 
z
" transform="scale(0.015625)"/>
      <path id="DejaVuSans-67" d="M 2906 1791 
Q 2906 2416 2648 2759 
Q 2391 3103 1925 3103 
Q 1463 3103 1205 2759 
Q 947 2416 947 1791 
Q 947 1169 1205 825 
Q 1463 481 1925 481 
Q 2391 481 2648 825 
Q 2906 1169 2906 1791 
z
M 3481 434 
Q 3481 -459 3084 -895 
Q 2688 -1331 1869 -1331 
Q 1566 -1331 1297 -1286 
Q 1028 -1241 775 -1147 
L 775 -588 
Q 1028 -725 1275 -790 
Q 1522 -856 1778 -856 
Q 2344 -856 2625 -561 
Q 2906 -266 2906 331 
L 2906 616 
Q 2728 306 2450 153 
Q 2172 0 1784 0 
Q 1141 0 747 490 
Q 353 981 353 1791 
Q 353 2603 747 3093 
Q 1141 3584 1784 3584 
Q 2172 3584 2450 3431 
Q 2728 3278 2906 2969 
L 2906 3500 
L 3481 3500 
L 3481 434 
z
" transform="scale(0.015625)"/>
     </defs>
     <use xlink:href="#DejaVuSans-43"/>
     <use xlink:href="#DejaVuSans-6c" x="69.824219"/>
     <use xlink:href="#DejaVuSans-61" x="97.607422"/>
     <use xlink:href="#DejaVuSans-73" x="158.886719"/>
     <use xlink:href="#DejaVuSans-73" x="210.986328"/>
     <use xlink:href="#DejaVuSans-69" x="263.085938"/>
     <use xlink:href="#DejaVuSans-66" x="290.869141"/>
     <use xlink:href="#DejaVuSans-69" x="326.074219"/>
     <use xlink:href="#DejaVuSans-63" x="353.857422"/>
     <use xlink:href="#DejaVuSans-61" x="408.837891"/>
     <use xlink:href="#DejaVuSans-74" x="470.117188"/>
     <use xlink:href="#DejaVuSans-69" x="509.326172"/>
     <use xlink:href="#DejaVuSans-6f" x="537.109375"/>
     <use xlink:href="#DejaVuSans-6e" x="598.291016"/>
     <use xlink:href="#DejaVuSans-20" x="661.669922"/>
     <use xlink:href="#DejaVuSans-6f" x="693.457031"/>
     <use xlink:href="#DejaVuSans-66" x="754.638672"/>
     <use xlink:href="#DejaVuSans-20" x="789.84375"/>
     <use xlink:href="#DejaVuSans-75" x="821.630859"/>
     <use xlink:href="#DejaVuSans-6e" x="885.009766"/>
     <use xlink:href="#DejaVuSans-73" x="948.388672"/>
     <use xlink:href="#DejaVuSans-65" x="1000.488281"/>
     <use xlink:href="#DejaVuSans-65" x="1062.011719"/>
     <use xlink:href="#DejaVuSans-6e" x="1123.535156"/>
     <use xlink:href="#DejaVuSans-20" x="1186.914062"/>
     <use xlink:href="#DejaVuSans-62" x="1218.701172"/>
     <use xlink:href="#DejaVuSans-61" x="1282.177734"/>
     <use xlink:href="#DejaVuSans-74" x="1343.457031"/>
     <use xlink:href="#DejaVuSans-63" x="1382.666016"/>
     <use xlink:href="#DejaVuSans-68" x="1437.646484"/>
     <use xlink:href="#DejaVuSans-20" x="1501.025391"/>
     <use xlink:href="#DejaVuSans-69" x="1532.8125"/>
     <use xlink:href="#DejaVuSans-6d" x="1560.595703"/>
     <use xlink:href="#DejaVuSans-61" x="1658.007812"/>
     <use xlink:href="#DejaVuSans-67" x="1719.287109"/>
     <use xlink:href="#DejaVuSans-65" x="1782.763672"/>
     <use xlink:href="#DejaVuSans-73" x="1844.287109"/>
    </g>
   </g>
  </g>
  <g id="legend_1">
   <g id="text_9">
    <!-- Batch -->
    <g style="fill: #262626" transform="translate(387.256805 42.423858) scale(0.12 -0.12)">
     <use xlink:href="#DejaVuSans-42"/>
     <use xlink:href="#DejaVuSans-61" x="68.603516"/>
     <use xlink:href="#DejaVuSans-74" x="129.882812"/>
     <use xlink:href="#DejaVuSans-63" x="169.091797"/>
     <use xlink:href="#DejaVuSans-68" x="224.072266"/>
    </g>
   </g>
   <g id="PathCollection_9">
    <defs>
     <path id="mbb737fa3fa" d="M 0 3 
C 0.795609 3 1.55874 2.683901 2.12132 2.12132 
C 2.683901 1.55874 3 0.795609 3 0 
C 3 -0.795609 2.683901 -1.55874 2.12132 -2.12132 
C 1.55874 -2.683901 0.795609 -3 0 -3 
C -0.795609 -3 -1.55874 -2.683901 -2.12132 -2.12132 
C -2.683901 -1.55874 -3 -0.795609 -3 0 
C -3 0.795609 -2.683901 1.55874 -2.12132 2.12132 
C -1.55874 2.683901 -0.795609 3 0 3 
z
" style="stroke: #0173b2"/>
    </defs>
    <g>
     <use xlink:href="#mbb737fa3fa" x="389.456805" y="55.890264" style="fill: #0173b2; stroke: #0173b2"/>
    </g>
   </g>
   <g id="text_10">
    <!-- batch 0 -->
    <g style="fill: #262626" transform="translate(409.256805 58.777764) scale(0.11 -0.11)">
     <use xlink:href="#DejaVuSans-62"/>
     <use xlink:href="#DejaVuSans-61" x="63.476562"/>
     <use xlink:href="#DejaVuSans-74" x="124.755859"/>
     <use xlink:href="#DejaVuSans-63" x="163.964844"/>
     <use xlink:href="#DejaVuSans-68" x="218.945312"/>
     <use xlink:href="#DejaVuSans-20" x="282.324219"/>
     <use xlink:href="#DejaVuSans-30" x="314.111328"/>
    </g>
   </g>
   <g id="PathCollection_10">
    <defs>
     <path id="m43a9bf6e26" d="M 0 3 
C 0.795609 3 1.55874 2.683901 2.12132 2.12132 
C 2.683901 1.55874 3 0.795609 3 0 
C 3 -0.795609 2.683901 -1.55874 2.12132 -2.12132 
C 1.55874 -2.683901 0.795609 -3 0 -3 
C -0.795609 -3 -1.55874 -2.683901 -2.12132 -2.12132 
C -2.683901 -1.55874 -3 -0.795609 -3 0 
C -3 0.795609 -2.683901 1.55874 -2.12132 2.12132 
C -1.55874 2.683901 -0.795609 3 0 3 
z
" style="stroke: #de8f05"/>
    </defs>
    <g>
     <use xlink:href="#m43a9bf6e26" x="389.456805" y="72.036202" style="fill: #de8f05; stroke: #de8f05"/>
    </g>
   </g>
   <g id="text_11">
    <!-- batch 1 -->
    <g style="fill: #262626" transform="translate(409.256805 74.923702) scale(0.11 -0.11)">
     <use xlink:href="#DejaVuSans-62"/>
     <use xlink:href="#DejaVuSans-61" x="63.476562"/>
     <use xlink:href="#DejaVuSans-74" x="124.755859"/>
     <use xlink:href="#DejaVuSans-63" x="163.964844"/>
     <use xlink:href="#DejaVuSans-68" x="218.945312"/>
     <use xlink:href="#DejaVuSans-20" x="282.324219"/>
     <use xlink:href="#DejaVuSans-31" x="314.111328"/>
    </g>
   </g>
   <g id="PathCollection_11">
    <defs>
     <path id="m1e28e36a35" d="M 0 3 
C 0.795609 3 1.55874 2.683901 2.12132 2.12132 
C 2.683901 1.55874 3 0.795609 3 0 
C 3 -0.795609 2.683901 -1.55874 2.12132 -2.12132 
C 1.55874 -2.683901 0.795609 -3 0 -3 
C -0.795609 -3 -1.55874 -2.683901 -2.12132 -2.12132 
C -2.683901 -1.55874 -3 -0.795609 -3 0 
C -3 0.795609 -2.683901 1.55874 -2.12132 2.12132 
C -1.55874 2.683901 -0.795609 3 0 3 
z
" style="stroke: #029e73"/>
    </defs>
    <g>
     <use xlink:href="#m1e28e36a35" x="389.456805" y="88.182139" style="fill: #029e73; stroke: #029e73"/>
    </g>
   </g>
   <g id="text_12">
    <!-- batch 2 -->
    <g style="fill: #262626" transform="translate(409.256805 91.069639) scale(0.11 -0.11)">
     <use xlink:href="#DejaVuSans-62"/>
     <use xlink:href="#DejaVuSans-61" x="63.476562"/>
     <use xlink:href="#DejaVuSans-74" x="124.755859"/>
     <use xlink:href="#DejaVuSans-63" x="163.964844"/>
     <use xlink:href="#DejaVuSans-68" x="218.945312"/>
     <use xlink:href="#DejaVuSans-20" x="282.324219"/>
     <use xlink:href="#DejaVuSans-32" x="314.111328"/>
    </g>
   </g>
   <g id="text_13">
    <!-- Frequency of batch classification -->
    <g style="fill: #262626" transform="translate(387.256805 107.975421) scale(0.12 -0.12)">
     <defs>
      <path id="DejaVuSans-46" d="M 628 4666 
L 3309 4666 
L 3309 4134 
L 1259 4134 
L 1259 2759 
L 3109 2759 
L 3109 2228 
L 1259 2228 
L 1259 0 
L 628 0 
L 628 4666 
z
" transform="scale(0.015625)"/>
      <path id="DejaVuSans-71" d="M 947 1747 
Q 947 1113 1208 752 
Q 1469 391 1925 391 
Q 2381 391 2643 752 
Q 2906 1113 2906 1747 
Q 2906 2381 2643 2742 
Q 2381 3103 1925 3103 
Q 1469 3103 1208 2742 
Q 947 2381 947 1747 
z
M 2906 525 
Q 2725 213 2448 61 
Q 2172 -91 1784 -91 
Q 1150 -91 751 415 
Q 353 922 353 1747 
Q 353 2572 751 3078 
Q 1150 3584 1784 3584 
Q 2172 3584 2448 3432 
Q 2725 3281 2906 2969 
L 2906 3500 
L 3481 3500 
L 3481 -1331 
L 2906 -1331 
L 2906 525 
z
" transform="scale(0.015625)"/>
      <path id="DejaVuSans-79" d="M 2059 -325 
Q 1816 -950 1584 -1140 
Q 1353 -1331 966 -1331 
L 506 -1331 
L 506 -850 
L 844 -850 
Q 1081 -850 1212 -737 
Q 1344 -625 1503 -206 
L 1606 56 
L 191 3500 
L 800 3500 
L 1894 763 
L 2988 3500 
L 3597 3500 
L 2059 -325 
z
" transform="scale(0.015625)"/>
     </defs>
     <use xlink:href="#DejaVuSans-46"/>
     <use xlink:href="#DejaVuSans-72" x="50.269531"/>
     <use xlink:href="#DejaVuSans-65" x="89.132812"/>
     <use xlink:href="#DejaVuSans-71" x="150.65625"/>
     <use xlink:href="#DejaVuSans-75" x="214.132812"/>
     <use xlink:href="#DejaVuSans-65" x="277.511719"/>
     <use xlink:href="#DejaVuSans-6e" x="339.035156"/>
     <use xlink:href="#DejaVuSans-63" x="402.414062"/>
     <use xlink:href="#DejaVuSans-79" x="457.394531"/>
     <use xlink:href="#DejaVuSans-20" x="516.574219"/>
     <use xlink:href="#DejaVuSans-6f" x="548.361328"/>
     <use xlink:href="#DejaVuSans-66" x="609.542969"/>
     <use xlink:href="#DejaVuSans-20" x="644.748047"/>
     <use xlink:href="#DejaVuSans-62" x="676.535156"/>
     <use xlink:href="#DejaVuSans-61" x="740.011719"/>
     <use xlink:href="#DejaVuSans-74" x="801.291016"/>
     <use xlink:href="#DejaVuSans-63" x="840.5"/>
     <use xlink:href="#DejaVuSans-68" x="895.480469"/>
     <use xlink:href="#DejaVuSans-20" x="958.859375"/>
     <use xlink:href="#DejaVuSans-63" x="990.646484"/>
     <use xlink:href="#DejaVuSans-6c" x="1045.626953"/>
     <use xlink:href="#DejaVuSans-61" x="1073.410156"/>
     <use xlink:href="#DejaVuSans-73" x="1134.689453"/>
     <use xlink:href="#DejaVuSans-73" x="1186.789062"/>
     <use xlink:href="#DejaVuSans-69" x="1238.888672"/>
     <use xlink:href="#DejaVuSans-66" x="1266.671875"/>
     <use xlink:href="#DejaVuSans-69" x="1301.876953"/>
     <use xlink:href="#DejaVuSans-63" x="1329.660156"/>
     <use xlink:href="#DejaVuSans-61" x="1384.640625"/>
     <use xlink:href="#DejaVuSans-74" x="1445.919922"/>
     <use xlink:href="#DejaVuSans-69" x="1485.128906"/>
     <use xlink:href="#DejaVuSans-6f" x="1512.912109"/>
     <use xlink:href="#DejaVuSans-6e" x="1574.09375"/>
    </g>
   </g>
   <g id="PathCollection_12">
    <defs>
     <path id="me567669b6c" d="M 0 8.366554 
C 2.218836 8.366554 4.347093 7.485001 5.916047 5.916047 
C 7.485001 4.347093 8.366554 2.218836 8.366554 0 
C 8.366554 -2.218836 7.485001 -4.347093 5.916047 -5.916047 
C 4.347093 -7.485001 2.218836 -8.366554 0 -8.366554 
C -2.218836 -8.366554 -4.347093 -7.485001 -5.916047 -5.916047 
C -7.485001 -4.347093 -8.366554 -2.218836 -8.366554 0 
C -8.366554 2.218836 -7.485001 4.347093 -5.916047 5.916047 
C -4.347093 7.485001 -2.218836 8.366554 0 8.366554 
z
" style="stroke: #333333"/>
    </defs>
    <g>
     <use xlink:href="#me567669b6c" x="389.456805" y="121.441827" style="fill: #333333; stroke: #333333"/>
    </g>
   </g>
   <g id="text_14">
    <!-- 0.2 -->
    <g style="fill: #262626" transform="translate(409.256805 124.329327) scale(0.11 -0.11)">
     <defs>
      <path id="DejaVuSans-2e" d="M 684 794 
L 1344 794 
L 1344 0 
L 684 0 
L 684 794 
z
" transform="scale(0.015625)"/>
     </defs>
     <use xlink:href="#DejaVuSans-30"/>
     <use xlink:href="#DejaVuSans-2e" x="63.623047"/>
     <use xlink:href="#DejaVuSans-32" x="95.410156"/>
    </g>
   </g>
   <g id="PathCollection_13">
    <defs>
     <path id="mc64fe64c26" d="M 0 10.723914 
C 2.844015 10.723914 5.57193 9.593975 7.582953 7.582953 
C 9.593975 5.57193 10.723914 2.844015 10.723914 0 
C 10.723914 -2.844015 9.593975 -5.57193 7.582953 -7.582953 
C 5.57193 -9.593975 2.844015 -10.723914 0 -10.723914 
C -2.844015 -10.723914 -5.57193 -9.593975 -7.582953 -7.582953 
C -9.593975 -5.57193 -10.723914 -2.844015 -10.723914 0 
C -10.723914 2.844015 -9.593975 5.57193 -7.582953 7.582953 
C -5.57193 9.593975 -2.844015 10.723914 0 10.723914 
z
" style="stroke: #333333"/>
    </defs>
    <g>
     <use xlink:href="#mc64fe64c26" x="389.456805" y="137.587764" style="fill: #333333; stroke: #333333"/>
    </g>
   </g>
   <g id="text_15">
    <!-- 0.4 -->
    <g style="fill: #262626" transform="translate(409.256805 140.475264) scale(0.11 -0.11)">
     <defs>
      <path id="DejaVuSans-34" d="M 2419 4116 
L 825 1625 
L 2419 1625 
L 2419 4116 
z
M 2253 4666 
L 3047 4666 
L 3047 1625 
L 3713 1625 
L 3713 1100 
L 3047 1100 
L 3047 0 
L 2419 0 
L 2419 1100 
L 313 1100 
L 313 1709 
L 2253 4666 
z
" transform="scale(0.015625)"/>
     </defs>
     <use xlink:href="#DejaVuSans-30"/>
     <use xlink:href="#DejaVuSans-2e" x="63.623047"/>
     <use xlink:href="#DejaVuSans-34" x="95.410156"/>
    </g>
   </g>
   <g id="PathCollection_14">
    <defs>
     <path id="m08fb30d75e" d="M 0 12.649326 
C 3.354641 12.649326 6.572335 11.316513 8.944424 8.944424 
C 11.316513 6.572335 12.649326 3.354641 12.649326 0 
C 12.649326 -3.354641 11.316513 -6.572335 8.944424 -8.944424 
C 6.572335 -11.316513 3.354641 -12.649326 0 -12.649326 
C -3.354641 -12.649326 -6.572335 -11.316513 -8.944424 -8.944424 
C -11.316513 -6.572335 -12.649326 -3.354641 -12.649326 0 
C -12.649326 3.354641 -11.316513 6.572335 -8.944424 8.944424 
C -6.572335 11.316513 -3.354641 12.649326 0 12.649326 
z
" style="stroke: #333333"/>
    </defs>
    <g>
     <use xlink:href="#m08fb30d75e" x="389.456805" y="153.733702" style="fill: #333333; stroke: #333333"/>
    </g>
   </g>
   <g id="text_16">
    <!-- 0.6 -->
    <g style="fill: #262626" transform="translate(409.256805 156.621202) scale(0.11 -0.11)">
     <defs>
      <path id="DejaVuSans-36" d="M 2113 2584 
Q 1688 2584 1439 2293 
Q 1191 2003 1191 1497 
Q 1191 994 1439 701 
Q 1688 409 2113 409 
Q 2538 409 2786 701 
Q 3034 994 3034 1497 
Q 3034 2003 2786 2293 
Q 2538 2584 2113 2584 
z
M 3366 4563 
L 3366 3988 
Q 3128 4100 2886 4159 
Q 2644 4219 2406 4219 
Q 1781 4219 1451 3797 
Q 1122 3375 1075 2522 
Q 1259 2794 1537 2939 
Q 1816 3084 2150 3084 
Q 2853 3084 3261 2657 
Q 3669 2231 3669 1497 
Q 3669 778 3244 343 
Q 2819 -91 2113 -91 
Q 1303 -91 875 529 
Q 447 1150 447 2328 
Q 447 3434 972 4092 
Q 1497 4750 2381 4750 
Q 2619 4750 2861 4703 
Q 3103 4656 3366 4563 
z
" transform="scale(0.015625)"/>
     </defs>
     <use xlink:href="#DejaVuSans-30"/>
     <use xlink:href="#DejaVuSans-2e" x="63.623047"/>
     <use xlink:href="#DejaVuSans-36" x="95.410156"/>
    </g>
   </g>
   <g id="PathCollection_15">
    <defs>
     <path id="m67ffb599ef" d="M 0 14.31812 
C 3.79721 14.31812 7.439407 12.809473 10.12444 10.12444 
C 12.809473 7.439407 14.31812 3.79721 14.31812 0 
C 14.31812 -3.79721 12.809473 -7.439407 10.12444 -10.12444 
C 7.439407 -12.809473 3.79721 -14.31812 0 -14.31812 
C -3.79721 -14.31812 -7.439407 -12.809473 -10.12444 -10.12444 
C -12.809473 -7.439407 -14.31812 -3.79721 -14.31812 0 
C -14.31812 3.79721 -12.809473 7.439407 -10.12444 10.12444 
C -7.439407 12.809473 -3.79721 14.31812 0 14.31812 
z
" style="stroke: #333333"/>
    </defs>
    <g>
     <use xlink:href="#m67ffb599ef" x="389.456805" y="169.879639" style="fill: #333333; stroke: #333333"/>
    </g>
   </g>
   <g id="text_17">
    <!-- 0.8 -->
    <g style="fill: #262626" transform="translate(409.256805 172.767139) scale(0.11 -0.11)">
     <defs>
      <path id="DejaVuSans-38" d="M 2034 2216 
Q 1584 2216 1326 1975 
Q 1069 1734 1069 1313 
Q 1069 891 1326 650 
Q 1584 409 2034 409 
Q 2484 409 2743 651 
Q 3003 894 3003 1313 
Q 3003 1734 2745 1975 
Q 2488 2216 2034 2216 
z
M 1403 2484 
Q 997 2584 770 2862 
Q 544 3141 544 3541 
Q 544 4100 942 4425 
Q 1341 4750 2034 4750 
Q 2731 4750 3128 4425 
Q 3525 4100 3525 3541 
Q 3525 3141 3298 2862 
Q 3072 2584 2669 2484 
Q 3125 2378 3379 2068 
Q 3634 1759 3634 1313 
Q 3634 634 3220 271 
Q 2806 -91 2034 -91 
Q 1263 -91 848 271 
Q 434 634 434 1313 
Q 434 1759 690 2068 
Q 947 2378 1403 2484 
z
M 1172 3481 
Q 1172 3119 1398 2916 
Q 1625 2713 2034 2713 
Q 2441 2713 2670 2916 
Q 2900 3119 2900 3481 
Q 2900 3844 2670 4047 
Q 2441 4250 2034 4250 
Q 1625 4250 1398 4047 
Q 1172 3844 1172 3481 
z
" transform="scale(0.015625)"/>
     </defs>
     <use xlink:href="#DejaVuSans-30"/>
     <use xlink:href="#DejaVuSans-2e" x="63.623047"/>
     <use xlink:href="#DejaVuSans-38" x="95.410156"/>
    </g>
   </g>
  </g>
 </g>
 <defs>
  <clipPath id="p3231fde872">
   <rect x="126.477187" y="22.318125" width="245.583268" height="116.82"/>
  </clipPath>
 </defs>
</svg>
