<?xml version="1.0" encoding="utf-8" standalone="no"?>
<!DOCTYPE svg PUBLIC "-//W3C//DTD SVG 1.1//EN"
  "http://www.w3.org/Graphics/SVG/1.1/DTD/svg11.dtd">
<svg xmlns:xlink="http://www.w3.org/1999/xlink" width="281.175pt" height="289.5195pt" viewBox="0 0 281.175 289.5195" xmlns="http://www.w3.org/2000/svg" version="1.1">
 <metadata>
  <rdf:RDF xmlns:dc="http://purl.org/dc/elements/1.1/" xmlns:cc="http://creativecommons.org/ns#" xmlns:rdf="http://www.w3.org/1999/02/22-rdf-syntax-ns#">
   <cc:Work>
    <dc:type rdf:resource="http://purl.org/dc/dcmitype/StillImage"/>
    <dc:date>2024-03-18T17:44:19.430794</dc:date>
    <dc:format>image/svg+xml</dc:format>
    <dc:creator>
     <cc:Agent>
      <dc:title>Matplotlib v3.8.2, https://matplotlib.org/</dc:title>
     </cc:Agent>
    </dc:creator>
   </cc:Work>
  </rdf:RDF>
 </metadata>
 <defs>
  <style type="text/css">*{stroke-linejoin: round; stroke-linecap: butt}</style>
 </defs>
 <g id="figure_1">
  <g id="patch_1">
   <path d="M 0 289.5195 
L 281.175 289.5195 
L 281.175 0 
L 0 0 
z
" style="fill: #ffffff"/>
  </g>
  <g id="axes_1">
   <g id="patch_2">
    <path d="M 50.775 245.592 
L 273.975 245.592 
L 273.975 7.2 
L 50.775 7.2 
z
" style="fill: #ffffff"/>
   </g>
   <g id="matplotlib.axis_1">
    <g id="xtick_1">
     <g id="line2d_1">
      <path d="M 108.675344 245.592 
L 108.675344 7.2 
" clip-path="url(#p9223f8cb20)" style="fill: none; stroke: #cccccc; stroke-linecap: round"/>
     </g>
     <g id="text_1">
      <!-- 1.0 -->
      <g style="fill: #262626" transform="translate(99.928625 263.450281) scale(0.11 -0.11)">
       <defs>
        <path id="DejaVuSans-31" d="M 794 531 
L 1825 531 
L 1825 4091 
L 703 3866 
L 703 4441 
L 1819 4666 
L 2450 4666 
L 2450 531 
L 3481 531 
L 3481 0 
L 794 0 
L 794 531 
z
" transform="scale(0.015625)"/>
        <path id="DejaVuSans-2e" d="M 684 794 
L 1344 794 
L 1344 0 
L 684 0 
L 684 794 
z
" transform="scale(0.015625)"/>
        <path id="DejaVuSans-30" d="M 2034 4250 
Q 1547 4250 1301 3770 
Q 1056 3291 1056 2328 
Q 1056 1369 1301 889 
Q 1547 409 2034 409 
Q 2525 409 2770 889 
Q 3016 1369 3016 2328 
Q 3016 3291 2770 3770 
Q 2525 4250 2034 4250 
z
M 2034 4750 
Q 2819 4750 3233 4129 
Q 3647 3509 3647 2328 
Q 3647 1150 3233 529 
Q 2819 -91 2034 -91 
Q 1250 -91 836 529 
Q 422 1150 422 2328 
Q 422 3509 836 4129 
Q 1250 4750 2034 4750 
z
" transform="scale(0.015625)"/>
       </defs>
       <use xlink:href="#DejaVuSans-31"/>
       <use xlink:href="#DejaVuSans-2e" x="63.623047"/>
       <use xlink:href="#DejaVuSans-30" x="95.410156"/>
      </g>
     </g>
    </g>
    <g id="xtick_2">
     <g id="line2d_2">
      <path d="M 172.547573 245.592 
L 172.547573 7.2 
" clip-path="url(#p9223f8cb20)" style="fill: none; stroke: #cccccc; stroke-linecap: round"/>
     </g>
     <g id="text_2">
      <!-- 1.5 -->
      <g style="fill: #262626" transform="translate(163.800854 263.450281) scale(0.11 -0.11)">
       <defs>
        <path id="DejaVuSans-35" d="M 691 4666 
L 3169 4666 
L 3169 4134 
L 1269 4134 
L 1269 2991 
Q 1406 3038 1543 3061 
Q 1681 3084 1819 3084 
Q 2600 3084 3056 2656 
Q 3513 2228 3513 1497 
Q 3513 744 3044 326 
Q 2575 -91 1722 -91 
Q 1428 -91 1123 -41 
Q 819 9 494 109 
L 494 744 
Q 775 591 1075 516 
Q 1375 441 1709 441 
Q 2250 441 2565 725 
Q 2881 1009 2881 1497 
Q 2881 1984 2565 2268 
Q 2250 2553 1709 2553 
Q 1456 2553 1204 2497 
Q 953 2441 691 2322 
L 691 4666 
z
" transform="scale(0.015625)"/>
       </defs>
       <use xlink:href="#DejaVuSans-31"/>
       <use xlink:href="#DejaVuSans-2e" x="63.623047"/>
       <use xlink:href="#DejaVuSans-35" x="95.410156"/>
      </g>
     </g>
    </g>
    <g id="xtick_3">
     <g id="line2d_3">
      <path d="M 236.419802 245.592 
L 236.419802 7.2 
" clip-path="url(#p9223f8cb20)" style="fill: none; stroke: #cccccc; stroke-linecap: round"/>
     </g>
     <g id="text_3">
      <!-- 2.0 -->
      <g style="fill: #262626" transform="translate(227.673083 263.450281) scale(0.11 -0.11)">
       <defs>
        <path id="DejaVuSans-32" d="M 1228 531 
L 3431 531 
L 3431 0 
L 469 0 
L 469 531 
Q 828 903 1448 1529 
Q 2069 2156 2228 2338 
Q 2531 2678 2651 2914 
Q 2772 3150 2772 3378 
Q 2772 3750 2511 3984 
Q 2250 4219 1831 4219 
Q 1534 4219 1204 4116 
Q 875 4013 500 3803 
L 500 4441 
Q 881 4594 1212 4672 
Q 1544 4750 1819 4750 
Q 2544 4750 2975 4387 
Q 3406 4025 3406 3419 
Q 3406 3131 3298 2873 
Q 3191 2616 2906 2266 
Q 2828 2175 2409 1742 
Q 1991 1309 1228 531 
z
" transform="scale(0.015625)"/>
       </defs>
       <use xlink:href="#DejaVuSans-32"/>
       <use xlink:href="#DejaVuSans-2e" x="63.623047"/>
       <use xlink:href="#DejaVuSans-30" x="95.410156"/>
      </g>
     </g>
    </g>
    <g id="text_4">
     <!-- distance to controls - real pert. -->
     <g style="fill: #262626" transform="translate(61.992656 279.615906) scale(0.13 -0.13)">
      <defs>
       <path id="DejaVuSans-64" d="M 2906 2969 
L 2906 4863 
L 3481 4863 
L 3481 0 
L 2906 0 
L 2906 525 
Q 2725 213 2448 61 
Q 2172 -91 1784 -91 
Q 1150 -91 751 415 
Q 353 922 353 1747 
Q 353 2572 751 3078 
Q 1150 3584 1784 3584 
Q 2172 3584 2448 3432 
Q 2725 3281 2906 2969 
z
M 947 1747 
Q 947 1113 1208 752 
Q 1469 391 1925 391 
Q 2381 391 2643 752 
Q 2906 1113 2906 1747 
Q 2906 2381 2643 2742 
Q 2381 3103 1925 3103 
Q 1469 3103 1208 2742 
Q 947 2381 947 1747 
z
" transform="scale(0.015625)"/>
       <path id="DejaVuSans-69" d="M 603 3500 
L 1178 3500 
L 1178 0 
L 603 0 
L 603 3500 
z
M 603 4863 
L 1178 4863 
L 1178 4134 
L 603 4134 
L 603 4863 
z
" transform="scale(0.015625)"/>
       <path id="DejaVuSans-73" d="M 2834 3397 
L 2834 2853 
Q 2591 2978 2328 3040 
Q 2066 3103 1784 3103 
Q 1356 3103 1142 2972 
Q 928 2841 928 2578 
Q 928 2378 1081 2264 
Q 1234 2150 1697 2047 
L 1894 2003 
Q 2506 1872 2764 1633 
Q 3022 1394 3022 966 
Q 3022 478 2636 193 
Q 2250 -91 1575 -91 
Q 1294 -91 989 -36 
Q 684 19 347 128 
L 347 722 
Q 666 556 975 473 
Q 1284 391 1588 391 
Q 1994 391 2212 530 
Q 2431 669 2431 922 
Q 2431 1156 2273 1281 
Q 2116 1406 1581 1522 
L 1381 1569 
Q 847 1681 609 1914 
Q 372 2147 372 2553 
Q 372 3047 722 3315 
Q 1072 3584 1716 3584 
Q 2034 3584 2315 3537 
Q 2597 3491 2834 3397 
z
" transform="scale(0.015625)"/>
       <path id="DejaVuSans-74" d="M 1172 4494 
L 1172 3500 
L 2356 3500 
L 2356 3053 
L 1172 3053 
L 1172 1153 
Q 1172 725 1289 603 
Q 1406 481 1766 481 
L 2356 481 
L 2356 0 
L 1766 0 
Q 1100 0 847 248 
Q 594 497 594 1153 
L 594 3053 
L 172 3053 
L 172 3500 
L 594 3500 
L 594 4494 
L 1172 4494 
z
" transform="scale(0.015625)"/>
       <path id="DejaVuSans-61" d="M 2194 1759 
Q 1497 1759 1228 1600 
Q 959 1441 959 1056 
Q 959 750 1161 570 
Q 1363 391 1709 391 
Q 2188 391 2477 730 
Q 2766 1069 2766 1631 
L 2766 1759 
L 2194 1759 
z
M 3341 1997 
L 3341 0 
L 2766 0 
L 2766 531 
Q 2569 213 2275 61 
Q 1981 -91 1556 -91 
Q 1019 -91 701 211 
Q 384 513 384 1019 
Q 384 1609 779 1909 
Q 1175 2209 1959 2209 
L 2766 2209 
L 2766 2266 
Q 2766 2663 2505 2880 
Q 2244 3097 1772 3097 
Q 1472 3097 1187 3025 
Q 903 2953 641 2809 
L 641 3341 
Q 956 3463 1253 3523 
Q 1550 3584 1831 3584 
Q 2591 3584 2966 3190 
Q 3341 2797 3341 1997 
z
" transform="scale(0.015625)"/>
       <path id="DejaVuSans-6e" d="M 3513 2113 
L 3513 0 
L 2938 0 
L 2938 2094 
Q 2938 2591 2744 2837 
Q 2550 3084 2163 3084 
Q 1697 3084 1428 2787 
Q 1159 2491 1159 1978 
L 1159 0 
L 581 0 
L 581 3500 
L 1159 3500 
L 1159 2956 
Q 1366 3272 1645 3428 
Q 1925 3584 2291 3584 
Q 2894 3584 3203 3211 
Q 3513 2838 3513 2113 
z
" transform="scale(0.015625)"/>
       <path id="DejaVuSans-63" d="M 3122 3366 
L 3122 2828 
Q 2878 2963 2633 3030 
Q 2388 3097 2138 3097 
Q 1578 3097 1268 2742 
Q 959 2388 959 1747 
Q 959 1106 1268 751 
Q 1578 397 2138 397 
Q 2388 397 2633 464 
Q 2878 531 3122 666 
L 3122 134 
Q 2881 22 2623 -34 
Q 2366 -91 2075 -91 
Q 1284 -91 818 406 
Q 353 903 353 1747 
Q 353 2603 823 3093 
Q 1294 3584 2113 3584 
Q 2378 3584 2631 3529 
Q 2884 3475 3122 3366 
z
" transform="scale(0.015625)"/>
       <path id="DejaVuSans-65" d="M 3597 1894 
L 3597 1613 
L 953 1613 
Q 991 1019 1311 708 
Q 1631 397 2203 397 
Q 2534 397 2845 478 
Q 3156 559 3463 722 
L 3463 178 
Q 3153 47 2828 -22 
Q 2503 -91 2169 -91 
Q 1331 -91 842 396 
Q 353 884 353 1716 
Q 353 2575 817 3079 
Q 1281 3584 2069 3584 
Q 2775 3584 3186 3129 
Q 3597 2675 3597 1894 
z
M 3022 2063 
Q 3016 2534 2758 2815 
Q 2500 3097 2075 3097 
Q 1594 3097 1305 2825 
Q 1016 2553 972 2059 
L 3022 2063 
z
" transform="scale(0.015625)"/>
       <path id="DejaVuSans-20" transform="scale(0.015625)"/>
       <path id="DejaVuSans-6f" d="M 1959 3097 
Q 1497 3097 1228 2736 
Q 959 2375 959 1747 
Q 959 1119 1226 758 
Q 1494 397 1959 397 
Q 2419 397 2687 759 
Q 2956 1122 2956 1747 
Q 2956 2369 2687 2733 
Q 2419 3097 1959 3097 
z
M 1959 3584 
Q 2709 3584 3137 3096 
Q 3566 2609 3566 1747 
Q 3566 888 3137 398 
Q 2709 -91 1959 -91 
Q 1206 -91 779 398 
Q 353 888 353 1747 
Q 353 2609 779 3096 
Q 1206 3584 1959 3584 
z
" transform="scale(0.015625)"/>
       <path id="DejaVuSans-72" d="M 2631 2963 
Q 2534 3019 2420 3045 
Q 2306 3072 2169 3072 
Q 1681 3072 1420 2755 
Q 1159 2438 1159 1844 
L 1159 0 
L 581 0 
L 581 3500 
L 1159 3500 
L 1159 2956 
Q 1341 3275 1631 3429 
Q 1922 3584 2338 3584 
Q 2397 3584 2469 3576 
Q 2541 3569 2628 3553 
L 2631 2963 
z
" transform="scale(0.015625)"/>
       <path id="DejaVuSans-6c" d="M 603 4863 
L 1178 4863 
L 1178 0 
L 603 0 
L 603 4863 
z
" transform="scale(0.015625)"/>
       <path id="DejaVuSans-2d" d="M 313 2009 
L 1997 2009 
L 1997 1497 
L 313 1497 
L 313 2009 
z
" transform="scale(0.015625)"/>
       <path id="DejaVuSans-70" d="M 1159 525 
L 1159 -1331 
L 581 -1331 
L 581 3500 
L 1159 3500 
L 1159 2969 
Q 1341 3281 1617 3432 
Q 1894 3584 2278 3584 
Q 2916 3584 3314 3078 
Q 3713 2572 3713 1747 
Q 3713 922 3314 415 
Q 2916 -91 2278 -91 
Q 1894 -91 1617 61 
Q 1341 213 1159 525 
z
M 3116 1747 
Q 3116 2381 2855 2742 
Q 2594 3103 2138 3103 
Q 1681 3103 1420 2742 
Q 1159 2381 1159 1747 
Q 1159 1113 1420 752 
Q 1681 391 2138 391 
Q 2594 391 2855 752 
Q 3116 1113 3116 1747 
z
" transform="scale(0.015625)"/>
      </defs>
      <use xlink:href="#DejaVuSans-64"/>
      <use xlink:href="#DejaVuSans-69" x="63.476562"/>
      <use xlink:href="#DejaVuSans-73" x="91.259766"/>
      <use xlink:href="#DejaVuSans-74" x="143.359375"/>
      <use xlink:href="#DejaVuSans-61" x="182.568359"/>
      <use xlink:href="#DejaVuSans-6e" x="243.847656"/>
      <use xlink:href="#DejaVuSans-63" x="307.226562"/>
      <use xlink:href="#DejaVuSans-65" x="362.207031"/>
      <use xlink:href="#DejaVuSans-20" x="423.730469"/>
      <use xlink:href="#DejaVuSans-74" x="455.517578"/>
      <use xlink:href="#DejaVuSans-6f" x="494.726562"/>
      <use xlink:href="#DejaVuSans-20" x="555.908203"/>
      <use xlink:href="#DejaVuSans-63" x="587.695312"/>
      <use xlink:href="#DejaVuSans-6f" x="642.675781"/>
      <use xlink:href="#DejaVuSans-6e" x="703.857422"/>
      <use xlink:href="#DejaVuSans-74" x="767.236328"/>
      <use xlink:href="#DejaVuSans-72" x="806.445312"/>
      <use xlink:href="#DejaVuSans-6f" x="845.308594"/>
      <use xlink:href="#DejaVuSans-6c" x="906.490234"/>
      <use xlink:href="#DejaVuSans-73" x="934.273438"/>
      <use xlink:href="#DejaVuSans-20" x="986.373047"/>
      <use xlink:href="#DejaVuSans-2d" x="1018.160156"/>
      <use xlink:href="#DejaVuSans-20" x="1054.244141"/>
      <use xlink:href="#DejaVuSans-72" x="1086.03125"/>
      <use xlink:href="#DejaVuSans-65" x="1124.894531"/>
      <use xlink:href="#DejaVuSans-61" x="1186.417969"/>
      <use xlink:href="#DejaVuSans-6c" x="1247.697266"/>
      <use xlink:href="#DejaVuSans-20" x="1275.480469"/>
      <use xlink:href="#DejaVuSans-70" x="1307.267578"/>
      <use xlink:href="#DejaVuSans-65" x="1370.744141"/>
      <use xlink:href="#DejaVuSans-72" x="1432.267578"/>
      <use xlink:href="#DejaVuSans-74" x="1473.380859"/>
      <use xlink:href="#DejaVuSans-2e" x="1512.589844"/>
     </g>
    </g>
   </g>
   <g id="matplotlib.axis_2">
    <g id="ytick_1">
     <g id="line2d_4">
      <path d="M 50.775 237.845339 
L 273.975 237.845339 
" clip-path="url(#p9223f8cb20)" style="fill: none; stroke: #cccccc; stroke-linecap: round"/>
     </g>
     <g id="text_5">
      <!-- 0.0 -->
      <g style="fill: #262626" transform="translate(23.781563 242.02448) scale(0.11 -0.11)">
       <use xlink:href="#DejaVuSans-30"/>
       <use xlink:href="#DejaVuSans-2e" x="63.623047"/>
       <use xlink:href="#DejaVuSans-30" x="95.410156"/>
      </g>
     </g>
    </g>
    <g id="ytick_2">
     <g id="line2d_5">
      <path d="M 50.775 204.359219 
L 273.975 204.359219 
" clip-path="url(#p9223f8cb20)" style="fill: none; stroke: #cccccc; stroke-linecap: round"/>
     </g>
     <g id="text_6">
      <!-- 0.5 -->
      <g style="fill: #262626" transform="translate(23.781563 208.538359) scale(0.11 -0.11)">
       <use xlink:href="#DejaVuSans-30"/>
       <use xlink:href="#DejaVuSans-2e" x="63.623047"/>
       <use xlink:href="#DejaVuSans-35" x="95.410156"/>
      </g>
     </g>
    </g>
    <g id="ytick_3">
     <g id="line2d_6">
      <path d="M 50.775 170.873099 
L 273.975 170.873099 
" clip-path="url(#p9223f8cb20)" style="fill: none; stroke: #cccccc; stroke-linecap: round"/>
     </g>
     <g id="text_7">
      <!-- 1.0 -->
      <g style="fill: #262626" transform="translate(23.781563 175.052239) scale(0.11 -0.11)">
       <use xlink:href="#DejaVuSans-31"/>
       <use xlink:href="#DejaVuSans-2e" x="63.623047"/>
       <use xlink:href="#DejaVuSans-30" x="95.410156"/>
      </g>
     </g>
    </g>
    <g id="ytick_4">
     <g id="line2d_7">
      <path d="M 50.775 137.386978 
L 273.975 137.386978 
" clip-path="url(#p9223f8cb20)" style="fill: none; stroke: #cccccc; stroke-linecap: round"/>
     </g>
     <g id="text_8">
      <!-- 1.5 -->
      <g style="fill: #262626" transform="translate(23.781563 141.566119) scale(0.11 -0.11)">
       <use xlink:href="#DejaVuSans-31"/>
       <use xlink:href="#DejaVuSans-2e" x="63.623047"/>
       <use xlink:href="#DejaVuSans-35" x="95.410156"/>
      </g>
     </g>
    </g>
    <g id="ytick_5">
     <g id="line2d_8">
      <path d="M 50.775 103.900858 
L 273.975 103.900858 
" clip-path="url(#p9223f8cb20)" style="fill: none; stroke: #cccccc; stroke-linecap: round"/>
     </g>
     <g id="text_9">
      <!-- 2.0 -->
      <g style="fill: #262626" transform="translate(23.781563 108.079999) scale(0.11 -0.11)">
       <use xlink:href="#DejaVuSans-32"/>
       <use xlink:href="#DejaVuSans-2e" x="63.623047"/>
       <use xlink:href="#DejaVuSans-30" x="95.410156"/>
      </g>
     </g>
    </g>
    <g id="ytick_6">
     <g id="line2d_9">
      <path d="M 50.775 70.414738 
L 273.975 70.414738 
" clip-path="url(#p9223f8cb20)" style="fill: none; stroke: #cccccc; stroke-linecap: round"/>
     </g>
     <g id="text_10">
      <!-- 2.5 -->
      <g style="fill: #262626" transform="translate(23.781563 74.593879) scale(0.11 -0.11)">
       <use xlink:href="#DejaVuSans-32"/>
       <use xlink:href="#DejaVuSans-2e" x="63.623047"/>
       <use xlink:href="#DejaVuSans-35" x="95.410156"/>
      </g>
     </g>
    </g>
    <g id="ytick_7">
     <g id="line2d_10">
      <path d="M 50.775 36.928618 
L 273.975 36.928618 
" clip-path="url(#p9223f8cb20)" style="fill: none; stroke: #cccccc; stroke-linecap: round"/>
     </g>
     <g id="text_11">
      <!-- 3.0 -->
      <g style="fill: #262626" transform="translate(23.781563 41.107758) scale(0.11 -0.11)">
       <defs>
        <path id="DejaVuSans-33" d="M 2597 2516 
Q 3050 2419 3304 2112 
Q 3559 1806 3559 1356 
Q 3559 666 3084 287 
Q 2609 -91 1734 -91 
Q 1441 -91 1130 -33 
Q 819 25 488 141 
L 488 750 
Q 750 597 1062 519 
Q 1375 441 1716 441 
Q 2309 441 2620 675 
Q 2931 909 2931 1356 
Q 2931 1769 2642 2001 
Q 2353 2234 1838 2234 
L 1294 2234 
L 1294 2753 
L 1863 2753 
Q 2328 2753 2575 2939 
Q 2822 3125 2822 3475 
Q 2822 3834 2567 4026 
Q 2313 4219 1838 4219 
Q 1578 4219 1281 4162 
Q 984 4106 628 3988 
L 628 4550 
Q 988 4650 1302 4700 
Q 1616 4750 1894 4750 
Q 2613 4750 3031 4423 
Q 3450 4097 3450 3541 
Q 3450 3153 3228 2886 
Q 3006 2619 2597 2516 
z
" transform="scale(0.015625)"/>
       </defs>
       <use xlink:href="#DejaVuSans-33"/>
       <use xlink:href="#DejaVuSans-2e" x="63.623047"/>
       <use xlink:href="#DejaVuSans-30" x="95.410156"/>
      </g>
     </g>
    </g>
    <g id="text_12">
     <!-- distance to controls - generated pert. -->
     <g style="fill: #262626" transform="translate(17.077969 248.038422) rotate(-90) scale(0.13 -0.13)">
      <defs>
       <path id="DejaVuSans-67" d="M 2906 1791 
Q 2906 2416 2648 2759 
Q 2391 3103 1925 3103 
Q 1463 3103 1205 2759 
Q 947 2416 947 1791 
Q 947 1169 1205 825 
Q 1463 481 1925 481 
Q 2391 481 2648 825 
Q 2906 1169 2906 1791 
z
M 3481 434 
Q 3481 -459 3084 -895 
Q 2688 -1331 1869 -1331 
Q 1566 -1331 1297 -1286 
Q 1028 -1241 775 -1147 
L 775 -588 
Q 1028 -725 1275 -790 
Q 1522 -856 1778 -856 
Q 2344 -856 2625 -561 
Q 2906 -266 2906 331 
L 2906 616 
Q 2728 306 2450 153 
Q 2172 0 1784 0 
Q 1141 0 747 490 
Q 353 981 353 1791 
Q 353 2603 747 3093 
Q 1141 3584 1784 3584 
Q 2172 3584 2450 3431 
Q 2728 3278 2906 2969 
L 2906 3500 
L 3481 3500 
L 3481 434 
z
" transform="scale(0.015625)"/>
      </defs>
      <use xlink:href="#DejaVuSans-64"/>
      <use xlink:href="#DejaVuSans-69" x="63.476562"/>
      <use xlink:href="#DejaVuSans-73" x="91.259766"/>
      <use xlink:href="#DejaVuSans-74" x="143.359375"/>
      <use xlink:href="#DejaVuSans-61" x="182.568359"/>
      <use xlink:href="#DejaVuSans-6e" x="243.847656"/>
      <use xlink:href="#DejaVuSans-63" x="307.226562"/>
      <use xlink:href="#DejaVuSans-65" x="362.207031"/>
      <use xlink:href="#DejaVuSans-20" x="423.730469"/>
      <use xlink:href="#DejaVuSans-74" x="455.517578"/>
      <use xlink:href="#DejaVuSans-6f" x="494.726562"/>
      <use xlink:href="#DejaVuSans-20" x="555.908203"/>
      <use xlink:href="#DejaVuSans-63" x="587.695312"/>
      <use xlink:href="#DejaVuSans-6f" x="642.675781"/>
      <use xlink:href="#DejaVuSans-6e" x="703.857422"/>
      <use xlink:href="#DejaVuSans-74" x="767.236328"/>
      <use xlink:href="#DejaVuSans-72" x="806.445312"/>
      <use xlink:href="#DejaVuSans-6f" x="845.308594"/>
      <use xlink:href="#DejaVuSans-6c" x="906.490234"/>
      <use xlink:href="#DejaVuSans-73" x="934.273438"/>
      <use xlink:href="#DejaVuSans-20" x="986.373047"/>
      <use xlink:href="#DejaVuSans-2d" x="1018.160156"/>
      <use xlink:href="#DejaVuSans-20" x="1054.244141"/>
      <use xlink:href="#DejaVuSans-67" x="1086.03125"/>
      <use xlink:href="#DejaVuSans-65" x="1149.507812"/>
      <use xlink:href="#DejaVuSans-6e" x="1211.03125"/>
      <use xlink:href="#DejaVuSans-65" x="1274.410156"/>
      <use xlink:href="#DejaVuSans-72" x="1335.933594"/>
      <use xlink:href="#DejaVuSans-61" x="1377.046875"/>
      <use xlink:href="#DejaVuSans-74" x="1438.326172"/>
      <use xlink:href="#DejaVuSans-65" x="1477.535156"/>
      <use xlink:href="#DejaVuSans-64" x="1539.058594"/>
      <use xlink:href="#DejaVuSans-20" x="1602.535156"/>
      <use xlink:href="#DejaVuSans-70" x="1634.322266"/>
      <use xlink:href="#DejaVuSans-65" x="1697.798828"/>
      <use xlink:href="#DejaVuSans-72" x="1759.322266"/>
      <use xlink:href="#DejaVuSans-74" x="1800.435547"/>
      <use xlink:href="#DejaVuSans-2e" x="1839.644531"/>
     </g>
    </g>
   </g>
   <g id="PathCollection_1">
    <defs>
     <path id="m4fa505b24b" d="M 0 5 
C 1.326016 5 2.597899 4.473168 3.535534 3.535534 
C 4.473168 2.597899 5 1.326016 5 0 
C 5 -1.326016 4.473168 -2.597899 3.535534 -3.535534 
C 2.597899 -4.473168 1.326016 -5 0 -5 
C -1.326016 -5 -2.597899 -4.473168 -3.535534 -3.535534 
C -4.473168 -2.597899 -5 -1.326016 -5 0 
C -5 1.326016 -4.473168 2.597899 -3.535534 3.535534 
C -2.597899 4.473168 -1.326016 5 0 5 
z
" style="stroke: #de8f05; stroke-opacity: 0.8"/>
    </defs>
    <g clip-path="url(#p9223f8cb20)">
     <use xlink:href="#m4fa505b24b" x="263.829545" y="75.092519" style="fill: #de8f05; fill-opacity: 0.8; stroke: #de8f05; stroke-opacity: 0.8"/>
     <use xlink:href="#m4fa505b24b" x="98.314128" y="194.589409" style="fill: #de8f05; fill-opacity: 0.8; stroke: #de8f05; stroke-opacity: 0.8"/>
     <use xlink:href="#m4fa505b24b" x="60.920455" y="191.329733" style="fill: #de8f05; fill-opacity: 0.8; stroke: #de8f05; stroke-opacity: 0.8"/>
     <use xlink:href="#m4fa505b24b" x="156.333531" y="193.078294" style="fill: #de8f05; fill-opacity: 0.8; stroke: #de8f05; stroke-opacity: 0.8"/>
     <use xlink:href="#m4fa505b24b" x="162.904058" y="86.76974" style="fill: #de8f05; fill-opacity: 0.8; stroke: #de8f05; stroke-opacity: 0.8"/>
     <use xlink:href="#m4fa505b24b" x="79.518049" y="187.620027" style="fill: #de8f05; fill-opacity: 0.8; stroke: #de8f05; stroke-opacity: 0.8"/>
     <use xlink:href="#m4fa505b24b" x="137.378237" y="180.997457" style="fill: #de8f05; fill-opacity: 0.8; stroke: #de8f05; stroke-opacity: 0.8"/>
     <use xlink:href="#m4fa505b24b" x="189.006778" y="85.601858" style="fill: #de8f05; fill-opacity: 0.8; stroke: #de8f05; stroke-opacity: 0.8"/>
     <use xlink:href="#m4fa505b24b" x="196.094337" y="87.040219" style="fill: #de8f05; fill-opacity: 0.8; stroke: #de8f05; stroke-opacity: 0.8"/>
     <use xlink:href="#m4fa505b24b" x="217.499215" y="197.371068" style="fill: #de8f05; fill-opacity: 0.8; stroke: #de8f05; stroke-opacity: 0.8"/>
     <use xlink:href="#m4fa505b24b" x="190.749331" y="75.802091" style="fill: #de8f05; fill-opacity: 0.8; stroke: #de8f05; stroke-opacity: 0.8"/>
    </g>
   </g>
   <g id="PolyCollection_1">
    <defs>
     <path id="mfc5b0328f2" d="M 60.920455 -121.913452 
L 60.920455 -54.7635 
L 62.970041 -56.510226 
L 65.019628 -58.923362 
L 67.069215 -60.93087 
L 69.118802 -62.842885 
L 71.168388 -64.749036 
L 73.217975 -66.536653 
L 75.267562 -68.32427 
L 77.317149 -70.111887 
L 79.366736 -71.899503 
L 81.416322 -73.68712 
L 83.465909 -75.493642 
L 85.515496 -77.271566 
L 87.565083 -79.060749 
L 89.614669 -80.894593 
L 91.664256 -82.70861 
L 93.713843 -84.689567 
L 95.76343 -86.47365 
L 97.813017 -88.052959 
L 99.862603 -90.086788 
L 101.91219 -91.947336 
L 103.961777 -93.543703 
L 106.011364 -95.272673 
L 108.06095 -96.95087 
L 110.110537 -98.495667 
L 112.160124 -100.022357 
L 114.209711 -101.249402 
L 116.259298 -102.206369 
L 118.308884 -103.307335 
L 120.358471 -104.857283 
L 122.408058 -105.987087 
L 124.457645 -107.009733 
L 126.507231 -107.803163 
L 128.556818 -108.748248 
L 130.606405 -109.267066 
L 132.655992 -109.819929 
L 134.705579 -111.127121 
L 136.755165 -112.778228 
L 138.804752 -113.206865 
L 140.854339 -113.635503 
L 142.903926 -114.927177 
L 144.953512 -115.881576 
L 147.003099 -116.945833 
L 149.052686 -117.867462 
L 151.102273 -118.385354 
L 153.15186 -119.161489 
L 155.201446 -119.487652 
L 157.251033 -120.179686 
L 159.30062 -120.773389 
L 161.350207 -121.45437 
L 163.399793 -122.247346 
L 165.44938 -122.851704 
L 167.498967 -123.133177 
L 169.548554 -123.414649 
L 171.59814 -123.696121 
L 173.647727 -123.992795 
L 175.697314 -124.50855 
L 177.746901 -125.294847 
L 179.796488 -126.085688 
L 181.846074 -126.604073 
L 183.895661 -127.505772 
L 185.945248 -128.475245 
L 187.994835 -129.020253 
L 190.044421 -129.704048 
L 192.094008 -130.012944 
L 194.143595 -130.32184 
L 196.193182 -131.406153 
L 198.242769 -131.708712 
L 200.292355 -131.352892 
L 202.341942 -131.557424 
L 204.391529 -131.923026 
L 206.441116 -132.291902 
L 208.490702 -132.661073 
L 210.540289 -132.777785 
L 212.589876 -133.089543 
L 214.639463 -133.401301 
L 216.68905 -133.87744 
L 218.738636 -134.359685 
L 220.788223 -134.843975 
L 222.83781 -135.252217 
L 224.887397 -135.624878 
L 226.936983 -135.997539 
L 228.98657 -136.379147 
L 231.036157 -136.835688 
L 233.085744 -137.292228 
L 235.135331 -137.748768 
L 237.184917 -138.20545 
L 239.234504 -138.665043 
L 241.284091 -138.836321 
L 243.333678 -139.328932 
L 245.383264 -139.658656 
L 247.432851 -140.180374 
L 249.482438 -140.728705 
L 251.532025 -141.281715 
L 253.581612 -141.783432 
L 255.631198 -142.27827 
L 257.680785 -142.773109 
L 259.730372 -143.253209 
L 261.779959 -143.715069 
L 263.829545 -144.176929 
L 263.829545 -271.4835 
L 263.829545 -271.4835 
L 261.779959 -269.594605 
L 259.730372 -267.70571 
L 257.680785 -265.816815 
L 255.631198 -263.92792 
L 253.581612 -261.924175 
L 251.532025 -259.856514 
L 249.482438 -257.692363 
L 247.432851 -255.505174 
L 245.383264 -253.291892 
L 243.333678 -251.351335 
L 241.284091 -249.52945 
L 239.234504 -247.471439 
L 237.184917 -245.409712 
L 235.135331 -243.347986 
L 233.085744 -241.28626 
L 231.036157 -239.224533 
L 228.98657 -237.159037 
L 226.936983 -235.091434 
L 224.887397 -233.02383 
L 222.83781 -230.951894 
L 220.788223 -228.874697 
L 218.738636 -226.72618 
L 216.68905 -224.738555 
L 214.639463 -222.676021 
L 212.589876 -220.674608 
L 210.540289 -218.823677 
L 208.490702 -216.82967 
L 206.441116 -214.695535 
L 204.391529 -212.663374 
L 202.341942 -210.742395 
L 200.292355 -208.821416 
L 198.242769 -206.900437 
L 196.193182 -204.973239 
L 194.143595 -202.95849 
L 192.094008 -200.746115 
L 190.044421 -198.776646 
L 187.994835 -197.114829 
L 185.945248 -195.368451 
L 183.895661 -193.393703 
L 181.846074 -191.879639 
L 179.796488 -189.937672 
L 177.746901 -187.690648 
L 175.697314 -186.027661 
L 173.647727 -184.487869 
L 171.59814 -182.960237 
L 169.548554 -181.269303 
L 167.498967 -179.579981 
L 165.44938 -177.930306 
L 163.399793 -176.299713 
L 161.350207 -174.573661 
L 159.30062 -172.901852 
L 157.251033 -171.155392 
L 155.201446 -169.823835 
L 153.15186 -168.229165 
L 151.102273 -166.918825 
L 149.052686 -165.38724 
L 147.003099 -163.838543 
L 144.953512 -162.174575 
L 142.903926 -160.366742 
L 140.854339 -159.253076 
L 138.804752 -157.813315 
L 136.755165 -156.44811 
L 134.705579 -155.06788 
L 132.655992 -153.375529 
L 130.606405 -152.076457 
L 128.556818 -150.511125 
L 126.507231 -148.987621 
L 124.457645 -147.468314 
L 122.408058 -146.29875 
L 120.358471 -145.342333 
L 118.308884 -144.594035 
L 116.259298 -143.362208 
L 114.209711 -142.20529 
L 112.160124 -141.229753 
L 110.110537 -140.442016 
L 108.06095 -139.157562 
L 106.011364 -138.307547 
L 103.961777 -137.573724 
L 101.91219 -136.571622 
L 99.862603 -136.124018 
L 97.813017 -135.00064 
L 95.76343 -134.044104 
L 93.713843 -133.545925 
L 91.664256 -133.047745 
L 89.614669 -132.492064 
L 87.565083 -131.769146 
L 85.515496 -131.170886 
L 83.465909 -130.410968 
L 81.416322 -129.648407 
L 79.366736 -128.883782 
L 77.317149 -128.15265 
L 75.267562 -127.421518 
L 73.217975 -126.690386 
L 71.168388 -125.959254 
L 69.118802 -125.063956 
L 67.069215 -124.226481 
L 65.019628 -123.586133 
L 62.970041 -122.684462 
L 60.920455 -121.913452 
z
" style="stroke: #ffffff; stroke-opacity: 0.15"/>
    </defs>
    <g clip-path="url(#p9223f8cb20)">
     <use xlink:href="#mfc5b0328f2" x="0" y="289.5195" style="fill: #de8f05; fill-opacity: 0.15; stroke: #ffffff; stroke-opacity: 0.15"/>
    </g>
   </g>
   <g id="line2d_11">
    <path d="M 60.920455 199.841656 
L 62.970041 198.624189 
L 65.019628 197.406722 
L 67.069215 196.189254 
L 69.118802 194.971787 
L 71.168388 193.75432 
L 73.217975 192.536852 
L 75.267562 191.319385 
L 77.317149 190.101918 
L 79.366736 188.88445 
L 81.416322 187.666983 
L 83.465909 186.449516 
L 85.515496 185.232049 
L 87.565083 184.014581 
L 89.614669 182.797114 
L 91.664256 181.579647 
L 93.713843 180.362179 
L 95.76343 179.144712 
L 97.813017 177.927245 
L 99.862603 176.709777 
L 101.91219 175.49231 
L 103.961777 174.274843 
L 106.011364 173.057375 
L 108.06095 171.839908 
L 110.110537 170.622441 
L 112.160124 169.404974 
L 114.209711 168.187506 
L 116.259298 166.970039 
L 118.308884 165.752572 
L 120.358471 164.535104 
L 122.408058 163.317637 
L 124.457645 162.10017 
L 126.507231 160.882702 
L 128.556818 159.665235 
L 130.606405 158.447768 
L 132.655992 157.2303 
L 134.705579 156.012833 
L 136.755165 154.795366 
L 138.804752 153.577898 
L 140.854339 152.360431 
L 142.903926 151.142964 
L 144.953512 149.925497 
L 147.003099 148.708029 
L 149.052686 147.490562 
L 151.102273 146.273095 
L 153.15186 145.055627 
L 155.201446 143.83816 
L 157.251033 142.620693 
L 159.30062 141.403225 
L 161.350207 140.185758 
L 163.399793 138.968291 
L 165.44938 137.750823 
L 167.498967 136.533356 
L 169.548554 135.315889 
L 171.59814 134.098422 
L 173.647727 132.880954 
L 175.697314 131.663487 
L 177.746901 130.44602 
L 179.796488 129.228552 
L 181.846074 128.011085 
L 183.895661 126.793618 
L 185.945248 125.57615 
L 187.994835 124.358683 
L 190.044421 123.141216 
L 192.094008 121.923748 
L 194.143595 120.706281 
L 196.193182 119.488814 
L 198.242769 118.271347 
L 200.292355 117.053879 
L 202.341942 115.836412 
L 204.391529 114.618945 
L 206.441116 113.401477 
L 208.490702 112.18401 
L 210.540289 110.966543 
L 212.589876 109.749075 
L 214.639463 108.531608 
L 216.68905 107.314141 
L 218.738636 106.096673 
L 220.788223 104.879206 
L 222.83781 103.661739 
L 224.887397 102.444272 
L 226.936983 101.226804 
L 228.98657 100.009337 
L 231.036157 98.79187 
L 233.085744 97.574402 
L 235.135331 96.356935 
L 237.184917 95.139468 
L 239.234504 93.922 
L 241.284091 92.704533 
L 243.333678 91.487066 
L 245.383264 90.269598 
L 247.432851 89.052131 
L 249.482438 87.834664 
L 251.532025 86.617197 
L 253.581612 85.399729 
L 255.631198 84.182262 
L 257.680785 82.964795 
L 259.730372 81.747327 
L 261.779959 80.52986 
L 263.829545 79.312393 
" clip-path="url(#p9223f8cb20)" style="fill: none; stroke: #de8f05; stroke-width: 2.25; stroke-linecap: round"/>
   </g>
   <g id="patch_3">
    <path d="M 50.775 245.592 
L 50.775 7.2 
" style="fill: none; stroke: #cccccc; stroke-width: 1.25; stroke-linejoin: miter; stroke-linecap: square"/>
   </g>
   <g id="patch_4">
    <path d="M 273.975 245.592 
L 273.975 7.2 
" style="fill: none; stroke: #cccccc; stroke-width: 1.25; stroke-linejoin: miter; stroke-linecap: square"/>
   </g>
   <g id="patch_5">
    <path d="M 50.775 245.592 
L 273.975 245.592 
" style="fill: none; stroke: #cccccc; stroke-width: 1.25; stroke-linejoin: miter; stroke-linecap: square"/>
   </g>
   <g id="patch_6">
    <path d="M 50.775 7.2 
L 273.975 7.2 
" style="fill: none; stroke: #cccccc; stroke-width: 1.25; stroke-linejoin: miter; stroke-linecap: square"/>
   </g>
  </g>
 </g>
 <defs>
  <clipPath id="p9223f8cb20">
   <rect x="50.775" y="7.2" width="223.2" height="238.392"/>
  </clipPath>
 </defs>
</svg>
