<?xml version="1.0" encoding="utf-8" standalone="no"?>
<!DOCTYPE svg PUBLIC "-//W3C//DTD SVG 1.1//EN"
  "http://www.w3.org/Graphics/SVG/1.1/DTD/svg11.dtd">
<svg xmlns:xlink="http://www.w3.org/1999/xlink" width="281.175pt" height="289.5195pt" viewBox="0 0 281.175 289.5195" xmlns="http://www.w3.org/2000/svg" version="1.1">
 <metadata>
  <rdf:RDF xmlns:dc="http://purl.org/dc/elements/1.1/" xmlns:cc="http://creativecommons.org/ns#" xmlns:rdf="http://www.w3.org/1999/02/22-rdf-syntax-ns#">
   <cc:Work>
    <dc:type rdf:resource="http://purl.org/dc/dcmitype/StillImage"/>
    <dc:date>2024-03-19T18:27:18.579966</dc:date>
    <dc:format>image/svg+xml</dc:format>
    <dc:creator>
     <cc:Agent>
      <dc:title>Matplotlib v3.8.2, https://matplotlib.org/</dc:title>
     </cc:Agent>
    </dc:creator>
   </cc:Work>
  </rdf:RDF>
 </metadata>
 <defs>
  <style type="text/css">*{stroke-linejoin: round; stroke-linecap: butt}</style>
 </defs>
 <g id="figure_1">
  <g id="patch_1">
   <path d="M 0 289.5195 
L 281.175 289.5195 
L 281.175 0 
L 0 0 
z
" style="fill: #ffffff"/>
  </g>
  <g id="axes_1">
   <g id="patch_2">
    <path d="M 50.775 245.592 
L 273.975 245.592 
L 273.975 7.2 
L 50.775 7.2 
z
" style="fill: #ffffff"/>
   </g>
   <g id="matplotlib.axis_1">
    <g id="xtick_1">
     <g id="line2d_1">
      <path d="M 105.172409 245.592 
L 105.172409 7.2 
" clip-path="url(#pa1fb2f5c73)" style="fill: none; stroke: #cccccc; stroke-linecap: round"/>
     </g>
     <g id="text_1">
      <!-- 1.0 -->
      <g style="fill: #262626" transform="translate(96.425691 263.450281) scale(0.11 -0.11)">
       <defs>
        <path id="DejaVuSans-31" d="M 794 531 
L 1825 531 
L 1825 4091 
L 703 3866 
L 703 4441 
L 1819 4666 
L 2450 4666 
L 2450 531 
L 3481 531 
L 3481 0 
L 794 0 
L 794 531 
z
" transform="scale(0.015625)"/>
        <path id="DejaVuSans-2e" d="M 684 794 
L 1344 794 
L 1344 0 
L 684 0 
L 684 794 
z
" transform="scale(0.015625)"/>
        <path id="DejaVuSans-30" d="M 2034 4250 
Q 1547 4250 1301 3770 
Q 1056 3291 1056 2328 
Q 1056 1369 1301 889 
Q 1547 409 2034 409 
Q 2525 409 2770 889 
Q 3016 1369 3016 2328 
Q 3016 3291 2770 3770 
Q 2525 4250 2034 4250 
z
M 2034 4750 
Q 2819 4750 3233 4129 
Q 3647 3509 3647 2328 
Q 3647 1150 3233 529 
Q 2819 -91 2034 -91 
Q 1250 -91 836 529 
Q 422 1150 422 2328 
Q 422 3509 836 4129 
Q 1250 4750 2034 4750 
z
" transform="scale(0.015625)"/>
       </defs>
       <use xlink:href="#DejaVuSans-31"/>
       <use xlink:href="#DejaVuSans-2e" x="63.623047"/>
       <use xlink:href="#DejaVuSans-30" x="95.410156"/>
      </g>
     </g>
    </g>
    <g id="xtick_2">
     <g id="line2d_2">
      <path d="M 171.29158 245.592 
L 171.29158 7.2 
" clip-path="url(#pa1fb2f5c73)" style="fill: none; stroke: #cccccc; stroke-linecap: round"/>
     </g>
     <g id="text_2">
      <!-- 1.5 -->
      <g style="fill: #262626" transform="translate(162.544862 263.450281) scale(0.11 -0.11)">
       <defs>
        <path id="DejaVuSans-35" d="M 691 4666 
L 3169 4666 
L 3169 4134 
L 1269 4134 
L 1269 2991 
Q 1406 3038 1543 3061 
Q 1681 3084 1819 3084 
Q 2600 3084 3056 2656 
Q 3513 2228 3513 1497 
Q 3513 744 3044 326 
Q 2575 -91 1722 -91 
Q 1428 -91 1123 -41 
Q 819 9 494 109 
L 494 744 
Q 775 591 1075 516 
Q 1375 441 1709 441 
Q 2250 441 2565 725 
Q 2881 1009 2881 1497 
Q 2881 1984 2565 2268 
Q 2250 2553 1709 2553 
Q 1456 2553 1204 2497 
Q 953 2441 691 2322 
L 691 4666 
z
" transform="scale(0.015625)"/>
       </defs>
       <use xlink:href="#DejaVuSans-31"/>
       <use xlink:href="#DejaVuSans-2e" x="63.623047"/>
       <use xlink:href="#DejaVuSans-35" x="95.410156"/>
      </g>
     </g>
    </g>
    <g id="xtick_3">
     <g id="line2d_3">
      <path d="M 237.410751 245.592 
L 237.410751 7.2 
" clip-path="url(#pa1fb2f5c73)" style="fill: none; stroke: #cccccc; stroke-linecap: round"/>
     </g>
     <g id="text_3">
      <!-- 2.0 -->
      <g style="fill: #262626" transform="translate(228.664033 263.450281) scale(0.11 -0.11)">
       <defs>
        <path id="DejaVuSans-32" d="M 1228 531 
L 3431 531 
L 3431 0 
L 469 0 
L 469 531 
Q 828 903 1448 1529 
Q 2069 2156 2228 2338 
Q 2531 2678 2651 2914 
Q 2772 3150 2772 3378 
Q 2772 3750 2511 3984 
Q 2250 4219 1831 4219 
Q 1534 4219 1204 4116 
Q 875 4013 500 3803 
L 500 4441 
Q 881 4594 1212 4672 
Q 1544 4750 1819 4750 
Q 2544 4750 2975 4387 
Q 3406 4025 3406 3419 
Q 3406 3131 3298 2873 
Q 3191 2616 2906 2266 
Q 2828 2175 2409 1742 
Q 1991 1309 1228 531 
z
" transform="scale(0.015625)"/>
       </defs>
       <use xlink:href="#DejaVuSans-32"/>
       <use xlink:href="#DejaVuSans-2e" x="63.623047"/>
       <use xlink:href="#DejaVuSans-30" x="95.410156"/>
      </g>
     </g>
    </g>
    <g id="text_4">
     <!-- distance to controls - real pert. -->
     <g style="fill: #262626" transform="translate(61.992656 279.615906) scale(0.13 -0.13)">
      <defs>
       <path id="DejaVuSans-64" d="M 2906 2969 
L 2906 4863 
L 3481 4863 
L 3481 0 
L 2906 0 
L 2906 525 
Q 2725 213 2448 61 
Q 2172 -91 1784 -91 
Q 1150 -91 751 415 
Q 353 922 353 1747 
Q 353 2572 751 3078 
Q 1150 3584 1784 3584 
Q 2172 3584 2448 3432 
Q 2725 3281 2906 2969 
z
M 947 1747 
Q 947 1113 1208 752 
Q 1469 391 1925 391 
Q 2381 391 2643 752 
Q 2906 1113 2906 1747 
Q 2906 2381 2643 2742 
Q 2381 3103 1925 3103 
Q 1469 3103 1208 2742 
Q 947 2381 947 1747 
z
" transform="scale(0.015625)"/>
       <path id="DejaVuSans-69" d="M 603 3500 
L 1178 3500 
L 1178 0 
L 603 0 
L 603 3500 
z
M 603 4863 
L 1178 4863 
L 1178 4134 
L 603 4134 
L 603 4863 
z
" transform="scale(0.015625)"/>
       <path id="DejaVuSans-73" d="M 2834 3397 
L 2834 2853 
Q 2591 2978 2328 3040 
Q 2066 3103 1784 3103 
Q 1356 3103 1142 2972 
Q 928 2841 928 2578 
Q 928 2378 1081 2264 
Q 1234 2150 1697 2047 
L 1894 2003 
Q 2506 1872 2764 1633 
Q 3022 1394 3022 966 
Q 3022 478 2636 193 
Q 2250 -91 1575 -91 
Q 1294 -91 989 -36 
Q 684 19 347 128 
L 347 722 
Q 666 556 975 473 
Q 1284 391 1588 391 
Q 1994 391 2212 530 
Q 2431 669 2431 922 
Q 2431 1156 2273 1281 
Q 2116 1406 1581 1522 
L 1381 1569 
Q 847 1681 609 1914 
Q 372 2147 372 2553 
Q 372 3047 722 3315 
Q 1072 3584 1716 3584 
Q 2034 3584 2315 3537 
Q 2597 3491 2834 3397 
z
" transform="scale(0.015625)"/>
       <path id="DejaVuSans-74" d="M 1172 4494 
L 1172 3500 
L 2356 3500 
L 2356 3053 
L 1172 3053 
L 1172 1153 
Q 1172 725 1289 603 
Q 1406 481 1766 481 
L 2356 481 
L 2356 0 
L 1766 0 
Q 1100 0 847 248 
Q 594 497 594 1153 
L 594 3053 
L 172 3053 
L 172 3500 
L 594 3500 
L 594 4494 
L 1172 4494 
z
" transform="scale(0.015625)"/>
       <path id="DejaVuSans-61" d="M 2194 1759 
Q 1497 1759 1228 1600 
Q 959 1441 959 1056 
Q 959 750 1161 570 
Q 1363 391 1709 391 
Q 2188 391 2477 730 
Q 2766 1069 2766 1631 
L 2766 1759 
L 2194 1759 
z
M 3341 1997 
L 3341 0 
L 2766 0 
L 2766 531 
Q 2569 213 2275 61 
Q 1981 -91 1556 -91 
Q 1019 -91 701 211 
Q 384 513 384 1019 
Q 384 1609 779 1909 
Q 1175 2209 1959 2209 
L 2766 2209 
L 2766 2266 
Q 2766 2663 2505 2880 
Q 2244 3097 1772 3097 
Q 1472 3097 1187 3025 
Q 903 2953 641 2809 
L 641 3341 
Q 956 3463 1253 3523 
Q 1550 3584 1831 3584 
Q 2591 3584 2966 3190 
Q 3341 2797 3341 1997 
z
" transform="scale(0.015625)"/>
       <path id="DejaVuSans-6e" d="M 3513 2113 
L 3513 0 
L 2938 0 
L 2938 2094 
Q 2938 2591 2744 2837 
Q 2550 3084 2163 3084 
Q 1697 3084 1428 2787 
Q 1159 2491 1159 1978 
L 1159 0 
L 581 0 
L 581 3500 
L 1159 3500 
L 1159 2956 
Q 1366 3272 1645 3428 
Q 1925 3584 2291 3584 
Q 2894 3584 3203 3211 
Q 3513 2838 3513 2113 
z
" transform="scale(0.015625)"/>
       <path id="DejaVuSans-63" d="M 3122 3366 
L 3122 2828 
Q 2878 2963 2633 3030 
Q 2388 3097 2138 3097 
Q 1578 3097 1268 2742 
Q 959 2388 959 1747 
Q 959 1106 1268 751 
Q 1578 397 2138 397 
Q 2388 397 2633 464 
Q 2878 531 3122 666 
L 3122 134 
Q 2881 22 2623 -34 
Q 2366 -91 2075 -91 
Q 1284 -91 818 406 
Q 353 903 353 1747 
Q 353 2603 823 3093 
Q 1294 3584 2113 3584 
Q 2378 3584 2631 3529 
Q 2884 3475 3122 3366 
z
" transform="scale(0.015625)"/>
       <path id="DejaVuSans-65" d="M 3597 1894 
L 3597 1613 
L 953 1613 
Q 991 1019 1311 708 
Q 1631 397 2203 397 
Q 2534 397 2845 478 
Q 3156 559 3463 722 
L 3463 178 
Q 3153 47 2828 -22 
Q 2503 -91 2169 -91 
Q 1331 -91 842 396 
Q 353 884 353 1716 
Q 353 2575 817 3079 
Q 1281 3584 2069 3584 
Q 2775 3584 3186 3129 
Q 3597 2675 3597 1894 
z
M 3022 2063 
Q 3016 2534 2758 2815 
Q 2500 3097 2075 3097 
Q 1594 3097 1305 2825 
Q 1016 2553 972 2059 
L 3022 2063 
z
" transform="scale(0.015625)"/>
       <path id="DejaVuSans-20" transform="scale(0.015625)"/>
       <path id="DejaVuSans-6f" d="M 1959 3097 
Q 1497 3097 1228 2736 
Q 959 2375 959 1747 
Q 959 1119 1226 758 
Q 1494 397 1959 397 
Q 2419 397 2687 759 
Q 2956 1122 2956 1747 
Q 2956 2369 2687 2733 
Q 2419 3097 1959 3097 
z
M 1959 3584 
Q 2709 3584 3137 3096 
Q 3566 2609 3566 1747 
Q 3566 888 3137 398 
Q 2709 -91 1959 -91 
Q 1206 -91 779 398 
Q 353 888 353 1747 
Q 353 2609 779 3096 
Q 1206 3584 1959 3584 
z
" transform="scale(0.015625)"/>
       <path id="DejaVuSans-72" d="M 2631 2963 
Q 2534 3019 2420 3045 
Q 2306 3072 2169 3072 
Q 1681 3072 1420 2755 
Q 1159 2438 1159 1844 
L 1159 0 
L 581 0 
L 581 3500 
L 1159 3500 
L 1159 2956 
Q 1341 3275 1631 3429 
Q 1922 3584 2338 3584 
Q 2397 3584 2469 3576 
Q 2541 3569 2628 3553 
L 2631 2963 
z
" transform="scale(0.015625)"/>
       <path id="DejaVuSans-6c" d="M 603 4863 
L 1178 4863 
L 1178 0 
L 603 0 
L 603 4863 
z
" transform="scale(0.015625)"/>
       <path id="DejaVuSans-2d" d="M 313 2009 
L 1997 2009 
L 1997 1497 
L 313 1497 
L 313 2009 
z
" transform="scale(0.015625)"/>
       <path id="DejaVuSans-70" d="M 1159 525 
L 1159 -1331 
L 581 -1331 
L 581 3500 
L 1159 3500 
L 1159 2969 
Q 1341 3281 1617 3432 
Q 1894 3584 2278 3584 
Q 2916 3584 3314 3078 
Q 3713 2572 3713 1747 
Q 3713 922 3314 415 
Q 2916 -91 2278 -91 
Q 1894 -91 1617 61 
Q 1341 213 1159 525 
z
M 3116 1747 
Q 3116 2381 2855 2742 
Q 2594 3103 2138 3103 
Q 1681 3103 1420 2742 
Q 1159 2381 1159 1747 
Q 1159 1113 1420 752 
Q 1681 391 2138 391 
Q 2594 391 2855 752 
Q 3116 1113 3116 1747 
z
" transform="scale(0.015625)"/>
      </defs>
      <use xlink:href="#DejaVuSans-64"/>
      <use xlink:href="#DejaVuSans-69" x="63.476562"/>
      <use xlink:href="#DejaVuSans-73" x="91.259766"/>
      <use xlink:href="#DejaVuSans-74" x="143.359375"/>
      <use xlink:href="#DejaVuSans-61" x="182.568359"/>
      <use xlink:href="#DejaVuSans-6e" x="243.847656"/>
      <use xlink:href="#DejaVuSans-63" x="307.226562"/>
      <use xlink:href="#DejaVuSans-65" x="362.207031"/>
      <use xlink:href="#DejaVuSans-20" x="423.730469"/>
      <use xlink:href="#DejaVuSans-74" x="455.517578"/>
      <use xlink:href="#DejaVuSans-6f" x="494.726562"/>
      <use xlink:href="#DejaVuSans-20" x="555.908203"/>
      <use xlink:href="#DejaVuSans-63" x="587.695312"/>
      <use xlink:href="#DejaVuSans-6f" x="642.675781"/>
      <use xlink:href="#DejaVuSans-6e" x="703.857422"/>
      <use xlink:href="#DejaVuSans-74" x="767.236328"/>
      <use xlink:href="#DejaVuSans-72" x="806.445312"/>
      <use xlink:href="#DejaVuSans-6f" x="845.308594"/>
      <use xlink:href="#DejaVuSans-6c" x="906.490234"/>
      <use xlink:href="#DejaVuSans-73" x="934.273438"/>
      <use xlink:href="#DejaVuSans-20" x="986.373047"/>
      <use xlink:href="#DejaVuSans-2d" x="1018.160156"/>
      <use xlink:href="#DejaVuSans-20" x="1054.244141"/>
      <use xlink:href="#DejaVuSans-72" x="1086.03125"/>
      <use xlink:href="#DejaVuSans-65" x="1124.894531"/>
      <use xlink:href="#DejaVuSans-61" x="1186.417969"/>
      <use xlink:href="#DejaVuSans-6c" x="1247.697266"/>
      <use xlink:href="#DejaVuSans-20" x="1275.480469"/>
      <use xlink:href="#DejaVuSans-70" x="1307.267578"/>
      <use xlink:href="#DejaVuSans-65" x="1370.744141"/>
      <use xlink:href="#DejaVuSans-72" x="1432.267578"/>
      <use xlink:href="#DejaVuSans-74" x="1473.380859"/>
      <use xlink:href="#DejaVuSans-2e" x="1512.589844"/>
     </g>
    </g>
   </g>
   <g id="matplotlib.axis_2">
    <g id="ytick_1">
     <g id="line2d_4">
      <path d="M 50.775 230.131993 
L 273.975 230.131993 
" clip-path="url(#pa1fb2f5c73)" style="fill: none; stroke: #cccccc; stroke-linecap: round"/>
     </g>
     <g id="text_5">
      <!-- 0.0 -->
      <g style="fill: #262626" transform="translate(23.781563 234.311134) scale(0.11 -0.11)">
       <use xlink:href="#DejaVuSans-30"/>
       <use xlink:href="#DejaVuSans-2e" x="63.623047"/>
       <use xlink:href="#DejaVuSans-30" x="95.410156"/>
      </g>
     </g>
    </g>
    <g id="ytick_2">
     <g id="line2d_5">
      <path d="M 50.775 198.125405 
L 273.975 198.125405 
" clip-path="url(#pa1fb2f5c73)" style="fill: none; stroke: #cccccc; stroke-linecap: round"/>
     </g>
     <g id="text_6">
      <!-- 0.5 -->
      <g style="fill: #262626" transform="translate(23.781563 202.304546) scale(0.11 -0.11)">
       <use xlink:href="#DejaVuSans-30"/>
       <use xlink:href="#DejaVuSans-2e" x="63.623047"/>
       <use xlink:href="#DejaVuSans-35" x="95.410156"/>
      </g>
     </g>
    </g>
    <g id="ytick_3">
     <g id="line2d_6">
      <path d="M 50.775 166.118817 
L 273.975 166.118817 
" clip-path="url(#pa1fb2f5c73)" style="fill: none; stroke: #cccccc; stroke-linecap: round"/>
     </g>
     <g id="text_7">
      <!-- 1.0 -->
      <g style="fill: #262626" transform="translate(23.781563 170.297958) scale(0.11 -0.11)">
       <use xlink:href="#DejaVuSans-31"/>
       <use xlink:href="#DejaVuSans-2e" x="63.623047"/>
       <use xlink:href="#DejaVuSans-30" x="95.410156"/>
      </g>
     </g>
    </g>
    <g id="ytick_4">
     <g id="line2d_7">
      <path d="M 50.775 134.112229 
L 273.975 134.112229 
" clip-path="url(#pa1fb2f5c73)" style="fill: none; stroke: #cccccc; stroke-linecap: round"/>
     </g>
     <g id="text_8">
      <!-- 1.5 -->
      <g style="fill: #262626" transform="translate(23.781563 138.29137) scale(0.11 -0.11)">
       <use xlink:href="#DejaVuSans-31"/>
       <use xlink:href="#DejaVuSans-2e" x="63.623047"/>
       <use xlink:href="#DejaVuSans-35" x="95.410156"/>
      </g>
     </g>
    </g>
    <g id="ytick_5">
     <g id="line2d_8">
      <path d="M 50.775 102.105641 
L 273.975 102.105641 
" clip-path="url(#pa1fb2f5c73)" style="fill: none; stroke: #cccccc; stroke-linecap: round"/>
     </g>
     <g id="text_9">
      <!-- 2.0 -->
      <g style="fill: #262626" transform="translate(23.781563 106.284782) scale(0.11 -0.11)">
       <use xlink:href="#DejaVuSans-32"/>
       <use xlink:href="#DejaVuSans-2e" x="63.623047"/>
       <use xlink:href="#DejaVuSans-30" x="95.410156"/>
      </g>
     </g>
    </g>
    <g id="ytick_6">
     <g id="line2d_9">
      <path d="M 50.775 70.099053 
L 273.975 70.099053 
" clip-path="url(#pa1fb2f5c73)" style="fill: none; stroke: #cccccc; stroke-linecap: round"/>
     </g>
     <g id="text_10">
      <!-- 2.5 -->
      <g style="fill: #262626" transform="translate(23.781563 74.278194) scale(0.11 -0.11)">
       <use xlink:href="#DejaVuSans-32"/>
       <use xlink:href="#DejaVuSans-2e" x="63.623047"/>
       <use xlink:href="#DejaVuSans-35" x="95.410156"/>
      </g>
     </g>
    </g>
    <g id="ytick_7">
     <g id="line2d_10">
      <path d="M 50.775 38.092465 
L 273.975 38.092465 
" clip-path="url(#pa1fb2f5c73)" style="fill: none; stroke: #cccccc; stroke-linecap: round"/>
     </g>
     <g id="text_11">
      <!-- 3.0 -->
      <g style="fill: #262626" transform="translate(23.781563 42.271606) scale(0.11 -0.11)">
       <defs>
        <path id="DejaVuSans-33" d="M 2597 2516 
Q 3050 2419 3304 2112 
Q 3559 1806 3559 1356 
Q 3559 666 3084 287 
Q 2609 -91 1734 -91 
Q 1441 -91 1130 -33 
Q 819 25 488 141 
L 488 750 
Q 750 597 1062 519 
Q 1375 441 1716 441 
Q 2309 441 2620 675 
Q 2931 909 2931 1356 
Q 2931 1769 2642 2001 
Q 2353 2234 1838 2234 
L 1294 2234 
L 1294 2753 
L 1863 2753 
Q 2328 2753 2575 2939 
Q 2822 3125 2822 3475 
Q 2822 3834 2567 4026 
Q 2313 4219 1838 4219 
Q 1578 4219 1281 4162 
Q 984 4106 628 3988 
L 628 4550 
Q 988 4650 1302 4700 
Q 1616 4750 1894 4750 
Q 2613 4750 3031 4423 
Q 3450 4097 3450 3541 
Q 3450 3153 3228 2886 
Q 3006 2619 2597 2516 
z
" transform="scale(0.015625)"/>
       </defs>
       <use xlink:href="#DejaVuSans-33"/>
       <use xlink:href="#DejaVuSans-2e" x="63.623047"/>
       <use xlink:href="#DejaVuSans-30" x="95.410156"/>
      </g>
     </g>
    </g>
    <g id="text_12">
     <!-- distance to controls - generated pert. -->
     <g style="fill: #262626" transform="translate(17.077969 248.038422) rotate(-90) scale(0.13 -0.13)">
      <defs>
       <path id="DejaVuSans-67" d="M 2906 1791 
Q 2906 2416 2648 2759 
Q 2391 3103 1925 3103 
Q 1463 3103 1205 2759 
Q 947 2416 947 1791 
Q 947 1169 1205 825 
Q 1463 481 1925 481 
Q 2391 481 2648 825 
Q 2906 1169 2906 1791 
z
M 3481 434 
Q 3481 -459 3084 -895 
Q 2688 -1331 1869 -1331 
Q 1566 -1331 1297 -1286 
Q 1028 -1241 775 -1147 
L 775 -588 
Q 1028 -725 1275 -790 
Q 1522 -856 1778 -856 
Q 2344 -856 2625 -561 
Q 2906 -266 2906 331 
L 2906 616 
Q 2728 306 2450 153 
Q 2172 0 1784 0 
Q 1141 0 747 490 
Q 353 981 353 1791 
Q 353 2603 747 3093 
Q 1141 3584 1784 3584 
Q 2172 3584 2450 3431 
Q 2728 3278 2906 2969 
L 2906 3500 
L 3481 3500 
L 3481 434 
z
" transform="scale(0.015625)"/>
      </defs>
      <use xlink:href="#DejaVuSans-64"/>
      <use xlink:href="#DejaVuSans-69" x="63.476562"/>
      <use xlink:href="#DejaVuSans-73" x="91.259766"/>
      <use xlink:href="#DejaVuSans-74" x="143.359375"/>
      <use xlink:href="#DejaVuSans-61" x="182.568359"/>
      <use xlink:href="#DejaVuSans-6e" x="243.847656"/>
      <use xlink:href="#DejaVuSans-63" x="307.226562"/>
      <use xlink:href="#DejaVuSans-65" x="362.207031"/>
      <use xlink:href="#DejaVuSans-20" x="423.730469"/>
      <use xlink:href="#DejaVuSans-74" x="455.517578"/>
      <use xlink:href="#DejaVuSans-6f" x="494.726562"/>
      <use xlink:href="#DejaVuSans-20" x="555.908203"/>
      <use xlink:href="#DejaVuSans-63" x="587.695312"/>
      <use xlink:href="#DejaVuSans-6f" x="642.675781"/>
      <use xlink:href="#DejaVuSans-6e" x="703.857422"/>
      <use xlink:href="#DejaVuSans-74" x="767.236328"/>
      <use xlink:href="#DejaVuSans-72" x="806.445312"/>
      <use xlink:href="#DejaVuSans-6f" x="845.308594"/>
      <use xlink:href="#DejaVuSans-6c" x="906.490234"/>
      <use xlink:href="#DejaVuSans-73" x="934.273438"/>
      <use xlink:href="#DejaVuSans-20" x="986.373047"/>
      <use xlink:href="#DejaVuSans-2d" x="1018.160156"/>
      <use xlink:href="#DejaVuSans-20" x="1054.244141"/>
      <use xlink:href="#DejaVuSans-67" x="1086.03125"/>
      <use xlink:href="#DejaVuSans-65" x="1149.507812"/>
      <use xlink:href="#DejaVuSans-6e" x="1211.03125"/>
      <use xlink:href="#DejaVuSans-65" x="1274.410156"/>
      <use xlink:href="#DejaVuSans-72" x="1335.933594"/>
      <use xlink:href="#DejaVuSans-61" x="1377.046875"/>
      <use xlink:href="#DejaVuSans-74" x="1438.326172"/>
      <use xlink:href="#DejaVuSans-65" x="1477.535156"/>
      <use xlink:href="#DejaVuSans-64" x="1539.058594"/>
      <use xlink:href="#DejaVuSans-20" x="1602.535156"/>
      <use xlink:href="#DejaVuSans-70" x="1634.322266"/>
      <use xlink:href="#DejaVuSans-65" x="1697.798828"/>
      <use xlink:href="#DejaVuSans-72" x="1759.322266"/>
      <use xlink:href="#DejaVuSans-74" x="1800.435547"/>
      <use xlink:href="#DejaVuSans-2e" x="1839.644531"/>
     </g>
    </g>
   </g>
   <g id="PathCollection_1">
    <defs>
     <path id="mb942cfdfb6" d="M 0 5 
C 1.326016 5 2.597899 4.473168 3.535534 3.535534 
C 4.473168 2.597899 5 1.326016 5 0 
C 5 -1.326016 4.473168 -2.597899 3.535534 -3.535534 
C 2.597899 -4.473168 1.326016 -5 0 -5 
C -1.326016 -5 -2.597899 -4.473168 -3.535534 -3.535534 
C -4.473168 -2.597899 -5 -1.326016 -5 0 
C -5 1.326016 -4.473168 2.597899 -3.535534 3.535534 
C -2.597899 4.473168 -1.326016 5 0 5 
z
" style="stroke: #de8f05; stroke-opacity: 0.8"/>
    </defs>
    <g clip-path="url(#pa1fb2f5c73)">
     <use xlink:href="#mb942cfdfb6" x="263.829545" y="76.104759" style="fill: #de8f05; fill-opacity: 0.8; stroke: #de8f05; stroke-opacity: 0.8"/>
     <use xlink:href="#mb942cfdfb6" x="100.851925" y="187.722875" style="fill: #de8f05; fill-opacity: 0.8; stroke: #de8f05; stroke-opacity: 0.8"/>
     <use xlink:href="#mb942cfdfb6" x="60.920455" y="185.184718" style="fill: #de8f05; fill-opacity: 0.8; stroke: #de8f05; stroke-opacity: 0.8"/>
     <use xlink:href="#mb942cfdfb6" x="163.110704" y="187.838689" style="fill: #de8f05; fill-opacity: 0.8; stroke: #de8f05; stroke-opacity: 0.8"/>
     <use xlink:href="#mb942cfdfb6" x="162.759627" y="86.645964" style="fill: #de8f05; fill-opacity: 0.8; stroke: #de8f05; stroke-opacity: 0.8"/>
     <use xlink:href="#mb942cfdfb6" x="77.625772" y="181.574869" style="fill: #de8f05; fill-opacity: 0.8; stroke: #de8f05; stroke-opacity: 0.8"/>
     <use xlink:href="#mb942cfdfb6" x="141.991195" y="176.193614" style="fill: #de8f05; fill-opacity: 0.8; stroke: #de8f05; stroke-opacity: 0.8"/>
     <use xlink:href="#mb942cfdfb6" x="201.862444" y="82.337568" style="fill: #de8f05; fill-opacity: 0.8; stroke: #de8f05; stroke-opacity: 0.8"/>
     <use xlink:href="#mb942cfdfb6" x="180.848243" y="85.892461" style="fill: #de8f05; fill-opacity: 0.8; stroke: #de8f05; stroke-opacity: 0.8"/>
     <use xlink:href="#mb942cfdfb6" x="199.199846" y="191.699077" style="fill: #de8f05; fill-opacity: 0.8; stroke: #de8f05; stroke-opacity: 0.8"/>
     <use xlink:href="#mb942cfdfb6" x="196.09437" y="72.054972" style="fill: #de8f05; fill-opacity: 0.8; stroke: #de8f05; stroke-opacity: 0.8"/>
    </g>
   </g>
   <g id="PolyCollection_1">
    <defs>
     <path id="m6788fc32cf" d="M 60.920455 -114.937755 
L 60.920455 -54.7635 
L 62.970041 -56.605125 
L 65.019628 -58.529002 
L 67.069215 -60.452879 
L 69.118802 -62.389446 
L 71.168388 -64.28756 
L 73.217975 -66.263574 
L 75.267562 -67.873333 
L 77.317149 -70.078936 
L 79.366736 -71.337466 
L 81.416322 -72.57797 
L 83.465909 -74.551569 
L 85.515496 -76.008481 
L 87.565083 -77.465393 
L 89.614669 -78.922304 
L 91.664256 -80.379216 
L 93.713843 -81.885535 
L 95.76343 -83.824391 
L 97.813017 -85.82862 
L 99.862603 -87.475929 
L 101.91219 -88.87864 
L 103.961777 -90.327576 
L 106.011364 -92.51779 
L 108.06095 -94.078528 
L 110.110537 -95.496038 
L 112.160124 -97.241799 
L 114.209711 -99.157402 
L 116.259298 -101.135939 
L 118.308884 -102.47547 
L 120.358471 -104.123523 
L 122.408058 -105.717698 
L 124.457645 -106.684625 
L 126.507231 -107.965175 
L 128.556818 -109.43038 
L 130.606405 -110.893 
L 132.655992 -111.913779 
L 134.705579 -113.346402 
L 136.755165 -114.583846 
L 138.804752 -116.253148 
L 140.854339 -117.462911 
L 142.903926 -118.516422 
L 144.953512 -119.481072 
L 147.003099 -120.47109 
L 149.052686 -121.747614 
L 151.102273 -122.596729 
L 153.15186 -123.675926 
L 155.201446 -124.211026 
L 157.251033 -125.382709 
L 159.30062 -126.344433 
L 161.350207 -127.117116 
L 163.399793 -127.749095 
L 165.44938 -128.366036 
L 167.498967 -129.127303 
L 169.548554 -130.324241 
L 171.59814 -131.043054 
L 173.647727 -131.854012 
L 175.697314 -132.554812 
L 177.746901 -133.261845 
L 179.796488 -133.946875 
L 181.846074 -134.41567 
L 183.895661 -135.065665 
L 185.945248 -135.804269 
L 187.994835 -136.611967 
L 190.044421 -137.415605 
L 192.094008 -138.048209 
L 194.143595 -138.788984 
L 196.193182 -139.529759 
L 198.242769 -140.270534 
L 200.292355 -141.011309 
L 202.341942 -141.74625 
L 204.391529 -142.451089 
L 206.441116 -143.155927 
L 208.490702 -143.860766 
L 210.540289 -144.565605 
L 212.589876 -145.270444 
L 214.639463 -145.975282 
L 216.68905 -146.577793 
L 218.738636 -147.169506 
L 220.788223 -147.76122 
L 222.83781 -148.352934 
L 224.887397 -148.944648 
L 226.936983 -149.536362 
L 228.98657 -150.130897 
L 231.036157 -150.725541 
L 233.085744 -151.320184 
L 235.135331 -151.914828 
L 237.184917 -152.509472 
L 239.234504 -153.104115 
L 241.284091 -153.698759 
L 243.333678 -154.293402 
L 245.383264 -154.888046 
L 247.432851 -155.482689 
L 249.482438 -156.077333 
L 251.532025 -156.671977 
L 253.581612 -157.26662 
L 255.631198 -157.912212 
L 257.680785 -158.615673 
L 259.730372 -159.319134 
L 261.779959 -160.022594 
L 263.829545 -160.659544 
L 263.829545 -271.4835 
L 263.829545 -271.4835 
L 261.779959 -269.332647 
L 259.730372 -267.231959 
L 257.680785 -265.530719 
L 255.631198 -263.576641 
L 253.581612 -261.365411 
L 251.532025 -259.142971 
L 249.482438 -257.156908 
L 247.432851 -255.258148 
L 245.383264 -253.359388 
L 243.333678 -251.260532 
L 241.284091 -249.296811 
L 239.234504 -247.27299 
L 237.184917 -245.381034 
L 235.135331 -243.487094 
L 233.085744 -241.592146 
L 231.036157 -239.697198 
L 228.98657 -237.80225 
L 226.936983 -236.018931 
L 224.887397 -234.282924 
L 222.83781 -232.546918 
L 220.788223 -230.660429 
L 218.738636 -228.764857 
L 216.68905 -226.997303 
L 214.639463 -225.273965 
L 212.589876 -223.491239 
L 210.540289 -221.209469 
L 208.490702 -219.177969 
L 206.441116 -216.928026 
L 204.391529 -214.560818 
L 202.341942 -212.207905 
L 200.292355 -210.511651 
L 198.242769 -209.223794 
L 196.193182 -207.472711 
L 194.143595 -205.579987 
L 192.094008 -203.587452 
L 190.044421 -201.481424 
L 187.994835 -199.529671 
L 185.945248 -197.995844 
L 183.895661 -196.105704 
L 181.846074 -194.206717 
L 179.796488 -192.283403 
L 177.746901 -190.41796 
L 175.697314 -188.67991 
L 173.647727 -186.748692 
L 171.59814 -185.068531 
L 169.548554 -183.36989 
L 167.498967 -181.599375 
L 165.44938 -180.049258 
L 163.399793 -178.499141 
L 161.350207 -176.901394 
L 159.30062 -175.385722 
L 157.251033 -173.844152 
L 155.201446 -172.360406 
L 153.15186 -171.013427 
L 151.102273 -169.372981 
L 149.052686 -167.814572 
L 147.003099 -166.218766 
L 144.953512 -164.782852 
L 142.903926 -163.000854 
L 140.854339 -161.754945 
L 138.804752 -160.240676 
L 136.755165 -158.723906 
L 134.705579 -157.209511 
L 132.655992 -155.792664 
L 130.606405 -154.406349 
L 128.556818 -152.90953 
L 126.507231 -151.553323 
L 124.457645 -150.228224 
L 122.408058 -148.998266 
L 120.358471 -147.742394 
L 118.308884 -146.534693 
L 116.259298 -145.22302 
L 114.209711 -143.958565 
L 112.160124 -142.609182 
L 110.110537 -141.438235 
L 108.06095 -139.796682 
L 106.011364 -138.57583 
L 103.961777 -137.306397 
L 101.91219 -136.236072 
L 99.862603 -135.157968 
L 97.813017 -134.101735 
L 95.76343 -133.03713 
L 93.713843 -131.972525 
L 91.664256 -130.876731 
L 89.614669 -129.647326 
L 87.565083 -128.410818 
L 85.515496 -127.179718 
L 83.465909 -125.965923 
L 81.416322 -124.842918 
L 79.366736 -123.719913 
L 77.317149 -122.622909 
L 75.267562 -122.324293 
L 73.217975 -121.290161 
L 71.168388 -120.110475 
L 69.118802 -118.930789 
L 67.069215 -117.751103 
L 65.019628 -117.060149 
L 62.970041 -116.003446 
L 60.920455 -114.937755 
z
" style="stroke: #ffffff; stroke-opacity: 0.15"/>
    </defs>
    <g clip-path="url(#pa1fb2f5c73)">
     <use xlink:href="#m6788fc32cf" x="0" y="289.5195" style="fill: #de8f05; fill-opacity: 0.15; stroke: #ffffff; stroke-opacity: 0.15"/>
    </g>
   </g>
   <g id="line2d_11">
    <path d="M 60.920455 197.12428 
L 62.970041 195.879833 
L 65.019628 194.635386 
L 67.069215 193.390938 
L 69.118802 192.146491 
L 71.168388 190.902044 
L 73.217975 189.657597 
L 75.267562 188.413149 
L 77.317149 187.168702 
L 79.366736 185.924255 
L 81.416322 184.679807 
L 83.465909 183.43536 
L 85.515496 182.190913 
L 87.565083 180.946466 
L 89.614669 179.702018 
L 91.664256 178.457571 
L 93.713843 177.213124 
L 95.76343 175.968676 
L 97.813017 174.724229 
L 99.862603 173.479782 
L 101.91219 172.235335 
L 103.961777 170.990887 
L 106.011364 169.74644 
L 108.06095 168.501993 
L 110.110537 167.257545 
L 112.160124 166.013098 
L 114.209711 164.768651 
L 116.259298 163.524204 
L 118.308884 162.279756 
L 120.358471 161.035309 
L 122.408058 159.790862 
L 124.457645 158.546414 
L 126.507231 157.301967 
L 128.556818 156.05752 
L 130.606405 154.813073 
L 132.655992 153.568625 
L 134.705579 152.324178 
L 136.755165 151.079731 
L 138.804752 149.835283 
L 140.854339 148.590836 
L 142.903926 147.346389 
L 144.953512 146.101942 
L 147.003099 144.857494 
L 149.052686 143.613047 
L 151.102273 142.3686 
L 153.15186 141.124152 
L 155.201446 139.879705 
L 157.251033 138.635258 
L 159.30062 137.39081 
L 161.350207 136.146363 
L 163.399793 134.901916 
L 165.44938 133.657469 
L 167.498967 132.413021 
L 169.548554 131.168574 
L 171.59814 129.924127 
L 173.647727 128.679679 
L 175.697314 127.435232 
L 177.746901 126.190785 
L 179.796488 124.946338 
L 181.846074 123.70189 
L 183.895661 122.457443 
L 185.945248 121.212996 
L 187.994835 119.968548 
L 190.044421 118.724101 
L 192.094008 117.479654 
L 194.143595 116.235207 
L 196.193182 114.990759 
L 198.242769 113.746312 
L 200.292355 112.501865 
L 202.341942 111.257417 
L 204.391529 110.01297 
L 206.441116 108.768523 
L 208.490702 107.524076 
L 210.540289 106.279628 
L 212.589876 105.035181 
L 214.639463 103.790734 
L 216.68905 102.546286 
L 218.738636 101.301839 
L 220.788223 100.057392 
L 222.83781 98.812945 
L 224.887397 97.568497 
L 226.936983 96.32405 
L 228.98657 95.079603 
L 231.036157 93.835155 
L 233.085744 92.590708 
L 235.135331 91.346261 
L 237.184917 90.101814 
L 239.234504 88.857366 
L 241.284091 87.612919 
L 243.333678 86.368472 
L 245.383264 85.124024 
L 247.432851 83.879577 
L 249.482438 82.63513 
L 251.532025 81.390683 
L 253.581612 80.146235 
L 255.631198 78.901788 
L 257.680785 77.657341 
L 259.730372 76.412893 
L 261.779959 75.168446 
L 263.829545 73.923999 
" clip-path="url(#pa1fb2f5c73)" style="fill: none; stroke: #de8f05; stroke-width: 2.25; stroke-linecap: round"/>
   </g>
   <g id="patch_3">
    <path d="M 50.775 245.592 
L 50.775 7.2 
" style="fill: none; stroke: #cccccc; stroke-width: 1.25; stroke-linejoin: miter; stroke-linecap: square"/>
   </g>
   <g id="patch_4">
    <path d="M 273.975 245.592 
L 273.975 7.2 
" style="fill: none; stroke: #cccccc; stroke-width: 1.25; stroke-linejoin: miter; stroke-linecap: square"/>
   </g>
   <g id="patch_5">
    <path d="M 50.775 245.592 
L 273.975 245.592 
" style="fill: none; stroke: #cccccc; stroke-width: 1.25; stroke-linejoin: miter; stroke-linecap: square"/>
   </g>
   <g id="patch_6">
    <path d="M 50.775 7.2 
L 273.975 7.2 
" style="fill: none; stroke: #cccccc; stroke-width: 1.25; stroke-linejoin: miter; stroke-linecap: square"/>
   </g>
  </g>
 </g>
 <defs>
  <clipPath id="pa1fb2f5c73">
   <rect x="50.775" y="7.2" width="223.2" height="238.392"/>
  </clipPath>
 </defs>
</svg>
