<?xml version="1.0" encoding="utf-8" standalone="no"?>
<!DOCTYPE svg PUBLIC "-//W3C//DTD SVG 1.1//EN"
  "http://www.w3.org/Graphics/SVG/1.1/DTD/svg11.dtd">
<svg xmlns:xlink="http://www.w3.org/1999/xlink" width="288.17375pt" height="289.5195pt" viewBox="0 0 288.17375 289.5195" xmlns="http://www.w3.org/2000/svg" version="1.1">
 <metadata>
  <rdf:RDF xmlns:dc="http://purl.org/dc/elements/1.1/" xmlns:cc="http://creativecommons.org/ns#" xmlns:rdf="http://www.w3.org/1999/02/22-rdf-syntax-ns#">
   <cc:Work>
    <dc:type rdf:resource="http://purl.org/dc/dcmitype/StillImage"/>
    <dc:date>2024-03-19T18:27:19.339399</dc:date>
    <dc:format>image/svg+xml</dc:format>
    <dc:creator>
     <cc:Agent>
      <dc:title>Matplotlib v3.8.2, https://matplotlib.org/</dc:title>
     </cc:Agent>
    </dc:creator>
   </cc:Work>
  </rdf:RDF>
 </metadata>
 <defs>
  <style type="text/css">*{stroke-linejoin: round; stroke-linecap: butt}</style>
 </defs>
 <g id="figure_1">
  <g id="patch_1">
   <path d="M 0 289.5195 
L 288.17375 289.5195 
L 288.17375 0 
L 0 0 
z
" style="fill: #ffffff"/>
  </g>
  <g id="axes_1">
   <g id="patch_2">
    <path d="M 57.77375 245.592 
L 280.97375 245.592 
L 280.97375 7.2 
L 57.77375 7.2 
z
" style="fill: #ffffff"/>
   </g>
   <g id="matplotlib.axis_1">
    <g id="xtick_1">
     <g id="line2d_1">
      <path d="M 84.866982 245.592 
L 84.866982 7.2 
" clip-path="url(#p3327f27897)" style="fill: none; stroke: #cccccc; stroke-linecap: round"/>
     </g>
     <g id="text_1">
      <!-- 0.55 -->
      <g style="fill: #262626" transform="translate(72.620888 263.450281) scale(0.11 -0.11)">
       <defs>
        <path id="DejaVuSans-30" d="M 2034 4250 
Q 1547 4250 1301 3770 
Q 1056 3291 1056 2328 
Q 1056 1369 1301 889 
Q 1547 409 2034 409 
Q 2525 409 2770 889 
Q 3016 1369 3016 2328 
Q 3016 3291 2770 3770 
Q 2525 4250 2034 4250 
z
M 2034 4750 
Q 2819 4750 3233 4129 
Q 3647 3509 3647 2328 
Q 3647 1150 3233 529 
Q 2819 -91 2034 -91 
Q 1250 -91 836 529 
Q 422 1150 422 2328 
Q 422 3509 836 4129 
Q 1250 4750 2034 4750 
z
" transform="scale(0.015625)"/>
        <path id="DejaVuSans-2e" d="M 684 794 
L 1344 794 
L 1344 0 
L 684 0 
L 684 794 
z
" transform="scale(0.015625)"/>
        <path id="DejaVuSans-35" d="M 691 4666 
L 3169 4666 
L 3169 4134 
L 1269 4134 
L 1269 2991 
Q 1406 3038 1543 3061 
Q 1681 3084 1819 3084 
Q 2600 3084 3056 2656 
Q 3513 2228 3513 1497 
Q 3513 744 3044 326 
Q 2575 -91 1722 -91 
Q 1428 -91 1123 -41 
Q 819 9 494 109 
L 494 744 
Q 775 591 1075 516 
Q 1375 441 1709 441 
Q 2250 441 2565 725 
Q 2881 1009 2881 1497 
Q 2881 1984 2565 2268 
Q 2250 2553 1709 2553 
Q 1456 2553 1204 2497 
Q 953 2441 691 2322 
L 691 4666 
z
" transform="scale(0.015625)"/>
       </defs>
       <use xlink:href="#DejaVuSans-30"/>
       <use xlink:href="#DejaVuSans-2e" x="63.623047"/>
       <use xlink:href="#DejaVuSans-35" x="95.410156"/>
       <use xlink:href="#DejaVuSans-35" x="159.033203"/>
      </g>
     </g>
    </g>
    <g id="xtick_2">
     <g id="line2d_2">
      <path d="M 152.089617 245.592 
L 152.089617 7.2 
" clip-path="url(#p3327f27897)" style="fill: none; stroke: #cccccc; stroke-linecap: round"/>
     </g>
     <g id="text_2">
      <!-- 0.60 -->
      <g style="fill: #262626" transform="translate(139.843523 263.450281) scale(0.11 -0.11)">
       <defs>
        <path id="DejaVuSans-36" d="M 2113 2584 
Q 1688 2584 1439 2293 
Q 1191 2003 1191 1497 
Q 1191 994 1439 701 
Q 1688 409 2113 409 
Q 2538 409 2786 701 
Q 3034 994 3034 1497 
Q 3034 2003 2786 2293 
Q 2538 2584 2113 2584 
z
M 3366 4563 
L 3366 3988 
Q 3128 4100 2886 4159 
Q 2644 4219 2406 4219 
Q 1781 4219 1451 3797 
Q 1122 3375 1075 2522 
Q 1259 2794 1537 2939 
Q 1816 3084 2150 3084 
Q 2853 3084 3261 2657 
Q 3669 2231 3669 1497 
Q 3669 778 3244 343 
Q 2819 -91 2113 -91 
Q 1303 -91 875 529 
Q 447 1150 447 2328 
Q 447 3434 972 4092 
Q 1497 4750 2381 4750 
Q 2619 4750 2861 4703 
Q 3103 4656 3366 4563 
z
" transform="scale(0.015625)"/>
       </defs>
       <use xlink:href="#DejaVuSans-30"/>
       <use xlink:href="#DejaVuSans-2e" x="63.623047"/>
       <use xlink:href="#DejaVuSans-36" x="95.410156"/>
       <use xlink:href="#DejaVuSans-30" x="159.033203"/>
      </g>
     </g>
    </g>
    <g id="xtick_3">
     <g id="line2d_3">
      <path d="M 219.312252 245.592 
L 219.312252 7.2 
" clip-path="url(#p3327f27897)" style="fill: none; stroke: #cccccc; stroke-linecap: round"/>
     </g>
     <g id="text_3">
      <!-- 0.65 -->
      <g style="fill: #262626" transform="translate(207.066159 263.450281) scale(0.11 -0.11)">
       <use xlink:href="#DejaVuSans-30"/>
       <use xlink:href="#DejaVuSans-2e" x="63.623047"/>
       <use xlink:href="#DejaVuSans-36" x="95.410156"/>
       <use xlink:href="#DejaVuSans-35" x="159.033203"/>
      </g>
     </g>
    </g>
    <g id="text_4">
     <!-- distance to controls - real pert. -->
     <g style="fill: #262626" transform="translate(68.991406 279.615906) scale(0.13 -0.13)">
      <defs>
       <path id="DejaVuSans-64" d="M 2906 2969 
L 2906 4863 
L 3481 4863 
L 3481 0 
L 2906 0 
L 2906 525 
Q 2725 213 2448 61 
Q 2172 -91 1784 -91 
Q 1150 -91 751 415 
Q 353 922 353 1747 
Q 353 2572 751 3078 
Q 1150 3584 1784 3584 
Q 2172 3584 2448 3432 
Q 2725 3281 2906 2969 
z
M 947 1747 
Q 947 1113 1208 752 
Q 1469 391 1925 391 
Q 2381 391 2643 752 
Q 2906 1113 2906 1747 
Q 2906 2381 2643 2742 
Q 2381 3103 1925 3103 
Q 1469 3103 1208 2742 
Q 947 2381 947 1747 
z
" transform="scale(0.015625)"/>
       <path id="DejaVuSans-69" d="M 603 3500 
L 1178 3500 
L 1178 0 
L 603 0 
L 603 3500 
z
M 603 4863 
L 1178 4863 
L 1178 4134 
L 603 4134 
L 603 4863 
z
" transform="scale(0.015625)"/>
       <path id="DejaVuSans-73" d="M 2834 3397 
L 2834 2853 
Q 2591 2978 2328 3040 
Q 2066 3103 1784 3103 
Q 1356 3103 1142 2972 
Q 928 2841 928 2578 
Q 928 2378 1081 2264 
Q 1234 2150 1697 2047 
L 1894 2003 
Q 2506 1872 2764 1633 
Q 3022 1394 3022 966 
Q 3022 478 2636 193 
Q 2250 -91 1575 -91 
Q 1294 -91 989 -36 
Q 684 19 347 128 
L 347 722 
Q 666 556 975 473 
Q 1284 391 1588 391 
Q 1994 391 2212 530 
Q 2431 669 2431 922 
Q 2431 1156 2273 1281 
Q 2116 1406 1581 1522 
L 1381 1569 
Q 847 1681 609 1914 
Q 372 2147 372 2553 
Q 372 3047 722 3315 
Q 1072 3584 1716 3584 
Q 2034 3584 2315 3537 
Q 2597 3491 2834 3397 
z
" transform="scale(0.015625)"/>
       <path id="DejaVuSans-74" d="M 1172 4494 
L 1172 3500 
L 2356 3500 
L 2356 3053 
L 1172 3053 
L 1172 1153 
Q 1172 725 1289 603 
Q 1406 481 1766 481 
L 2356 481 
L 2356 0 
L 1766 0 
Q 1100 0 847 248 
Q 594 497 594 1153 
L 594 3053 
L 172 3053 
L 172 3500 
L 594 3500 
L 594 4494 
L 1172 4494 
z
" transform="scale(0.015625)"/>
       <path id="DejaVuSans-61" d="M 2194 1759 
Q 1497 1759 1228 1600 
Q 959 1441 959 1056 
Q 959 750 1161 570 
Q 1363 391 1709 391 
Q 2188 391 2477 730 
Q 2766 1069 2766 1631 
L 2766 1759 
L 2194 1759 
z
M 3341 1997 
L 3341 0 
L 2766 0 
L 2766 531 
Q 2569 213 2275 61 
Q 1981 -91 1556 -91 
Q 1019 -91 701 211 
Q 384 513 384 1019 
Q 384 1609 779 1909 
Q 1175 2209 1959 2209 
L 2766 2209 
L 2766 2266 
Q 2766 2663 2505 2880 
Q 2244 3097 1772 3097 
Q 1472 3097 1187 3025 
Q 903 2953 641 2809 
L 641 3341 
Q 956 3463 1253 3523 
Q 1550 3584 1831 3584 
Q 2591 3584 2966 3190 
Q 3341 2797 3341 1997 
z
" transform="scale(0.015625)"/>
       <path id="DejaVuSans-6e" d="M 3513 2113 
L 3513 0 
L 2938 0 
L 2938 2094 
Q 2938 2591 2744 2837 
Q 2550 3084 2163 3084 
Q 1697 3084 1428 2787 
Q 1159 2491 1159 1978 
L 1159 0 
L 581 0 
L 581 3500 
L 1159 3500 
L 1159 2956 
Q 1366 3272 1645 3428 
Q 1925 3584 2291 3584 
Q 2894 3584 3203 3211 
Q 3513 2838 3513 2113 
z
" transform="scale(0.015625)"/>
       <path id="DejaVuSans-63" d="M 3122 3366 
L 3122 2828 
Q 2878 2963 2633 3030 
Q 2388 3097 2138 3097 
Q 1578 3097 1268 2742 
Q 959 2388 959 1747 
Q 959 1106 1268 751 
Q 1578 397 2138 397 
Q 2388 397 2633 464 
Q 2878 531 3122 666 
L 3122 134 
Q 2881 22 2623 -34 
Q 2366 -91 2075 -91 
Q 1284 -91 818 406 
Q 353 903 353 1747 
Q 353 2603 823 3093 
Q 1294 3584 2113 3584 
Q 2378 3584 2631 3529 
Q 2884 3475 3122 3366 
z
" transform="scale(0.015625)"/>
       <path id="DejaVuSans-65" d="M 3597 1894 
L 3597 1613 
L 953 1613 
Q 991 1019 1311 708 
Q 1631 397 2203 397 
Q 2534 397 2845 478 
Q 3156 559 3463 722 
L 3463 178 
Q 3153 47 2828 -22 
Q 2503 -91 2169 -91 
Q 1331 -91 842 396 
Q 353 884 353 1716 
Q 353 2575 817 3079 
Q 1281 3584 2069 3584 
Q 2775 3584 3186 3129 
Q 3597 2675 3597 1894 
z
M 3022 2063 
Q 3016 2534 2758 2815 
Q 2500 3097 2075 3097 
Q 1594 3097 1305 2825 
Q 1016 2553 972 2059 
L 3022 2063 
z
" transform="scale(0.015625)"/>
       <path id="DejaVuSans-20" transform="scale(0.015625)"/>
       <path id="DejaVuSans-6f" d="M 1959 3097 
Q 1497 3097 1228 2736 
Q 959 2375 959 1747 
Q 959 1119 1226 758 
Q 1494 397 1959 397 
Q 2419 397 2687 759 
Q 2956 1122 2956 1747 
Q 2956 2369 2687 2733 
Q 2419 3097 1959 3097 
z
M 1959 3584 
Q 2709 3584 3137 3096 
Q 3566 2609 3566 1747 
Q 3566 888 3137 398 
Q 2709 -91 1959 -91 
Q 1206 -91 779 398 
Q 353 888 353 1747 
Q 353 2609 779 3096 
Q 1206 3584 1959 3584 
z
" transform="scale(0.015625)"/>
       <path id="DejaVuSans-72" d="M 2631 2963 
Q 2534 3019 2420 3045 
Q 2306 3072 2169 3072 
Q 1681 3072 1420 2755 
Q 1159 2438 1159 1844 
L 1159 0 
L 581 0 
L 581 3500 
L 1159 3500 
L 1159 2956 
Q 1341 3275 1631 3429 
Q 1922 3584 2338 3584 
Q 2397 3584 2469 3576 
Q 2541 3569 2628 3553 
L 2631 2963 
z
" transform="scale(0.015625)"/>
       <path id="DejaVuSans-6c" d="M 603 4863 
L 1178 4863 
L 1178 0 
L 603 0 
L 603 4863 
z
" transform="scale(0.015625)"/>
       <path id="DejaVuSans-2d" d="M 313 2009 
L 1997 2009 
L 1997 1497 
L 313 1497 
L 313 2009 
z
" transform="scale(0.015625)"/>
       <path id="DejaVuSans-70" d="M 1159 525 
L 1159 -1331 
L 581 -1331 
L 581 3500 
L 1159 3500 
L 1159 2969 
Q 1341 3281 1617 3432 
Q 1894 3584 2278 3584 
Q 2916 3584 3314 3078 
Q 3713 2572 3713 1747 
Q 3713 922 3314 415 
Q 2916 -91 2278 -91 
Q 1894 -91 1617 61 
Q 1341 213 1159 525 
z
M 3116 1747 
Q 3116 2381 2855 2742 
Q 2594 3103 2138 3103 
Q 1681 3103 1420 2742 
Q 1159 2381 1159 1747 
Q 1159 1113 1420 752 
Q 1681 391 2138 391 
Q 2594 391 2855 752 
Q 3116 1113 3116 1747 
z
" transform="scale(0.015625)"/>
      </defs>
      <use xlink:href="#DejaVuSans-64"/>
      <use xlink:href="#DejaVuSans-69" x="63.476562"/>
      <use xlink:href="#DejaVuSans-73" x="91.259766"/>
      <use xlink:href="#DejaVuSans-74" x="143.359375"/>
      <use xlink:href="#DejaVuSans-61" x="182.568359"/>
      <use xlink:href="#DejaVuSans-6e" x="243.847656"/>
      <use xlink:href="#DejaVuSans-63" x="307.226562"/>
      <use xlink:href="#DejaVuSans-65" x="362.207031"/>
      <use xlink:href="#DejaVuSans-20" x="423.730469"/>
      <use xlink:href="#DejaVuSans-74" x="455.517578"/>
      <use xlink:href="#DejaVuSans-6f" x="494.726562"/>
      <use xlink:href="#DejaVuSans-20" x="555.908203"/>
      <use xlink:href="#DejaVuSans-63" x="587.695312"/>
      <use xlink:href="#DejaVuSans-6f" x="642.675781"/>
      <use xlink:href="#DejaVuSans-6e" x="703.857422"/>
      <use xlink:href="#DejaVuSans-74" x="767.236328"/>
      <use xlink:href="#DejaVuSans-72" x="806.445312"/>
      <use xlink:href="#DejaVuSans-6f" x="845.308594"/>
      <use xlink:href="#DejaVuSans-6c" x="906.490234"/>
      <use xlink:href="#DejaVuSans-73" x="934.273438"/>
      <use xlink:href="#DejaVuSans-20" x="986.373047"/>
      <use xlink:href="#DejaVuSans-2d" x="1018.160156"/>
      <use xlink:href="#DejaVuSans-20" x="1054.244141"/>
      <use xlink:href="#DejaVuSans-72" x="1086.03125"/>
      <use xlink:href="#DejaVuSans-65" x="1124.894531"/>
      <use xlink:href="#DejaVuSans-61" x="1186.417969"/>
      <use xlink:href="#DejaVuSans-6c" x="1247.697266"/>
      <use xlink:href="#DejaVuSans-20" x="1275.480469"/>
      <use xlink:href="#DejaVuSans-70" x="1307.267578"/>
      <use xlink:href="#DejaVuSans-65" x="1370.744141"/>
      <use xlink:href="#DejaVuSans-72" x="1432.267578"/>
      <use xlink:href="#DejaVuSans-74" x="1473.380859"/>
      <use xlink:href="#DejaVuSans-2e" x="1512.589844"/>
     </g>
    </g>
   </g>
   <g id="matplotlib.axis_2">
    <g id="ytick_1">
     <g id="line2d_4">
      <path d="M 57.77375 236.34406 
L 280.97375 236.34406 
" clip-path="url(#p3327f27897)" style="fill: none; stroke: #cccccc; stroke-linecap: round"/>
     </g>
     <g id="text_5">
      <!-- 0.94 -->
      <g style="fill: #262626" transform="translate(23.781563 240.523201) scale(0.11 -0.11)">
       <defs>
        <path id="DejaVuSans-39" d="M 703 97 
L 703 672 
Q 941 559 1184 500 
Q 1428 441 1663 441 
Q 2288 441 2617 861 
Q 2947 1281 2994 2138 
Q 2813 1869 2534 1725 
Q 2256 1581 1919 1581 
Q 1219 1581 811 2004 
Q 403 2428 403 3163 
Q 403 3881 828 4315 
Q 1253 4750 1959 4750 
Q 2769 4750 3195 4129 
Q 3622 3509 3622 2328 
Q 3622 1225 3098 567 
Q 2575 -91 1691 -91 
Q 1453 -91 1209 -44 
Q 966 3 703 97 
z
M 1959 2075 
Q 2384 2075 2632 2365 
Q 2881 2656 2881 3163 
Q 2881 3666 2632 3958 
Q 2384 4250 1959 4250 
Q 1534 4250 1286 3958 
Q 1038 3666 1038 3163 
Q 1038 2656 1286 2365 
Q 1534 2075 1959 2075 
z
" transform="scale(0.015625)"/>
        <path id="DejaVuSans-34" d="M 2419 4116 
L 825 1625 
L 2419 1625 
L 2419 4116 
z
M 2253 4666 
L 3047 4666 
L 3047 1625 
L 3713 1625 
L 3713 1100 
L 3047 1100 
L 3047 0 
L 2419 0 
L 2419 1100 
L 313 1100 
L 313 1709 
L 2253 4666 
z
" transform="scale(0.015625)"/>
       </defs>
       <use xlink:href="#DejaVuSans-30"/>
       <use xlink:href="#DejaVuSans-2e" x="63.623047"/>
       <use xlink:href="#DejaVuSans-39" x="95.410156"/>
       <use xlink:href="#DejaVuSans-34" x="159.033203"/>
      </g>
     </g>
    </g>
    <g id="ytick_2">
     <g id="line2d_5">
      <path d="M 57.77375 209.611714 
L 280.97375 209.611714 
" clip-path="url(#p3327f27897)" style="fill: none; stroke: #cccccc; stroke-linecap: round"/>
     </g>
     <g id="text_6">
      <!-- 0.95 -->
      <g style="fill: #262626" transform="translate(23.781563 213.790855) scale(0.11 -0.11)">
       <use xlink:href="#DejaVuSans-30"/>
       <use xlink:href="#DejaVuSans-2e" x="63.623047"/>
       <use xlink:href="#DejaVuSans-39" x="95.410156"/>
       <use xlink:href="#DejaVuSans-35" x="159.033203"/>
      </g>
     </g>
    </g>
    <g id="ytick_3">
     <g id="line2d_6">
      <path d="M 57.77375 182.879368 
L 280.97375 182.879368 
" clip-path="url(#p3327f27897)" style="fill: none; stroke: #cccccc; stroke-linecap: round"/>
     </g>
     <g id="text_7">
      <!-- 0.96 -->
      <g style="fill: #262626" transform="translate(23.781563 187.058509) scale(0.11 -0.11)">
       <use xlink:href="#DejaVuSans-30"/>
       <use xlink:href="#DejaVuSans-2e" x="63.623047"/>
       <use xlink:href="#DejaVuSans-39" x="95.410156"/>
       <use xlink:href="#DejaVuSans-36" x="159.033203"/>
      </g>
     </g>
    </g>
    <g id="ytick_4">
     <g id="line2d_7">
      <path d="M 57.77375 156.147023 
L 280.97375 156.147023 
" clip-path="url(#p3327f27897)" style="fill: none; stroke: #cccccc; stroke-linecap: round"/>
     </g>
     <g id="text_8">
      <!-- 0.97 -->
      <g style="fill: #262626" transform="translate(23.781563 160.326163) scale(0.11 -0.11)">
       <defs>
        <path id="DejaVuSans-37" d="M 525 4666 
L 3525 4666 
L 3525 4397 
L 1831 0 
L 1172 0 
L 2766 4134 
L 525 4134 
L 525 4666 
z
" transform="scale(0.015625)"/>
       </defs>
       <use xlink:href="#DejaVuSans-30"/>
       <use xlink:href="#DejaVuSans-2e" x="63.623047"/>
       <use xlink:href="#DejaVuSans-39" x="95.410156"/>
       <use xlink:href="#DejaVuSans-37" x="159.033203"/>
      </g>
     </g>
    </g>
    <g id="ytick_5">
     <g id="line2d_8">
      <path d="M 57.77375 129.414677 
L 280.97375 129.414677 
" clip-path="url(#p3327f27897)" style="fill: none; stroke: #cccccc; stroke-linecap: round"/>
     </g>
     <g id="text_9">
      <!-- 0.98 -->
      <g style="fill: #262626" transform="translate(23.781563 133.593817) scale(0.11 -0.11)">
       <defs>
        <path id="DejaVuSans-38" d="M 2034 2216 
Q 1584 2216 1326 1975 
Q 1069 1734 1069 1313 
Q 1069 891 1326 650 
Q 1584 409 2034 409 
Q 2484 409 2743 651 
Q 3003 894 3003 1313 
Q 3003 1734 2745 1975 
Q 2488 2216 2034 2216 
z
M 1403 2484 
Q 997 2584 770 2862 
Q 544 3141 544 3541 
Q 544 4100 942 4425 
Q 1341 4750 2034 4750 
Q 2731 4750 3128 4425 
Q 3525 4100 3525 3541 
Q 3525 3141 3298 2862 
Q 3072 2584 2669 2484 
Q 3125 2378 3379 2068 
Q 3634 1759 3634 1313 
Q 3634 634 3220 271 
Q 2806 -91 2034 -91 
Q 1263 -91 848 271 
Q 434 634 434 1313 
Q 434 1759 690 2068 
Q 947 2378 1403 2484 
z
M 1172 3481 
Q 1172 3119 1398 2916 
Q 1625 2713 2034 2713 
Q 2441 2713 2670 2916 
Q 2900 3119 2900 3481 
Q 2900 3844 2670 4047 
Q 2441 4250 2034 4250 
Q 1625 4250 1398 4047 
Q 1172 3844 1172 3481 
z
" transform="scale(0.015625)"/>
       </defs>
       <use xlink:href="#DejaVuSans-30"/>
       <use xlink:href="#DejaVuSans-2e" x="63.623047"/>
       <use xlink:href="#DejaVuSans-39" x="95.410156"/>
       <use xlink:href="#DejaVuSans-38" x="159.033203"/>
      </g>
     </g>
    </g>
    <g id="ytick_6">
     <g id="line2d_9">
      <path d="M 57.77375 102.682331 
L 280.97375 102.682331 
" clip-path="url(#p3327f27897)" style="fill: none; stroke: #cccccc; stroke-linecap: round"/>
     </g>
     <g id="text_10">
      <!-- 0.99 -->
      <g style="fill: #262626" transform="translate(23.781563 106.861472) scale(0.11 -0.11)">
       <use xlink:href="#DejaVuSans-30"/>
       <use xlink:href="#DejaVuSans-2e" x="63.623047"/>
       <use xlink:href="#DejaVuSans-39" x="95.410156"/>
       <use xlink:href="#DejaVuSans-39" x="159.033203"/>
      </g>
     </g>
    </g>
    <g id="ytick_7">
     <g id="line2d_10">
      <path d="M 57.77375 75.949985 
L 280.97375 75.949985 
" clip-path="url(#p3327f27897)" style="fill: none; stroke: #cccccc; stroke-linecap: round"/>
     </g>
     <g id="text_11">
      <!-- 1.00 -->
      <g style="fill: #262626" transform="translate(23.781563 80.129126) scale(0.11 -0.11)">
       <defs>
        <path id="DejaVuSans-31" d="M 794 531 
L 1825 531 
L 1825 4091 
L 703 3866 
L 703 4441 
L 1819 4666 
L 2450 4666 
L 2450 531 
L 3481 531 
L 3481 0 
L 794 0 
L 794 531 
z
" transform="scale(0.015625)"/>
       </defs>
       <use xlink:href="#DejaVuSans-31"/>
       <use xlink:href="#DejaVuSans-2e" x="63.623047"/>
       <use xlink:href="#DejaVuSans-30" x="95.410156"/>
       <use xlink:href="#DejaVuSans-30" x="159.033203"/>
      </g>
     </g>
    </g>
    <g id="ytick_8">
     <g id="line2d_11">
      <path d="M 57.77375 49.217639 
L 280.97375 49.217639 
" clip-path="url(#p3327f27897)" style="fill: none; stroke: #cccccc; stroke-linecap: round"/>
     </g>
     <g id="text_12">
      <!-- 1.01 -->
      <g style="fill: #262626" transform="translate(23.781563 53.39678) scale(0.11 -0.11)">
       <use xlink:href="#DejaVuSans-31"/>
       <use xlink:href="#DejaVuSans-2e" x="63.623047"/>
       <use xlink:href="#DejaVuSans-30" x="95.410156"/>
       <use xlink:href="#DejaVuSans-31" x="159.033203"/>
      </g>
     </g>
    </g>
    <g id="ytick_9">
     <g id="line2d_12">
      <path d="M 57.77375 22.485293 
L 280.97375 22.485293 
" clip-path="url(#p3327f27897)" style="fill: none; stroke: #cccccc; stroke-linecap: round"/>
     </g>
     <g id="text_13">
      <!-- 1.02 -->
      <g style="fill: #262626" transform="translate(23.781563 26.664434) scale(0.11 -0.11)">
       <defs>
        <path id="DejaVuSans-32" d="M 1228 531 
L 3431 531 
L 3431 0 
L 469 0 
L 469 531 
Q 828 903 1448 1529 
Q 2069 2156 2228 2338 
Q 2531 2678 2651 2914 
Q 2772 3150 2772 3378 
Q 2772 3750 2511 3984 
Q 2250 4219 1831 4219 
Q 1534 4219 1204 4116 
Q 875 4013 500 3803 
L 500 4441 
Q 881 4594 1212 4672 
Q 1544 4750 1819 4750 
Q 2544 4750 2975 4387 
Q 3406 4025 3406 3419 
Q 3406 3131 3298 2873 
Q 3191 2616 2906 2266 
Q 2828 2175 2409 1742 
Q 1991 1309 1228 531 
z
" transform="scale(0.015625)"/>
       </defs>
       <use xlink:href="#DejaVuSans-31"/>
       <use xlink:href="#DejaVuSans-2e" x="63.623047"/>
       <use xlink:href="#DejaVuSans-30" x="95.410156"/>
       <use xlink:href="#DejaVuSans-32" x="159.033203"/>
      </g>
     </g>
    </g>
    <g id="text_14">
     <!-- coverage of real by generated pert. -->
     <g style="fill: #262626" transform="translate(17.077969 242.444359) rotate(-90) scale(0.13 -0.13)">
      <defs>
       <path id="DejaVuSans-76" d="M 191 3500 
L 800 3500 
L 1894 563 
L 2988 3500 
L 3597 3500 
L 2284 0 
L 1503 0 
L 191 3500 
z
" transform="scale(0.015625)"/>
       <path id="DejaVuSans-67" d="M 2906 1791 
Q 2906 2416 2648 2759 
Q 2391 3103 1925 3103 
Q 1463 3103 1205 2759 
Q 947 2416 947 1791 
Q 947 1169 1205 825 
Q 1463 481 1925 481 
Q 2391 481 2648 825 
Q 2906 1169 2906 1791 
z
M 3481 434 
Q 3481 -459 3084 -895 
Q 2688 -1331 1869 -1331 
Q 1566 -1331 1297 -1286 
Q 1028 -1241 775 -1147 
L 775 -588 
Q 1028 -725 1275 -790 
Q 1522 -856 1778 -856 
Q 2344 -856 2625 -561 
Q 2906 -266 2906 331 
L 2906 616 
Q 2728 306 2450 153 
Q 2172 0 1784 0 
Q 1141 0 747 490 
Q 353 981 353 1791 
Q 353 2603 747 3093 
Q 1141 3584 1784 3584 
Q 2172 3584 2450 3431 
Q 2728 3278 2906 2969 
L 2906 3500 
L 3481 3500 
L 3481 434 
z
" transform="scale(0.015625)"/>
       <path id="DejaVuSans-66" d="M 2375 4863 
L 2375 4384 
L 1825 4384 
Q 1516 4384 1395 4259 
Q 1275 4134 1275 3809 
L 1275 3500 
L 2222 3500 
L 2222 3053 
L 1275 3053 
L 1275 0 
L 697 0 
L 697 3053 
L 147 3053 
L 147 3500 
L 697 3500 
L 697 3744 
Q 697 4328 969 4595 
Q 1241 4863 1831 4863 
L 2375 4863 
z
" transform="scale(0.015625)"/>
       <path id="DejaVuSans-62" d="M 3116 1747 
Q 3116 2381 2855 2742 
Q 2594 3103 2138 3103 
Q 1681 3103 1420 2742 
Q 1159 2381 1159 1747 
Q 1159 1113 1420 752 
Q 1681 391 2138 391 
Q 2594 391 2855 752 
Q 3116 1113 3116 1747 
z
M 1159 2969 
Q 1341 3281 1617 3432 
Q 1894 3584 2278 3584 
Q 2916 3584 3314 3078 
Q 3713 2572 3713 1747 
Q 3713 922 3314 415 
Q 2916 -91 2278 -91 
Q 1894 -91 1617 61 
Q 1341 213 1159 525 
L 1159 0 
L 581 0 
L 581 4863 
L 1159 4863 
L 1159 2969 
z
" transform="scale(0.015625)"/>
       <path id="DejaVuSans-79" d="M 2059 -325 
Q 1816 -950 1584 -1140 
Q 1353 -1331 966 -1331 
L 506 -1331 
L 506 -850 
L 844 -850 
Q 1081 -850 1212 -737 
Q 1344 -625 1503 -206 
L 1606 56 
L 191 3500 
L 800 3500 
L 1894 763 
L 2988 3500 
L 3597 3500 
L 2059 -325 
z
" transform="scale(0.015625)"/>
      </defs>
      <use xlink:href="#DejaVuSans-63"/>
      <use xlink:href="#DejaVuSans-6f" x="54.980469"/>
      <use xlink:href="#DejaVuSans-76" x="116.162109"/>
      <use xlink:href="#DejaVuSans-65" x="175.341797"/>
      <use xlink:href="#DejaVuSans-72" x="236.865234"/>
      <use xlink:href="#DejaVuSans-61" x="277.978516"/>
      <use xlink:href="#DejaVuSans-67" x="339.257812"/>
      <use xlink:href="#DejaVuSans-65" x="402.734375"/>
      <use xlink:href="#DejaVuSans-20" x="464.257812"/>
      <use xlink:href="#DejaVuSans-6f" x="496.044922"/>
      <use xlink:href="#DejaVuSans-66" x="557.226562"/>
      <use xlink:href="#DejaVuSans-20" x="592.431641"/>
      <use xlink:href="#DejaVuSans-72" x="624.21875"/>
      <use xlink:href="#DejaVuSans-65" x="663.082031"/>
      <use xlink:href="#DejaVuSans-61" x="724.605469"/>
      <use xlink:href="#DejaVuSans-6c" x="785.884766"/>
      <use xlink:href="#DejaVuSans-20" x="813.667969"/>
      <use xlink:href="#DejaVuSans-62" x="845.455078"/>
      <use xlink:href="#DejaVuSans-79" x="908.931641"/>
      <use xlink:href="#DejaVuSans-20" x="968.111328"/>
      <use xlink:href="#DejaVuSans-67" x="999.898438"/>
      <use xlink:href="#DejaVuSans-65" x="1063.375"/>
      <use xlink:href="#DejaVuSans-6e" x="1124.898438"/>
      <use xlink:href="#DejaVuSans-65" x="1188.277344"/>
      <use xlink:href="#DejaVuSans-72" x="1249.800781"/>
      <use xlink:href="#DejaVuSans-61" x="1290.914062"/>
      <use xlink:href="#DejaVuSans-74" x="1352.193359"/>
      <use xlink:href="#DejaVuSans-65" x="1391.402344"/>
      <use xlink:href="#DejaVuSans-64" x="1452.925781"/>
      <use xlink:href="#DejaVuSans-20" x="1516.402344"/>
      <use xlink:href="#DejaVuSans-70" x="1548.189453"/>
      <use xlink:href="#DejaVuSans-65" x="1611.666016"/>
      <use xlink:href="#DejaVuSans-72" x="1673.189453"/>
      <use xlink:href="#DejaVuSans-74" x="1714.302734"/>
      <use xlink:href="#DejaVuSans-2e" x="1753.511719"/>
     </g>
    </g>
   </g>
   <g id="PathCollection_1">
    <defs>
     <path id="m271435b80e" d="M 0 5 
C 1.326016 5 2.597899 4.473168 3.535534 3.535534 
C 4.473168 2.597899 5 1.326016 5 0 
C 5 -1.326016 4.473168 -2.597899 3.535534 -3.535534 
C 2.597899 -4.473168 1.326016 -5 0 -5 
C -1.326016 -5 -2.597899 -4.473168 -3.535534 -3.535534 
C -4.473168 -2.597899 -5 -1.326016 -5 0 
C -5 1.326016 -4.473168 2.597899 -3.535534 3.535534 
C -2.597899 4.473168 -1.326016 5 0 5 
z
" style="stroke: #0173b2; stroke-opacity: 0.8"/>
    </defs>
    <g clip-path="url(#p3327f27897)">
     <use xlink:href="#m271435b80e" x="181.950382" y="75.949985" style="fill: #0173b2; fill-opacity: 0.8; stroke: #0173b2; stroke-opacity: 0.8"/>
     <use xlink:href="#m271435b80e" x="217.915263" y="75.949985" style="fill: #0173b2; fill-opacity: 0.8; stroke: #0173b2; stroke-opacity: 0.8"/>
     <use xlink:href="#m271435b80e" x="115.5492" y="155.352993" style="fill: #0173b2; fill-opacity: 0.8; stroke: #0173b2; stroke-opacity: 0.8"/>
     <use xlink:href="#m271435b80e" x="127.80955" y="75.949985" style="fill: #0173b2; fill-opacity: 0.8; stroke: #0173b2; stroke-opacity: 0.8"/>
     <use xlink:href="#m271435b80e" x="246.71584" y="181.820662" style="fill: #0173b2; fill-opacity: 0.8; stroke: #0173b2; stroke-opacity: 0.8"/>
     <use xlink:href="#m271435b80e" x="106.364563" y="102.417654" style="fill: #0173b2; fill-opacity: 0.8; stroke: #0173b2; stroke-opacity: 0.8"/>
     <use xlink:href="#m271435b80e" x="95.973598" y="128.885323" style="fill: #0173b2; fill-opacity: 0.8; stroke: #0173b2; stroke-opacity: 0.8"/>
     <use xlink:href="#m271435b80e" x="238.854935" y="181.820662" style="fill: #0173b2; fill-opacity: 0.8; stroke: #0173b2; stroke-opacity: 0.8"/>
     <use xlink:href="#m271435b80e" x="70.339716" y="75.949985" style="fill: #0173b2; fill-opacity: 0.8; stroke: #0173b2; stroke-opacity: 0.8"/>
     <use xlink:href="#m271435b80e" x="70.052938" y="75.949985" style="fill: #0173b2; fill-opacity: 0.8; stroke: #0173b2; stroke-opacity: 0.8"/>
     <use xlink:href="#m271435b80e" x="67.919205" y="234.756" style="fill: #0173b2; fill-opacity: 0.8; stroke: #0173b2; stroke-opacity: 0.8"/>
     <use xlink:href="#m271435b80e" x="81.485389" y="75.949985" style="fill: #0173b2; fill-opacity: 0.8; stroke: #0173b2; stroke-opacity: 0.8"/>
     <use xlink:href="#m271435b80e" x="270.828295" y="102.417654" style="fill: #0173b2; fill-opacity: 0.8; stroke: #0173b2; stroke-opacity: 0.8"/>
    </g>
   </g>
   <g id="PolyCollection_1">
    <defs>
     <path id="m4f35219b22" d="M 67.919205 -224.920307 
L 67.919205 -110.117165 
L 69.968791 -111.071475 
L 72.018378 -112.025784 
L 74.067965 -112.439366 
L 76.117552 -112.663081 
L 78.167138 -112.886796 
L 80.216725 -113.110511 
L 82.266312 -113.334226 
L 84.315899 -113.594793 
L 86.365486 -114.703144 
L 88.415072 -115.81397 
L 90.464659 -116.924795 
L 92.514246 -118.035621 
L 94.563833 -119.146447 
L 96.613419 -120.257273 
L 98.663006 -121.368099 
L 100.712593 -122.193763 
L 102.76218 -122.820049 
L 104.811767 -123.901833 
L 106.861353 -124.687213 
L 108.91094 -125.036046 
L 110.960527 -125.384879 
L 113.010114 -125.863045 
L 115.0597 -126.212037 
L 117.109287 -126.354602 
L 119.158874 -126.496302 
L 121.208461 -126.638003 
L 123.258048 -126.779703 
L 125.307634 -126.921403 
L 127.357221 -127.063103 
L 129.406808 -127.204803 
L 131.456395 -127.346503 
L 133.505981 -127.488203 
L 135.555568 -127.629903 
L 137.605155 -127.77402 
L 139.654742 -127.919156 
L 141.704329 -127.810785 
L 143.753915 -128.20529 
L 145.803502 -128.346301 
L 147.853089 -128.487313 
L 149.902676 -128.628324 
L 151.952262 -128.769336 
L 154.001849 -128.910347 
L 156.051436 -129.051359 
L 158.101023 -129.19237 
L 160.15061 -129.338158 
L 162.200196 -129.485105 
L 164.249783 -129.382917 
L 166.29937 -129.772421 
L 168.348957 -129.912715 
L 170.398543 -129.966454 
L 172.44813 -129.955436 
L 174.497717 -129.944418 
L 176.547304 -129.933401 
L 178.59689 -129.846672 
L 180.646477 -129.077873 
L 182.696064 -127.842223 
L 184.745651 -126.606573 
L 186.795238 -126.035438 
L 188.844824 -126.449812 
L 190.894411 -125.77044 
L 192.943998 -125.373937 
L 194.993585 -125.397378 
L 197.043171 -125.615423 
L 199.092758 -125.833467 
L 201.142345 -125.066899 
L 203.191932 -123.880299 
L 205.241519 -123.294387 
L 207.291105 -122.99066 
L 209.340692 -122.480177 
L 211.390279 -121.804034 
L 213.439866 -120.966262 
L 215.489452 -120.002316 
L 217.539039 -119.038371 
L 219.588626 -118.074425 
L 221.638213 -117.110479 
L 223.6878 -115.957871 
L 225.737386 -114.763367 
L 227.786973 -113.569918 
L 229.83656 -112.826019 
L 231.886147 -111.747931 
L 233.935733 -110.583853 
L 235.98532 -109.419776 
L 238.034907 -108.255699 
L 240.084494 -107.182595 
L 242.134081 -106.162585 
L 244.183667 -105.142576 
L 246.233254 -104.122567 
L 248.282841 -103.102557 
L 250.332428 -102.082548 
L 252.382014 -101.062538 
L 254.431601 -100.042529 
L 256.481188 -99.022519 
L 258.530775 -97.841046 
L 260.580362 -96.601683 
L 262.629948 -95.36232 
L 264.679535 -94.122957 
L 266.729122 -92.883594 
L 268.778709 -91.644384 
L 270.828295 -90.405679 
L 270.828295 -271.4835 
L 270.828295 -271.4835 
L 268.778709 -270.123427 
L 266.729122 -268.763353 
L 264.679535 -267.40328 
L 262.629948 -266.043207 
L 260.580362 -264.683133 
L 258.530775 -263.32306 
L 256.481188 -261.962987 
L 254.431601 -260.602914 
L 252.382014 -259.24284 
L 250.332428 -257.882767 
L 248.282841 -256.522694 
L 246.233254 -255.16262 
L 244.183667 -253.802547 
L 242.134081 -252.442474 
L 240.084494 -251.0824 
L 238.034907 -249.722327 
L 235.98532 -248.362254 
L 233.935733 -247.002181 
L 231.886147 -245.905084 
L 229.83656 -244.96608 
L 227.786973 -244.027076 
L 225.737386 -243.088071 
L 223.6878 -241.840453 
L 221.638213 -240.431544 
L 219.588626 -239.198834 
L 217.539039 -238.180829 
L 215.489452 -237.162824 
L 213.439866 -236.144819 
L 211.390279 -235.125855 
L 209.340692 -234.105953 
L 207.291105 -233.086051 
L 205.241519 -232.066149 
L 203.191932 -231.046247 
L 201.142345 -229.760445 
L 199.092758 -228.445931 
L 197.043171 -227.131417 
L 194.993585 -225.816904 
L 192.943998 -224.50239 
L 190.894411 -223.187876 
L 188.844824 -221.873362 
L 186.795238 -220.558745 
L 184.745651 -219.242509 
L 182.696064 -218.124062 
L 180.646477 -217.354312 
L 178.59689 -216.584562 
L 176.547304 -215.814812 
L 174.497717 -214.703191 
L 172.44813 -213.34341 
L 170.398543 -211.983628 
L 168.348957 -210.623847 
L 166.29937 -209.264066 
L 164.249783 -207.902077 
L 162.200196 -206.676198 
L 160.15061 -206.7354 
L 158.101023 -205.723172 
L 156.051436 -204.04741 
L 154.001849 -203.718889 
L 151.952262 -203.829165 
L 149.902676 -204.231362 
L 147.853089 -203.565757 
L 145.803502 -203.355991 
L 143.753915 -203.372247 
L 141.704329 -202.87409 
L 139.654742 -203.379334 
L 137.605155 -202.978685 
L 135.555568 -203.110696 
L 133.505981 -203.455696 
L 131.456395 -203.785289 
L 129.406808 -204.181688 
L 127.357221 -204.578087 
L 125.307634 -204.974486 
L 123.258048 -205.370885 
L 121.208461 -205.767283 
L 119.158874 -206.163682 
L 117.109287 -206.558961 
L 115.0597 -207.24469 
L 113.010114 -208.009756 
L 110.960527 -208.757534 
L 108.91094 -209.545638 
L 106.861353 -210.314484 
L 104.811767 -211.083329 
L 102.76218 -211.852175 
L 100.712593 -212.62102 
L 98.663006 -213.389648 
L 96.613419 -214.157304 
L 94.563833 -215.163005 
L 92.514246 -215.696402 
L 90.464659 -216.465247 
L 88.415072 -217.234093 
L 86.365486 -218.002782 
L 84.315899 -218.770756 
L 82.266312 -219.53873 
L 80.216725 -220.306703 
L 78.167138 -221.074677 
L 76.117552 -221.842651 
L 74.067965 -222.509932 
L 72.018378 -223.269393 
L 69.968791 -224.149727 
L 67.919205 -224.920307 
z
" style="stroke: #ffffff; stroke-opacity: 0.15"/>
    </defs>
    <g clip-path="url(#p3327f27897)">
     <use xlink:href="#m4f35219b22" x="0" y="289.5195" style="fill: #0173b2; fill-opacity: 0.15; stroke: #ffffff; stroke-opacity: 0.15"/>
    </g>
   </g>
   <g id="line2d_13">
    <path d="M 67.919205 112.362453 
L 69.968791 112.529984 
L 72.018378 112.697515 
L 74.067965 112.865046 
L 76.117552 113.032577 
L 78.167138 113.200108 
L 80.216725 113.367639 
L 82.266312 113.53517 
L 84.315899 113.702701 
L 86.365486 113.870232 
L 88.415072 114.037763 
L 90.464659 114.205294 
L 92.514246 114.372825 
L 94.563833 114.540356 
L 96.613419 114.707887 
L 98.663006 114.875418 
L 100.712593 115.042949 
L 102.76218 115.21048 
L 104.811767 115.378011 
L 106.861353 115.545542 
L 108.91094 115.713073 
L 110.960527 115.880604 
L 113.010114 116.048135 
L 115.0597 116.215666 
L 117.109287 116.383197 
L 119.158874 116.550728 
L 121.208461 116.718259 
L 123.258048 116.88579 
L 125.307634 117.053321 
L 127.357221 117.220852 
L 129.406808 117.388383 
L 131.456395 117.555914 
L 133.505981 117.723445 
L 135.555568 117.890976 
L 137.605155 118.058507 
L 139.654742 118.226038 
L 141.704329 118.393569 
L 143.753915 118.5611 
L 145.803502 118.728631 
L 147.853089 118.896162 
L 149.902676 119.063693 
L 151.952262 119.231224 
L 154.001849 119.398755 
L 156.051436 119.566286 
L 158.101023 119.733817 
L 160.15061 119.901348 
L 162.200196 120.068879 
L 164.249783 120.23641 
L 166.29937 120.403941 
L 168.348957 120.571472 
L 170.398543 120.739003 
L 172.44813 120.906534 
L 174.497717 121.074065 
L 176.547304 121.241596 
L 178.59689 121.409127 
L 180.646477 121.576658 
L 182.696064 121.744189 
L 184.745651 121.91172 
L 186.795238 122.079251 
L 188.844824 122.246782 
L 190.894411 122.414313 
L 192.943998 122.581844 
L 194.993585 122.749375 
L 197.043171 122.916906 
L 199.092758 123.084437 
L 201.142345 123.251968 
L 203.191932 123.419499 
L 205.241519 123.58703 
L 207.291105 123.754561 
L 209.340692 123.922092 
L 211.390279 124.089623 
L 213.439866 124.257154 
L 215.489452 124.424685 
L 217.539039 124.592216 
L 219.588626 124.759747 
L 221.638213 124.927278 
L 223.6878 125.094809 
L 225.737386 125.26234 
L 227.786973 125.429871 
L 229.83656 125.597402 
L 231.886147 125.764933 
L 233.935733 125.932464 
L 235.98532 126.099995 
L 238.034907 126.267526 
L 240.084494 126.435057 
L 242.134081 126.602588 
L 244.183667 126.770119 
L 246.233254 126.93765 
L 248.282841 127.105181 
L 250.332428 127.272712 
L 252.382014 127.440243 
L 254.431601 127.607774 
L 256.481188 127.775305 
L 258.530775 127.942836 
L 260.580362 128.110367 
L 262.629948 128.277898 
L 264.679535 128.445429 
L 266.729122 128.61296 
L 268.778709 128.780491 
L 270.828295 128.948022 
" clip-path="url(#p3327f27897)" style="fill: none; stroke: #0173b2; stroke-width: 2.25; stroke-linecap: round"/>
   </g>
   <g id="patch_3">
    <path d="M 57.77375 245.592 
L 57.77375 7.2 
" style="fill: none; stroke: #cccccc; stroke-width: 1.25; stroke-linejoin: miter; stroke-linecap: square"/>
   </g>
   <g id="patch_4">
    <path d="M 280.97375 245.592 
L 280.97375 7.2 
" style="fill: none; stroke: #cccccc; stroke-width: 1.25; stroke-linejoin: miter; stroke-linecap: square"/>
   </g>
   <g id="patch_5">
    <path d="M 57.77375 245.592 
L 280.97375 245.592 
" style="fill: none; stroke: #cccccc; stroke-width: 1.25; stroke-linejoin: miter; stroke-linecap: square"/>
   </g>
   <g id="patch_6">
    <path d="M 57.77375 7.2 
L 280.97375 7.2 
" style="fill: none; stroke: #cccccc; stroke-width: 1.25; stroke-linejoin: miter; stroke-linecap: square"/>
   </g>
  </g>
 </g>
 <defs>
  <clipPath id="p3327f27897">
   <rect x="57.77375" y="7.2" width="223.2" height="238.392"/>
  </clipPath>
 </defs>
</svg>
