<?xml version="1.0" encoding="utf-8" standalone="no"?>
<!DOCTYPE svg PUBLIC "-//W3C//DTD SVG 1.1//EN"
  "http://www.w3.org/Graphics/SVG/1.1/DTD/svg11.dtd">
<svg xmlns:xlink="http://www.w3.org/1999/xlink" width="288.17375pt" height="289.5195pt" viewBox="0 0 288.17375 289.5195" xmlns="http://www.w3.org/2000/svg" version="1.1">
 <metadata>
  <rdf:RDF xmlns:dc="http://purl.org/dc/elements/1.1/" xmlns:cc="http://creativecommons.org/ns#" xmlns:rdf="http://www.w3.org/1999/02/22-rdf-syntax-ns#">
   <cc:Work>
    <dc:type rdf:resource="http://purl.org/dc/dcmitype/StillImage"/>
    <dc:date>2024-07-07T19:14:32.631543</dc:date>
    <dc:format>image/svg+xml</dc:format>
    <dc:creator>
     <cc:Agent>
      <dc:title>Matplotlib v3.8.2, https://matplotlib.org/</dc:title>
     </cc:Agent>
    </dc:creator>
   </cc:Work>
  </rdf:RDF>
 </metadata>
 <defs>
  <style type="text/css">*{stroke-linejoin: round; stroke-linecap: butt}</style>
 </defs>
 <g id="figure_1">
  <g id="patch_1">
   <path d="M 0 289.5195 
L 288.17375 289.5195 
L 288.17375 0 
L 0 0 
z
" style="fill: #ffffff"/>
  </g>
  <g id="axes_1">
   <g id="patch_2">
    <path d="M 57.77375 245.592 
L 280.97375 245.592 
L 280.97375 7.2 
L 57.77375 7.2 
z
" style="fill: #ffffff"/>
   </g>
   <g id="matplotlib.axis_1">
    <g id="xtick_1">
     <g id="line2d_1">
      <path d="M 94.334623 245.592 
L 94.334623 7.2 
" clip-path="url(#pb2deaf5de8)" style="fill: none; stroke: #cccccc; stroke-linecap: round"/>
     </g>
     <g id="text_1">
      <!-- 0.55 -->
      <g style="fill: #262626" transform="translate(82.08853 263.450281) scale(0.11 -0.11)">
       <defs>
        <path id="DejaVuSans-30" d="M 2034 4250 
Q 1547 4250 1301 3770 
Q 1056 3291 1056 2328 
Q 1056 1369 1301 889 
Q 1547 409 2034 409 
Q 2525 409 2770 889 
Q 3016 1369 3016 2328 
Q 3016 3291 2770 3770 
Q 2525 4250 2034 4250 
z
M 2034 4750 
Q 2819 4750 3233 4129 
Q 3647 3509 3647 2328 
Q 3647 1150 3233 529 
Q 2819 -91 2034 -91 
Q 1250 -91 836 529 
Q 422 1150 422 2328 
Q 422 3509 836 4129 
Q 1250 4750 2034 4750 
z
" transform="scale(0.015625)"/>
        <path id="DejaVuSans-2e" d="M 684 794 
L 1344 794 
L 1344 0 
L 684 0 
L 684 794 
z
" transform="scale(0.015625)"/>
        <path id="DejaVuSans-35" d="M 691 4666 
L 3169 4666 
L 3169 4134 
L 1269 4134 
L 1269 2991 
Q 1406 3038 1543 3061 
Q 1681 3084 1819 3084 
Q 2600 3084 3056 2656 
Q 3513 2228 3513 1497 
Q 3513 744 3044 326 
Q 2575 -91 1722 -91 
Q 1428 -91 1123 -41 
Q 819 9 494 109 
L 494 744 
Q 775 591 1075 516 
Q 1375 441 1709 441 
Q 2250 441 2565 725 
Q 2881 1009 2881 1497 
Q 2881 1984 2565 2268 
Q 2250 2553 1709 2553 
Q 1456 2553 1204 2497 
Q 953 2441 691 2322 
L 691 4666 
z
" transform="scale(0.015625)"/>
       </defs>
       <use xlink:href="#DejaVuSans-30"/>
       <use xlink:href="#DejaVuSans-2e" x="63.623047"/>
       <use xlink:href="#DejaVuSans-35" x="95.410156"/>
       <use xlink:href="#DejaVuSans-35" x="159.033203"/>
      </g>
     </g>
    </g>
    <g id="xtick_2">
     <g id="line2d_2">
      <path d="M 158.329707 245.592 
L 158.329707 7.2 
" clip-path="url(#pb2deaf5de8)" style="fill: none; stroke: #cccccc; stroke-linecap: round"/>
     </g>
     <g id="text_2">
      <!-- 0.60 -->
      <g style="fill: #262626" transform="translate(146.083613 263.450281) scale(0.11 -0.11)">
       <defs>
        <path id="DejaVuSans-36" d="M 2113 2584 
Q 1688 2584 1439 2293 
Q 1191 2003 1191 1497 
Q 1191 994 1439 701 
Q 1688 409 2113 409 
Q 2538 409 2786 701 
Q 3034 994 3034 1497 
Q 3034 2003 2786 2293 
Q 2538 2584 2113 2584 
z
M 3366 4563 
L 3366 3988 
Q 3128 4100 2886 4159 
Q 2644 4219 2406 4219 
Q 1781 4219 1451 3797 
Q 1122 3375 1075 2522 
Q 1259 2794 1537 2939 
Q 1816 3084 2150 3084 
Q 2853 3084 3261 2657 
Q 3669 2231 3669 1497 
Q 3669 778 3244 343 
Q 2819 -91 2113 -91 
Q 1303 -91 875 529 
Q 447 1150 447 2328 
Q 447 3434 972 4092 
Q 1497 4750 2381 4750 
Q 2619 4750 2861 4703 
Q 3103 4656 3366 4563 
z
" transform="scale(0.015625)"/>
       </defs>
       <use xlink:href="#DejaVuSans-30"/>
       <use xlink:href="#DejaVuSans-2e" x="63.623047"/>
       <use xlink:href="#DejaVuSans-36" x="95.410156"/>
       <use xlink:href="#DejaVuSans-30" x="159.033203"/>
      </g>
     </g>
    </g>
    <g id="xtick_3">
     <g id="line2d_3">
      <path d="M 222.324791 245.592 
L 222.324791 7.2 
" clip-path="url(#pb2deaf5de8)" style="fill: none; stroke: #cccccc; stroke-linecap: round"/>
     </g>
     <g id="text_3">
      <!-- 0.65 -->
      <g style="fill: #262626" transform="translate(210.078697 263.450281) scale(0.11 -0.11)">
       <use xlink:href="#DejaVuSans-30"/>
       <use xlink:href="#DejaVuSans-2e" x="63.623047"/>
       <use xlink:href="#DejaVuSans-36" x="95.410156"/>
       <use xlink:href="#DejaVuSans-35" x="159.033203"/>
      </g>
     </g>
    </g>
    <g id="text_4">
     <!-- distance to controls - real pert. -->
     <g style="fill: #262626" transform="translate(68.991406 279.615906) scale(0.13 -0.13)">
      <defs>
       <path id="DejaVuSans-64" d="M 2906 2969 
L 2906 4863 
L 3481 4863 
L 3481 0 
L 2906 0 
L 2906 525 
Q 2725 213 2448 61 
Q 2172 -91 1784 -91 
Q 1150 -91 751 415 
Q 353 922 353 1747 
Q 353 2572 751 3078 
Q 1150 3584 1784 3584 
Q 2172 3584 2448 3432 
Q 2725 3281 2906 2969 
z
M 947 1747 
Q 947 1113 1208 752 
Q 1469 391 1925 391 
Q 2381 391 2643 752 
Q 2906 1113 2906 1747 
Q 2906 2381 2643 2742 
Q 2381 3103 1925 3103 
Q 1469 3103 1208 2742 
Q 947 2381 947 1747 
z
" transform="scale(0.015625)"/>
       <path id="DejaVuSans-69" d="M 603 3500 
L 1178 3500 
L 1178 0 
L 603 0 
L 603 3500 
z
M 603 4863 
L 1178 4863 
L 1178 4134 
L 603 4134 
L 603 4863 
z
" transform="scale(0.015625)"/>
       <path id="DejaVuSans-73" d="M 2834 3397 
L 2834 2853 
Q 2591 2978 2328 3040 
Q 2066 3103 1784 3103 
Q 1356 3103 1142 2972 
Q 928 2841 928 2578 
Q 928 2378 1081 2264 
Q 1234 2150 1697 2047 
L 1894 2003 
Q 2506 1872 2764 1633 
Q 3022 1394 3022 966 
Q 3022 478 2636 193 
Q 2250 -91 1575 -91 
Q 1294 -91 989 -36 
Q 684 19 347 128 
L 347 722 
Q 666 556 975 473 
Q 1284 391 1588 391 
Q 1994 391 2212 530 
Q 2431 669 2431 922 
Q 2431 1156 2273 1281 
Q 2116 1406 1581 1522 
L 1381 1569 
Q 847 1681 609 1914 
Q 372 2147 372 2553 
Q 372 3047 722 3315 
Q 1072 3584 1716 3584 
Q 2034 3584 2315 3537 
Q 2597 3491 2834 3397 
z
" transform="scale(0.015625)"/>
       <path id="DejaVuSans-74" d="M 1172 4494 
L 1172 3500 
L 2356 3500 
L 2356 3053 
L 1172 3053 
L 1172 1153 
Q 1172 725 1289 603 
Q 1406 481 1766 481 
L 2356 481 
L 2356 0 
L 1766 0 
Q 1100 0 847 248 
Q 594 497 594 1153 
L 594 3053 
L 172 3053 
L 172 3500 
L 594 3500 
L 594 4494 
L 1172 4494 
z
" transform="scale(0.015625)"/>
       <path id="DejaVuSans-61" d="M 2194 1759 
Q 1497 1759 1228 1600 
Q 959 1441 959 1056 
Q 959 750 1161 570 
Q 1363 391 1709 391 
Q 2188 391 2477 730 
Q 2766 1069 2766 1631 
L 2766 1759 
L 2194 1759 
z
M 3341 1997 
L 3341 0 
L 2766 0 
L 2766 531 
Q 2569 213 2275 61 
Q 1981 -91 1556 -91 
Q 1019 -91 701 211 
Q 384 513 384 1019 
Q 384 1609 779 1909 
Q 1175 2209 1959 2209 
L 2766 2209 
L 2766 2266 
Q 2766 2663 2505 2880 
Q 2244 3097 1772 3097 
Q 1472 3097 1187 3025 
Q 903 2953 641 2809 
L 641 3341 
Q 956 3463 1253 3523 
Q 1550 3584 1831 3584 
Q 2591 3584 2966 3190 
Q 3341 2797 3341 1997 
z
" transform="scale(0.015625)"/>
       <path id="DejaVuSans-6e" d="M 3513 2113 
L 3513 0 
L 2938 0 
L 2938 2094 
Q 2938 2591 2744 2837 
Q 2550 3084 2163 3084 
Q 1697 3084 1428 2787 
Q 1159 2491 1159 1978 
L 1159 0 
L 581 0 
L 581 3500 
L 1159 3500 
L 1159 2956 
Q 1366 3272 1645 3428 
Q 1925 3584 2291 3584 
Q 2894 3584 3203 3211 
Q 3513 2838 3513 2113 
z
" transform="scale(0.015625)"/>
       <path id="DejaVuSans-63" d="M 3122 3366 
L 3122 2828 
Q 2878 2963 2633 3030 
Q 2388 3097 2138 3097 
Q 1578 3097 1268 2742 
Q 959 2388 959 1747 
Q 959 1106 1268 751 
Q 1578 397 2138 397 
Q 2388 397 2633 464 
Q 2878 531 3122 666 
L 3122 134 
Q 2881 22 2623 -34 
Q 2366 -91 2075 -91 
Q 1284 -91 818 406 
Q 353 903 353 1747 
Q 353 2603 823 3093 
Q 1294 3584 2113 3584 
Q 2378 3584 2631 3529 
Q 2884 3475 3122 3366 
z
" transform="scale(0.015625)"/>
       <path id="DejaVuSans-65" d="M 3597 1894 
L 3597 1613 
L 953 1613 
Q 991 1019 1311 708 
Q 1631 397 2203 397 
Q 2534 397 2845 478 
Q 3156 559 3463 722 
L 3463 178 
Q 3153 47 2828 -22 
Q 2503 -91 2169 -91 
Q 1331 -91 842 396 
Q 353 884 353 1716 
Q 353 2575 817 3079 
Q 1281 3584 2069 3584 
Q 2775 3584 3186 3129 
Q 3597 2675 3597 1894 
z
M 3022 2063 
Q 3016 2534 2758 2815 
Q 2500 3097 2075 3097 
Q 1594 3097 1305 2825 
Q 1016 2553 972 2059 
L 3022 2063 
z
" transform="scale(0.015625)"/>
       <path id="DejaVuSans-20" transform="scale(0.015625)"/>
       <path id="DejaVuSans-6f" d="M 1959 3097 
Q 1497 3097 1228 2736 
Q 959 2375 959 1747 
Q 959 1119 1226 758 
Q 1494 397 1959 397 
Q 2419 397 2687 759 
Q 2956 1122 2956 1747 
Q 2956 2369 2687 2733 
Q 2419 3097 1959 3097 
z
M 1959 3584 
Q 2709 3584 3137 3096 
Q 3566 2609 3566 1747 
Q 3566 888 3137 398 
Q 2709 -91 1959 -91 
Q 1206 -91 779 398 
Q 353 888 353 1747 
Q 353 2609 779 3096 
Q 1206 3584 1959 3584 
z
" transform="scale(0.015625)"/>
       <path id="DejaVuSans-72" d="M 2631 2963 
Q 2534 3019 2420 3045 
Q 2306 3072 2169 3072 
Q 1681 3072 1420 2755 
Q 1159 2438 1159 1844 
L 1159 0 
L 581 0 
L 581 3500 
L 1159 3500 
L 1159 2956 
Q 1341 3275 1631 3429 
Q 1922 3584 2338 3584 
Q 2397 3584 2469 3576 
Q 2541 3569 2628 3553 
L 2631 2963 
z
" transform="scale(0.015625)"/>
       <path id="DejaVuSans-6c" d="M 603 4863 
L 1178 4863 
L 1178 0 
L 603 0 
L 603 4863 
z
" transform="scale(0.015625)"/>
       <path id="DejaVuSans-2d" d="M 313 2009 
L 1997 2009 
L 1997 1497 
L 313 1497 
L 313 2009 
z
" transform="scale(0.015625)"/>
       <path id="DejaVuSans-70" d="M 1159 525 
L 1159 -1331 
L 581 -1331 
L 581 3500 
L 1159 3500 
L 1159 2969 
Q 1341 3281 1617 3432 
Q 1894 3584 2278 3584 
Q 2916 3584 3314 3078 
Q 3713 2572 3713 1747 
Q 3713 922 3314 415 
Q 2916 -91 2278 -91 
Q 1894 -91 1617 61 
Q 1341 213 1159 525 
z
M 3116 1747 
Q 3116 2381 2855 2742 
Q 2594 3103 2138 3103 
Q 1681 3103 1420 2742 
Q 1159 2381 1159 1747 
Q 1159 1113 1420 752 
Q 1681 391 2138 391 
Q 2594 391 2855 752 
Q 3116 1113 3116 1747 
z
" transform="scale(0.015625)"/>
      </defs>
      <use xlink:href="#DejaVuSans-64"/>
      <use xlink:href="#DejaVuSans-69" x="63.476562"/>
      <use xlink:href="#DejaVuSans-73" x="91.259766"/>
      <use xlink:href="#DejaVuSans-74" x="143.359375"/>
      <use xlink:href="#DejaVuSans-61" x="182.568359"/>
      <use xlink:href="#DejaVuSans-6e" x="243.847656"/>
      <use xlink:href="#DejaVuSans-63" x="307.226562"/>
      <use xlink:href="#DejaVuSans-65" x="362.207031"/>
      <use xlink:href="#DejaVuSans-20" x="423.730469"/>
      <use xlink:href="#DejaVuSans-74" x="455.517578"/>
      <use xlink:href="#DejaVuSans-6f" x="494.726562"/>
      <use xlink:href="#DejaVuSans-20" x="555.908203"/>
      <use xlink:href="#DejaVuSans-63" x="587.695312"/>
      <use xlink:href="#DejaVuSans-6f" x="642.675781"/>
      <use xlink:href="#DejaVuSans-6e" x="703.857422"/>
      <use xlink:href="#DejaVuSans-74" x="767.236328"/>
      <use xlink:href="#DejaVuSans-72" x="806.445312"/>
      <use xlink:href="#DejaVuSans-6f" x="845.308594"/>
      <use xlink:href="#DejaVuSans-6c" x="906.490234"/>
      <use xlink:href="#DejaVuSans-73" x="934.273438"/>
      <use xlink:href="#DejaVuSans-20" x="986.373047"/>
      <use xlink:href="#DejaVuSans-2d" x="1018.160156"/>
      <use xlink:href="#DejaVuSans-20" x="1054.244141"/>
      <use xlink:href="#DejaVuSans-72" x="1086.03125"/>
      <use xlink:href="#DejaVuSans-65" x="1124.894531"/>
      <use xlink:href="#DejaVuSans-61" x="1186.417969"/>
      <use xlink:href="#DejaVuSans-6c" x="1247.697266"/>
      <use xlink:href="#DejaVuSans-20" x="1275.480469"/>
      <use xlink:href="#DejaVuSans-70" x="1307.267578"/>
      <use xlink:href="#DejaVuSans-65" x="1370.744141"/>
      <use xlink:href="#DejaVuSans-72" x="1432.267578"/>
      <use xlink:href="#DejaVuSans-74" x="1473.380859"/>
      <use xlink:href="#DejaVuSans-2e" x="1512.589844"/>
     </g>
    </g>
   </g>
   <g id="matplotlib.axis_2">
    <g id="ytick_1">
     <g id="line2d_4">
      <path d="M 57.77375 239.155514 
L 280.97375 239.155514 
" clip-path="url(#pb2deaf5de8)" style="fill: none; stroke: #cccccc; stroke-linecap: round"/>
     </g>
     <g id="text_5">
      <!-- 0.90 -->
      <g style="fill: #262626" transform="translate(23.781563 243.334654) scale(0.11 -0.11)">
       <defs>
        <path id="DejaVuSans-39" d="M 703 97 
L 703 672 
Q 941 559 1184 500 
Q 1428 441 1663 441 
Q 2288 441 2617 861 
Q 2947 1281 2994 2138 
Q 2813 1869 2534 1725 
Q 2256 1581 1919 1581 
Q 1219 1581 811 2004 
Q 403 2428 403 3163 
Q 403 3881 828 4315 
Q 1253 4750 1959 4750 
Q 2769 4750 3195 4129 
Q 3622 3509 3622 2328 
Q 3622 1225 3098 567 
Q 2575 -91 1691 -91 
Q 1453 -91 1209 -44 
Q 966 3 703 97 
z
M 1959 2075 
Q 2384 2075 2632 2365 
Q 2881 2656 2881 3163 
Q 2881 3666 2632 3958 
Q 2384 4250 1959 4250 
Q 1534 4250 1286 3958 
Q 1038 3666 1038 3163 
Q 1038 2656 1286 2365 
Q 1534 2075 1959 2075 
z
" transform="scale(0.015625)"/>
       </defs>
       <use xlink:href="#DejaVuSans-30"/>
       <use xlink:href="#DejaVuSans-2e" x="63.623047"/>
       <use xlink:href="#DejaVuSans-39" x="95.410156"/>
       <use xlink:href="#DejaVuSans-30" x="159.033203"/>
      </g>
     </g>
    </g>
    <g id="ytick_2">
     <g id="line2d_5">
      <path d="M 57.77375 202.067808 
L 280.97375 202.067808 
" clip-path="url(#pb2deaf5de8)" style="fill: none; stroke: #cccccc; stroke-linecap: round"/>
     </g>
     <g id="text_6">
      <!-- 0.92 -->
      <g style="fill: #262626" transform="translate(23.781563 206.246949) scale(0.11 -0.11)">
       <defs>
        <path id="DejaVuSans-32" d="M 1228 531 
L 3431 531 
L 3431 0 
L 469 0 
L 469 531 
Q 828 903 1448 1529 
Q 2069 2156 2228 2338 
Q 2531 2678 2651 2914 
Q 2772 3150 2772 3378 
Q 2772 3750 2511 3984 
Q 2250 4219 1831 4219 
Q 1534 4219 1204 4116 
Q 875 4013 500 3803 
L 500 4441 
Q 881 4594 1212 4672 
Q 1544 4750 1819 4750 
Q 2544 4750 2975 4387 
Q 3406 4025 3406 3419 
Q 3406 3131 3298 2873 
Q 3191 2616 2906 2266 
Q 2828 2175 2409 1742 
Q 1991 1309 1228 531 
z
" transform="scale(0.015625)"/>
       </defs>
       <use xlink:href="#DejaVuSans-30"/>
       <use xlink:href="#DejaVuSans-2e" x="63.623047"/>
       <use xlink:href="#DejaVuSans-39" x="95.410156"/>
       <use xlink:href="#DejaVuSans-32" x="159.033203"/>
      </g>
     </g>
    </g>
    <g id="ytick_3">
     <g id="line2d_6">
      <path d="M 57.77375 164.980102 
L 280.97375 164.980102 
" clip-path="url(#pb2deaf5de8)" style="fill: none; stroke: #cccccc; stroke-linecap: round"/>
     </g>
     <g id="text_7">
      <!-- 0.94 -->
      <g style="fill: #262626" transform="translate(23.781563 169.159243) scale(0.11 -0.11)">
       <defs>
        <path id="DejaVuSans-34" d="M 2419 4116 
L 825 1625 
L 2419 1625 
L 2419 4116 
z
M 2253 4666 
L 3047 4666 
L 3047 1625 
L 3713 1625 
L 3713 1100 
L 3047 1100 
L 3047 0 
L 2419 0 
L 2419 1100 
L 313 1100 
L 313 1709 
L 2253 4666 
z
" transform="scale(0.015625)"/>
       </defs>
       <use xlink:href="#DejaVuSans-30"/>
       <use xlink:href="#DejaVuSans-2e" x="63.623047"/>
       <use xlink:href="#DejaVuSans-39" x="95.410156"/>
       <use xlink:href="#DejaVuSans-34" x="159.033203"/>
      </g>
     </g>
    </g>
    <g id="ytick_4">
     <g id="line2d_7">
      <path d="M 57.77375 127.892397 
L 280.97375 127.892397 
" clip-path="url(#pb2deaf5de8)" style="fill: none; stroke: #cccccc; stroke-linecap: round"/>
     </g>
     <g id="text_8">
      <!-- 0.96 -->
      <g style="fill: #262626" transform="translate(23.781563 132.071537) scale(0.11 -0.11)">
       <use xlink:href="#DejaVuSans-30"/>
       <use xlink:href="#DejaVuSans-2e" x="63.623047"/>
       <use xlink:href="#DejaVuSans-39" x="95.410156"/>
       <use xlink:href="#DejaVuSans-36" x="159.033203"/>
      </g>
     </g>
    </g>
    <g id="ytick_5">
     <g id="line2d_8">
      <path d="M 57.77375 90.804691 
L 280.97375 90.804691 
" clip-path="url(#pb2deaf5de8)" style="fill: none; stroke: #cccccc; stroke-linecap: round"/>
     </g>
     <g id="text_9">
      <!-- 0.98 -->
      <g style="fill: #262626" transform="translate(23.781563 94.983832) scale(0.11 -0.11)">
       <defs>
        <path id="DejaVuSans-38" d="M 2034 2216 
Q 1584 2216 1326 1975 
Q 1069 1734 1069 1313 
Q 1069 891 1326 650 
Q 1584 409 2034 409 
Q 2484 409 2743 651 
Q 3003 894 3003 1313 
Q 3003 1734 2745 1975 
Q 2488 2216 2034 2216 
z
M 1403 2484 
Q 997 2584 770 2862 
Q 544 3141 544 3541 
Q 544 4100 942 4425 
Q 1341 4750 2034 4750 
Q 2731 4750 3128 4425 
Q 3525 4100 3525 3541 
Q 3525 3141 3298 2862 
Q 3072 2584 2669 2484 
Q 3125 2378 3379 2068 
Q 3634 1759 3634 1313 
Q 3634 634 3220 271 
Q 2806 -91 2034 -91 
Q 1263 -91 848 271 
Q 434 634 434 1313 
Q 434 1759 690 2068 
Q 947 2378 1403 2484 
z
M 1172 3481 
Q 1172 3119 1398 2916 
Q 1625 2713 2034 2713 
Q 2441 2713 2670 2916 
Q 2900 3119 2900 3481 
Q 2900 3844 2670 4047 
Q 2441 4250 2034 4250 
Q 1625 4250 1398 4047 
Q 1172 3844 1172 3481 
z
" transform="scale(0.015625)"/>
       </defs>
       <use xlink:href="#DejaVuSans-30"/>
       <use xlink:href="#DejaVuSans-2e" x="63.623047"/>
       <use xlink:href="#DejaVuSans-39" x="95.410156"/>
       <use xlink:href="#DejaVuSans-38" x="159.033203"/>
      </g>
     </g>
    </g>
    <g id="ytick_6">
     <g id="line2d_9">
      <path d="M 57.77375 53.716985 
L 280.97375 53.716985 
" clip-path="url(#pb2deaf5de8)" style="fill: none; stroke: #cccccc; stroke-linecap: round"/>
     </g>
     <g id="text_10">
      <!-- 1.00 -->
      <g style="fill: #262626" transform="translate(23.781563 57.896126) scale(0.11 -0.11)">
       <defs>
        <path id="DejaVuSans-31" d="M 794 531 
L 1825 531 
L 1825 4091 
L 703 3866 
L 703 4441 
L 1819 4666 
L 2450 4666 
L 2450 531 
L 3481 531 
L 3481 0 
L 794 0 
L 794 531 
z
" transform="scale(0.015625)"/>
       </defs>
       <use xlink:href="#DejaVuSans-31"/>
       <use xlink:href="#DejaVuSans-2e" x="63.623047"/>
       <use xlink:href="#DejaVuSans-30" x="95.410156"/>
       <use xlink:href="#DejaVuSans-30" x="159.033203"/>
      </g>
     </g>
    </g>
    <g id="ytick_7">
     <g id="line2d_10">
      <path d="M 57.77375 16.62928 
L 280.97375 16.62928 
" clip-path="url(#pb2deaf5de8)" style="fill: none; stroke: #cccccc; stroke-linecap: round"/>
     </g>
     <g id="text_11">
      <!-- 1.02 -->
      <g style="fill: #262626" transform="translate(23.781563 20.80842) scale(0.11 -0.11)">
       <use xlink:href="#DejaVuSans-31"/>
       <use xlink:href="#DejaVuSans-2e" x="63.623047"/>
       <use xlink:href="#DejaVuSans-30" x="95.410156"/>
       <use xlink:href="#DejaVuSans-32" x="159.033203"/>
      </g>
     </g>
    </g>
    <g id="text_12">
     <!-- coverage of real by generated pert. -->
     <g style="fill: #262626" transform="translate(17.077969 242.444359) rotate(-90) scale(0.13 -0.13)">
      <defs>
       <path id="DejaVuSans-76" d="M 191 3500 
L 800 3500 
L 1894 563 
L 2988 3500 
L 3597 3500 
L 2284 0 
L 1503 0 
L 191 3500 
z
" transform="scale(0.015625)"/>
       <path id="DejaVuSans-67" d="M 2906 1791 
Q 2906 2416 2648 2759 
Q 2391 3103 1925 3103 
Q 1463 3103 1205 2759 
Q 947 2416 947 1791 
Q 947 1169 1205 825 
Q 1463 481 1925 481 
Q 2391 481 2648 825 
Q 2906 1169 2906 1791 
z
M 3481 434 
Q 3481 -459 3084 -895 
Q 2688 -1331 1869 -1331 
Q 1566 -1331 1297 -1286 
Q 1028 -1241 775 -1147 
L 775 -588 
Q 1028 -725 1275 -790 
Q 1522 -856 1778 -856 
Q 2344 -856 2625 -561 
Q 2906 -266 2906 331 
L 2906 616 
Q 2728 306 2450 153 
Q 2172 0 1784 0 
Q 1141 0 747 490 
Q 353 981 353 1791 
Q 353 2603 747 3093 
Q 1141 3584 1784 3584 
Q 2172 3584 2450 3431 
Q 2728 3278 2906 2969 
L 2906 3500 
L 3481 3500 
L 3481 434 
z
" transform="scale(0.015625)"/>
       <path id="DejaVuSans-66" d="M 2375 4863 
L 2375 4384 
L 1825 4384 
Q 1516 4384 1395 4259 
Q 1275 4134 1275 3809 
L 1275 3500 
L 2222 3500 
L 2222 3053 
L 1275 3053 
L 1275 0 
L 697 0 
L 697 3053 
L 147 3053 
L 147 3500 
L 697 3500 
L 697 3744 
Q 697 4328 969 4595 
Q 1241 4863 1831 4863 
L 2375 4863 
z
" transform="scale(0.015625)"/>
       <path id="DejaVuSans-62" d="M 3116 1747 
Q 3116 2381 2855 2742 
Q 2594 3103 2138 3103 
Q 1681 3103 1420 2742 
Q 1159 2381 1159 1747 
Q 1159 1113 1420 752 
Q 1681 391 2138 391 
Q 2594 391 2855 752 
Q 3116 1113 3116 1747 
z
M 1159 2969 
Q 1341 3281 1617 3432 
Q 1894 3584 2278 3584 
Q 2916 3584 3314 3078 
Q 3713 2572 3713 1747 
Q 3713 922 3314 415 
Q 2916 -91 2278 -91 
Q 1894 -91 1617 61 
Q 1341 213 1159 525 
L 1159 0 
L 581 0 
L 581 4863 
L 1159 4863 
L 1159 2969 
z
" transform="scale(0.015625)"/>
       <path id="DejaVuSans-79" d="M 2059 -325 
Q 1816 -950 1584 -1140 
Q 1353 -1331 966 -1331 
L 506 -1331 
L 506 -850 
L 844 -850 
Q 1081 -850 1212 -737 
Q 1344 -625 1503 -206 
L 1606 56 
L 191 3500 
L 800 3500 
L 1894 763 
L 2988 3500 
L 3597 3500 
L 2059 -325 
z
" transform="scale(0.015625)"/>
      </defs>
      <use xlink:href="#DejaVuSans-63"/>
      <use xlink:href="#DejaVuSans-6f" x="54.980469"/>
      <use xlink:href="#DejaVuSans-76" x="116.162109"/>
      <use xlink:href="#DejaVuSans-65" x="175.341797"/>
      <use xlink:href="#DejaVuSans-72" x="236.865234"/>
      <use xlink:href="#DejaVuSans-61" x="277.978516"/>
      <use xlink:href="#DejaVuSans-67" x="339.257812"/>
      <use xlink:href="#DejaVuSans-65" x="402.734375"/>
      <use xlink:href="#DejaVuSans-20" x="464.257812"/>
      <use xlink:href="#DejaVuSans-6f" x="496.044922"/>
      <use xlink:href="#DejaVuSans-66" x="557.226562"/>
      <use xlink:href="#DejaVuSans-20" x="592.431641"/>
      <use xlink:href="#DejaVuSans-72" x="624.21875"/>
      <use xlink:href="#DejaVuSans-65" x="663.082031"/>
      <use xlink:href="#DejaVuSans-61" x="724.605469"/>
      <use xlink:href="#DejaVuSans-6c" x="785.884766"/>
      <use xlink:href="#DejaVuSans-20" x="813.667969"/>
      <use xlink:href="#DejaVuSans-62" x="845.455078"/>
      <use xlink:href="#DejaVuSans-79" x="908.931641"/>
      <use xlink:href="#DejaVuSans-20" x="968.111328"/>
      <use xlink:href="#DejaVuSans-67" x="999.898438"/>
      <use xlink:href="#DejaVuSans-65" x="1063.375"/>
      <use xlink:href="#DejaVuSans-6e" x="1124.898438"/>
      <use xlink:href="#DejaVuSans-65" x="1188.277344"/>
      <use xlink:href="#DejaVuSans-72" x="1249.800781"/>
      <use xlink:href="#DejaVuSans-61" x="1290.914062"/>
      <use xlink:href="#DejaVuSans-74" x="1352.193359"/>
      <use xlink:href="#DejaVuSans-65" x="1391.402344"/>
      <use xlink:href="#DejaVuSans-64" x="1452.925781"/>
      <use xlink:href="#DejaVuSans-20" x="1516.402344"/>
      <use xlink:href="#DejaVuSans-70" x="1548.189453"/>
      <use xlink:href="#DejaVuSans-65" x="1611.666016"/>
      <use xlink:href="#DejaVuSans-72" x="1673.189453"/>
      <use xlink:href="#DejaVuSans-74" x="1714.302734"/>
      <use xlink:href="#DejaVuSans-2e" x="1753.511719"/>
     </g>
    </g>
   </g>
   <g id="PathCollection_1">
    <defs>
     <path id="m9237148904" d="M 0 7.071068 
C 1.875269 7.071068 3.673985 6.326016 5 5 
C 6.326016 3.673985 7.071068 1.875269 7.071068 0 
C 7.071068 -1.875269 6.326016 -3.673985 5 -5 
C 3.673985 -6.326016 1.875269 -7.071068 0 -7.071068 
C -1.875269 -7.071068 -3.673985 -6.326016 -5 -5 
C -6.326016 -3.673985 -7.071068 -1.875269 -7.071068 0 
C -7.071068 1.875269 -6.326016 3.673985 -5 5 
C -3.673985 6.326016 -1.875269 7.071068 0 7.071068 
z
" style="stroke: #0173b2; stroke-opacity: 0.8"/>
    </defs>
    <g clip-path="url(#pb2deaf5de8)">
     <use xlink:href="#m9237148904" x="188.027211" y="53.716985" style="fill: #0173b2; fill-opacity: 0.8; stroke: #0173b2; stroke-opacity: 0.8"/>
     <use xlink:href="#m9237148904" x="225.466177" y="53.716985" style="fill: #0173b2; fill-opacity: 0.8; stroke: #0173b2; stroke-opacity: 0.8"/>
     <use xlink:href="#m9237148904" x="112.255398" y="163.878487" style="fill: #0173b2; fill-opacity: 0.8; stroke: #0173b2; stroke-opacity: 0.8"/>
     <use xlink:href="#m9237148904" x="121.168942" y="53.716985" style="fill: #0173b2; fill-opacity: 0.8; stroke: #0173b2; stroke-opacity: 0.8"/>
     <use xlink:href="#m9237148904" x="129.093117" y="53.716985" style="fill: #0173b2; fill-opacity: 0.8; stroke: #0173b2; stroke-opacity: 0.8"/>
     <use xlink:href="#m9237148904" x="112.314519" y="53.716985" style="fill: #0173b2; fill-opacity: 0.8; stroke: #0173b2; stroke-opacity: 0.8"/>
     <use xlink:href="#m9237148904" x="67.919205" y="53.716985" style="fill: #0173b2; fill-opacity: 0.8; stroke: #0173b2; stroke-opacity: 0.8"/>
     <use xlink:href="#m9237148904" x="69.486044" y="53.716985" style="fill: #0173b2; fill-opacity: 0.8; stroke: #0173b2; stroke-opacity: 0.8"/>
     <use xlink:href="#m9237148904" x="69.471535" y="90.437486" style="fill: #0173b2; fill-opacity: 0.8; stroke: #0173b2; stroke-opacity: 0.8"/>
     <use xlink:href="#m9237148904" x="80.67246" y="53.716985" style="fill: #0173b2; fill-opacity: 0.8; stroke: #0173b2; stroke-opacity: 0.8"/>
     <use xlink:href="#m9237148904" x="270.828295" y="72.077236" style="fill: #0173b2; fill-opacity: 0.8; stroke: #0173b2; stroke-opacity: 0.8"/>
    </g>
   </g>
   <g id="PolyCollection_1">
    <defs>
     <path id="m6934acb463" d="M 67.919205 -240.407403 
L 67.919205 -178.225581 
L 69.968791 -178.912472 
L 72.018378 -179.599363 
L 74.067965 -180.286254 
L 76.117552 -180.973145 
L 78.167138 -181.660036 
L 80.216725 -182.346927 
L 82.266312 -182.796057 
L 84.315899 -183.237432 
L 86.365486 -183.678807 
L 88.415072 -184.120182 
L 90.464659 -184.561557 
L 92.514246 -184.025722 
L 94.563833 -184.64539 
L 96.613419 -185.270339 
L 98.663006 -182.913213 
L 100.712593 -181.799319 
L 102.76218 -182.249384 
L 104.811767 -182.705278 
L 106.861353 -181.506775 
L 108.91094 -181.924496 
L 110.960527 -179.351153 
L 113.010114 -178.360149 
L 115.0597 -176.462312 
L 117.109287 -175.284694 
L 119.158874 -175.941313 
L 121.208461 -174.876938 
L 123.258048 -173.571869 
L 125.307634 -172.2668 
L 127.357221 -170.961731 
L 129.406808 -169.425264 
L 131.456395 -167.763499 
L 133.505981 -166.101734 
L 135.555568 -164.43997 
L 137.605155 -162.778205 
L 139.654742 -161.11644 
L 141.704329 -159.454676 
L 143.753915 -157.792911 
L 145.803502 -156.131146 
L 147.853089 -154.469381 
L 149.902676 -152.807617 
L 151.952262 -151.145852 
L 154.001849 -149.484087 
L 156.051436 -147.822323 
L 158.101023 -146.160558 
L 160.15061 -144.498793 
L 162.200196 -142.837029 
L 164.249783 -141.175264 
L 166.29937 -139.513499 
L 168.348957 -137.851735 
L 170.398543 -136.18997 
L 172.44813 -134.528205 
L 174.497717 -132.86644 
L 176.547304 -131.204676 
L 178.59689 -129.542911 
L 180.646477 -127.881146 
L 182.696064 -126.219382 
L 184.745651 -124.557617 
L 186.795238 -122.895852 
L 188.844824 -121.234088 
L 190.894411 -119.572323 
L 192.943998 -117.910558 
L 194.993585 -116.248794 
L 197.043171 -114.587029 
L 199.092758 -112.925264 
L 201.142345 -111.2635 
L 203.191932 -109.601735 
L 205.241519 -107.93997 
L 207.291105 -106.278205 
L 209.340692 -104.616441 
L 211.390279 -102.954676 
L 213.439866 -101.292911 
L 215.489452 -99.631147 
L 217.539039 -97.969382 
L 219.588626 -96.307617 
L 221.638213 -94.645853 
L 223.6878 -92.984088 
L 225.737386 -91.322323 
L 227.786973 -89.660559 
L 229.83656 -87.998794 
L 231.886147 -86.337029 
L 233.935733 -84.675264 
L 235.98532 -83.0135 
L 238.034907 -81.351735 
L 240.084494 -79.68997 
L 242.134081 -78.028206 
L 244.183667 -76.366441 
L 246.233254 -74.704676 
L 248.282841 -73.042912 
L 250.332428 -71.381147 
L 252.382014 -69.719382 
L 254.431601 -68.057618 
L 256.481188 -66.395853 
L 258.530775 -64.734088 
L 260.580362 -63.072323 
L 262.629948 -61.410559 
L 264.679535 -59.748794 
L 266.729122 -58.087029 
L 268.778709 -56.425265 
L 270.828295 -54.7635 
L 270.828295 -271.4835 
L 270.828295 -271.4835 
L 268.778709 -270.896537 
L 266.729122 -270.309573 
L 264.679535 -269.72261 
L 262.629948 -269.135647 
L 260.580362 -268.548683 
L 258.530775 -267.96172 
L 256.481188 -267.374757 
L 254.431601 -266.787793 
L 252.382014 -266.20083 
L 250.332428 -265.613867 
L 248.282841 -265.026903 
L 246.233254 -264.43994 
L 244.183667 -263.852977 
L 242.134081 -263.266013 
L 240.084494 -262.67905 
L 238.034907 -262.092087 
L 235.98532 -261.505123 
L 233.935733 -260.91816 
L 231.886147 -260.331197 
L 229.83656 -259.744233 
L 227.786973 -259.15727 
L 225.737386 -258.570307 
L 223.6878 -257.983343 
L 221.638213 -257.41081 
L 219.588626 -256.854922 
L 217.539039 -256.299035 
L 215.489452 -255.743147 
L 213.439866 -255.18726 
L 211.390279 -254.631372 
L 209.340692 -254.075485 
L 207.291105 -253.519597 
L 205.241519 -252.96371 
L 203.191932 -252.407822 
L 201.142345 -251.851935 
L 199.092758 -251.296047 
L 197.043171 -250.74016 
L 194.993585 -250.184272 
L 192.943998 -249.628385 
L 190.894411 -249.072497 
L 188.844824 -248.51661 
L 186.795238 -247.960722 
L 184.745651 -247.404835 
L 182.696064 -246.848947 
L 180.646477 -246.29306 
L 178.59689 -245.737173 
L 176.547304 -245.329157 
L 174.497717 -244.983055 
L 172.44813 -244.636952 
L 170.398543 -244.29085 
L 168.348957 -243.944748 
L 166.29937 -243.598645 
L 164.249783 -243.252543 
L 162.200196 -242.906441 
L 160.15061 -242.591357 
L 158.101023 -242.285865 
L 156.051436 -241.980373 
L 154.001849 -241.674881 
L 151.952262 -241.369389 
L 149.902676 -241.063897 
L 147.853089 -240.758404 
L 145.803502 -240.452912 
L 143.753915 -240.14742 
L 141.704329 -239.841928 
L 139.654742 -239.536436 
L 137.605155 -239.230944 
L 135.555568 -238.925451 
L 133.505981 -238.619959 
L 131.456395 -238.314467 
L 129.406808 -238.21839 
L 127.357221 -238.407 
L 125.307634 -237.982882 
L 123.258048 -237.480853 
L 121.208461 -237.015627 
L 119.158874 -236.881393 
L 117.109287 -236.721603 
L 115.0597 -236.848484 
L 113.010114 -237.009349 
L 110.960527 -237.153739 
L 108.91094 -237.191622 
L 106.861353 -237.248128 
L 104.811767 -237.462306 
L 102.76218 -237.676483 
L 100.712593 -237.874504 
L 98.663006 -238.019053 
L 96.613419 -238.163602 
L 94.563833 -238.308151 
L 92.514246 -238.4527 
L 90.464659 -238.597248 
L 88.415072 -238.741797 
L 86.365486 -238.886176 
L 84.315899 -239.030464 
L 82.266312 -239.174753 
L 80.216725 -239.334181 
L 78.167138 -239.513051 
L 76.117552 -239.691922 
L 74.067965 -239.870792 
L 72.018378 -240.049662 
L 69.968791 -240.228533 
L 67.919205 -240.407403 
z
" style="stroke: #ffffff; stroke-opacity: 0.15"/>
    </defs>
    <g clip-path="url(#pb2deaf5de8)">
     <use xlink:href="#m6934acb463" x="0" y="289.5195" style="fill: #0173b2; fill-opacity: 0.15; stroke: #ffffff; stroke-opacity: 0.15"/>
    </g>
   </g>
   <g id="line2d_11">
    <path d="M 67.919205 71.25347 
L 69.968791 71.172437 
L 72.018378 71.091405 
L 74.067965 71.010372 
L 76.117552 70.92934 
L 78.167138 70.848307 
L 80.216725 70.767275 
L 82.266312 70.686242 
L 84.315899 70.60521 
L 86.365486 70.524177 
L 88.415072 70.443144 
L 90.464659 70.362112 
L 92.514246 70.281079 
L 94.563833 70.200047 
L 96.613419 70.119014 
L 98.663006 70.037982 
L 100.712593 69.956949 
L 102.76218 69.875917 
L 104.811767 69.794884 
L 106.861353 69.713852 
L 108.91094 69.632819 
L 110.960527 69.551787 
L 113.010114 69.470754 
L 115.0597 69.389722 
L 117.109287 69.308689 
L 119.158874 69.227657 
L 121.208461 69.146624 
L 123.258048 69.065592 
L 125.307634 68.984559 
L 127.357221 68.903527 
L 129.406808 68.822494 
L 131.456395 68.741461 
L 133.505981 68.660429 
L 135.555568 68.579396 
L 137.605155 68.498364 
L 139.654742 68.417331 
L 141.704329 68.336299 
L 143.753915 68.255266 
L 145.803502 68.174234 
L 147.853089 68.093201 
L 149.902676 68.012169 
L 151.952262 67.931136 
L 154.001849 67.850104 
L 156.051436 67.769071 
L 158.101023 67.688039 
L 160.15061 67.607006 
L 162.200196 67.525974 
L 164.249783 67.444941 
L 166.29937 67.363909 
L 168.348957 67.282876 
L 170.398543 67.201843 
L 172.44813 67.120811 
L 174.497717 67.039778 
L 176.547304 66.958746 
L 178.59689 66.877713 
L 180.646477 66.796681 
L 182.696064 66.715648 
L 184.745651 66.634616 
L 186.795238 66.553583 
L 188.844824 66.472551 
L 190.894411 66.391518 
L 192.943998 66.310486 
L 194.993585 66.229453 
L 197.043171 66.148421 
L 199.092758 66.067388 
L 201.142345 65.986356 
L 203.191932 65.905323 
L 205.241519 65.824291 
L 207.291105 65.743258 
L 209.340692 65.662226 
L 211.390279 65.581193 
L 213.439866 65.50016 
L 215.489452 65.419128 
L 217.539039 65.338095 
L 219.588626 65.257063 
L 221.638213 65.17603 
L 223.6878 65.094998 
L 225.737386 65.013965 
L 227.786973 64.932933 
L 229.83656 64.8519 
L 231.886147 64.770868 
L 233.935733 64.689835 
L 235.98532 64.608803 
L 238.034907 64.52777 
L 240.084494 64.446738 
L 242.134081 64.365705 
L 244.183667 64.284673 
L 246.233254 64.20364 
L 248.282841 64.122608 
L 250.332428 64.041575 
L 252.382014 63.960543 
L 254.431601 63.87951 
L 256.481188 63.798477 
L 258.530775 63.717445 
L 260.580362 63.636412 
L 262.629948 63.55538 
L 264.679535 63.474347 
L 266.729122 63.393315 
L 268.778709 63.312282 
L 270.828295 63.23125 
" clip-path="url(#pb2deaf5de8)" style="fill: none; stroke: #0173b2; stroke-width: 2.25; stroke-linecap: round"/>
   </g>
   <g id="patch_3">
    <path d="M 57.77375 245.592 
L 57.77375 7.2 
" style="fill: none; stroke: #cccccc; stroke-width: 1.25; stroke-linejoin: miter; stroke-linecap: square"/>
   </g>
   <g id="patch_4">
    <path d="M 280.97375 245.592 
L 280.97375 7.2 
" style="fill: none; stroke: #cccccc; stroke-width: 1.25; stroke-linejoin: miter; stroke-linecap: square"/>
   </g>
   <g id="patch_5">
    <path d="M 57.77375 245.592 
L 280.97375 245.592 
" style="fill: none; stroke: #cccccc; stroke-width: 1.25; stroke-linejoin: miter; stroke-linecap: square"/>
   </g>
   <g id="patch_6">
    <path d="M 57.77375 7.2 
L 280.97375 7.2 
" style="fill: none; stroke: #cccccc; stroke-width: 1.25; stroke-linejoin: miter; stroke-linecap: square"/>
   </g>
  </g>
 </g>
 <defs>
  <clipPath id="pb2deaf5de8">
   <rect x="57.77375" y="7.2" width="223.2" height="238.392"/>
  </clipPath>
 </defs>
</svg>
