<?xml version="1.0" encoding="utf-8" standalone="no"?>
<!DOCTYPE svg PUBLIC "-//W3C//DTD SVG 1.1//EN"
  "http://www.w3.org/Graphics/SVG/1.1/DTD/svg11.dtd">
<svg xmlns:xlink="http://www.w3.org/1999/xlink" width="288.17375pt" height="289.5195pt" viewBox="0 0 288.17375 289.5195" xmlns="http://www.w3.org/2000/svg" version="1.1">
 <metadata>
  <rdf:RDF xmlns:dc="http://purl.org/dc/elements/1.1/" xmlns:cc="http://creativecommons.org/ns#" xmlns:rdf="http://www.w3.org/1999/02/22-rdf-syntax-ns#">
   <cc:Work>
    <dc:type rdf:resource="http://purl.org/dc/dcmitype/StillImage"/>
    <dc:date>2024-03-18T17:44:12.755919</dc:date>
    <dc:format>image/svg+xml</dc:format>
    <dc:creator>
     <cc:Agent>
      <dc:title>Matplotlib v3.8.2, https://matplotlib.org/</dc:title>
     </cc:Agent>
    </dc:creator>
   </cc:Work>
  </rdf:RDF>
 </metadata>
 <defs>
  <style type="text/css">*{stroke-linejoin: round; stroke-linecap: butt}</style>
 </defs>
 <g id="figure_1">
  <g id="patch_1">
   <path d="M 0 289.5195 
L 288.17375 289.5195 
L 288.17375 0 
L 0 0 
z
" style="fill: #ffffff"/>
  </g>
  <g id="axes_1">
   <g id="patch_2">
    <path d="M 57.77375 245.592 
L 280.97375 245.592 
L 280.97375 7.2 
L 57.77375 7.2 
z
" style="fill: #ffffff"/>
   </g>
   <g id="matplotlib.axis_1">
    <g id="xtick_1">
     <g id="line2d_1">
      <path d="M 89.847963 245.592 
L 89.847963 7.2 
" clip-path="url(#p2ff75add8c)" style="fill: none; stroke: #cccccc; stroke-linecap: round"/>
     </g>
     <g id="text_1">
      <!-- 0.55 -->
      <g style="fill: #262626" transform="translate(77.601869 263.450281) scale(0.11 -0.11)">
       <defs>
        <path id="DejaVuSans-30" d="M 2034 4250 
Q 1547 4250 1301 3770 
Q 1056 3291 1056 2328 
Q 1056 1369 1301 889 
Q 1547 409 2034 409 
Q 2525 409 2770 889 
Q 3016 1369 3016 2328 
Q 3016 3291 2770 3770 
Q 2525 4250 2034 4250 
z
M 2034 4750 
Q 2819 4750 3233 4129 
Q 3647 3509 3647 2328 
Q 3647 1150 3233 529 
Q 2819 -91 2034 -91 
Q 1250 -91 836 529 
Q 422 1150 422 2328 
Q 422 3509 836 4129 
Q 1250 4750 2034 4750 
z
" transform="scale(0.015625)"/>
        <path id="DejaVuSans-2e" d="M 684 794 
L 1344 794 
L 1344 0 
L 684 0 
L 684 794 
z
" transform="scale(0.015625)"/>
        <path id="DejaVuSans-35" d="M 691 4666 
L 3169 4666 
L 3169 4134 
L 1269 4134 
L 1269 2991 
Q 1406 3038 1543 3061 
Q 1681 3084 1819 3084 
Q 2600 3084 3056 2656 
Q 3513 2228 3513 1497 
Q 3513 744 3044 326 
Q 2575 -91 1722 -91 
Q 1428 -91 1123 -41 
Q 819 9 494 109 
L 494 744 
Q 775 591 1075 516 
Q 1375 441 1709 441 
Q 2250 441 2565 725 
Q 2881 1009 2881 1497 
Q 2881 1984 2565 2268 
Q 2250 2553 1709 2553 
Q 1456 2553 1204 2497 
Q 953 2441 691 2322 
L 691 4666 
z
" transform="scale(0.015625)"/>
       </defs>
       <use xlink:href="#DejaVuSans-30"/>
       <use xlink:href="#DejaVuSans-2e" x="63.623047"/>
       <use xlink:href="#DejaVuSans-35" x="95.410156"/>
       <use xlink:href="#DejaVuSans-35" x="159.033203"/>
      </g>
     </g>
    </g>
    <g id="xtick_2">
     <g id="line2d_2">
      <path d="M 158.324926 245.592 
L 158.324926 7.2 
" clip-path="url(#p2ff75add8c)" style="fill: none; stroke: #cccccc; stroke-linecap: round"/>
     </g>
     <g id="text_2">
      <!-- 0.60 -->
      <g style="fill: #262626" transform="translate(146.078832 263.450281) scale(0.11 -0.11)">
       <defs>
        <path id="DejaVuSans-36" d="M 2113 2584 
Q 1688 2584 1439 2293 
Q 1191 2003 1191 1497 
Q 1191 994 1439 701 
Q 1688 409 2113 409 
Q 2538 409 2786 701 
Q 3034 994 3034 1497 
Q 3034 2003 2786 2293 
Q 2538 2584 2113 2584 
z
M 3366 4563 
L 3366 3988 
Q 3128 4100 2886 4159 
Q 2644 4219 2406 4219 
Q 1781 4219 1451 3797 
Q 1122 3375 1075 2522 
Q 1259 2794 1537 2939 
Q 1816 3084 2150 3084 
Q 2853 3084 3261 2657 
Q 3669 2231 3669 1497 
Q 3669 778 3244 343 
Q 2819 -91 2113 -91 
Q 1303 -91 875 529 
Q 447 1150 447 2328 
Q 447 3434 972 4092 
Q 1497 4750 2381 4750 
Q 2619 4750 2861 4703 
Q 3103 4656 3366 4563 
z
" transform="scale(0.015625)"/>
       </defs>
       <use xlink:href="#DejaVuSans-30"/>
       <use xlink:href="#DejaVuSans-2e" x="63.623047"/>
       <use xlink:href="#DejaVuSans-36" x="95.410156"/>
       <use xlink:href="#DejaVuSans-30" x="159.033203"/>
      </g>
     </g>
    </g>
    <g id="xtick_3">
     <g id="line2d_3">
      <path d="M 226.801889 245.592 
L 226.801889 7.2 
" clip-path="url(#p2ff75add8c)" style="fill: none; stroke: #cccccc; stroke-linecap: round"/>
     </g>
     <g id="text_3">
      <!-- 0.65 -->
      <g style="fill: #262626" transform="translate(214.555795 263.450281) scale(0.11 -0.11)">
       <use xlink:href="#DejaVuSans-30"/>
       <use xlink:href="#DejaVuSans-2e" x="63.623047"/>
       <use xlink:href="#DejaVuSans-36" x="95.410156"/>
       <use xlink:href="#DejaVuSans-35" x="159.033203"/>
      </g>
     </g>
    </g>
    <g id="text_4">
     <!-- distance to controls - real pert. -->
     <g style="fill: #262626" transform="translate(68.991406 279.615906) scale(0.13 -0.13)">
      <defs>
       <path id="DejaVuSans-64" d="M 2906 2969 
L 2906 4863 
L 3481 4863 
L 3481 0 
L 2906 0 
L 2906 525 
Q 2725 213 2448 61 
Q 2172 -91 1784 -91 
Q 1150 -91 751 415 
Q 353 922 353 1747 
Q 353 2572 751 3078 
Q 1150 3584 1784 3584 
Q 2172 3584 2448 3432 
Q 2725 3281 2906 2969 
z
M 947 1747 
Q 947 1113 1208 752 
Q 1469 391 1925 391 
Q 2381 391 2643 752 
Q 2906 1113 2906 1747 
Q 2906 2381 2643 2742 
Q 2381 3103 1925 3103 
Q 1469 3103 1208 2742 
Q 947 2381 947 1747 
z
" transform="scale(0.015625)"/>
       <path id="DejaVuSans-69" d="M 603 3500 
L 1178 3500 
L 1178 0 
L 603 0 
L 603 3500 
z
M 603 4863 
L 1178 4863 
L 1178 4134 
L 603 4134 
L 603 4863 
z
" transform="scale(0.015625)"/>
       <path id="DejaVuSans-73" d="M 2834 3397 
L 2834 2853 
Q 2591 2978 2328 3040 
Q 2066 3103 1784 3103 
Q 1356 3103 1142 2972 
Q 928 2841 928 2578 
Q 928 2378 1081 2264 
Q 1234 2150 1697 2047 
L 1894 2003 
Q 2506 1872 2764 1633 
Q 3022 1394 3022 966 
Q 3022 478 2636 193 
Q 2250 -91 1575 -91 
Q 1294 -91 989 -36 
Q 684 19 347 128 
L 347 722 
Q 666 556 975 473 
Q 1284 391 1588 391 
Q 1994 391 2212 530 
Q 2431 669 2431 922 
Q 2431 1156 2273 1281 
Q 2116 1406 1581 1522 
L 1381 1569 
Q 847 1681 609 1914 
Q 372 2147 372 2553 
Q 372 3047 722 3315 
Q 1072 3584 1716 3584 
Q 2034 3584 2315 3537 
Q 2597 3491 2834 3397 
z
" transform="scale(0.015625)"/>
       <path id="DejaVuSans-74" d="M 1172 4494 
L 1172 3500 
L 2356 3500 
L 2356 3053 
L 1172 3053 
L 1172 1153 
Q 1172 725 1289 603 
Q 1406 481 1766 481 
L 2356 481 
L 2356 0 
L 1766 0 
Q 1100 0 847 248 
Q 594 497 594 1153 
L 594 3053 
L 172 3053 
L 172 3500 
L 594 3500 
L 594 4494 
L 1172 4494 
z
" transform="scale(0.015625)"/>
       <path id="DejaVuSans-61" d="M 2194 1759 
Q 1497 1759 1228 1600 
Q 959 1441 959 1056 
Q 959 750 1161 570 
Q 1363 391 1709 391 
Q 2188 391 2477 730 
Q 2766 1069 2766 1631 
L 2766 1759 
L 2194 1759 
z
M 3341 1997 
L 3341 0 
L 2766 0 
L 2766 531 
Q 2569 213 2275 61 
Q 1981 -91 1556 -91 
Q 1019 -91 701 211 
Q 384 513 384 1019 
Q 384 1609 779 1909 
Q 1175 2209 1959 2209 
L 2766 2209 
L 2766 2266 
Q 2766 2663 2505 2880 
Q 2244 3097 1772 3097 
Q 1472 3097 1187 3025 
Q 903 2953 641 2809 
L 641 3341 
Q 956 3463 1253 3523 
Q 1550 3584 1831 3584 
Q 2591 3584 2966 3190 
Q 3341 2797 3341 1997 
z
" transform="scale(0.015625)"/>
       <path id="DejaVuSans-6e" d="M 3513 2113 
L 3513 0 
L 2938 0 
L 2938 2094 
Q 2938 2591 2744 2837 
Q 2550 3084 2163 3084 
Q 1697 3084 1428 2787 
Q 1159 2491 1159 1978 
L 1159 0 
L 581 0 
L 581 3500 
L 1159 3500 
L 1159 2956 
Q 1366 3272 1645 3428 
Q 1925 3584 2291 3584 
Q 2894 3584 3203 3211 
Q 3513 2838 3513 2113 
z
" transform="scale(0.015625)"/>
       <path id="DejaVuSans-63" d="M 3122 3366 
L 3122 2828 
Q 2878 2963 2633 3030 
Q 2388 3097 2138 3097 
Q 1578 3097 1268 2742 
Q 959 2388 959 1747 
Q 959 1106 1268 751 
Q 1578 397 2138 397 
Q 2388 397 2633 464 
Q 2878 531 3122 666 
L 3122 134 
Q 2881 22 2623 -34 
Q 2366 -91 2075 -91 
Q 1284 -91 818 406 
Q 353 903 353 1747 
Q 353 2603 823 3093 
Q 1294 3584 2113 3584 
Q 2378 3584 2631 3529 
Q 2884 3475 3122 3366 
z
" transform="scale(0.015625)"/>
       <path id="DejaVuSans-65" d="M 3597 1894 
L 3597 1613 
L 953 1613 
Q 991 1019 1311 708 
Q 1631 397 2203 397 
Q 2534 397 2845 478 
Q 3156 559 3463 722 
L 3463 178 
Q 3153 47 2828 -22 
Q 2503 -91 2169 -91 
Q 1331 -91 842 396 
Q 353 884 353 1716 
Q 353 2575 817 3079 
Q 1281 3584 2069 3584 
Q 2775 3584 3186 3129 
Q 3597 2675 3597 1894 
z
M 3022 2063 
Q 3016 2534 2758 2815 
Q 2500 3097 2075 3097 
Q 1594 3097 1305 2825 
Q 1016 2553 972 2059 
L 3022 2063 
z
" transform="scale(0.015625)"/>
       <path id="DejaVuSans-20" transform="scale(0.015625)"/>
       <path id="DejaVuSans-6f" d="M 1959 3097 
Q 1497 3097 1228 2736 
Q 959 2375 959 1747 
Q 959 1119 1226 758 
Q 1494 397 1959 397 
Q 2419 397 2687 759 
Q 2956 1122 2956 1747 
Q 2956 2369 2687 2733 
Q 2419 3097 1959 3097 
z
M 1959 3584 
Q 2709 3584 3137 3096 
Q 3566 2609 3566 1747 
Q 3566 888 3137 398 
Q 2709 -91 1959 -91 
Q 1206 -91 779 398 
Q 353 888 353 1747 
Q 353 2609 779 3096 
Q 1206 3584 1959 3584 
z
" transform="scale(0.015625)"/>
       <path id="DejaVuSans-72" d="M 2631 2963 
Q 2534 3019 2420 3045 
Q 2306 3072 2169 3072 
Q 1681 3072 1420 2755 
Q 1159 2438 1159 1844 
L 1159 0 
L 581 0 
L 581 3500 
L 1159 3500 
L 1159 2956 
Q 1341 3275 1631 3429 
Q 1922 3584 2338 3584 
Q 2397 3584 2469 3576 
Q 2541 3569 2628 3553 
L 2631 2963 
z
" transform="scale(0.015625)"/>
       <path id="DejaVuSans-6c" d="M 603 4863 
L 1178 4863 
L 1178 0 
L 603 0 
L 603 4863 
z
" transform="scale(0.015625)"/>
       <path id="DejaVuSans-2d" d="M 313 2009 
L 1997 2009 
L 1997 1497 
L 313 1497 
L 313 2009 
z
" transform="scale(0.015625)"/>
       <path id="DejaVuSans-70" d="M 1159 525 
L 1159 -1331 
L 581 -1331 
L 581 3500 
L 1159 3500 
L 1159 2969 
Q 1341 3281 1617 3432 
Q 1894 3584 2278 3584 
Q 2916 3584 3314 3078 
Q 3713 2572 3713 1747 
Q 3713 922 3314 415 
Q 2916 -91 2278 -91 
Q 1894 -91 1617 61 
Q 1341 213 1159 525 
z
M 3116 1747 
Q 3116 2381 2855 2742 
Q 2594 3103 2138 3103 
Q 1681 3103 1420 2742 
Q 1159 2381 1159 1747 
Q 1159 1113 1420 752 
Q 1681 391 2138 391 
Q 2594 391 2855 752 
Q 3116 1113 3116 1747 
z
" transform="scale(0.015625)"/>
      </defs>
      <use xlink:href="#DejaVuSans-64"/>
      <use xlink:href="#DejaVuSans-69" x="63.476562"/>
      <use xlink:href="#DejaVuSans-73" x="91.259766"/>
      <use xlink:href="#DejaVuSans-74" x="143.359375"/>
      <use xlink:href="#DejaVuSans-61" x="182.568359"/>
      <use xlink:href="#DejaVuSans-6e" x="243.847656"/>
      <use xlink:href="#DejaVuSans-63" x="307.226562"/>
      <use xlink:href="#DejaVuSans-65" x="362.207031"/>
      <use xlink:href="#DejaVuSans-20" x="423.730469"/>
      <use xlink:href="#DejaVuSans-74" x="455.517578"/>
      <use xlink:href="#DejaVuSans-6f" x="494.726562"/>
      <use xlink:href="#DejaVuSans-20" x="555.908203"/>
      <use xlink:href="#DejaVuSans-63" x="587.695312"/>
      <use xlink:href="#DejaVuSans-6f" x="642.675781"/>
      <use xlink:href="#DejaVuSans-6e" x="703.857422"/>
      <use xlink:href="#DejaVuSans-74" x="767.236328"/>
      <use xlink:href="#DejaVuSans-72" x="806.445312"/>
      <use xlink:href="#DejaVuSans-6f" x="845.308594"/>
      <use xlink:href="#DejaVuSans-6c" x="906.490234"/>
      <use xlink:href="#DejaVuSans-73" x="934.273438"/>
      <use xlink:href="#DejaVuSans-20" x="986.373047"/>
      <use xlink:href="#DejaVuSans-2d" x="1018.160156"/>
      <use xlink:href="#DejaVuSans-20" x="1054.244141"/>
      <use xlink:href="#DejaVuSans-72" x="1086.03125"/>
      <use xlink:href="#DejaVuSans-65" x="1124.894531"/>
      <use xlink:href="#DejaVuSans-61" x="1186.417969"/>
      <use xlink:href="#DejaVuSans-6c" x="1247.697266"/>
      <use xlink:href="#DejaVuSans-20" x="1275.480469"/>
      <use xlink:href="#DejaVuSans-70" x="1307.267578"/>
      <use xlink:href="#DejaVuSans-65" x="1370.744141"/>
      <use xlink:href="#DejaVuSans-72" x="1432.267578"/>
      <use xlink:href="#DejaVuSans-74" x="1473.380859"/>
      <use xlink:href="#DejaVuSans-2e" x="1512.589844"/>
     </g>
    </g>
   </g>
   <g id="matplotlib.axis_2">
    <g id="ytick_1">
     <g id="line2d_4">
      <path d="M 57.77375 245.486811 
L 280.97375 245.486811 
" clip-path="url(#p2ff75add8c)" style="fill: none; stroke: #cccccc; stroke-linecap: round"/>
     </g>
     <g id="text_5">
      <!-- 0.92 -->
      <g style="fill: #262626" transform="translate(23.781563 249.665951) scale(0.11 -0.11)">
       <defs>
        <path id="DejaVuSans-39" d="M 703 97 
L 703 672 
Q 941 559 1184 500 
Q 1428 441 1663 441 
Q 2288 441 2617 861 
Q 2947 1281 2994 2138 
Q 2813 1869 2534 1725 
Q 2256 1581 1919 1581 
Q 1219 1581 811 2004 
Q 403 2428 403 3163 
Q 403 3881 828 4315 
Q 1253 4750 1959 4750 
Q 2769 4750 3195 4129 
Q 3622 3509 3622 2328 
Q 3622 1225 3098 567 
Q 2575 -91 1691 -91 
Q 1453 -91 1209 -44 
Q 966 3 703 97 
z
M 1959 2075 
Q 2384 2075 2632 2365 
Q 2881 2656 2881 3163 
Q 2881 3666 2632 3958 
Q 2384 4250 1959 4250 
Q 1534 4250 1286 3958 
Q 1038 3666 1038 3163 
Q 1038 2656 1286 2365 
Q 1534 2075 1959 2075 
z
" transform="scale(0.015625)"/>
        <path id="DejaVuSans-32" d="M 1228 531 
L 3431 531 
L 3431 0 
L 469 0 
L 469 531 
Q 828 903 1448 1529 
Q 2069 2156 2228 2338 
Q 2531 2678 2651 2914 
Q 2772 3150 2772 3378 
Q 2772 3750 2511 3984 
Q 2250 4219 1831 4219 
Q 1534 4219 1204 4116 
Q 875 4013 500 3803 
L 500 4441 
Q 881 4594 1212 4672 
Q 1544 4750 1819 4750 
Q 2544 4750 2975 4387 
Q 3406 4025 3406 3419 
Q 3406 3131 3298 2873 
Q 3191 2616 2906 2266 
Q 2828 2175 2409 1742 
Q 1991 1309 1228 531 
z
" transform="scale(0.015625)"/>
       </defs>
       <use xlink:href="#DejaVuSans-30"/>
       <use xlink:href="#DejaVuSans-2e" x="63.623047"/>
       <use xlink:href="#DejaVuSans-39" x="95.410156"/>
       <use xlink:href="#DejaVuSans-32" x="159.033203"/>
      </g>
     </g>
    </g>
    <g id="ytick_2">
     <g id="line2d_5">
      <path d="M 57.77375 217.807871 
L 280.97375 217.807871 
" clip-path="url(#p2ff75add8c)" style="fill: none; stroke: #cccccc; stroke-linecap: round"/>
     </g>
     <g id="text_6">
      <!-- 0.93 -->
      <g style="fill: #262626" transform="translate(23.781563 221.987012) scale(0.11 -0.11)">
       <defs>
        <path id="DejaVuSans-33" d="M 2597 2516 
Q 3050 2419 3304 2112 
Q 3559 1806 3559 1356 
Q 3559 666 3084 287 
Q 2609 -91 1734 -91 
Q 1441 -91 1130 -33 
Q 819 25 488 141 
L 488 750 
Q 750 597 1062 519 
Q 1375 441 1716 441 
Q 2309 441 2620 675 
Q 2931 909 2931 1356 
Q 2931 1769 2642 2001 
Q 2353 2234 1838 2234 
L 1294 2234 
L 1294 2753 
L 1863 2753 
Q 2328 2753 2575 2939 
Q 2822 3125 2822 3475 
Q 2822 3834 2567 4026 
Q 2313 4219 1838 4219 
Q 1578 4219 1281 4162 
Q 984 4106 628 3988 
L 628 4550 
Q 988 4650 1302 4700 
Q 1616 4750 1894 4750 
Q 2613 4750 3031 4423 
Q 3450 4097 3450 3541 
Q 3450 3153 3228 2886 
Q 3006 2619 2597 2516 
z
" transform="scale(0.015625)"/>
       </defs>
       <use xlink:href="#DejaVuSans-30"/>
       <use xlink:href="#DejaVuSans-2e" x="63.623047"/>
       <use xlink:href="#DejaVuSans-39" x="95.410156"/>
       <use xlink:href="#DejaVuSans-33" x="159.033203"/>
      </g>
     </g>
    </g>
    <g id="ytick_3">
     <g id="line2d_6">
      <path d="M 57.77375 190.128931 
L 280.97375 190.128931 
" clip-path="url(#p2ff75add8c)" style="fill: none; stroke: #cccccc; stroke-linecap: round"/>
     </g>
     <g id="text_7">
      <!-- 0.94 -->
      <g style="fill: #262626" transform="translate(23.781563 194.308072) scale(0.11 -0.11)">
       <defs>
        <path id="DejaVuSans-34" d="M 2419 4116 
L 825 1625 
L 2419 1625 
L 2419 4116 
z
M 2253 4666 
L 3047 4666 
L 3047 1625 
L 3713 1625 
L 3713 1100 
L 3047 1100 
L 3047 0 
L 2419 0 
L 2419 1100 
L 313 1100 
L 313 1709 
L 2253 4666 
z
" transform="scale(0.015625)"/>
       </defs>
       <use xlink:href="#DejaVuSans-30"/>
       <use xlink:href="#DejaVuSans-2e" x="63.623047"/>
       <use xlink:href="#DejaVuSans-39" x="95.410156"/>
       <use xlink:href="#DejaVuSans-34" x="159.033203"/>
      </g>
     </g>
    </g>
    <g id="ytick_4">
     <g id="line2d_7">
      <path d="M 57.77375 162.449991 
L 280.97375 162.449991 
" clip-path="url(#p2ff75add8c)" style="fill: none; stroke: #cccccc; stroke-linecap: round"/>
     </g>
     <g id="text_8">
      <!-- 0.95 -->
      <g style="fill: #262626" transform="translate(23.781563 166.629132) scale(0.11 -0.11)">
       <use xlink:href="#DejaVuSans-30"/>
       <use xlink:href="#DejaVuSans-2e" x="63.623047"/>
       <use xlink:href="#DejaVuSans-39" x="95.410156"/>
       <use xlink:href="#DejaVuSans-35" x="159.033203"/>
      </g>
     </g>
    </g>
    <g id="ytick_5">
     <g id="line2d_8">
      <path d="M 57.77375 134.771051 
L 280.97375 134.771051 
" clip-path="url(#p2ff75add8c)" style="fill: none; stroke: #cccccc; stroke-linecap: round"/>
     </g>
     <g id="text_9">
      <!-- 0.96 -->
      <g style="fill: #262626" transform="translate(23.781563 138.950192) scale(0.11 -0.11)">
       <use xlink:href="#DejaVuSans-30"/>
       <use xlink:href="#DejaVuSans-2e" x="63.623047"/>
       <use xlink:href="#DejaVuSans-39" x="95.410156"/>
       <use xlink:href="#DejaVuSans-36" x="159.033203"/>
      </g>
     </g>
    </g>
    <g id="ytick_6">
     <g id="line2d_9">
      <path d="M 57.77375 107.092112 
L 280.97375 107.092112 
" clip-path="url(#p2ff75add8c)" style="fill: none; stroke: #cccccc; stroke-linecap: round"/>
     </g>
     <g id="text_10">
      <!-- 0.97 -->
      <g style="fill: #262626" transform="translate(23.781563 111.271252) scale(0.11 -0.11)">
       <defs>
        <path id="DejaVuSans-37" d="M 525 4666 
L 3525 4666 
L 3525 4397 
L 1831 0 
L 1172 0 
L 2766 4134 
L 525 4134 
L 525 4666 
z
" transform="scale(0.015625)"/>
       </defs>
       <use xlink:href="#DejaVuSans-30"/>
       <use xlink:href="#DejaVuSans-2e" x="63.623047"/>
       <use xlink:href="#DejaVuSans-39" x="95.410156"/>
       <use xlink:href="#DejaVuSans-37" x="159.033203"/>
      </g>
     </g>
    </g>
    <g id="ytick_7">
     <g id="line2d_10">
      <path d="M 57.77375 79.413172 
L 280.97375 79.413172 
" clip-path="url(#p2ff75add8c)" style="fill: none; stroke: #cccccc; stroke-linecap: round"/>
     </g>
     <g id="text_11">
      <!-- 0.98 -->
      <g style="fill: #262626" transform="translate(23.781563 83.592312) scale(0.11 -0.11)">
       <defs>
        <path id="DejaVuSans-38" d="M 2034 2216 
Q 1584 2216 1326 1975 
Q 1069 1734 1069 1313 
Q 1069 891 1326 650 
Q 1584 409 2034 409 
Q 2484 409 2743 651 
Q 3003 894 3003 1313 
Q 3003 1734 2745 1975 
Q 2488 2216 2034 2216 
z
M 1403 2484 
Q 997 2584 770 2862 
Q 544 3141 544 3541 
Q 544 4100 942 4425 
Q 1341 4750 2034 4750 
Q 2731 4750 3128 4425 
Q 3525 4100 3525 3541 
Q 3525 3141 3298 2862 
Q 3072 2584 2669 2484 
Q 3125 2378 3379 2068 
Q 3634 1759 3634 1313 
Q 3634 634 3220 271 
Q 2806 -91 2034 -91 
Q 1263 -91 848 271 
Q 434 634 434 1313 
Q 434 1759 690 2068 
Q 947 2378 1403 2484 
z
M 1172 3481 
Q 1172 3119 1398 2916 
Q 1625 2713 2034 2713 
Q 2441 2713 2670 2916 
Q 2900 3119 2900 3481 
Q 2900 3844 2670 4047 
Q 2441 4250 2034 4250 
Q 1625 4250 1398 4047 
Q 1172 3844 1172 3481 
z
" transform="scale(0.015625)"/>
       </defs>
       <use xlink:href="#DejaVuSans-30"/>
       <use xlink:href="#DejaVuSans-2e" x="63.623047"/>
       <use xlink:href="#DejaVuSans-39" x="95.410156"/>
       <use xlink:href="#DejaVuSans-38" x="159.033203"/>
      </g>
     </g>
    </g>
    <g id="ytick_8">
     <g id="line2d_11">
      <path d="M 57.77375 51.734232 
L 280.97375 51.734232 
" clip-path="url(#p2ff75add8c)" style="fill: none; stroke: #cccccc; stroke-linecap: round"/>
     </g>
     <g id="text_12">
      <!-- 0.99 -->
      <g style="fill: #262626" transform="translate(23.781563 55.913373) scale(0.11 -0.11)">
       <use xlink:href="#DejaVuSans-30"/>
       <use xlink:href="#DejaVuSans-2e" x="63.623047"/>
       <use xlink:href="#DejaVuSans-39" x="95.410156"/>
       <use xlink:href="#DejaVuSans-39" x="159.033203"/>
      </g>
     </g>
    </g>
    <g id="ytick_9">
     <g id="line2d_12">
      <path d="M 57.77375 24.055292 
L 280.97375 24.055292 
" clip-path="url(#p2ff75add8c)" style="fill: none; stroke: #cccccc; stroke-linecap: round"/>
     </g>
     <g id="text_13">
      <!-- 1.00 -->
      <g style="fill: #262626" transform="translate(23.781563 28.234433) scale(0.11 -0.11)">
       <defs>
        <path id="DejaVuSans-31" d="M 794 531 
L 1825 531 
L 1825 4091 
L 703 3866 
L 703 4441 
L 1819 4666 
L 2450 4666 
L 2450 531 
L 3481 531 
L 3481 0 
L 794 0 
L 794 531 
z
" transform="scale(0.015625)"/>
       </defs>
       <use xlink:href="#DejaVuSans-31"/>
       <use xlink:href="#DejaVuSans-2e" x="63.623047"/>
       <use xlink:href="#DejaVuSans-30" x="95.410156"/>
       <use xlink:href="#DejaVuSans-30" x="159.033203"/>
      </g>
     </g>
    </g>
    <g id="text_14">
     <!-- coverage of real by generated pert. -->
     <g style="fill: #262626" transform="translate(17.077969 242.444359) rotate(-90) scale(0.13 -0.13)">
      <defs>
       <path id="DejaVuSans-76" d="M 191 3500 
L 800 3500 
L 1894 563 
L 2988 3500 
L 3597 3500 
L 2284 0 
L 1503 0 
L 191 3500 
z
" transform="scale(0.015625)"/>
       <path id="DejaVuSans-67" d="M 2906 1791 
Q 2906 2416 2648 2759 
Q 2391 3103 1925 3103 
Q 1463 3103 1205 2759 
Q 947 2416 947 1791 
Q 947 1169 1205 825 
Q 1463 481 1925 481 
Q 2391 481 2648 825 
Q 2906 1169 2906 1791 
z
M 3481 434 
Q 3481 -459 3084 -895 
Q 2688 -1331 1869 -1331 
Q 1566 -1331 1297 -1286 
Q 1028 -1241 775 -1147 
L 775 -588 
Q 1028 -725 1275 -790 
Q 1522 -856 1778 -856 
Q 2344 -856 2625 -561 
Q 2906 -266 2906 331 
L 2906 616 
Q 2728 306 2450 153 
Q 2172 0 1784 0 
Q 1141 0 747 490 
Q 353 981 353 1791 
Q 353 2603 747 3093 
Q 1141 3584 1784 3584 
Q 2172 3584 2450 3431 
Q 2728 3278 2906 2969 
L 2906 3500 
L 3481 3500 
L 3481 434 
z
" transform="scale(0.015625)"/>
       <path id="DejaVuSans-66" d="M 2375 4863 
L 2375 4384 
L 1825 4384 
Q 1516 4384 1395 4259 
Q 1275 4134 1275 3809 
L 1275 3500 
L 2222 3500 
L 2222 3053 
L 1275 3053 
L 1275 0 
L 697 0 
L 697 3053 
L 147 3053 
L 147 3500 
L 697 3500 
L 697 3744 
Q 697 4328 969 4595 
Q 1241 4863 1831 4863 
L 2375 4863 
z
" transform="scale(0.015625)"/>
       <path id="DejaVuSans-62" d="M 3116 1747 
Q 3116 2381 2855 2742 
Q 2594 3103 2138 3103 
Q 1681 3103 1420 2742 
Q 1159 2381 1159 1747 
Q 1159 1113 1420 752 
Q 1681 391 2138 391 
Q 2594 391 2855 752 
Q 3116 1113 3116 1747 
z
M 1159 2969 
Q 1341 3281 1617 3432 
Q 1894 3584 2278 3584 
Q 2916 3584 3314 3078 
Q 3713 2572 3713 1747 
Q 3713 922 3314 415 
Q 2916 -91 2278 -91 
Q 1894 -91 1617 61 
Q 1341 213 1159 525 
L 1159 0 
L 581 0 
L 581 4863 
L 1159 4863 
L 1159 2969 
z
" transform="scale(0.015625)"/>
       <path id="DejaVuSans-79" d="M 2059 -325 
Q 1816 -950 1584 -1140 
Q 1353 -1331 966 -1331 
L 506 -1331 
L 506 -850 
L 844 -850 
Q 1081 -850 1212 -737 
Q 1344 -625 1503 -206 
L 1606 56 
L 191 3500 
L 800 3500 
L 1894 763 
L 2988 3500 
L 3597 3500 
L 2059 -325 
z
" transform="scale(0.015625)"/>
      </defs>
      <use xlink:href="#DejaVuSans-63"/>
      <use xlink:href="#DejaVuSans-6f" x="54.980469"/>
      <use xlink:href="#DejaVuSans-76" x="116.162109"/>
      <use xlink:href="#DejaVuSans-65" x="175.341797"/>
      <use xlink:href="#DejaVuSans-72" x="236.865234"/>
      <use xlink:href="#DejaVuSans-61" x="277.978516"/>
      <use xlink:href="#DejaVuSans-67" x="339.257812"/>
      <use xlink:href="#DejaVuSans-65" x="402.734375"/>
      <use xlink:href="#DejaVuSans-20" x="464.257812"/>
      <use xlink:href="#DejaVuSans-6f" x="496.044922"/>
      <use xlink:href="#DejaVuSans-66" x="557.226562"/>
      <use xlink:href="#DejaVuSans-20" x="592.431641"/>
      <use xlink:href="#DejaVuSans-72" x="624.21875"/>
      <use xlink:href="#DejaVuSans-65" x="663.082031"/>
      <use xlink:href="#DejaVuSans-61" x="724.605469"/>
      <use xlink:href="#DejaVuSans-6c" x="785.884766"/>
      <use xlink:href="#DejaVuSans-20" x="813.667969"/>
      <use xlink:href="#DejaVuSans-62" x="845.455078"/>
      <use xlink:href="#DejaVuSans-79" x="908.931641"/>
      <use xlink:href="#DejaVuSans-20" x="968.111328"/>
      <use xlink:href="#DejaVuSans-67" x="999.898438"/>
      <use xlink:href="#DejaVuSans-65" x="1063.375"/>
      <use xlink:href="#DejaVuSans-6e" x="1124.898438"/>
      <use xlink:href="#DejaVuSans-65" x="1188.277344"/>
      <use xlink:href="#DejaVuSans-72" x="1249.800781"/>
      <use xlink:href="#DejaVuSans-61" x="1290.914062"/>
      <use xlink:href="#DejaVuSans-74" x="1352.193359"/>
      <use xlink:href="#DejaVuSans-65" x="1391.402344"/>
      <use xlink:href="#DejaVuSans-64" x="1452.925781"/>
      <use xlink:href="#DejaVuSans-20" x="1516.402344"/>
      <use xlink:href="#DejaVuSans-70" x="1548.189453"/>
      <use xlink:href="#DejaVuSans-65" x="1611.666016"/>
      <use xlink:href="#DejaVuSans-72" x="1673.189453"/>
      <use xlink:href="#DejaVuSans-74" x="1714.302734"/>
      <use xlink:href="#DejaVuSans-2e" x="1753.511719"/>
     </g>
    </g>
   </g>
   <g id="PathCollection_1">
    <defs>
     <path id="m034a6cfd7a" d="M 0 5 
C 1.326016 5 2.597899 4.473168 3.535534 3.535534 
C 4.473168 2.597899 5 1.326016 5 0 
C 5 -1.326016 4.473168 -2.597899 3.535534 -3.535534 
C 2.597899 -4.473168 1.326016 -5 0 -5 
C -1.326016 -5 -2.597899 -4.473168 -3.535534 -3.535534 
C -4.473168 -2.597899 -5 -1.326016 -5 0 
C -5 1.326016 -4.473168 2.597899 -3.535534 3.535534 
C -2.597899 4.473168 -1.326016 5 0 5 
z
" style="stroke: #0173b2; stroke-opacity: 0.8"/>
    </defs>
    <g clip-path="url(#p2ff75add8c)">
     <use xlink:href="#m034a6cfd7a" x="187.178522" y="51.460183" style="fill: #0173b2; fill-opacity: 0.8; stroke: #0173b2; stroke-opacity: 0.8"/>
     <use xlink:href="#m034a6cfd7a" x="227.609259" y="24.055292" style="fill: #0173b2; fill-opacity: 0.8; stroke: #0173b2; stroke-opacity: 0.8"/>
     <use xlink:href="#m034a6cfd7a" x="116.516696" y="215.889529" style="fill: #0173b2; fill-opacity: 0.8; stroke: #0173b2; stroke-opacity: 0.8"/>
     <use xlink:href="#m034a6cfd7a" x="111.62101" y="24.055292" style="fill: #0173b2; fill-opacity: 0.8; stroke: #0173b2; stroke-opacity: 0.8"/>
     <use xlink:href="#m034a6cfd7a" x="250.048415" y="161.079747" style="fill: #0173b2; fill-opacity: 0.8; stroke: #0173b2; stroke-opacity: 0.8"/>
     <use xlink:href="#m034a6cfd7a" x="113.359353" y="106.269965" style="fill: #0173b2; fill-opacity: 0.8; stroke: #0173b2; stroke-opacity: 0.8"/>
     <use xlink:href="#m034a6cfd7a" x="121.71217" y="106.269965" style="fill: #0173b2; fill-opacity: 0.8; stroke: #0173b2; stroke-opacity: 0.8"/>
     <use xlink:href="#m034a6cfd7a" x="256.022292" y="51.460183" style="fill: #0173b2; fill-opacity: 0.8; stroke: #0173b2; stroke-opacity: 0.8"/>
     <use xlink:href="#m034a6cfd7a" x="69.955909" y="24.055292" style="fill: #0173b2; fill-opacity: 0.8; stroke: #0173b2; stroke-opacity: 0.8"/>
     <use xlink:href="#m034a6cfd7a" x="67.919205" y="24.055292" style="fill: #0173b2; fill-opacity: 0.8; stroke: #0173b2; stroke-opacity: 0.8"/>
     <use xlink:href="#m034a6cfd7a" x="80.223759" y="24.055292" style="fill: #0173b2; fill-opacity: 0.8; stroke: #0173b2; stroke-opacity: 0.8"/>
     <use xlink:href="#m034a6cfd7a" x="85.062464" y="24.055292" style="fill: #0173b2; fill-opacity: 0.8; stroke: #0173b2; stroke-opacity: 0.8"/>
     <use xlink:href="#m034a6cfd7a" x="270.828295" y="24.055292" style="fill: #0173b2; fill-opacity: 0.8; stroke: #0173b2; stroke-opacity: 0.8"/>
    </g>
   </g>
   <g id="PolyCollection_1">
    <defs>
     <path id="m1d03d83e77" d="M 67.919205 -271.4835 
L 67.919205 -145.263939 
L 69.968791 -146.432668 
L 72.018378 -147.601396 
L 74.067965 -148.770125 
L 76.117552 -149.938853 
L 78.167138 -151.107582 
L 80.216725 -152.276311 
L 82.266312 -153.445039 
L 84.315899 -154.046855 
L 86.365486 -155.233433 
L 88.415072 -156.525502 
L 90.464659 -157.538314 
L 92.514246 -158.707772 
L 94.563833 -159.87723 
L 96.613419 -161.046688 
L 98.663006 -162.216146 
L 100.712593 -163.385604 
L 102.76218 -164.327135 
L 104.811767 -164.473549 
L 106.861353 -164.619963 
L 108.91094 -165.740079 
L 110.960527 -167.348594 
L 113.010114 -165.038304 
L 115.0597 -165.172789 
L 117.109287 -165.313847 
L 119.158874 -165.114909 
L 121.208461 -165.590277 
L 123.258048 -165.850778 
L 125.307634 -166.745513 
L 127.357221 -167.288103 
L 129.406808 -167.830693 
L 131.456395 -167.983583 
L 133.505981 -166.428732 
L 135.555568 -166.567986 
L 137.605155 -166.890355 
L 139.654742 -167.382591 
L 141.704329 -167.874827 
L 143.753915 -167.2842 
L 145.803502 -167.257992 
L 147.853089 -166.765867 
L 149.902676 -166.15031 
L 151.952262 -164.651375 
L 154.001849 -163.15244 
L 156.051436 -161.368355 
L 158.101023 -159.421166 
L 160.15061 -157.473977 
L 162.200196 -155.526789 
L 164.249783 -153.5796 
L 166.29937 -151.632411 
L 168.348957 -149.685223 
L 170.398543 -147.738034 
L 172.44813 -145.790845 
L 174.497717 -143.843656 
L 176.547304 -141.896468 
L 178.59689 -139.949279 
L 180.646477 -138.00209 
L 182.696064 -136.054901 
L 184.745651 -134.107713 
L 186.795238 -132.162073 
L 188.844824 -130.21923 
L 190.894411 -128.276387 
L 192.943998 -126.333544 
L 194.993585 -124.869894 
L 197.043171 -123.428151 
L 199.092758 -121.520799 
L 201.142345 -119.613448 
L 203.191932 -117.706097 
L 205.241519 -115.798745 
L 207.291105 -113.891394 
L 209.340692 -111.984042 
L 211.390279 -110.076691 
L 213.439866 -108.16934 
L 215.489452 -106.261988 
L 217.539039 -104.354637 
L 219.588626 -102.447285 
L 221.638213 -100.539934 
L 223.6878 -98.632582 
L 225.737386 -96.725231 
L 227.786973 -94.81788 
L 229.83656 -92.910528 
L 231.886147 -91.003177 
L 233.935733 -89.095825 
L 235.98532 -87.188474 
L 238.034907 -85.281123 
L 240.084494 -83.373771 
L 242.134081 -81.46642 
L 244.183667 -79.559068 
L 246.233254 -77.651717 
L 248.282841 -75.744366 
L 250.332428 -73.837014 
L 252.382014 -71.929663 
L 254.431601 -70.022311 
L 256.481188 -68.11496 
L 258.530775 -66.207608 
L 260.580362 -64.300257 
L 262.629948 -62.392906 
L 264.679535 -60.485554 
L 266.729122 -58.578203 
L 268.778709 -56.670851 
L 270.828295 -54.7635 
L 270.828295 -264.36355 
L 270.828295 -264.36355 
L 268.778709 -263.622787 
L 266.729122 -262.882024 
L 264.679535 -262.141261 
L 262.629948 -261.50889 
L 260.580362 -261.466277 
L 258.530775 -261.201971 
L 256.481188 -260.186241 
L 254.431601 -259.524089 
L 252.382014 -259.369947 
L 250.332428 -258.650048 
L 248.282841 -258.42031 
L 246.233254 -258.310287 
L 244.183667 -258.200264 
L 242.134081 -258.090242 
L 240.084494 -257.980219 
L 238.034907 -257.870197 
L 235.98532 -257.534168 
L 233.935733 -257.379247 
L 231.886147 -257.48585 
L 229.83656 -257.429653 
L 227.786973 -257.320084 
L 225.737386 -257.210061 
L 223.6878 -256.239659 
L 221.638213 -256.239925 
L 219.588626 -256.261362 
L 217.539039 -256.282773 
L 215.489452 -256.303993 
L 213.439866 -256.325213 
L 211.390279 -256.305417 
L 209.340692 -256.152903 
L 207.291105 -255.999919 
L 205.241519 -255.846935 
L 203.191932 -255.693951 
L 201.142345 -255.540967 
L 199.092758 -255.387983 
L 197.043171 -255.294615 
L 194.993585 -255.43629 
L 192.943998 -255.452961 
L 190.894411 -255.344419 
L 188.844824 -255.390435 
L 186.795238 -255.555612 
L 184.745651 -255.720788 
L 182.696064 -255.885964 
L 180.646477 -256.051141 
L 178.59689 -256.216317 
L 176.547304 -256.381493 
L 174.497717 -256.546066 
L 172.44813 -256.710639 
L 170.398543 -256.789006 
L 168.348957 -256.811819 
L 166.29937 -256.834631 
L 164.249783 -256.857444 
L 162.200196 -256.880256 
L 160.15061 -256.903069 
L 158.101023 -256.925881 
L 156.051436 -256.948694 
L 154.001849 -257.121647 
L 151.952262 -257.344997 
L 149.902676 -257.568346 
L 147.853089 -257.791695 
L 145.803502 -258.015044 
L 143.753915 -258.238316 
L 141.704329 -258.461554 
L 139.654742 -258.68404 
L 137.605155 -258.906366 
L 135.555568 -259.066554 
L 133.505981 -259.027641 
L 131.456395 -258.988504 
L 129.406808 -259.156748 
L 127.357221 -259.333038 
L 125.307634 -259.573373 
L 123.258048 -259.813708 
L 121.208461 -260.054042 
L 119.158874 -260.294377 
L 117.109287 -260.636284 
L 115.0597 -261.010815 
L 113.010114 -261.154973 
L 110.960527 -261.298024 
L 108.91094 -261.561275 
L 106.861353 -261.86622 
L 104.811767 -262.171976 
L 102.76218 -262.477995 
L 100.712593 -262.783232 
L 98.663006 -263.088468 
L 96.613419 -263.393897 
L 94.563833 -263.748073 
L 92.514246 -264.362023 
L 90.464659 -264.646549 
L 88.415072 -265.025573 
L 86.365486 -265.415538 
L 84.315899 -265.90049 
L 82.266312 -266.385443 
L 80.216725 -266.869309 
L 78.167138 -267.352681 
L 76.117552 -267.836052 
L 74.067965 -269.954536 
L 72.018378 -270.466783 
L 69.968791 -270.975141 
L 67.919205 -271.4835 
z
" style="stroke: #ffffff; stroke-opacity: 0.15"/>
    </defs>
    <g clip-path="url(#p2ff75add8c)">
     <use xlink:href="#m1d03d83e77" x="0" y="289.5195" style="fill: #0173b2; fill-opacity: 0.15; stroke: #ffffff; stroke-opacity: 0.15"/>
    </g>
   </g>
   <g id="line2d_13">
    <path d="M 67.919205 59.700621 
L 69.968791 59.86211 
L 72.018378 60.023598 
L 74.067965 60.185087 
L 76.117552 60.346575 
L 78.167138 60.508064 
L 80.216725 60.669552 
L 82.266312 60.83104 
L 84.315899 60.992529 
L 86.365486 61.154017 
L 88.415072 61.315506 
L 90.464659 61.476994 
L 92.514246 61.638483 
L 94.563833 61.799971 
L 96.613419 61.96146 
L 98.663006 62.122948 
L 100.712593 62.284437 
L 102.76218 62.445925 
L 104.811767 62.607414 
L 106.861353 62.768902 
L 108.91094 62.930391 
L 110.960527 63.091879 
L 113.010114 63.253368 
L 115.0597 63.414856 
L 117.109287 63.576345 
L 119.158874 63.737833 
L 121.208461 63.899322 
L 123.258048 64.06081 
L 125.307634 64.222299 
L 127.357221 64.383787 
L 129.406808 64.545275 
L 131.456395 64.706764 
L 133.505981 64.868252 
L 135.555568 65.029741 
L 137.605155 65.191229 
L 139.654742 65.352718 
L 141.704329 65.514206 
L 143.753915 65.675695 
L 145.803502 65.837183 
L 147.853089 65.998672 
L 149.902676 66.16016 
L 151.952262 66.321649 
L 154.001849 66.483137 
L 156.051436 66.644626 
L 158.101023 66.806114 
L 160.15061 66.967603 
L 162.200196 67.129091 
L 164.249783 67.29058 
L 166.29937 67.452068 
L 168.348957 67.613557 
L 170.398543 67.775045 
L 172.44813 67.936534 
L 174.497717 68.098022 
L 176.547304 68.25951 
L 178.59689 68.420999 
L 180.646477 68.582487 
L 182.696064 68.743976 
L 184.745651 68.905464 
L 186.795238 69.066953 
L 188.844824 69.228441 
L 190.894411 69.38993 
L 192.943998 69.551418 
L 194.993585 69.712907 
L 197.043171 69.874395 
L 199.092758 70.035884 
L 201.142345 70.197372 
L 203.191932 70.358861 
L 205.241519 70.520349 
L 207.291105 70.681838 
L 209.340692 70.843326 
L 211.390279 71.004815 
L 213.439866 71.166303 
L 215.489452 71.327792 
L 217.539039 71.48928 
L 219.588626 71.650769 
L 221.638213 71.812257 
L 223.6878 71.973745 
L 225.737386 72.135234 
L 227.786973 72.296722 
L 229.83656 72.458211 
L 231.886147 72.619699 
L 233.935733 72.781188 
L 235.98532 72.942676 
L 238.034907 73.104165 
L 240.084494 73.265653 
L 242.134081 73.427142 
L 244.183667 73.58863 
L 246.233254 73.750119 
L 248.282841 73.911607 
L 250.332428 74.073096 
L 252.382014 74.234584 
L 254.431601 74.396073 
L 256.481188 74.557561 
L 258.530775 74.71905 
L 260.580362 74.880538 
L 262.629948 75.042027 
L 264.679535 75.203515 
L 266.729122 75.365004 
L 268.778709 75.526492 
L 270.828295 75.68798 
" clip-path="url(#p2ff75add8c)" style="fill: none; stroke: #0173b2; stroke-width: 2.25; stroke-linecap: round"/>
   </g>
   <g id="patch_3">
    <path d="M 57.77375 245.592 
L 57.77375 7.2 
" style="fill: none; stroke: #cccccc; stroke-width: 1.25; stroke-linejoin: miter; stroke-linecap: square"/>
   </g>
   <g id="patch_4">
    <path d="M 280.97375 245.592 
L 280.97375 7.2 
" style="fill: none; stroke: #cccccc; stroke-width: 1.25; stroke-linejoin: miter; stroke-linecap: square"/>
   </g>
   <g id="patch_5">
    <path d="M 57.77375 245.592 
L 280.97375 245.592 
" style="fill: none; stroke: #cccccc; stroke-width: 1.25; stroke-linejoin: miter; stroke-linecap: square"/>
   </g>
   <g id="patch_6">
    <path d="M 57.77375 7.2 
L 280.97375 7.2 
" style="fill: none; stroke: #cccccc; stroke-width: 1.25; stroke-linejoin: miter; stroke-linecap: square"/>
   </g>
  </g>
 </g>
 <defs>
  <clipPath id="p2ff75add8c">
   <rect x="57.77375" y="7.2" width="223.2" height="238.392"/>
  </clipPath>
 </defs>
</svg>
