<?xml version="1.0" encoding="utf-8" standalone="no"?>
<!DOCTYPE svg PUBLIC "-//W3C//DTD SVG 1.1//EN"
  "http://www.w3.org/Graphics/SVG/1.1/DTD/svg11.dtd">
<svg xmlns:xlink="http://www.w3.org/1999/xlink" width="360pt" height="288pt" viewBox="0 0 360 288" xmlns="http://www.w3.org/2000/svg" version="1.1">
 <metadata>
  <rdf:RDF xmlns:dc="http://purl.org/dc/elements/1.1/" xmlns:cc="http://creativecommons.org/ns#" xmlns:rdf="http://www.w3.org/1999/02/22-rdf-syntax-ns#">
   <cc:Work>
    <dc:type rdf:resource="http://purl.org/dc/dcmitype/StillImage"/>
    <dc:date>2024-03-04T14:25:30.101478</dc:date>
    <dc:format>image/svg+xml</dc:format>
    <dc:creator>
     <cc:Agent>
      <dc:title>Matplotlib v3.8.2, https://matplotlib.org/</dc:title>
     </cc:Agent>
    </dc:creator>
   </cc:Work>
  </rdf:RDF>
 </metadata>
 <defs>
  <style type="text/css">*{stroke-linejoin: round; stroke-linecap: butt}</style>
 </defs>
 <g id="figure_1">
  <g id="patch_1">
   <path d="M 0 288 
L 360 288 
L 360 0 
L 0 0 
z
" style="fill: #ffffff"/>
  </g>
  <g id="axes_1">
   <g id="patch_2">
    <path d="M 64.8 232.74 
L 347.04 232.74 
L 347.04 34.8 
L 64.8 34.8 
z
" style="fill: #ffffff"/>
   </g>
   <g id="matplotlib.axis_1">
    <g id="xtick_1">
     <g id="line2d_1">
      <path d="M 78.925074 232.74 
L 78.925074 34.8 
" clip-path="url(#p81ff803bb9)" style="fill: none; stroke-dasharray: 3.7,1.6; stroke-dashoffset: 0; stroke: #cccccc; stroke-opacity: 0.7"/>
     </g>
     <g id="text_1">
      <!-- 0.2 -->
      <g style="fill: #262626" transform="translate(66.99773 253.637656) scale(0.15 -0.15)">
       <defs>
        <path id="DejaVuSans-30" d="M 2034 4250 
Q 1547 4250 1301 3770 
Q 1056 3291 1056 2328 
Q 1056 1369 1301 889 
Q 1547 409 2034 409 
Q 2525 409 2770 889 
Q 3016 1369 3016 2328 
Q 3016 3291 2770 3770 
Q 2525 4250 2034 4250 
z
M 2034 4750 
Q 2819 4750 3233 4129 
Q 3647 3509 3647 2328 
Q 3647 1150 3233 529 
Q 2819 -91 2034 -91 
Q 1250 -91 836 529 
Q 422 1150 422 2328 
Q 422 3509 836 4129 
Q 1250 4750 2034 4750 
z
" transform="scale(0.015625)"/>
        <path id="DejaVuSans-2e" d="M 684 794 
L 1344 794 
L 1344 0 
L 684 0 
L 684 794 
z
" transform="scale(0.015625)"/>
        <path id="DejaVuSans-32" d="M 1228 531 
L 3431 531 
L 3431 0 
L 469 0 
L 469 531 
Q 828 903 1448 1529 
Q 2069 2156 2228 2338 
Q 2531 2678 2651 2914 
Q 2772 3150 2772 3378 
Q 2772 3750 2511 3984 
Q 2250 4219 1831 4219 
Q 1534 4219 1204 4116 
Q 875 4013 500 3803 
L 500 4441 
Q 881 4594 1212 4672 
Q 1544 4750 1819 4750 
Q 2544 4750 2975 4387 
Q 3406 4025 3406 3419 
Q 3406 3131 3298 2873 
Q 3191 2616 2906 2266 
Q 2828 2175 2409 1742 
Q 1991 1309 1228 531 
z
" transform="scale(0.015625)"/>
       </defs>
       <use xlink:href="#DejaVuSans-30"/>
       <use xlink:href="#DejaVuSans-2e" x="63.623047"/>
       <use xlink:href="#DejaVuSans-32" x="95.410156"/>
      </g>
     </g>
    </g>
    <g id="xtick_2">
     <g id="line2d_2">
      <path d="M 115.212586 232.74 
L 115.212586 34.8 
" clip-path="url(#p81ff803bb9)" style="fill: none; stroke-dasharray: 3.7,1.6; stroke-dashoffset: 0; stroke: #cccccc; stroke-opacity: 0.7"/>
     </g>
     <g id="text_2">
      <!-- 0.3 -->
      <g style="fill: #262626" transform="translate(103.285243 253.637656) scale(0.15 -0.15)">
       <defs>
        <path id="DejaVuSans-33" d="M 2597 2516 
Q 3050 2419 3304 2112 
Q 3559 1806 3559 1356 
Q 3559 666 3084 287 
Q 2609 -91 1734 -91 
Q 1441 -91 1130 -33 
Q 819 25 488 141 
L 488 750 
Q 750 597 1062 519 
Q 1375 441 1716 441 
Q 2309 441 2620 675 
Q 2931 909 2931 1356 
Q 2931 1769 2642 2001 
Q 2353 2234 1838 2234 
L 1294 2234 
L 1294 2753 
L 1863 2753 
Q 2328 2753 2575 2939 
Q 2822 3125 2822 3475 
Q 2822 3834 2567 4026 
Q 2313 4219 1838 4219 
Q 1578 4219 1281 4162 
Q 984 4106 628 3988 
L 628 4550 
Q 988 4650 1302 4700 
Q 1616 4750 1894 4750 
Q 2613 4750 3031 4423 
Q 3450 4097 3450 3541 
Q 3450 3153 3228 2886 
Q 3006 2619 2597 2516 
z
" transform="scale(0.015625)"/>
       </defs>
       <use xlink:href="#DejaVuSans-30"/>
       <use xlink:href="#DejaVuSans-2e" x="63.623047"/>
       <use xlink:href="#DejaVuSans-33" x="95.410156"/>
      </g>
     </g>
    </g>
    <g id="xtick_3">
     <g id="line2d_3">
      <path d="M 151.500099 232.74 
L 151.500099 34.8 
" clip-path="url(#p81ff803bb9)" style="fill: none; stroke-dasharray: 3.7,1.6; stroke-dashoffset: 0; stroke: #cccccc; stroke-opacity: 0.7"/>
     </g>
     <g id="text_3">
      <!-- 0.4 -->
      <g style="fill: #262626" transform="translate(139.572755 253.637656) scale(0.15 -0.15)">
       <defs>
        <path id="DejaVuSans-34" d="M 2419 4116 
L 825 1625 
L 2419 1625 
L 2419 4116 
z
M 2253 4666 
L 3047 4666 
L 3047 1625 
L 3713 1625 
L 3713 1100 
L 3047 1100 
L 3047 0 
L 2419 0 
L 2419 1100 
L 313 1100 
L 313 1709 
L 2253 4666 
z
" transform="scale(0.015625)"/>
       </defs>
       <use xlink:href="#DejaVuSans-30"/>
       <use xlink:href="#DejaVuSans-2e" x="63.623047"/>
       <use xlink:href="#DejaVuSans-34" x="95.410156"/>
      </g>
     </g>
    </g>
    <g id="xtick_4">
     <g id="line2d_4">
      <path d="M 187.787612 232.74 
L 187.787612 34.8 
" clip-path="url(#p81ff803bb9)" style="fill: none; stroke-dasharray: 3.7,1.6; stroke-dashoffset: 0; stroke: #cccccc; stroke-opacity: 0.7"/>
     </g>
     <g id="text_4">
      <!-- 0.5 -->
      <g style="fill: #262626" transform="translate(175.860268 253.637656) scale(0.15 -0.15)">
       <defs>
        <path id="DejaVuSans-35" d="M 691 4666 
L 3169 4666 
L 3169 4134 
L 1269 4134 
L 1269 2991 
Q 1406 3038 1543 3061 
Q 1681 3084 1819 3084 
Q 2600 3084 3056 2656 
Q 3513 2228 3513 1497 
Q 3513 744 3044 326 
Q 2575 -91 1722 -91 
Q 1428 -91 1123 -41 
Q 819 9 494 109 
L 494 744 
Q 775 591 1075 516 
Q 1375 441 1709 441 
Q 2250 441 2565 725 
Q 2881 1009 2881 1497 
Q 2881 1984 2565 2268 
Q 2250 2553 1709 2553 
Q 1456 2553 1204 2497 
Q 953 2441 691 2322 
L 691 4666 
z
" transform="scale(0.015625)"/>
       </defs>
       <use xlink:href="#DejaVuSans-30"/>
       <use xlink:href="#DejaVuSans-2e" x="63.623047"/>
       <use xlink:href="#DejaVuSans-35" x="95.410156"/>
      </g>
     </g>
    </g>
    <g id="xtick_5">
     <g id="line2d_5">
      <path d="M 224.075125 232.74 
L 224.075125 34.8 
" clip-path="url(#p81ff803bb9)" style="fill: none; stroke-dasharray: 3.7,1.6; stroke-dashoffset: 0; stroke: #cccccc; stroke-opacity: 0.7"/>
     </g>
     <g id="text_5">
      <!-- 0.6 -->
      <g style="fill: #262626" transform="translate(212.147781 253.637656) scale(0.15 -0.15)">
       <defs>
        <path id="DejaVuSans-36" d="M 2113 2584 
Q 1688 2584 1439 2293 
Q 1191 2003 1191 1497 
Q 1191 994 1439 701 
Q 1688 409 2113 409 
Q 2538 409 2786 701 
Q 3034 994 3034 1497 
Q 3034 2003 2786 2293 
Q 2538 2584 2113 2584 
z
M 3366 4563 
L 3366 3988 
Q 3128 4100 2886 4159 
Q 2644 4219 2406 4219 
Q 1781 4219 1451 3797 
Q 1122 3375 1075 2522 
Q 1259 2794 1537 2939 
Q 1816 3084 2150 3084 
Q 2853 3084 3261 2657 
Q 3669 2231 3669 1497 
Q 3669 778 3244 343 
Q 2819 -91 2113 -91 
Q 1303 -91 875 529 
Q 447 1150 447 2328 
Q 447 3434 972 4092 
Q 1497 4750 2381 4750 
Q 2619 4750 2861 4703 
Q 3103 4656 3366 4563 
z
" transform="scale(0.015625)"/>
       </defs>
       <use xlink:href="#DejaVuSans-30"/>
       <use xlink:href="#DejaVuSans-2e" x="63.623047"/>
       <use xlink:href="#DejaVuSans-36" x="95.410156"/>
      </g>
     </g>
    </g>
    <g id="xtick_6">
     <g id="line2d_6">
      <path d="M 260.362637 232.74 
L 260.362637 34.8 
" clip-path="url(#p81ff803bb9)" style="fill: none; stroke-dasharray: 3.7,1.6; stroke-dashoffset: 0; stroke: #cccccc; stroke-opacity: 0.7"/>
     </g>
     <g id="text_6">
      <!-- 0.7 -->
      <g style="fill: #262626" transform="translate(248.435294 253.637656) scale(0.15 -0.15)">
       <defs>
        <path id="DejaVuSans-37" d="M 525 4666 
L 3525 4666 
L 3525 4397 
L 1831 0 
L 1172 0 
L 2766 4134 
L 525 4134 
L 525 4666 
z
" transform="scale(0.015625)"/>
       </defs>
       <use xlink:href="#DejaVuSans-30"/>
       <use xlink:href="#DejaVuSans-2e" x="63.623047"/>
       <use xlink:href="#DejaVuSans-37" x="95.410156"/>
      </g>
     </g>
    </g>
    <g id="xtick_7">
     <g id="line2d_7">
      <path d="M 296.65015 232.74 
L 296.65015 34.8 
" clip-path="url(#p81ff803bb9)" style="fill: none; stroke-dasharray: 3.7,1.6; stroke-dashoffset: 0; stroke: #cccccc; stroke-opacity: 0.7"/>
     </g>
     <g id="text_7">
      <!-- 0.8 -->
      <g style="fill: #262626" transform="translate(284.722806 253.637656) scale(0.15 -0.15)">
       <defs>
        <path id="DejaVuSans-38" d="M 2034 2216 
Q 1584 2216 1326 1975 
Q 1069 1734 1069 1313 
Q 1069 891 1326 650 
Q 1584 409 2034 409 
Q 2484 409 2743 651 
Q 3003 894 3003 1313 
Q 3003 1734 2745 1975 
Q 2488 2216 2034 2216 
z
M 1403 2484 
Q 997 2584 770 2862 
Q 544 3141 544 3541 
Q 544 4100 942 4425 
Q 1341 4750 2034 4750 
Q 2731 4750 3128 4425 
Q 3525 4100 3525 3541 
Q 3525 3141 3298 2862 
Q 3072 2584 2669 2484 
Q 3125 2378 3379 2068 
Q 3634 1759 3634 1313 
Q 3634 634 3220 271 
Q 2806 -91 2034 -91 
Q 1263 -91 848 271 
Q 434 634 434 1313 
Q 434 1759 690 2068 
Q 947 2378 1403 2484 
z
M 1172 3481 
Q 1172 3119 1398 2916 
Q 1625 2713 2034 2713 
Q 2441 2713 2670 2916 
Q 2900 3119 2900 3481 
Q 2900 3844 2670 4047 
Q 2441 4250 2034 4250 
Q 1625 4250 1398 4047 
Q 1172 3844 1172 3481 
z
" transform="scale(0.015625)"/>
       </defs>
       <use xlink:href="#DejaVuSans-30"/>
       <use xlink:href="#DejaVuSans-2e" x="63.623047"/>
       <use xlink:href="#DejaVuSans-38" x="95.410156"/>
      </g>
     </g>
    </g>
    <g id="xtick_8">
     <g id="line2d_8">
      <path d="M 332.937663 232.74 
L 332.937663 34.8 
" clip-path="url(#p81ff803bb9)" style="fill: none; stroke-dasharray: 3.7,1.6; stroke-dashoffset: 0; stroke: #cccccc; stroke-opacity: 0.7"/>
     </g>
     <g id="text_8">
      <!-- 0.9 -->
      <g style="fill: #262626" transform="translate(321.010319 253.637656) scale(0.15 -0.15)">
       <defs>
        <path id="DejaVuSans-39" d="M 703 97 
L 703 672 
Q 941 559 1184 500 
Q 1428 441 1663 441 
Q 2288 441 2617 861 
Q 2947 1281 2994 2138 
Q 2813 1869 2534 1725 
Q 2256 1581 1919 1581 
Q 1219 1581 811 2004 
Q 403 2428 403 3163 
Q 403 3881 828 4315 
Q 1253 4750 1959 4750 
Q 2769 4750 3195 4129 
Q 3622 3509 3622 2328 
Q 3622 1225 3098 567 
Q 2575 -91 1691 -91 
Q 1453 -91 1209 -44 
Q 966 3 703 97 
z
M 1959 2075 
Q 2384 2075 2632 2365 
Q 2881 2656 2881 3163 
Q 2881 3666 2632 3958 
Q 2384 4250 1959 4250 
Q 1534 4250 1286 3958 
Q 1038 3666 1038 3163 
Q 1038 2656 1286 2365 
Q 1534 2075 1959 2075 
z
" transform="scale(0.015625)"/>
       </defs>
       <use xlink:href="#DejaVuSans-30"/>
       <use xlink:href="#DejaVuSans-2e" x="63.623047"/>
       <use xlink:href="#DejaVuSans-39" x="95.410156"/>
      </g>
     </g>
    </g>
    <g id="text_9">
     <!-- Tanimoto similarity to closest compound -->
     <g style="fill: #262626" transform="translate(54.248906 272.154844) scale(0.15 -0.15)">
      <defs>
       <path id="DejaVuSans-54" d="M -19 4666 
L 3928 4666 
L 3928 4134 
L 2272 4134 
L 2272 0 
L 1638 0 
L 1638 4134 
L -19 4134 
L -19 4666 
z
" transform="scale(0.015625)"/>
       <path id="DejaVuSans-61" d="M 2194 1759 
Q 1497 1759 1228 1600 
Q 959 1441 959 1056 
Q 959 750 1161 570 
Q 1363 391 1709 391 
Q 2188 391 2477 730 
Q 2766 1069 2766 1631 
L 2766 1759 
L 2194 1759 
z
M 3341 1997 
L 3341 0 
L 2766 0 
L 2766 531 
Q 2569 213 2275 61 
Q 1981 -91 1556 -91 
Q 1019 -91 701 211 
Q 384 513 384 1019 
Q 384 1609 779 1909 
Q 1175 2209 1959 2209 
L 2766 2209 
L 2766 2266 
Q 2766 2663 2505 2880 
Q 2244 3097 1772 3097 
Q 1472 3097 1187 3025 
Q 903 2953 641 2809 
L 641 3341 
Q 956 3463 1253 3523 
Q 1550 3584 1831 3584 
Q 2591 3584 2966 3190 
Q 3341 2797 3341 1997 
z
" transform="scale(0.015625)"/>
       <path id="DejaVuSans-6e" d="M 3513 2113 
L 3513 0 
L 2938 0 
L 2938 2094 
Q 2938 2591 2744 2837 
Q 2550 3084 2163 3084 
Q 1697 3084 1428 2787 
Q 1159 2491 1159 1978 
L 1159 0 
L 581 0 
L 581 3500 
L 1159 3500 
L 1159 2956 
Q 1366 3272 1645 3428 
Q 1925 3584 2291 3584 
Q 2894 3584 3203 3211 
Q 3513 2838 3513 2113 
z
" transform="scale(0.015625)"/>
       <path id="DejaVuSans-69" d="M 603 3500 
L 1178 3500 
L 1178 0 
L 603 0 
L 603 3500 
z
M 603 4863 
L 1178 4863 
L 1178 4134 
L 603 4134 
L 603 4863 
z
" transform="scale(0.015625)"/>
       <path id="DejaVuSans-6d" d="M 3328 2828 
Q 3544 3216 3844 3400 
Q 4144 3584 4550 3584 
Q 5097 3584 5394 3201 
Q 5691 2819 5691 2113 
L 5691 0 
L 5113 0 
L 5113 2094 
Q 5113 2597 4934 2840 
Q 4756 3084 4391 3084 
Q 3944 3084 3684 2787 
Q 3425 2491 3425 1978 
L 3425 0 
L 2847 0 
L 2847 2094 
Q 2847 2600 2669 2842 
Q 2491 3084 2119 3084 
Q 1678 3084 1418 2786 
Q 1159 2488 1159 1978 
L 1159 0 
L 581 0 
L 581 3500 
L 1159 3500 
L 1159 2956 
Q 1356 3278 1631 3431 
Q 1906 3584 2284 3584 
Q 2666 3584 2933 3390 
Q 3200 3197 3328 2828 
z
" transform="scale(0.015625)"/>
       <path id="DejaVuSans-6f" d="M 1959 3097 
Q 1497 3097 1228 2736 
Q 959 2375 959 1747 
Q 959 1119 1226 758 
Q 1494 397 1959 397 
Q 2419 397 2687 759 
Q 2956 1122 2956 1747 
Q 2956 2369 2687 2733 
Q 2419 3097 1959 3097 
z
M 1959 3584 
Q 2709 3584 3137 3096 
Q 3566 2609 3566 1747 
Q 3566 888 3137 398 
Q 2709 -91 1959 -91 
Q 1206 -91 779 398 
Q 353 888 353 1747 
Q 353 2609 779 3096 
Q 1206 3584 1959 3584 
z
" transform="scale(0.015625)"/>
       <path id="DejaVuSans-74" d="M 1172 4494 
L 1172 3500 
L 2356 3500 
L 2356 3053 
L 1172 3053 
L 1172 1153 
Q 1172 725 1289 603 
Q 1406 481 1766 481 
L 2356 481 
L 2356 0 
L 1766 0 
Q 1100 0 847 248 
Q 594 497 594 1153 
L 594 3053 
L 172 3053 
L 172 3500 
L 594 3500 
L 594 4494 
L 1172 4494 
z
" transform="scale(0.015625)"/>
       <path id="DejaVuSans-20" transform="scale(0.015625)"/>
       <path id="DejaVuSans-73" d="M 2834 3397 
L 2834 2853 
Q 2591 2978 2328 3040 
Q 2066 3103 1784 3103 
Q 1356 3103 1142 2972 
Q 928 2841 928 2578 
Q 928 2378 1081 2264 
Q 1234 2150 1697 2047 
L 1894 2003 
Q 2506 1872 2764 1633 
Q 3022 1394 3022 966 
Q 3022 478 2636 193 
Q 2250 -91 1575 -91 
Q 1294 -91 989 -36 
Q 684 19 347 128 
L 347 722 
Q 666 556 975 473 
Q 1284 391 1588 391 
Q 1994 391 2212 530 
Q 2431 669 2431 922 
Q 2431 1156 2273 1281 
Q 2116 1406 1581 1522 
L 1381 1569 
Q 847 1681 609 1914 
Q 372 2147 372 2553 
Q 372 3047 722 3315 
Q 1072 3584 1716 3584 
Q 2034 3584 2315 3537 
Q 2597 3491 2834 3397 
z
" transform="scale(0.015625)"/>
       <path id="DejaVuSans-6c" d="M 603 4863 
L 1178 4863 
L 1178 0 
L 603 0 
L 603 4863 
z
" transform="scale(0.015625)"/>
       <path id="DejaVuSans-72" d="M 2631 2963 
Q 2534 3019 2420 3045 
Q 2306 3072 2169 3072 
Q 1681 3072 1420 2755 
Q 1159 2438 1159 1844 
L 1159 0 
L 581 0 
L 581 3500 
L 1159 3500 
L 1159 2956 
Q 1341 3275 1631 3429 
Q 1922 3584 2338 3584 
Q 2397 3584 2469 3576 
Q 2541 3569 2628 3553 
L 2631 2963 
z
" transform="scale(0.015625)"/>
       <path id="DejaVuSans-79" d="M 2059 -325 
Q 1816 -950 1584 -1140 
Q 1353 -1331 966 -1331 
L 506 -1331 
L 506 -850 
L 844 -850 
Q 1081 -850 1212 -737 
Q 1344 -625 1503 -206 
L 1606 56 
L 191 3500 
L 800 3500 
L 1894 763 
L 2988 3500 
L 3597 3500 
L 2059 -325 
z
" transform="scale(0.015625)"/>
       <path id="DejaVuSans-63" d="M 3122 3366 
L 3122 2828 
Q 2878 2963 2633 3030 
Q 2388 3097 2138 3097 
Q 1578 3097 1268 2742 
Q 959 2388 959 1747 
Q 959 1106 1268 751 
Q 1578 397 2138 397 
Q 2388 397 2633 464 
Q 2878 531 3122 666 
L 3122 134 
Q 2881 22 2623 -34 
Q 2366 -91 2075 -91 
Q 1284 -91 818 406 
Q 353 903 353 1747 
Q 353 2603 823 3093 
Q 1294 3584 2113 3584 
Q 2378 3584 2631 3529 
Q 2884 3475 3122 3366 
z
" transform="scale(0.015625)"/>
       <path id="DejaVuSans-65" d="M 3597 1894 
L 3597 1613 
L 953 1613 
Q 991 1019 1311 708 
Q 1631 397 2203 397 
Q 2534 397 2845 478 
Q 3156 559 3463 722 
L 3463 178 
Q 3153 47 2828 -22 
Q 2503 -91 2169 -91 
Q 1331 -91 842 396 
Q 353 884 353 1716 
Q 353 2575 817 3079 
Q 1281 3584 2069 3584 
Q 2775 3584 3186 3129 
Q 3597 2675 3597 1894 
z
M 3022 2063 
Q 3016 2534 2758 2815 
Q 2500 3097 2075 3097 
Q 1594 3097 1305 2825 
Q 1016 2553 972 2059 
L 3022 2063 
z
" transform="scale(0.015625)"/>
       <path id="DejaVuSans-70" d="M 1159 525 
L 1159 -1331 
L 581 -1331 
L 581 3500 
L 1159 3500 
L 1159 2969 
Q 1341 3281 1617 3432 
Q 1894 3584 2278 3584 
Q 2916 3584 3314 3078 
Q 3713 2572 3713 1747 
Q 3713 922 3314 415 
Q 2916 -91 2278 -91 
Q 1894 -91 1617 61 
Q 1341 213 1159 525 
z
M 3116 1747 
Q 3116 2381 2855 2742 
Q 2594 3103 2138 3103 
Q 1681 3103 1420 2742 
Q 1159 2381 1159 1747 
Q 1159 1113 1420 752 
Q 1681 391 2138 391 
Q 2594 391 2855 752 
Q 3116 1113 3116 1747 
z
" transform="scale(0.015625)"/>
       <path id="DejaVuSans-75" d="M 544 1381 
L 544 3500 
L 1119 3500 
L 1119 1403 
Q 1119 906 1312 657 
Q 1506 409 1894 409 
Q 2359 409 2629 706 
Q 2900 1003 2900 1516 
L 2900 3500 
L 3475 3500 
L 3475 0 
L 2900 0 
L 2900 538 
Q 2691 219 2414 64 
Q 2138 -91 1772 -91 
Q 1169 -91 856 284 
Q 544 659 544 1381 
z
M 1991 3584 
L 1991 3584 
z
" transform="scale(0.015625)"/>
       <path id="DejaVuSans-64" d="M 2906 2969 
L 2906 4863 
L 3481 4863 
L 3481 0 
L 2906 0 
L 2906 525 
Q 2725 213 2448 61 
Q 2172 -91 1784 -91 
Q 1150 -91 751 415 
Q 353 922 353 1747 
Q 353 2572 751 3078 
Q 1150 3584 1784 3584 
Q 2172 3584 2448 3432 
Q 2725 3281 2906 2969 
z
M 947 1747 
Q 947 1113 1208 752 
Q 1469 391 1925 391 
Q 2381 391 2643 752 
Q 2906 1113 2906 1747 
Q 2906 2381 2643 2742 
Q 2381 3103 1925 3103 
Q 1469 3103 1208 2742 
Q 947 2381 947 1747 
z
" transform="scale(0.015625)"/>
      </defs>
      <use xlink:href="#DejaVuSans-54"/>
      <use xlink:href="#DejaVuSans-61" x="44.583984"/>
      <use xlink:href="#DejaVuSans-6e" x="105.863281"/>
      <use xlink:href="#DejaVuSans-69" x="169.242188"/>
      <use xlink:href="#DejaVuSans-6d" x="197.025391"/>
      <use xlink:href="#DejaVuSans-6f" x="294.4375"/>
      <use xlink:href="#DejaVuSans-74" x="355.619141"/>
      <use xlink:href="#DejaVuSans-6f" x="394.828125"/>
      <use xlink:href="#DejaVuSans-20" x="456.009766"/>
      <use xlink:href="#DejaVuSans-73" x="487.796875"/>
      <use xlink:href="#DejaVuSans-69" x="539.896484"/>
      <use xlink:href="#DejaVuSans-6d" x="567.679688"/>
      <use xlink:href="#DejaVuSans-69" x="665.091797"/>
      <use xlink:href="#DejaVuSans-6c" x="692.875"/>
      <use xlink:href="#DejaVuSans-61" x="720.658203"/>
      <use xlink:href="#DejaVuSans-72" x="781.9375"/>
      <use xlink:href="#DejaVuSans-69" x="823.050781"/>
      <use xlink:href="#DejaVuSans-74" x="850.833984"/>
      <use xlink:href="#DejaVuSans-79" x="890.042969"/>
      <use xlink:href="#DejaVuSans-20" x="949.222656"/>
      <use xlink:href="#DejaVuSans-74" x="981.009766"/>
      <use xlink:href="#DejaVuSans-6f" x="1020.21875"/>
      <use xlink:href="#DejaVuSans-20" x="1081.400391"/>
      <use xlink:href="#DejaVuSans-63" x="1113.1875"/>
      <use xlink:href="#DejaVuSans-6c" x="1168.167969"/>
      <use xlink:href="#DejaVuSans-6f" x="1195.951172"/>
      <use xlink:href="#DejaVuSans-73" x="1257.132812"/>
      <use xlink:href="#DejaVuSans-65" x="1309.232422"/>
      <use xlink:href="#DejaVuSans-73" x="1370.755859"/>
      <use xlink:href="#DejaVuSans-74" x="1422.855469"/>
      <use xlink:href="#DejaVuSans-20" x="1462.064453"/>
      <use xlink:href="#DejaVuSans-63" x="1493.851562"/>
      <use xlink:href="#DejaVuSans-6f" x="1548.832031"/>
      <use xlink:href="#DejaVuSans-6d" x="1610.013672"/>
      <use xlink:href="#DejaVuSans-70" x="1707.425781"/>
      <use xlink:href="#DejaVuSans-6f" x="1770.902344"/>
      <use xlink:href="#DejaVuSans-75" x="1832.083984"/>
      <use xlink:href="#DejaVuSans-6e" x="1895.462891"/>
      <use xlink:href="#DejaVuSans-64" x="1958.841797"/>
     </g>
    </g>
   </g>
   <g id="matplotlib.axis_2">
    <g id="ytick_1">
     <g id="line2d_9">
      <path d="M 64.8 217.828596 
L 347.04 217.828596 
" clip-path="url(#p81ff803bb9)" style="fill: none; stroke-dasharray: 3.7,1.6; stroke-dashoffset: 0; stroke: #cccccc; stroke-opacity: 0.7"/>
     </g>
     <g id="text_10">
      <!-- 0.0 -->
      <g style="fill: #262626" transform="translate(31.445312 223.527425) scale(0.15 -0.15)">
       <use xlink:href="#DejaVuSans-30"/>
       <use xlink:href="#DejaVuSans-2e" x="63.623047"/>
       <use xlink:href="#DejaVuSans-30" x="95.410156"/>
      </g>
     </g>
    </g>
    <g id="ytick_2">
     <g id="line2d_10">
      <path d="M 64.8 183.615791 
L 347.04 183.615791 
" clip-path="url(#p81ff803bb9)" style="fill: none; stroke-dasharray: 3.7,1.6; stroke-dashoffset: 0; stroke: #cccccc; stroke-opacity: 0.7"/>
     </g>
     <g id="text_11">
      <!-- 0.2 -->
      <g style="fill: #262626" transform="translate(31.445312 189.314619) scale(0.15 -0.15)">
       <use xlink:href="#DejaVuSans-30"/>
       <use xlink:href="#DejaVuSans-2e" x="63.623047"/>
       <use xlink:href="#DejaVuSans-32" x="95.410156"/>
      </g>
     </g>
    </g>
    <g id="ytick_3">
     <g id="line2d_11">
      <path d="M 64.8 149.402986 
L 347.04 149.402986 
" clip-path="url(#p81ff803bb9)" style="fill: none; stroke-dasharray: 3.7,1.6; stroke-dashoffset: 0; stroke: #cccccc; stroke-opacity: 0.7"/>
     </g>
     <g id="text_12">
      <!-- 0.4 -->
      <g style="fill: #262626" transform="translate(31.445312 155.101814) scale(0.15 -0.15)">
       <use xlink:href="#DejaVuSans-30"/>
       <use xlink:href="#DejaVuSans-2e" x="63.623047"/>
       <use xlink:href="#DejaVuSans-34" x="95.410156"/>
      </g>
     </g>
    </g>
    <g id="ytick_4">
     <g id="line2d_12">
      <path d="M 64.8 115.190181 
L 347.04 115.190181 
" clip-path="url(#p81ff803bb9)" style="fill: none; stroke-dasharray: 3.7,1.6; stroke-dashoffset: 0; stroke: #cccccc; stroke-opacity: 0.7"/>
     </g>
     <g id="text_13">
      <!-- 0.6 -->
      <g style="fill: #262626" transform="translate(31.445312 120.889009) scale(0.15 -0.15)">
       <use xlink:href="#DejaVuSans-30"/>
       <use xlink:href="#DejaVuSans-2e" x="63.623047"/>
       <use xlink:href="#DejaVuSans-36" x="95.410156"/>
      </g>
     </g>
    </g>
    <g id="ytick_5">
     <g id="line2d_13">
      <path d="M 64.8 80.977375 
L 347.04 80.977375 
" clip-path="url(#p81ff803bb9)" style="fill: none; stroke-dasharray: 3.7,1.6; stroke-dashoffset: 0; stroke: #cccccc; stroke-opacity: 0.7"/>
     </g>
     <g id="text_14">
      <!-- 0.8 -->
      <g style="fill: #262626" transform="translate(31.445312 86.676203) scale(0.15 -0.15)">
       <use xlink:href="#DejaVuSans-30"/>
       <use xlink:href="#DejaVuSans-2e" x="63.623047"/>
       <use xlink:href="#DejaVuSans-38" x="95.410156"/>
      </g>
     </g>
    </g>
    <g id="ytick_6">
     <g id="line2d_14">
      <path d="M 64.8 46.76457 
L 347.04 46.76457 
" clip-path="url(#p81ff803bb9)" style="fill: none; stroke-dasharray: 3.7,1.6; stroke-dashoffset: 0; stroke: #cccccc; stroke-opacity: 0.7"/>
     </g>
     <g id="text_15">
      <!-- 1.0 -->
      <g style="fill: #262626" transform="translate(31.445312 52.463398) scale(0.15 -0.15)">
       <defs>
        <path id="DejaVuSans-31" d="M 794 531 
L 1825 531 
L 1825 4091 
L 703 3866 
L 703 4441 
L 1819 4666 
L 2450 4666 
L 2450 531 
L 3481 531 
L 3481 0 
L 794 0 
L 794 531 
z
" transform="scale(0.015625)"/>
       </defs>
       <use xlink:href="#DejaVuSans-31"/>
       <use xlink:href="#DejaVuSans-2e" x="63.623047"/>
       <use xlink:href="#DejaVuSans-30" x="95.410156"/>
      </g>
     </g>
    </g>
    <g id="text_16">
     <!-- score -->
     <g style="fill: #262626" transform="translate(24.325781 153.919219) rotate(-90) scale(0.15 -0.15)">
      <use xlink:href="#DejaVuSans-73"/>
      <use xlink:href="#DejaVuSans-63" x="52.099609"/>
      <use xlink:href="#DejaVuSans-6f" x="107.080078"/>
      <use xlink:href="#DejaVuSans-72" x="168.261719"/>
      <use xlink:href="#DejaVuSans-65" x="207.125"/>
     </g>
    </g>
   </g>
   <g id="PathCollection_1">
    <defs>
     <path id="m96a6986585" d="M 0 3.535534 
C 0.937635 3.535534 1.836992 3.163008 2.5 2.5 
C 3.163008 1.836992 3.535534 0.937635 3.535534 0 
C 3.535534 -0.937635 3.163008 -1.836992 2.5 -2.5 
C 1.836992 -3.163008 0.937635 -3.535534 0 -3.535534 
C -0.937635 -3.535534 -1.836992 -3.163008 -2.5 -2.5 
C -3.163008 -1.836992 -3.535534 -0.937635 -3.535534 0 
C -3.535534 0.937635 -3.163008 1.836992 -2.5 2.5 
C -1.836992 3.163008 -0.937635 3.535534 0 3.535534 
z
" style="stroke: #b22222; stroke-opacity: 0.8"/>
    </defs>
    <g clip-path="url(#p81ff803bb9)">
     <use xlink:href="#m96a6986585" x="269.911983" y="206.672247" style="fill: #b22222; fill-opacity: 0.8; stroke: #b22222; stroke-opacity: 0.8"/>
     <use xlink:href="#m96a6986585" x="334.210909" y="67.589756" style="fill: #b22222; fill-opacity: 0.8; stroke: #b22222; stroke-opacity: 0.8"/>
     <use xlink:href="#m96a6986585" x="203.259032" y="94.860832" style="fill: #b22222; fill-opacity: 0.8; stroke: #b22222; stroke-opacity: 0.8"/>
     <use xlink:href="#m96a6986585" x="289.4724" y="69.573107" style="fill: #b22222; fill-opacity: 0.8; stroke: #b22222; stroke-opacity: 0.8"/>
     <use xlink:href="#m96a6986585" x="77.629091" y="217.332759" style="fill: #b22222; fill-opacity: 0.8; stroke: #b22222; stroke-opacity: 0.8"/>
     <use xlink:href="#m96a6986585" x="85.015285" y="210.886868" style="fill: #b22222; fill-opacity: 0.8; stroke: #b22222; stroke-opacity: 0.8"/>
     <use xlink:href="#m96a6986585" x="84.109004" y="215.101489" style="fill: #b22222; fill-opacity: 0.8; stroke: #b22222; stroke-opacity: 0.8"/>
     <use xlink:href="#m96a6986585" x="97.06883" y="217.828596" style="fill: #b22222; fill-opacity: 0.8; stroke: #b22222; stroke-opacity: 0.8"/>
     <use xlink:href="#m96a6986585" x="269.911983" y="207.663922" style="fill: #b22222; fill-opacity: 0.8; stroke: #b22222; stroke-opacity: 0.8"/>
     <use xlink:href="#m96a6986585" x="334.210909" y="69.077269" style="fill: #b22222; fill-opacity: 0.8; stroke: #b22222; stroke-opacity: 0.8"/>
     <use xlink:href="#m96a6986585" x="203.259032" y="91.142049" style="fill: #b22222; fill-opacity: 0.8; stroke: #b22222; stroke-opacity: 0.8"/>
     <use xlink:href="#m96a6986585" x="289.4724" y="65.854324" style="fill: #b22222; fill-opacity: 0.8; stroke: #b22222; stroke-opacity: 0.8"/>
     <use xlink:href="#m96a6986585" x="77.629091" y="217.580678" style="fill: #b22222; fill-opacity: 0.8; stroke: #b22222; stroke-opacity: 0.8"/>
     <use xlink:href="#m96a6986585" x="85.015285" y="213.118138" style="fill: #b22222; fill-opacity: 0.8; stroke: #b22222; stroke-opacity: 0.8"/>
     <use xlink:href="#m96a6986585" x="84.109004" y="216.093164" style="fill: #b22222; fill-opacity: 0.8; stroke: #b22222; stroke-opacity: 0.8"/>
     <use xlink:href="#m96a6986585" x="97.06883" y="216.836921" style="fill: #b22222; fill-opacity: 0.8; stroke: #b22222; stroke-opacity: 0.8"/>
     <use xlink:href="#m96a6986585" x="269.911983" y="210.39103" style="fill: #b22222; fill-opacity: 0.8; stroke: #b22222; stroke-opacity: 0.8"/>
     <use xlink:href="#m96a6986585" x="334.210909" y="67.837675" style="fill: #b22222; fill-opacity: 0.8; stroke: #b22222; stroke-opacity: 0.8"/>
     <use xlink:href="#m96a6986585" x="203.259032" y="91.637887" style="fill: #b22222; fill-opacity: 0.8; stroke: #b22222; stroke-opacity: 0.8"/>
     <use xlink:href="#m96a6986585" x="289.4724" y="64.36681" style="fill: #b22222; fill-opacity: 0.8; stroke: #b22222; stroke-opacity: 0.8"/>
     <use xlink:href="#m96a6986585" x="77.629091" y="217.828596" style="fill: #b22222; fill-opacity: 0.8; stroke: #b22222; stroke-opacity: 0.8"/>
     <use xlink:href="#m96a6986585" x="85.015285" y="212.6223" style="fill: #b22222; fill-opacity: 0.8; stroke: #b22222; stroke-opacity: 0.8"/>
     <use xlink:href="#m96a6986585" x="84.109004" y="216.093164" style="fill: #b22222; fill-opacity: 0.8; stroke: #b22222; stroke-opacity: 0.8"/>
     <use xlink:href="#m96a6986585" x="97.06883" y="217.332759" style="fill: #b22222; fill-opacity: 0.8; stroke: #b22222; stroke-opacity: 0.8"/>
    </g>
   </g>
   <g id="PolyCollection_1">
    <defs>
     <path id="m9f0397178d" d="M 77.629091 -80.229975 
L 77.629091 -64.257273 
L 80.220826 -65.641975 
L 82.812562 -66.993903 
L 85.404298 -68.26157 
L 87.996033 -69.419332 
L 90.587769 -70.522685 
L 93.179504 -71.741554 
L 95.77124 -72.976353 
L 98.362975 -74.15289 
L 100.954711 -75.284713 
L 103.546446 -76.433149 
L 106.138182 -77.68837 
L 108.729917 -78.917313 
L 111.321653 -80.064244 
L 113.913388 -81.291569 
L 116.505124 -82.443707 
L 119.09686 -83.575103 
L 121.688595 -84.753526 
L 124.280331 -85.706212 
L 126.872066 -86.883935 
L 129.463802 -87.936408 
L 132.055537 -89.125111 
L 134.647273 -90.032001 
L 137.239008 -91.1684 
L 139.830744 -92.200687 
L 142.422479 -93.125982 
L 145.014215 -94.156935 
L 147.60595 -95.187532 
L 150.197686 -96.215637 
L 152.789421 -97.247874 
L 155.381157 -98.345266 
L 157.972893 -99.405407 
L 160.564628 -100.457411 
L 163.156364 -101.394358 
L 165.748099 -102.400891 
L 168.339835 -103.432653 
L 170.93157 -104.460334 
L 173.523306 -105.408658 
L 176.115041 -106.179851 
L 178.706777 -107.10135 
L 181.298512 -108.05298 
L 183.890248 -109.051408 
L 186.481983 -110.072982 
L 189.073719 -111.067728 
L 191.665455 -111.927921 
L 194.25719 -112.809556 
L 196.848926 -113.758526 
L 199.440661 -114.663776 
L 202.032397 -115.388494 
L 204.624132 -116.319736 
L 207.215868 -117.251345 
L 209.807603 -118.184004 
L 212.399339 -119.091124 
L 214.991074 -120.0515 
L 217.58281 -120.981979 
L 220.174545 -121.914637 
L 222.766281 -122.845967 
L 225.358017 -123.752035 
L 227.949752 -124.659776 
L 230.541488 -125.567518 
L 233.133223 -126.475259 
L 235.724959 -127.461449 
L 238.316694 -128.449838 
L 240.90843 -129.382354 
L 243.500165 -130.31487 
L 246.091901 -131.247386 
L 248.683636 -132.179901 
L 251.275372 -133.112417 
L 253.867107 -134.044933 
L 256.458843 -134.977449 
L 259.050579 -135.909964 
L 261.642314 -136.84248 
L 264.23405 -137.774996 
L 266.825785 -138.707512 
L 269.417521 -139.640028 
L 272.009256 -140.572543 
L 274.600992 -141.505059 
L 277.192727 -142.437575 
L 279.784463 -143.370091 
L 282.376198 -144.302606 
L 284.967934 -145.235122 
L 287.559669 -146.167638 
L 290.151405 -147.100154 
L 292.74314 -148.032669 
L 295.334876 -148.965185 
L 297.926612 -149.897701 
L 300.518347 -150.830217 
L 303.110083 -151.762733 
L 305.701818 -152.695248 
L 308.293554 -153.627764 
L 310.885289 -154.56028 
L 313.477025 -155.492796 
L 316.06876 -156.425311 
L 318.660496 -157.357827 
L 321.252231 -158.290343 
L 323.843967 -159.222859 
L 326.435702 -160.155374 
L 329.027438 -161.08789 
L 331.619174 -162.020406 
L 334.210909 -162.952922 
L 334.210909 -244.202727 
L 334.210909 -244.202727 
L 331.619174 -242.473971 
L 329.027438 -240.745214 
L 326.435702 -239.016458 
L 323.843967 -237.287702 
L 321.252231 -235.558945 
L 318.660496 -233.830189 
L 316.06876 -232.1014 
L 313.477025 -230.371983 
L 310.885289 -228.642566 
L 308.293554 -226.913148 
L 305.701818 -225.183731 
L 303.110083 -223.454314 
L 300.518347 -221.724897 
L 297.926612 -219.99548 
L 295.334876 -218.266063 
L 292.74314 -216.536433 
L 290.151405 -214.806208 
L 287.559669 -213.075984 
L 284.967934 -211.345759 
L 282.376198 -209.615534 
L 279.784463 -207.88531 
L 277.192727 -206.155085 
L 274.600992 -204.42486 
L 272.009256 -202.713686 
L 269.417521 -201.033797 
L 266.825785 -199.353909 
L 264.23405 -197.67402 
L 261.642314 -195.994132 
L 259.050579 -194.314243 
L 256.458843 -192.634355 
L 253.867107 -190.954466 
L 251.275372 -189.274578 
L 248.683636 -187.567058 
L 246.091901 -185.81316 
L 243.500165 -184.071936 
L 240.90843 -182.407549 
L 238.316694 -180.74137 
L 235.724959 -178.992211 
L 233.133223 -177.21912 
L 230.541488 -175.446029 
L 227.949752 -173.674717 
L 225.358017 -171.903744 
L 222.766281 -170.13277 
L 220.174545 -168.376319 
L 217.58281 -166.715398 
L 214.991074 -164.888825 
L 212.399339 -163.265169 
L 209.807603 -161.684402 
L 207.215868 -160.091339 
L 204.624132 -158.437326 
L 202.032397 -156.780727 
L 199.440661 -155.123934 
L 196.848926 -153.425169 
L 194.25719 -151.632323 
L 191.665455 -149.851905 
L 189.073719 -148.212119 
L 186.481983 -146.572332 
L 183.890248 -144.932545 
L 181.298512 -143.218798 
L 178.706777 -141.347203 
L 176.115041 -139.473087 
L 173.523306 -137.598971 
L 170.93157 -135.94427 
L 168.339835 -134.116166 
L 165.748099 -132.534106 
L 163.156364 -130.969583 
L 160.564628 -129.25056 
L 157.972893 -127.655379 
L 155.381157 -125.897619 
L 152.789421 -124.112093 
L 150.197686 -122.497533 
L 147.60595 -120.807128 
L 145.014215 -119.126073 
L 142.422479 -117.459602 
L 139.830744 -115.757999 
L 137.239008 -114.117333 
L 134.647273 -112.484201 
L 132.055537 -110.916484 
L 129.463802 -109.508573 
L 126.872066 -107.95624 
L 124.280331 -106.542135 
L 121.688595 -105.010765 
L 119.09686 -103.429353 
L 116.505124 -102.021453 
L 113.913388 -100.345857 
L 111.321653 -98.763674 
L 108.729917 -97.023582 
L 106.138182 -95.556285 
L 103.546446 -94.137873 
L 100.954711 -92.52208 
L 98.362975 -90.99012 
L 95.77124 -89.589834 
L 93.179504 -88.04297 
L 90.587769 -86.675014 
L 87.996033 -85.336781 
L 85.404298 -84.056397 
L 82.812562 -82.777254 
L 80.220826 -81.502723 
L 77.629091 -80.229975 
z
" style="stroke: #ffffff; stroke-opacity: 0.15"/>
    </defs>
    <g clip-path="url(#p81ff803bb9)">
     <use xlink:href="#m9f0397178d" x="0" y="288" style="fill: #b22222; fill-opacity: 0.15; stroke: #ffffff; stroke-opacity: 0.15"/>
    </g>
   </g>
   <g id="line2d_15">
    <path d="M 77.629091 216.854239 
L 80.220826 215.474352 
L 82.812562 214.094465 
L 85.404298 212.714578 
L 87.996033 211.334692 
L 90.587769 209.954805 
L 93.179504 208.574918 
L 95.77124 207.195032 
L 98.362975 205.815145 
L 100.954711 204.435258 
L 103.546446 203.055372 
L 106.138182 201.675485 
L 108.729917 200.295598 
L 111.321653 198.915712 
L 113.913388 197.535825 
L 116.505124 196.155938 
L 119.09686 194.776052 
L 121.688595 193.396165 
L 124.280331 192.016278 
L 126.872066 190.636391 
L 129.463802 189.256505 
L 132.055537 187.876618 
L 134.647273 186.496731 
L 137.239008 185.116845 
L 139.830744 183.736958 
L 142.422479 182.357071 
L 145.014215 180.977185 
L 147.60595 179.597298 
L 150.197686 178.217411 
L 152.789421 176.837525 
L 155.381157 175.457638 
L 157.972893 174.077751 
L 160.564628 172.697865 
L 163.156364 171.317978 
L 165.748099 169.938091 
L 168.339835 168.558204 
L 170.93157 167.178318 
L 173.523306 165.798431 
L 176.115041 164.418544 
L 178.706777 163.038658 
L 181.298512 161.658771 
L 183.890248 160.278884 
L 186.481983 158.898998 
L 189.073719 157.519111 
L 191.665455 156.139224 
L 194.25719 154.759338 
L 196.848926 153.379451 
L 199.440661 151.999564 
L 202.032397 150.619678 
L 204.624132 149.239791 
L 207.215868 147.859904 
L 209.807603 146.480017 
L 212.399339 145.100131 
L 214.991074 143.720244 
L 217.58281 142.340357 
L 220.174545 140.960471 
L 222.766281 139.580584 
L 225.358017 138.200697 
L 227.949752 136.820811 
L 230.541488 135.440924 
L 233.133223 134.061037 
L 235.724959 132.681151 
L 238.316694 131.301264 
L 240.90843 129.921377 
L 243.500165 128.54149 
L 246.091901 127.161604 
L 248.683636 125.781717 
L 251.275372 124.40183 
L 253.867107 123.021944 
L 256.458843 121.642057 
L 259.050579 120.26217 
L 261.642314 118.882284 
L 264.23405 117.502397 
L 266.825785 116.12251 
L 269.417521 114.742624 
L 272.009256 113.362737 
L 274.600992 111.98285 
L 277.192727 110.602964 
L 279.784463 109.223077 
L 282.376198 107.84319 
L 284.967934 106.463303 
L 287.559669 105.083417 
L 290.151405 103.70353 
L 292.74314 102.323643 
L 295.334876 100.943757 
L 297.926612 99.56387 
L 300.518347 98.183983 
L 303.110083 96.804097 
L 305.701818 95.42421 
L 308.293554 94.044323 
L 310.885289 92.664437 
L 313.477025 91.28455 
L 316.06876 89.904663 
L 318.660496 88.524777 
L 321.252231 87.14489 
L 323.843967 85.765003 
L 326.435702 84.385116 
L 329.027438 83.00523 
L 331.619174 81.625343 
L 334.210909 80.245456 
" clip-path="url(#p81ff803bb9)" style="fill: none; stroke: #b22222; stroke-width: 2.25; stroke-linecap: round"/>
   </g>
   <g id="patch_3">
    <path d="M 64.8 232.74 
L 64.8 34.8 
" style="fill: none; stroke: #cccccc; stroke-width: 1.25; stroke-linejoin: miter; stroke-linecap: square"/>
   </g>
   <g id="patch_4">
    <path d="M 347.04 232.74 
L 347.04 34.8 
" style="fill: none; stroke: #cccccc; stroke-width: 1.25; stroke-linejoin: miter; stroke-linecap: square"/>
   </g>
   <g id="patch_5">
    <path d="M 64.8 232.74 
L 347.04 232.74 
" style="fill: none; stroke: #cccccc; stroke-width: 1.25; stroke-linejoin: miter; stroke-linecap: square"/>
   </g>
   <g id="patch_6">
    <path d="M 64.8 34.8 
L 347.04 34.8 
" style="fill: none; stroke: #cccccc; stroke-width: 1.25; stroke-linejoin: miter; stroke-linecap: square"/>
   </g>
   <g id="text_17">
    <!-- accuracy -->
    <g style="fill: #262626" transform="translate(160.80125 28.8) scale(0.2 -0.2)">
     <use xlink:href="#DejaVuSans-61"/>
     <use xlink:href="#DejaVuSans-63" x="61.279297"/>
     <use xlink:href="#DejaVuSans-63" x="116.259766"/>
     <use xlink:href="#DejaVuSans-75" x="171.240234"/>
     <use xlink:href="#DejaVuSans-72" x="234.619141"/>
     <use xlink:href="#DejaVuSans-61" x="275.732422"/>
     <use xlink:href="#DejaVuSans-63" x="337.011719"/>
     <use xlink:href="#DejaVuSans-79" x="391.992188"/>
    </g>
   </g>
  </g>
 </g>
 <defs>
  <clipPath id="p81ff803bb9">
   <rect x="64.8" y="34.8" width="282.24" height="197.94"/>
  </clipPath>
 </defs>
</svg>
