<?xml version="1.0" encoding="utf-8" standalone="no"?>
<!DOCTYPE svg PUBLIC "-//W3C//DTD SVG 1.1//EN"
  "http://www.w3.org/Graphics/SVG/1.1/DTD/svg11.dtd">
<svg xmlns:xlink="http://www.w3.org/1999/xlink" width="403.2pt" height="288pt" viewBox="0 0 403.2 288" xmlns="http://www.w3.org/2000/svg" version="1.1">
 <metadata>
  <rdf:RDF xmlns:dc="http://purl.org/dc/elements/1.1/" xmlns:cc="http://creativecommons.org/ns#" xmlns:rdf="http://www.w3.org/1999/02/22-rdf-syntax-ns#">
   <cc:Work>
    <dc:type rdf:resource="http://purl.org/dc/dcmitype/StillImage"/>
    <dc:date>2024-07-07T13:39:12.164617</dc:date>
    <dc:format>image/svg+xml</dc:format>
    <dc:creator>
     <cc:Agent>
      <dc:title>Matplotlib v3.8.2, https://matplotlib.org/</dc:title>
     </cc:Agent>
    </dc:creator>
   </cc:Work>
  </rdf:RDF>
 </metadata>
 <defs>
  <style type="text/css">*{stroke-linejoin: round; stroke-linecap: butt}</style>
 </defs>
 <g id="figure_1">
  <g id="patch_1">
   <path d="M 0 288 
L 403.2 288 
L 403.2 0 
L 0 0 
z
" style="fill: #ffffff"/>
  </g>
  <g id="axes_1">
   <g id="patch_2">
    <path d="M 60.14 237.4 
L 392.4 237.4 
L 392.4 32.64 
L 60.14 32.64 
z
" style="fill: #ffffff"/>
   </g>
   <g id="PathCollection_1">
    <defs>
     <path id="m5cddd990a0" d="M 0 7.071068 
C 1.875269 7.071068 3.673985 6.326016 5 5 
C 6.326016 3.673985 7.071068 1.875269 7.071068 0 
C 7.071068 -1.875269 6.326016 -3.673985 5 -5 
C 3.673985 -6.326016 1.875269 -7.071068 0 -7.071068 
C -1.875269 -7.071068 -3.673985 -6.326016 -5 -5 
C -6.326016 -3.673985 -7.071068 -1.875269 -7.071068 0 
C -7.071068 1.875269 -6.326016 3.673985 -5 5 
C -3.673985 6.326016 -1.875269 7.071068 0 7.071068 
z
" style="stroke: #0173b2; stroke-opacity: 0.8"/>
    </defs>
    <g clip-path="url(#pdcfd3af91f)">
     <use xlink:href="#m5cddd990a0" x="301.602966" y="210.280034" style="fill: #0173b2; fill-opacity: 0.8; stroke: #0173b2; stroke-opacity: 0.8"/>
     <use xlink:href="#m5cddd990a0" x="377.297273" y="69.381224" style="fill: #0173b2; fill-opacity: 0.8; stroke: #0173b2; stroke-opacity: 0.8"/>
     <use xlink:href="#m5cddd990a0" x="223.137442" y="97.008442" style="fill: #0173b2; fill-opacity: 0.8; stroke: #0173b2; stroke-opacity: 0.8"/>
     <use xlink:href="#m5cddd990a0" x="324.629979" y="71.390476" style="fill: #0173b2; fill-opacity: 0.8; stroke: #0173b2; stroke-opacity: 0.8"/>
     <use xlink:href="#m5cddd990a0" x="75.242727" y="221.079764" style="fill: #0173b2; fill-opacity: 0.8; stroke: #0173b2; stroke-opacity: 0.8"/>
     <use xlink:href="#m5cddd990a0" x="83.937941" y="214.549695" style="fill: #0173b2; fill-opacity: 0.8; stroke: #0173b2; stroke-opacity: 0.8"/>
     <use xlink:href="#m5cddd990a0" x="82.871043" y="218.819355" style="fill: #0173b2; fill-opacity: 0.8; stroke: #0173b2; stroke-opacity: 0.8"/>
     <use xlink:href="#m5cddd990a0" x="98.127675" y="221.582077" style="fill: #0173b2; fill-opacity: 0.8; stroke: #0173b2; stroke-opacity: 0.8"/>
     <use xlink:href="#m5cddd990a0" x="301.602966" y="211.28466" style="fill: #0173b2; fill-opacity: 0.8; stroke: #0173b2; stroke-opacity: 0.8"/>
     <use xlink:href="#m5cddd990a0" x="377.297273" y="70.888163" style="fill: #0173b2; fill-opacity: 0.8; stroke: #0173b2; stroke-opacity: 0.8"/>
     <use xlink:href="#m5cddd990a0" x="223.137442" y="93.241094" style="fill: #0173b2; fill-opacity: 0.8; stroke: #0173b2; stroke-opacity: 0.8"/>
     <use xlink:href="#m5cddd990a0" x="324.629979" y="67.623128" style="fill: #0173b2; fill-opacity: 0.8; stroke: #0173b2; stroke-opacity: 0.8"/>
     <use xlink:href="#m5cddd990a0" x="75.242727" y="221.330921" style="fill: #0173b2; fill-opacity: 0.8; stroke: #0173b2; stroke-opacity: 0.8"/>
     <use xlink:href="#m5cddd990a0" x="83.937941" y="216.810103" style="fill: #0173b2; fill-opacity: 0.8; stroke: #0173b2; stroke-opacity: 0.8"/>
     <use xlink:href="#m5cddd990a0" x="82.871043" y="219.823982" style="fill: #0173b2; fill-opacity: 0.8; stroke: #0173b2; stroke-opacity: 0.8"/>
     <use xlink:href="#m5cddd990a0" x="98.127675" y="220.577451" style="fill: #0173b2; fill-opacity: 0.8; stroke: #0173b2; stroke-opacity: 0.8"/>
     <use xlink:href="#m5cddd990a0" x="301.602966" y="214.047382" style="fill: #0173b2; fill-opacity: 0.8; stroke: #0173b2; stroke-opacity: 0.8"/>
     <use xlink:href="#m5cddd990a0" x="377.297273" y="69.632381" style="fill: #0173b2; fill-opacity: 0.8; stroke: #0173b2; stroke-opacity: 0.8"/>
     <use xlink:href="#m5cddd990a0" x="223.137442" y="93.743407" style="fill: #0173b2; fill-opacity: 0.8; stroke: #0173b2; stroke-opacity: 0.8"/>
     <use xlink:href="#m5cddd990a0" x="324.629979" y="66.116189" style="fill: #0173b2; fill-opacity: 0.8; stroke: #0173b2; stroke-opacity: 0.8"/>
     <use xlink:href="#m5cddd990a0" x="75.242727" y="221.582077" style="fill: #0173b2; fill-opacity: 0.8; stroke: #0173b2; stroke-opacity: 0.8"/>
     <use xlink:href="#m5cddd990a0" x="83.937941" y="216.30779" style="fill: #0173b2; fill-opacity: 0.8; stroke: #0173b2; stroke-opacity: 0.8"/>
     <use xlink:href="#m5cddd990a0" x="82.871043" y="219.823982" style="fill: #0173b2; fill-opacity: 0.8; stroke: #0173b2; stroke-opacity: 0.8"/>
     <use xlink:href="#m5cddd990a0" x="98.127675" y="221.079764" style="fill: #0173b2; fill-opacity: 0.8; stroke: #0173b2; stroke-opacity: 0.8"/>
    </g>
   </g>
   <g id="PolyCollection_1">
    <path d="M 75.242727 210.875532 
L 75.242727 228.092727 
L 78.293783 226.742125 
L 81.344839 225.352194 
L 84.395895 223.994633 
L 87.446951 222.576537 
L 90.498007 221.327403 
L 93.549063 220.024485 
L 96.600119 218.760522 
L 99.651175 217.419536 
L 102.702231 216.13885 
L 105.753287 215.024893 
L 108.804343 213.939786 
L 111.855399 212.673482 
L 114.906455 211.558966 
L 117.957511 210.523487 
L 121.008567 209.334595 
L 124.059624 208.217334 
L 127.11068 207.245502 
L 130.161736 206.27367 
L 133.212792 205.257208 
L 136.263848 204.093932 
L 139.314904 202.925438 
L 142.36596 201.828362 
L 145.417016 200.748424 
L 148.468072 199.607523 
L 151.519128 198.419227 
L 154.570184 197.228927 
L 157.62124 196.229447 
L 160.672296 195.174568 
L 163.723352 194.430976 
L 166.774408 193.346398 
L 169.825464 192.261821 
L 172.87652 191.20814 
L 175.927576 190.127363 
L 178.978632 189.024378 
L 182.029688 188.044247 
L 185.080744 187.156174 
L 188.1318 186.24992 
L 191.182856 185.27013 
L 194.233912 184.502002 
L 197.284968 183.621479 
L 200.336024 182.736791 
L 203.38708 181.852103 
L 206.438136 180.954863 
L 209.489192 179.995714 
L 212.540248 179.091104 
L 215.591304 178.160354 
L 218.64236 177.229605 
L 221.693416 176.298378 
L 224.744472 175.363601 
L 227.795528 174.336275 
L 230.846584 173.251521 
L 233.89764 172.166124 
L 236.948696 171.079644 
L 239.999752 170.155534 
L 243.050808 168.996352 
L 246.101864 168.000825 
L 249.15292 167.002668 
L 252.203976 166.004511 
L 255.255032 165.006354 
L 258.306088 164.008197 
L 261.357144 163.01004 
L 264.4082 162.011883 
L 267.459256 161.013726 
L 270.510312 160.015569 
L 273.561368 159.017411 
L 276.612424 158.019254 
L 279.66348 157.021097 
L 282.714536 156.043898 
L 285.765592 155.19764 
L 288.816648 154.306967 
L 291.867704 153.264441 
L 294.91876 152.220698 
L 297.969816 151.17431 
L 301.020872 150.178288 
L 304.071928 149.087317 
L 307.122984 148.045768 
L 310.17404 147.039527 
L 313.225096 146.04137 
L 316.276152 145.10795 
L 319.327208 144.177009 
L 322.378264 143.274791 
L 325.42932 142.368348 
L 328.480376 141.387256 
L 331.531433 140.459963 
L 334.582489 139.552638 
L 337.633545 138.624934 
L 340.684601 137.670045 
L 343.735657 136.826727 
L 346.786713 135.930267 
L 349.837769 135.026991 
L 352.888825 134.12253 
L 355.939881 133.217183 
L 358.990937 132.311836 
L 362.041993 131.406488 
L 365.093049 130.501141 
L 368.144105 129.595793 
L 371.195161 128.690446 
L 374.246217 127.785098 
L 377.297273 126.879751 
L 377.297273 41.947273 
L 377.297273 41.947273 
L 374.246217 43.750654 
L 371.195161 45.554035 
L 368.144105 47.357417 
L 365.093049 49.160798 
L 362.041993 50.964179 
L 358.990937 52.767561 
L 355.939881 54.570942 
L 352.888825 56.374323 
L 349.837769 58.177705 
L 346.786713 59.981086 
L 343.735657 61.784467 
L 340.684601 63.588048 
L 337.633545 65.31756 
L 334.582489 67.029921 
L 331.531433 68.773581 
L 328.480376 70.60776 
L 325.42932 72.443262 
L 322.378264 74.278763 
L 319.327208 76.114265 
L 316.276152 77.906729 
L 313.225096 79.682571 
L 310.17404 81.458414 
L 307.122984 83.234326 
L 304.071928 85.01077 
L 301.020872 86.849506 
L 297.969816 88.705662 
L 294.91876 90.561818 
L 291.867704 92.417974 
L 288.816648 94.249011 
L 285.765592 96.052994 
L 282.714536 97.856977 
L 279.66348 99.66018 
L 276.612424 101.460253 
L 273.561368 103.262238 
L 270.510312 105.06562 
L 267.459256 106.869001 
L 264.4082 108.672382 
L 261.357144 110.475764 
L 258.306088 112.279145 
L 255.255032 114.082526 
L 252.203976 115.834291 
L 249.15292 117.560856 
L 246.101864 119.36641 
L 243.050808 121.171965 
L 239.999752 122.980391 
L 236.948696 124.620639 
L 233.89764 126.245005 
L 230.846584 128.001958 
L 227.795528 129.651959 
L 224.744472 131.30282 
L 221.693416 133.166459 
L 218.64236 135.065864 
L 215.591304 136.854272 
L 212.540248 138.533933 
L 209.489192 140.241599 
L 206.438136 141.964962 
L 203.38708 143.670234 
L 200.336024 145.455062 
L 197.284968 147.261181 
L 194.233912 149.067647 
L 191.182856 150.78705 
L 188.1318 152.674954 
L 185.080744 154.487043 
L 182.029688 156.293508 
L 178.978632 158.036325 
L 175.927576 159.620926 
L 172.87652 161.49923 
L 169.825464 163.373751 
L 166.774408 164.995503 
L 163.723352 166.849943 
L 160.672296 168.599956 
L 157.62124 170.175365 
L 154.570184 171.69817 
L 151.519128 173.5517 
L 148.468072 175.116361 
L 145.417016 176.51447 
L 142.36596 177.920624 
L 139.314904 179.425948 
L 136.263848 181.197333 
L 133.212792 182.988991 
L 130.161736 184.898442 
L 127.11068 186.447765 
L 124.059624 188.257432 
L 121.008567 189.865659 
L 117.957511 191.345056 
L 114.906455 193.04227 
L 111.855399 194.508824 
L 108.804343 195.889512 
L 105.753287 197.408137 
L 102.702231 198.859499 
L 99.651175 200.325187 
L 96.600119 201.755688 
L 93.549063 203.143913 
L 90.498007 204.388234 
L 87.446951 205.684788 
L 84.395895 207.134973 
L 81.344839 208.332921 
L 78.293783 209.704389 
L 75.242727 210.875532 
z
" clip-path="url(#pdcfd3af91f)" style="fill: #0173b2; fill-opacity: 0.15"/>
   </g>
   <g id="PathCollection_2">
    <defs>
     <path id="m885471b0ce" d="M 0 7.071068 
C 1.875269 7.071068 3.673985 6.326016 5 5 
C 6.326016 3.673985 7.071068 1.875269 7.071068 0 
C 7.071068 -1.875269 6.326016 -3.673985 5 -5 
C 3.673985 -6.326016 1.875269 -7.071068 0 -7.071068 
C -1.875269 -7.071068 -3.673985 -6.326016 -5 -5 
C -6.326016 -3.673985 -7.071068 -1.875269 -7.071068 0 
C -7.071068 1.875269 -6.326016 3.673985 -5 5 
C -3.673985 6.326016 -1.875269 7.071068 0 7.071068 
z
" style="stroke: #de8f05; stroke-opacity: 0.8"/>
    </defs>
    <g clip-path="url(#pdcfd3af91f)">
     <use xlink:href="#m885471b0ce" x="301.602966" y="221.235481" style="fill: #de8f05; fill-opacity: 0.8; stroke: #de8f05; stroke-opacity: 0.8"/>
     <use xlink:href="#m885471b0ce" x="377.297273" y="221.582077" style="fill: #de8f05; fill-opacity: 0.8; stroke: #de8f05; stroke-opacity: 0.8"/>
     <use xlink:href="#m885471b0ce" x="223.137442" y="221.582077" style="fill: #de8f05; fill-opacity: 0.8; stroke: #de8f05; stroke-opacity: 0.8"/>
     <use xlink:href="#m885471b0ce" x="324.629979" y="220.542289" style="fill: #de8f05; fill-opacity: 0.8; stroke: #de8f05; stroke-opacity: 0.8"/>
     <use xlink:href="#m885471b0ce" x="75.242727" y="221.495428" style="fill: #de8f05; fill-opacity: 0.8; stroke: #de8f05; stroke-opacity: 0.8"/>
     <use xlink:href="#m885471b0ce" x="83.937941" y="221.582077" style="fill: #de8f05; fill-opacity: 0.8; stroke: #de8f05; stroke-opacity: 0.8"/>
     <use xlink:href="#m885471b0ce" x="82.871043" y="221.495428" style="fill: #de8f05; fill-opacity: 0.8; stroke: #de8f05; stroke-opacity: 0.8"/>
     <use xlink:href="#m885471b0ce" x="98.127675" y="220.715587" style="fill: #de8f05; fill-opacity: 0.8; stroke: #de8f05; stroke-opacity: 0.8"/>
     <use xlink:href="#m885471b0ce" x="301.602966" y="221.235481" style="fill: #de8f05; fill-opacity: 0.8; stroke: #de8f05; stroke-opacity: 0.8"/>
     <use xlink:href="#m885471b0ce" x="377.297273" y="221.582077" style="fill: #de8f05; fill-opacity: 0.8; stroke: #de8f05; stroke-opacity: 0.8"/>
     <use xlink:href="#m885471b0ce" x="223.137442" y="221.582077" style="fill: #de8f05; fill-opacity: 0.8; stroke: #de8f05; stroke-opacity: 0.8"/>
     <use xlink:href="#m885471b0ce" x="324.629979" y="220.195693" style="fill: #de8f05; fill-opacity: 0.8; stroke: #de8f05; stroke-opacity: 0.8"/>
     <use xlink:href="#m885471b0ce" x="75.242727" y="221.495428" style="fill: #de8f05; fill-opacity: 0.8; stroke: #de8f05; stroke-opacity: 0.8"/>
     <use xlink:href="#m885471b0ce" x="83.937941" y="221.582077" style="fill: #de8f05; fill-opacity: 0.8; stroke: #de8f05; stroke-opacity: 0.8"/>
     <use xlink:href="#m885471b0ce" x="82.871043" y="221.235481" style="fill: #de8f05; fill-opacity: 0.8; stroke: #de8f05; stroke-opacity: 0.8"/>
     <use xlink:href="#m885471b0ce" x="98.127675" y="220.628938" style="fill: #de8f05; fill-opacity: 0.8; stroke: #de8f05; stroke-opacity: 0.8"/>
     <use xlink:href="#m885471b0ce" x="301.602966" y="220.975534" style="fill: #de8f05; fill-opacity: 0.8; stroke: #de8f05; stroke-opacity: 0.8"/>
     <use xlink:href="#m885471b0ce" x="377.297273" y="221.495428" style="fill: #de8f05; fill-opacity: 0.8; stroke: #de8f05; stroke-opacity: 0.8"/>
     <use xlink:href="#m885471b0ce" x="223.137442" y="221.582077" style="fill: #de8f05; fill-opacity: 0.8; stroke: #de8f05; stroke-opacity: 0.8"/>
     <use xlink:href="#m885471b0ce" x="324.629979" y="220.45564" style="fill: #de8f05; fill-opacity: 0.8; stroke: #de8f05; stroke-opacity: 0.8"/>
     <use xlink:href="#m885471b0ce" x="75.242727" y="221.582077" style="fill: #de8f05; fill-opacity: 0.8; stroke: #de8f05; stroke-opacity: 0.8"/>
     <use xlink:href="#m885471b0ce" x="83.937941" y="221.582077" style="fill: #de8f05; fill-opacity: 0.8; stroke: #de8f05; stroke-opacity: 0.8"/>
     <use xlink:href="#m885471b0ce" x="82.871043" y="221.495428" style="fill: #de8f05; fill-opacity: 0.8; stroke: #de8f05; stroke-opacity: 0.8"/>
     <use xlink:href="#m885471b0ce" x="98.127675" y="220.45564" style="fill: #de8f05; fill-opacity: 0.8; stroke: #de8f05; stroke-opacity: 0.8"/>
    </g>
   </g>
   <g id="PolyCollection_2">
    <path d="M 75.242727 221.076889 
L 75.242727 221.527815 
L 78.293783 221.521853 
L 81.344839 221.514114 
L 84.395895 221.5072 
L 87.446951 221.500287 
L 90.498007 221.493632 
L 93.549063 221.486464 
L 96.600119 221.480596 
L 99.651175 221.478052 
L 102.702231 221.473474 
L 105.753287 221.468809 
L 108.804343 221.465005 
L 111.855399 221.461242 
L 114.906455 221.45735 
L 117.957511 221.451739 
L 121.008567 221.446102 
L 124.059624 221.440478 
L 127.11068 221.43583 
L 130.161736 221.432178 
L 133.212792 221.42739 
L 136.263848 221.426142 
L 139.314904 221.421543 
L 142.36596 221.414379 
L 145.417016 221.411918 
L 148.468072 221.409525 
L 151.519128 221.402909 
L 154.570184 221.401002 
L 157.62124 221.398618 
L 160.672296 221.39843 
L 163.723352 221.397473 
L 166.774408 221.394855 
L 169.825464 221.392641 
L 172.87652 221.390179 
L 175.927576 221.387846 
L 178.978632 221.385419 
L 182.029688 221.382133 
L 185.080744 221.380595 
L 188.1318 221.381893 
L 191.182856 221.38288 
L 194.233912 221.381674 
L 197.284968 221.38044 
L 200.336024 221.379198 
L 203.38708 221.377215 
L 206.438136 221.375117 
L 209.489192 221.37458 
L 212.540248 221.374345 
L 215.591304 221.373154 
L 218.64236 221.371963 
L 221.693416 221.372944 
L 224.744472 221.37454 
L 227.795528 221.373448 
L 230.846584 221.372459 
L 233.89764 221.373393 
L 236.948696 221.374328 
L 239.999752 221.375154 
L 243.050808 221.37486 
L 246.101864 221.373688 
L 249.15292 221.37459 
L 252.203976 221.374085 
L 255.255032 221.374931 
L 258.306088 221.375411 
L 261.357144 221.376833 
L 264.4082 221.377594 
L 267.459256 221.376793 
L 270.510312 221.374957 
L 273.561368 221.373955 
L 276.612424 221.373963 
L 279.66348 221.374501 
L 282.714536 221.374473 
L 285.765592 221.374444 
L 288.816648 221.374416 
L 291.867704 221.374388 
L 294.91876 221.377443 
L 297.969816 221.376722 
L 301.020872 221.374753 
L 304.071928 221.374908 
L 307.122984 221.375892 
L 310.17404 221.376875 
L 313.225096 221.378206 
L 316.276152 221.380543 
L 319.327208 221.38288 
L 322.378264 221.38604 
L 325.42932 221.387597 
L 328.480376 221.389962 
L 331.531433 221.392335 
L 334.582489 221.393509 
L 337.633545 221.394165 
L 340.684601 221.39677 
L 343.735657 221.399371 
L 346.786713 221.401296 
L 349.837769 221.400999 
L 352.888825 221.400703 
L 355.939881 221.400796 
L 358.990937 221.403038 
L 362.041993 221.405209 
L 365.093049 221.40738 
L 368.144105 221.409551 
L 371.195161 221.411742 
L 374.246217 221.413665 
L 377.297273 221.413475 
L 377.297273 220.63728 
L 377.297273 220.63728 
L 374.246217 220.644133 
L 371.195161 220.650987 
L 368.144105 220.65784 
L 365.093049 220.665552 
L 362.041993 220.673359 
L 358.990937 220.682682 
L 355.939881 220.692958 
L 352.888825 220.703234 
L 349.837769 220.712205 
L 346.786713 220.719495 
L 343.735657 220.726642 
L 340.684601 220.732407 
L 337.633545 220.738172 
L 334.582489 220.743937 
L 331.531433 220.751425 
L 328.480376 220.759231 
L 325.42932 220.766776 
L 322.378264 220.772409 
L 319.327208 220.776764 
L 316.276152 220.781118 
L 313.225096 220.788511 
L 310.17404 220.798024 
L 307.122984 220.807536 
L 304.071928 220.817049 
L 301.020872 220.826562 
L 297.969816 220.832744 
L 294.91876 220.839525 
L 291.867704 220.843925 
L 288.816648 220.849022 
L 285.765592 220.854449 
L 282.714536 220.861944 
L 279.66348 220.870333 
L 276.612424 220.878732 
L 273.561368 220.88585 
L 270.510312 220.89242 
L 267.459256 220.900276 
L 264.4082 220.90531 
L 261.357144 220.911779 
L 258.306088 220.917174 
L 255.255032 220.924717 
L 252.203976 220.93226 
L 249.15292 220.937684 
L 246.101864 220.945668 
L 243.050808 220.953736 
L 239.999752 220.961392 
L 236.948696 220.963639 
L 233.89764 220.96995 
L 230.846584 220.974605 
L 227.795528 220.979209 
L 224.744472 220.986216 
L 221.693416 220.989661 
L 218.64236 220.992947 
L 215.591304 220.999421 
L 212.540248 221.004187 
L 209.489192 221.011212 
L 206.438136 221.019129 
L 203.38708 221.026425 
L 200.336024 221.026707 
L 197.284968 221.024522 
L 194.233912 221.027024 
L 191.182856 221.029658 
L 188.1318 221.032305 
L 185.080744 221.034997 
L 182.029688 221.038649 
L 178.978632 221.042355 
L 175.927576 221.048001 
L 172.87652 221.049805 
L 169.825464 221.054193 
L 166.774408 221.057798 
L 163.723352 221.058132 
L 160.672296 221.058931 
L 157.62124 221.060699 
L 154.570184 221.06279 
L 151.519128 221.065454 
L 148.468072 221.068587 
L 145.417016 221.070803 
L 142.36596 221.071654 
L 139.314904 221.072525 
L 136.263848 221.076328 
L 133.212792 221.075679 
L 130.161736 221.075655 
L 127.11068 221.076953 
L 124.059624 221.077422 
L 121.008567 221.078943 
L 117.957511 221.080507 
L 114.906455 221.081089 
L 111.855399 221.078279 
L 108.804343 221.077044 
L 105.753287 221.079896 
L 102.702231 221.078723 
L 99.651175 221.077551 
L 96.600119 221.077091 
L 93.549063 221.0768 
L 90.498007 221.077056 
L 87.446951 221.077038 
L 84.395895 221.077021 
L 81.344839 221.077061 
L 78.293783 221.075844 
L 75.242727 221.076889 
z
" clip-path="url(#pdcfd3af91f)" style="fill: #de8f05; fill-opacity: 0.15"/>
   </g>
   <g id="matplotlib.axis_1">
    <g id="xtick_1">
     <g id="line2d_1">
      <path d="M 76.76839 237.4 
L 76.76839 32.64 
" clip-path="url(#pdcfd3af91f)" style="fill: none; stroke-dasharray: 2.96,1.28; stroke-dashoffset: 0; stroke: #b0b0b0; stroke-opacity: 0.7; stroke-width: 0.8"/>
     </g>
     <g id="line2d_2">
      <defs>
       <path id="mf2330676ce" d="M 0 0 
L 0 3.5 
" style="stroke: #000000; stroke-width: 0.8"/>
      </defs>
      <g>
       <use xlink:href="#mf2330676ce" x="76.76839" y="237.4" style="stroke: #000000; stroke-width: 0.8"/>
      </g>
     </g>
     <g id="text_1">
      <!-- 0.2 -->
      <g transform="translate(64.841047 255.797656) scale(0.15 -0.15)">
       <defs>
        <path id="DejaVuSans-30" d="M 2034 4250 
Q 1547 4250 1301 3770 
Q 1056 3291 1056 2328 
Q 1056 1369 1301 889 
Q 1547 409 2034 409 
Q 2525 409 2770 889 
Q 3016 1369 3016 2328 
Q 3016 3291 2770 3770 
Q 2525 4250 2034 4250 
z
M 2034 4750 
Q 2819 4750 3233 4129 
Q 3647 3509 3647 2328 
Q 3647 1150 3233 529 
Q 2819 -91 2034 -91 
Q 1250 -91 836 529 
Q 422 1150 422 2328 
Q 422 3509 836 4129 
Q 1250 4750 2034 4750 
z
" transform="scale(0.015625)"/>
        <path id="DejaVuSans-2e" d="M 684 794 
L 1344 794 
L 1344 0 
L 684 0 
L 684 794 
z
" transform="scale(0.015625)"/>
        <path id="DejaVuSans-32" d="M 1228 531 
L 3431 531 
L 3431 0 
L 469 0 
L 469 531 
Q 828 903 1448 1529 
Q 2069 2156 2228 2338 
Q 2531 2678 2651 2914 
Q 2772 3150 2772 3378 
Q 2772 3750 2511 3984 
Q 2250 4219 1831 4219 
Q 1534 4219 1204 4116 
Q 875 4013 500 3803 
L 500 4441 
Q 881 4594 1212 4672 
Q 1544 4750 1819 4750 
Q 2544 4750 2975 4387 
Q 3406 4025 3406 3419 
Q 3406 3131 3298 2873 
Q 3191 2616 2906 2266 
Q 2828 2175 2409 1742 
Q 1991 1309 1228 531 
z
" transform="scale(0.015625)"/>
       </defs>
       <use xlink:href="#DejaVuSans-30"/>
       <use xlink:href="#DejaVuSans-2e" x="63.623047"/>
       <use xlink:href="#DejaVuSans-32" x="95.410156"/>
      </g>
     </g>
    </g>
    <g id="xtick_2">
     <g id="line2d_3">
      <path d="M 119.48696 237.4 
L 119.48696 32.64 
" clip-path="url(#pdcfd3af91f)" style="fill: none; stroke-dasharray: 2.96,1.28; stroke-dashoffset: 0; stroke: #b0b0b0; stroke-opacity: 0.7; stroke-width: 0.8"/>
     </g>
     <g id="line2d_4">
      <g>
       <use xlink:href="#mf2330676ce" x="119.48696" y="237.4" style="stroke: #000000; stroke-width: 0.8"/>
      </g>
     </g>
     <g id="text_2">
      <!-- 0.3 -->
      <g transform="translate(107.559616 255.797656) scale(0.15 -0.15)">
       <defs>
        <path id="DejaVuSans-33" d="M 2597 2516 
Q 3050 2419 3304 2112 
Q 3559 1806 3559 1356 
Q 3559 666 3084 287 
Q 2609 -91 1734 -91 
Q 1441 -91 1130 -33 
Q 819 25 488 141 
L 488 750 
Q 750 597 1062 519 
Q 1375 441 1716 441 
Q 2309 441 2620 675 
Q 2931 909 2931 1356 
Q 2931 1769 2642 2001 
Q 2353 2234 1838 2234 
L 1294 2234 
L 1294 2753 
L 1863 2753 
Q 2328 2753 2575 2939 
Q 2822 3125 2822 3475 
Q 2822 3834 2567 4026 
Q 2313 4219 1838 4219 
Q 1578 4219 1281 4162 
Q 984 4106 628 3988 
L 628 4550 
Q 988 4650 1302 4700 
Q 1616 4750 1894 4750 
Q 2613 4750 3031 4423 
Q 3450 4097 3450 3541 
Q 3450 3153 3228 2886 
Q 3006 2619 2597 2516 
z
" transform="scale(0.015625)"/>
       </defs>
       <use xlink:href="#DejaVuSans-30"/>
       <use xlink:href="#DejaVuSans-2e" x="63.623047"/>
       <use xlink:href="#DejaVuSans-33" x="95.410156"/>
      </g>
     </g>
    </g>
    <g id="xtick_3">
     <g id="line2d_5">
      <path d="M 162.205529 237.4 
L 162.205529 32.64 
" clip-path="url(#pdcfd3af91f)" style="fill: none; stroke-dasharray: 2.96,1.28; stroke-dashoffset: 0; stroke: #b0b0b0; stroke-opacity: 0.7; stroke-width: 0.8"/>
     </g>
     <g id="line2d_6">
      <g>
       <use xlink:href="#mf2330676ce" x="162.205529" y="237.4" style="stroke: #000000; stroke-width: 0.8"/>
      </g>
     </g>
     <g id="text_3">
      <!-- 0.4 -->
      <g transform="translate(150.278185 255.797656) scale(0.15 -0.15)">
       <defs>
        <path id="DejaVuSans-34" d="M 2419 4116 
L 825 1625 
L 2419 1625 
L 2419 4116 
z
M 2253 4666 
L 3047 4666 
L 3047 1625 
L 3713 1625 
L 3713 1100 
L 3047 1100 
L 3047 0 
L 2419 0 
L 2419 1100 
L 313 1100 
L 313 1709 
L 2253 4666 
z
" transform="scale(0.015625)"/>
       </defs>
       <use xlink:href="#DejaVuSans-30"/>
       <use xlink:href="#DejaVuSans-2e" x="63.623047"/>
       <use xlink:href="#DejaVuSans-34" x="95.410156"/>
      </g>
     </g>
    </g>
    <g id="xtick_4">
     <g id="line2d_7">
      <path d="M 204.924098 237.4 
L 204.924098 32.64 
" clip-path="url(#pdcfd3af91f)" style="fill: none; stroke-dasharray: 2.96,1.28; stroke-dashoffset: 0; stroke: #b0b0b0; stroke-opacity: 0.7; stroke-width: 0.8"/>
     </g>
     <g id="line2d_8">
      <g>
       <use xlink:href="#mf2330676ce" x="204.924098" y="237.4" style="stroke: #000000; stroke-width: 0.8"/>
      </g>
     </g>
     <g id="text_4">
      <!-- 0.5 -->
      <g transform="translate(192.996755 255.797656) scale(0.15 -0.15)">
       <defs>
        <path id="DejaVuSans-35" d="M 691 4666 
L 3169 4666 
L 3169 4134 
L 1269 4134 
L 1269 2991 
Q 1406 3038 1543 3061 
Q 1681 3084 1819 3084 
Q 2600 3084 3056 2656 
Q 3513 2228 3513 1497 
Q 3513 744 3044 326 
Q 2575 -91 1722 -91 
Q 1428 -91 1123 -41 
Q 819 9 494 109 
L 494 744 
Q 775 591 1075 516 
Q 1375 441 1709 441 
Q 2250 441 2565 725 
Q 2881 1009 2881 1497 
Q 2881 1984 2565 2268 
Q 2250 2553 1709 2553 
Q 1456 2553 1204 2497 
Q 953 2441 691 2322 
L 691 4666 
z
" transform="scale(0.015625)"/>
       </defs>
       <use xlink:href="#DejaVuSans-30"/>
       <use xlink:href="#DejaVuSans-2e" x="63.623047"/>
       <use xlink:href="#DejaVuSans-35" x="95.410156"/>
      </g>
     </g>
    </g>
    <g id="xtick_5">
     <g id="line2d_9">
      <path d="M 247.642668 237.4 
L 247.642668 32.64 
" clip-path="url(#pdcfd3af91f)" style="fill: none; stroke-dasharray: 2.96,1.28; stroke-dashoffset: 0; stroke: #b0b0b0; stroke-opacity: 0.7; stroke-width: 0.8"/>
     </g>
     <g id="line2d_10">
      <g>
       <use xlink:href="#mf2330676ce" x="247.642668" y="237.4" style="stroke: #000000; stroke-width: 0.8"/>
      </g>
     </g>
     <g id="text_5">
      <!-- 0.6 -->
      <g transform="translate(235.715324 255.797656) scale(0.15 -0.15)">
       <defs>
        <path id="DejaVuSans-36" d="M 2113 2584 
Q 1688 2584 1439 2293 
Q 1191 2003 1191 1497 
Q 1191 994 1439 701 
Q 1688 409 2113 409 
Q 2538 409 2786 701 
Q 3034 994 3034 1497 
Q 3034 2003 2786 2293 
Q 2538 2584 2113 2584 
z
M 3366 4563 
L 3366 3988 
Q 3128 4100 2886 4159 
Q 2644 4219 2406 4219 
Q 1781 4219 1451 3797 
Q 1122 3375 1075 2522 
Q 1259 2794 1537 2939 
Q 1816 3084 2150 3084 
Q 2853 3084 3261 2657 
Q 3669 2231 3669 1497 
Q 3669 778 3244 343 
Q 2819 -91 2113 -91 
Q 1303 -91 875 529 
Q 447 1150 447 2328 
Q 447 3434 972 4092 
Q 1497 4750 2381 4750 
Q 2619 4750 2861 4703 
Q 3103 4656 3366 4563 
z
" transform="scale(0.015625)"/>
       </defs>
       <use xlink:href="#DejaVuSans-30"/>
       <use xlink:href="#DejaVuSans-2e" x="63.623047"/>
       <use xlink:href="#DejaVuSans-36" x="95.410156"/>
      </g>
     </g>
    </g>
    <g id="xtick_6">
     <g id="line2d_11">
      <path d="M 290.361237 237.4 
L 290.361237 32.64 
" clip-path="url(#pdcfd3af91f)" style="fill: none; stroke-dasharray: 2.96,1.28; stroke-dashoffset: 0; stroke: #b0b0b0; stroke-opacity: 0.7; stroke-width: 0.8"/>
     </g>
     <g id="line2d_12">
      <g>
       <use xlink:href="#mf2330676ce" x="290.361237" y="237.4" style="stroke: #000000; stroke-width: 0.8"/>
      </g>
     </g>
     <g id="text_6">
      <!-- 0.7 -->
      <g transform="translate(278.433893 255.797656) scale(0.15 -0.15)">
       <defs>
        <path id="DejaVuSans-37" d="M 525 4666 
L 3525 4666 
L 3525 4397 
L 1831 0 
L 1172 0 
L 2766 4134 
L 525 4134 
L 525 4666 
z
" transform="scale(0.015625)"/>
       </defs>
       <use xlink:href="#DejaVuSans-30"/>
       <use xlink:href="#DejaVuSans-2e" x="63.623047"/>
       <use xlink:href="#DejaVuSans-37" x="95.410156"/>
      </g>
     </g>
    </g>
    <g id="xtick_7">
     <g id="line2d_13">
      <path d="M 333.079806 237.4 
L 333.079806 32.64 
" clip-path="url(#pdcfd3af91f)" style="fill: none; stroke-dasharray: 2.96,1.28; stroke-dashoffset: 0; stroke: #b0b0b0; stroke-opacity: 0.7; stroke-width: 0.8"/>
     </g>
     <g id="line2d_14">
      <g>
       <use xlink:href="#mf2330676ce" x="333.079806" y="237.4" style="stroke: #000000; stroke-width: 0.8"/>
      </g>
     </g>
     <g id="text_7">
      <!-- 0.8 -->
      <g transform="translate(321.152463 255.797656) scale(0.15 -0.15)">
       <defs>
        <path id="DejaVuSans-38" d="M 2034 2216 
Q 1584 2216 1326 1975 
Q 1069 1734 1069 1313 
Q 1069 891 1326 650 
Q 1584 409 2034 409 
Q 2484 409 2743 651 
Q 3003 894 3003 1313 
Q 3003 1734 2745 1975 
Q 2488 2216 2034 2216 
z
M 1403 2484 
Q 997 2584 770 2862 
Q 544 3141 544 3541 
Q 544 4100 942 4425 
Q 1341 4750 2034 4750 
Q 2731 4750 3128 4425 
Q 3525 4100 3525 3541 
Q 3525 3141 3298 2862 
Q 3072 2584 2669 2484 
Q 3125 2378 3379 2068 
Q 3634 1759 3634 1313 
Q 3634 634 3220 271 
Q 2806 -91 2034 -91 
Q 1263 -91 848 271 
Q 434 634 434 1313 
Q 434 1759 690 2068 
Q 947 2378 1403 2484 
z
M 1172 3481 
Q 1172 3119 1398 2916 
Q 1625 2713 2034 2713 
Q 2441 2713 2670 2916 
Q 2900 3119 2900 3481 
Q 2900 3844 2670 4047 
Q 2441 4250 2034 4250 
Q 1625 4250 1398 4047 
Q 1172 3844 1172 3481 
z
" transform="scale(0.015625)"/>
       </defs>
       <use xlink:href="#DejaVuSans-30"/>
       <use xlink:href="#DejaVuSans-2e" x="63.623047"/>
       <use xlink:href="#DejaVuSans-38" x="95.410156"/>
      </g>
     </g>
    </g>
    <g id="xtick_8">
     <g id="line2d_15">
      <path d="M 375.798376 237.4 
L 375.798376 32.64 
" clip-path="url(#pdcfd3af91f)" style="fill: none; stroke-dasharray: 2.96,1.28; stroke-dashoffset: 0; stroke: #b0b0b0; stroke-opacity: 0.7; stroke-width: 0.8"/>
     </g>
     <g id="line2d_16">
      <g>
       <use xlink:href="#mf2330676ce" x="375.798376" y="237.4" style="stroke: #000000; stroke-width: 0.8"/>
      </g>
     </g>
     <g id="text_8">
      <!-- 0.9 -->
      <g transform="translate(363.871032 255.797656) scale(0.15 -0.15)">
       <defs>
        <path id="DejaVuSans-39" d="M 703 97 
L 703 672 
Q 941 559 1184 500 
Q 1428 441 1663 441 
Q 2288 441 2617 861 
Q 2947 1281 2994 2138 
Q 2813 1869 2534 1725 
Q 2256 1581 1919 1581 
Q 1219 1581 811 2004 
Q 403 2428 403 3163 
Q 403 3881 828 4315 
Q 1253 4750 1959 4750 
Q 2769 4750 3195 4129 
Q 3622 3509 3622 2328 
Q 3622 1225 3098 567 
Q 2575 -91 1691 -91 
Q 1453 -91 1209 -44 
Q 966 3 703 97 
z
M 1959 2075 
Q 2384 2075 2632 2365 
Q 2881 2656 2881 3163 
Q 2881 3666 2632 3958 
Q 2384 4250 1959 4250 
Q 1534 4250 1286 3958 
Q 1038 3666 1038 3163 
Q 1038 2656 1286 2365 
Q 1534 2075 1959 2075 
z
" transform="scale(0.015625)"/>
       </defs>
       <use xlink:href="#DejaVuSans-30"/>
       <use xlink:href="#DejaVuSans-2e" x="63.623047"/>
       <use xlink:href="#DejaVuSans-39" x="95.410156"/>
      </g>
     </g>
    </g>
    <g id="text_9">
     <!-- Tanimoto similarity to closest compound -->
     <g transform="translate(74.598906 274.314844) scale(0.15 -0.15)">
      <defs>
       <path id="DejaVuSans-54" d="M -19 4666 
L 3928 4666 
L 3928 4134 
L 2272 4134 
L 2272 0 
L 1638 0 
L 1638 4134 
L -19 4134 
L -19 4666 
z
" transform="scale(0.015625)"/>
       <path id="DejaVuSans-61" d="M 2194 1759 
Q 1497 1759 1228 1600 
Q 959 1441 959 1056 
Q 959 750 1161 570 
Q 1363 391 1709 391 
Q 2188 391 2477 730 
Q 2766 1069 2766 1631 
L 2766 1759 
L 2194 1759 
z
M 3341 1997 
L 3341 0 
L 2766 0 
L 2766 531 
Q 2569 213 2275 61 
Q 1981 -91 1556 -91 
Q 1019 -91 701 211 
Q 384 513 384 1019 
Q 384 1609 779 1909 
Q 1175 2209 1959 2209 
L 2766 2209 
L 2766 2266 
Q 2766 2663 2505 2880 
Q 2244 3097 1772 3097 
Q 1472 3097 1187 3025 
Q 903 2953 641 2809 
L 641 3341 
Q 956 3463 1253 3523 
Q 1550 3584 1831 3584 
Q 2591 3584 2966 3190 
Q 3341 2797 3341 1997 
z
" transform="scale(0.015625)"/>
       <path id="DejaVuSans-6e" d="M 3513 2113 
L 3513 0 
L 2938 0 
L 2938 2094 
Q 2938 2591 2744 2837 
Q 2550 3084 2163 3084 
Q 1697 3084 1428 2787 
Q 1159 2491 1159 1978 
L 1159 0 
L 581 0 
L 581 3500 
L 1159 3500 
L 1159 2956 
Q 1366 3272 1645 3428 
Q 1925 3584 2291 3584 
Q 2894 3584 3203 3211 
Q 3513 2838 3513 2113 
z
" transform="scale(0.015625)"/>
       <path id="DejaVuSans-69" d="M 603 3500 
L 1178 3500 
L 1178 0 
L 603 0 
L 603 3500 
z
M 603 4863 
L 1178 4863 
L 1178 4134 
L 603 4134 
L 603 4863 
z
" transform="scale(0.015625)"/>
       <path id="DejaVuSans-6d" d="M 3328 2828 
Q 3544 3216 3844 3400 
Q 4144 3584 4550 3584 
Q 5097 3584 5394 3201 
Q 5691 2819 5691 2113 
L 5691 0 
L 5113 0 
L 5113 2094 
Q 5113 2597 4934 2840 
Q 4756 3084 4391 3084 
Q 3944 3084 3684 2787 
Q 3425 2491 3425 1978 
L 3425 0 
L 2847 0 
L 2847 2094 
Q 2847 2600 2669 2842 
Q 2491 3084 2119 3084 
Q 1678 3084 1418 2786 
Q 1159 2488 1159 1978 
L 1159 0 
L 581 0 
L 581 3500 
L 1159 3500 
L 1159 2956 
Q 1356 3278 1631 3431 
Q 1906 3584 2284 3584 
Q 2666 3584 2933 3390 
Q 3200 3197 3328 2828 
z
" transform="scale(0.015625)"/>
       <path id="DejaVuSans-6f" d="M 1959 3097 
Q 1497 3097 1228 2736 
Q 959 2375 959 1747 
Q 959 1119 1226 758 
Q 1494 397 1959 397 
Q 2419 397 2687 759 
Q 2956 1122 2956 1747 
Q 2956 2369 2687 2733 
Q 2419 3097 1959 3097 
z
M 1959 3584 
Q 2709 3584 3137 3096 
Q 3566 2609 3566 1747 
Q 3566 888 3137 398 
Q 2709 -91 1959 -91 
Q 1206 -91 779 398 
Q 353 888 353 1747 
Q 353 2609 779 3096 
Q 1206 3584 1959 3584 
z
" transform="scale(0.015625)"/>
       <path id="DejaVuSans-74" d="M 1172 4494 
L 1172 3500 
L 2356 3500 
L 2356 3053 
L 1172 3053 
L 1172 1153 
Q 1172 725 1289 603 
Q 1406 481 1766 481 
L 2356 481 
L 2356 0 
L 1766 0 
Q 1100 0 847 248 
Q 594 497 594 1153 
L 594 3053 
L 172 3053 
L 172 3500 
L 594 3500 
L 594 4494 
L 1172 4494 
z
" transform="scale(0.015625)"/>
       <path id="DejaVuSans-20" transform="scale(0.015625)"/>
       <path id="DejaVuSans-73" d="M 2834 3397 
L 2834 2853 
Q 2591 2978 2328 3040 
Q 2066 3103 1784 3103 
Q 1356 3103 1142 2972 
Q 928 2841 928 2578 
Q 928 2378 1081 2264 
Q 1234 2150 1697 2047 
L 1894 2003 
Q 2506 1872 2764 1633 
Q 3022 1394 3022 966 
Q 3022 478 2636 193 
Q 2250 -91 1575 -91 
Q 1294 -91 989 -36 
Q 684 19 347 128 
L 347 722 
Q 666 556 975 473 
Q 1284 391 1588 391 
Q 1994 391 2212 530 
Q 2431 669 2431 922 
Q 2431 1156 2273 1281 
Q 2116 1406 1581 1522 
L 1381 1569 
Q 847 1681 609 1914 
Q 372 2147 372 2553 
Q 372 3047 722 3315 
Q 1072 3584 1716 3584 
Q 2034 3584 2315 3537 
Q 2597 3491 2834 3397 
z
" transform="scale(0.015625)"/>
       <path id="DejaVuSans-6c" d="M 603 4863 
L 1178 4863 
L 1178 0 
L 603 0 
L 603 4863 
z
" transform="scale(0.015625)"/>
       <path id="DejaVuSans-72" d="M 2631 2963 
Q 2534 3019 2420 3045 
Q 2306 3072 2169 3072 
Q 1681 3072 1420 2755 
Q 1159 2438 1159 1844 
L 1159 0 
L 581 0 
L 581 3500 
L 1159 3500 
L 1159 2956 
Q 1341 3275 1631 3429 
Q 1922 3584 2338 3584 
Q 2397 3584 2469 3576 
Q 2541 3569 2628 3553 
L 2631 2963 
z
" transform="scale(0.015625)"/>
       <path id="DejaVuSans-79" d="M 2059 -325 
Q 1816 -950 1584 -1140 
Q 1353 -1331 966 -1331 
L 506 -1331 
L 506 -850 
L 844 -850 
Q 1081 -850 1212 -737 
Q 1344 -625 1503 -206 
L 1606 56 
L 191 3500 
L 800 3500 
L 1894 763 
L 2988 3500 
L 3597 3500 
L 2059 -325 
z
" transform="scale(0.015625)"/>
       <path id="DejaVuSans-63" d="M 3122 3366 
L 3122 2828 
Q 2878 2963 2633 3030 
Q 2388 3097 2138 3097 
Q 1578 3097 1268 2742 
Q 959 2388 959 1747 
Q 959 1106 1268 751 
Q 1578 397 2138 397 
Q 2388 397 2633 464 
Q 2878 531 3122 666 
L 3122 134 
Q 2881 22 2623 -34 
Q 2366 -91 2075 -91 
Q 1284 -91 818 406 
Q 353 903 353 1747 
Q 353 2603 823 3093 
Q 1294 3584 2113 3584 
Q 2378 3584 2631 3529 
Q 2884 3475 3122 3366 
z
" transform="scale(0.015625)"/>
       <path id="DejaVuSans-65" d="M 3597 1894 
L 3597 1613 
L 953 1613 
Q 991 1019 1311 708 
Q 1631 397 2203 397 
Q 2534 397 2845 478 
Q 3156 559 3463 722 
L 3463 178 
Q 3153 47 2828 -22 
Q 2503 -91 2169 -91 
Q 1331 -91 842 396 
Q 353 884 353 1716 
Q 353 2575 817 3079 
Q 1281 3584 2069 3584 
Q 2775 3584 3186 3129 
Q 3597 2675 3597 1894 
z
M 3022 2063 
Q 3016 2534 2758 2815 
Q 2500 3097 2075 3097 
Q 1594 3097 1305 2825 
Q 1016 2553 972 2059 
L 3022 2063 
z
" transform="scale(0.015625)"/>
       <path id="DejaVuSans-70" d="M 1159 525 
L 1159 -1331 
L 581 -1331 
L 581 3500 
L 1159 3500 
L 1159 2969 
Q 1341 3281 1617 3432 
Q 1894 3584 2278 3584 
Q 2916 3584 3314 3078 
Q 3713 2572 3713 1747 
Q 3713 922 3314 415 
Q 2916 -91 2278 -91 
Q 1894 -91 1617 61 
Q 1341 213 1159 525 
z
M 3116 1747 
Q 3116 2381 2855 2742 
Q 2594 3103 2138 3103 
Q 1681 3103 1420 2742 
Q 1159 2381 1159 1747 
Q 1159 1113 1420 752 
Q 1681 391 2138 391 
Q 2594 391 2855 752 
Q 3116 1113 3116 1747 
z
" transform="scale(0.015625)"/>
       <path id="DejaVuSans-75" d="M 544 1381 
L 544 3500 
L 1119 3500 
L 1119 1403 
Q 1119 906 1312 657 
Q 1506 409 1894 409 
Q 2359 409 2629 706 
Q 2900 1003 2900 1516 
L 2900 3500 
L 3475 3500 
L 3475 0 
L 2900 0 
L 2900 538 
Q 2691 219 2414 64 
Q 2138 -91 1772 -91 
Q 1169 -91 856 284 
Q 544 659 544 1381 
z
M 1991 3584 
L 1991 3584 
z
" transform="scale(0.015625)"/>
       <path id="DejaVuSans-64" d="M 2906 2969 
L 2906 4863 
L 3481 4863 
L 3481 0 
L 2906 0 
L 2906 525 
Q 2725 213 2448 61 
Q 2172 -91 1784 -91 
Q 1150 -91 751 415 
Q 353 922 353 1747 
Q 353 2572 751 3078 
Q 1150 3584 1784 3584 
Q 2172 3584 2448 3432 
Q 2725 3281 2906 2969 
z
M 947 1747 
Q 947 1113 1208 752 
Q 1469 391 1925 391 
Q 2381 391 2643 752 
Q 2906 1113 2906 1747 
Q 2906 2381 2643 2742 
Q 2381 3103 1925 3103 
Q 1469 3103 1208 2742 
Q 947 2381 947 1747 
z
" transform="scale(0.015625)"/>
      </defs>
      <use xlink:href="#DejaVuSans-54"/>
      <use xlink:href="#DejaVuSans-61" x="44.583984"/>
      <use xlink:href="#DejaVuSans-6e" x="105.863281"/>
      <use xlink:href="#DejaVuSans-69" x="169.242188"/>
      <use xlink:href="#DejaVuSans-6d" x="197.025391"/>
      <use xlink:href="#DejaVuSans-6f" x="294.4375"/>
      <use xlink:href="#DejaVuSans-74" x="355.619141"/>
      <use xlink:href="#DejaVuSans-6f" x="394.828125"/>
      <use xlink:href="#DejaVuSans-20" x="456.009766"/>
      <use xlink:href="#DejaVuSans-73" x="487.796875"/>
      <use xlink:href="#DejaVuSans-69" x="539.896484"/>
      <use xlink:href="#DejaVuSans-6d" x="567.679688"/>
      <use xlink:href="#DejaVuSans-69" x="665.091797"/>
      <use xlink:href="#DejaVuSans-6c" x="692.875"/>
      <use xlink:href="#DejaVuSans-61" x="720.658203"/>
      <use xlink:href="#DejaVuSans-72" x="781.9375"/>
      <use xlink:href="#DejaVuSans-69" x="823.050781"/>
      <use xlink:href="#DejaVuSans-74" x="850.833984"/>
      <use xlink:href="#DejaVuSans-79" x="890.042969"/>
      <use xlink:href="#DejaVuSans-20" x="949.222656"/>
      <use xlink:href="#DejaVuSans-74" x="981.009766"/>
      <use xlink:href="#DejaVuSans-6f" x="1020.21875"/>
      <use xlink:href="#DejaVuSans-20" x="1081.400391"/>
      <use xlink:href="#DejaVuSans-63" x="1113.1875"/>
      <use xlink:href="#DejaVuSans-6c" x="1168.167969"/>
      <use xlink:href="#DejaVuSans-6f" x="1195.951172"/>
      <use xlink:href="#DejaVuSans-73" x="1257.132812"/>
      <use xlink:href="#DejaVuSans-65" x="1309.232422"/>
      <use xlink:href="#DejaVuSans-73" x="1370.755859"/>
      <use xlink:href="#DejaVuSans-74" x="1422.855469"/>
      <use xlink:href="#DejaVuSans-20" x="1462.064453"/>
      <use xlink:href="#DejaVuSans-63" x="1493.851562"/>
      <use xlink:href="#DejaVuSans-6f" x="1548.832031"/>
      <use xlink:href="#DejaVuSans-6d" x="1610.013672"/>
      <use xlink:href="#DejaVuSans-70" x="1707.425781"/>
      <use xlink:href="#DejaVuSans-6f" x="1770.902344"/>
      <use xlink:href="#DejaVuSans-75" x="1832.083984"/>
      <use xlink:href="#DejaVuSans-6e" x="1895.462891"/>
      <use xlink:href="#DejaVuSans-64" x="1958.841797"/>
     </g>
    </g>
   </g>
   <g id="matplotlib.axis_2">
    <g id="ytick_1">
     <g id="line2d_17">
      <path d="M 60.14 221.582077 
L 392.4 221.582077 
" clip-path="url(#pdcfd3af91f)" style="fill: none; stroke-dasharray: 2.96,1.28; stroke-dashoffset: 0; stroke: #b0b0b0; stroke-opacity: 0.7; stroke-width: 0.8"/>
     </g>
     <g id="line2d_18">
      <defs>
       <path id="md9b076a44e" d="M 0 0 
L -3.5 0 
" style="stroke: #000000; stroke-width: 0.8"/>
      </defs>
      <g>
       <use xlink:href="#md9b076a44e" x="60.14" y="221.582077" style="stroke: #000000; stroke-width: 0.8"/>
      </g>
     </g>
     <g id="text_10">
      <!-- 0.0 -->
      <g transform="translate(29.285313 227.280905) scale(0.15 -0.15)">
       <use xlink:href="#DejaVuSans-30"/>
       <use xlink:href="#DejaVuSans-2e" x="63.623047"/>
       <use xlink:href="#DejaVuSans-30" x="95.410156"/>
      </g>
     </g>
    </g>
    <g id="ytick_2">
     <g id="line2d_19">
      <path d="M 60.14 186.922477 
L 392.4 186.922477 
" clip-path="url(#pdcfd3af91f)" style="fill: none; stroke-dasharray: 2.96,1.28; stroke-dashoffset: 0; stroke: #b0b0b0; stroke-opacity: 0.7; stroke-width: 0.8"/>
     </g>
     <g id="line2d_20">
      <g>
       <use xlink:href="#md9b076a44e" x="60.14" y="186.922477" style="stroke: #000000; stroke-width: 0.8"/>
      </g>
     </g>
     <g id="text_11">
      <!-- 0.2 -->
      <g transform="translate(29.285313 192.621305) scale(0.15 -0.15)">
       <use xlink:href="#DejaVuSans-30"/>
       <use xlink:href="#DejaVuSans-2e" x="63.623047"/>
       <use xlink:href="#DejaVuSans-32" x="95.410156"/>
      </g>
     </g>
    </g>
    <g id="ytick_3">
     <g id="line2d_21">
      <path d="M 60.14 152.262877 
L 392.4 152.262877 
" clip-path="url(#pdcfd3af91f)" style="fill: none; stroke-dasharray: 2.96,1.28; stroke-dashoffset: 0; stroke: #b0b0b0; stroke-opacity: 0.7; stroke-width: 0.8"/>
     </g>
     <g id="line2d_22">
      <g>
       <use xlink:href="#md9b076a44e" x="60.14" y="152.262877" style="stroke: #000000; stroke-width: 0.8"/>
      </g>
     </g>
     <g id="text_12">
      <!-- 0.4 -->
      <g transform="translate(29.285313 157.961705) scale(0.15 -0.15)">
       <use xlink:href="#DejaVuSans-30"/>
       <use xlink:href="#DejaVuSans-2e" x="63.623047"/>
       <use xlink:href="#DejaVuSans-34" x="95.410156"/>
      </g>
     </g>
    </g>
    <g id="ytick_4">
     <g id="line2d_23">
      <path d="M 60.14 117.603277 
L 392.4 117.603277 
" clip-path="url(#pdcfd3af91f)" style="fill: none; stroke-dasharray: 2.96,1.28; stroke-dashoffset: 0; stroke: #b0b0b0; stroke-opacity: 0.7; stroke-width: 0.8"/>
     </g>
     <g id="line2d_24">
      <g>
       <use xlink:href="#md9b076a44e" x="60.14" y="117.603277" style="stroke: #000000; stroke-width: 0.8"/>
      </g>
     </g>
     <g id="text_13">
      <!-- 0.6 -->
      <g transform="translate(29.285313 123.302105) scale(0.15 -0.15)">
       <use xlink:href="#DejaVuSans-30"/>
       <use xlink:href="#DejaVuSans-2e" x="63.623047"/>
       <use xlink:href="#DejaVuSans-36" x="95.410156"/>
      </g>
     </g>
    </g>
    <g id="ytick_5">
     <g id="line2d_25">
      <path d="M 60.14 82.943676 
L 392.4 82.943676 
" clip-path="url(#pdcfd3af91f)" style="fill: none; stroke-dasharray: 2.96,1.28; stroke-dashoffset: 0; stroke: #b0b0b0; stroke-opacity: 0.7; stroke-width: 0.8"/>
     </g>
     <g id="line2d_26">
      <g>
       <use xlink:href="#md9b076a44e" x="60.14" y="82.943676" style="stroke: #000000; stroke-width: 0.8"/>
      </g>
     </g>
     <g id="text_14">
      <!-- 0.8 -->
      <g transform="translate(29.285313 88.642505) scale(0.15 -0.15)">
       <use xlink:href="#DejaVuSans-30"/>
       <use xlink:href="#DejaVuSans-2e" x="63.623047"/>
       <use xlink:href="#DejaVuSans-38" x="95.410156"/>
      </g>
     </g>
    </g>
    <g id="ytick_6">
     <g id="line2d_27">
      <path d="M 60.14 48.284076 
L 392.4 48.284076 
" clip-path="url(#pdcfd3af91f)" style="fill: none; stroke-dasharray: 2.96,1.28; stroke-dashoffset: 0; stroke: #b0b0b0; stroke-opacity: 0.7; stroke-width: 0.8"/>
     </g>
     <g id="line2d_28">
      <g>
       <use xlink:href="#md9b076a44e" x="60.14" y="48.284076" style="stroke: #000000; stroke-width: 0.8"/>
      </g>
     </g>
     <g id="text_15">
      <!-- 1.0 -->
      <g transform="translate(29.285313 53.982904) scale(0.15 -0.15)">
       <defs>
        <path id="DejaVuSans-31" d="M 794 531 
L 1825 531 
L 1825 4091 
L 703 3866 
L 703 4441 
L 1819 4666 
L 2450 4666 
L 2450 531 
L 3481 531 
L 3481 0 
L 794 0 
L 794 531 
z
" transform="scale(0.015625)"/>
       </defs>
       <use xlink:href="#DejaVuSans-31"/>
       <use xlink:href="#DejaVuSans-2e" x="63.623047"/>
       <use xlink:href="#DejaVuSans-30" x="95.410156"/>
      </g>
     </g>
    </g>
    <g id="text_16">
     <!-- score (higher better) -->
     <g transform="translate(22.165781 212.792656) rotate(-90) scale(0.15 -0.15)">
      <defs>
       <path id="DejaVuSans-28" d="M 1984 4856 
Q 1566 4138 1362 3434 
Q 1159 2731 1159 2009 
Q 1159 1288 1364 580 
Q 1569 -128 1984 -844 
L 1484 -844 
Q 1016 -109 783 600 
Q 550 1309 550 2009 
Q 550 2706 781 3412 
Q 1013 4119 1484 4856 
L 1984 4856 
z
" transform="scale(0.015625)"/>
       <path id="DejaVuSans-68" d="M 3513 2113 
L 3513 0 
L 2938 0 
L 2938 2094 
Q 2938 2591 2744 2837 
Q 2550 3084 2163 3084 
Q 1697 3084 1428 2787 
Q 1159 2491 1159 1978 
L 1159 0 
L 581 0 
L 581 4863 
L 1159 4863 
L 1159 2956 
Q 1366 3272 1645 3428 
Q 1925 3584 2291 3584 
Q 2894 3584 3203 3211 
Q 3513 2838 3513 2113 
z
" transform="scale(0.015625)"/>
       <path id="DejaVuSans-67" d="M 2906 1791 
Q 2906 2416 2648 2759 
Q 2391 3103 1925 3103 
Q 1463 3103 1205 2759 
Q 947 2416 947 1791 
Q 947 1169 1205 825 
Q 1463 481 1925 481 
Q 2391 481 2648 825 
Q 2906 1169 2906 1791 
z
M 3481 434 
Q 3481 -459 3084 -895 
Q 2688 -1331 1869 -1331 
Q 1566 -1331 1297 -1286 
Q 1028 -1241 775 -1147 
L 775 -588 
Q 1028 -725 1275 -790 
Q 1522 -856 1778 -856 
Q 2344 -856 2625 -561 
Q 2906 -266 2906 331 
L 2906 616 
Q 2728 306 2450 153 
Q 2172 0 1784 0 
Q 1141 0 747 490 
Q 353 981 353 1791 
Q 353 2603 747 3093 
Q 1141 3584 1784 3584 
Q 2172 3584 2450 3431 
Q 2728 3278 2906 2969 
L 2906 3500 
L 3481 3500 
L 3481 434 
z
" transform="scale(0.015625)"/>
       <path id="DejaVuSans-62" d="M 3116 1747 
Q 3116 2381 2855 2742 
Q 2594 3103 2138 3103 
Q 1681 3103 1420 2742 
Q 1159 2381 1159 1747 
Q 1159 1113 1420 752 
Q 1681 391 2138 391 
Q 2594 391 2855 752 
Q 3116 1113 3116 1747 
z
M 1159 2969 
Q 1341 3281 1617 3432 
Q 1894 3584 2278 3584 
Q 2916 3584 3314 3078 
Q 3713 2572 3713 1747 
Q 3713 922 3314 415 
Q 2916 -91 2278 -91 
Q 1894 -91 1617 61 
Q 1341 213 1159 525 
L 1159 0 
L 581 0 
L 581 4863 
L 1159 4863 
L 1159 2969 
z
" transform="scale(0.015625)"/>
       <path id="DejaVuSans-29" d="M 513 4856 
L 1013 4856 
Q 1481 4119 1714 3412 
Q 1947 2706 1947 2009 
Q 1947 1309 1714 600 
Q 1481 -109 1013 -844 
L 513 -844 
Q 928 -128 1133 580 
Q 1338 1288 1338 2009 
Q 1338 2731 1133 3434 
Q 928 4138 513 4856 
z
" transform="scale(0.015625)"/>
      </defs>
      <use xlink:href="#DejaVuSans-73"/>
      <use xlink:href="#DejaVuSans-63" x="52.099609"/>
      <use xlink:href="#DejaVuSans-6f" x="107.080078"/>
      <use xlink:href="#DejaVuSans-72" x="168.261719"/>
      <use xlink:href="#DejaVuSans-65" x="207.125"/>
      <use xlink:href="#DejaVuSans-20" x="268.648438"/>
      <use xlink:href="#DejaVuSans-28" x="300.435547"/>
      <use xlink:href="#DejaVuSans-68" x="339.449219"/>
      <use xlink:href="#DejaVuSans-69" x="402.828125"/>
      <use xlink:href="#DejaVuSans-67" x="430.611328"/>
      <use xlink:href="#DejaVuSans-68" x="494.087891"/>
      <use xlink:href="#DejaVuSans-65" x="557.466797"/>
      <use xlink:href="#DejaVuSans-72" x="618.990234"/>
      <use xlink:href="#DejaVuSans-20" x="660.103516"/>
      <use xlink:href="#DejaVuSans-62" x="691.890625"/>
      <use xlink:href="#DejaVuSans-65" x="755.367188"/>
      <use xlink:href="#DejaVuSans-74" x="816.890625"/>
      <use xlink:href="#DejaVuSans-74" x="856.099609"/>
      <use xlink:href="#DejaVuSans-65" x="895.308594"/>
      <use xlink:href="#DejaVuSans-72" x="956.832031"/>
      <use xlink:href="#DejaVuSans-29" x="997.945312"/>
     </g>
    </g>
   </g>
   <g id="line2d_29">
    <path d="M 75.242727 220.594995 
L 78.293783 219.197088 
L 81.344839 217.799181 
L 84.395895 216.401274 
L 87.446951 215.003367 
L 90.498007 213.60546 
L 93.549063 212.207553 
L 96.600119 210.809646 
L 99.651175 209.411739 
L 102.702231 208.013832 
L 105.753287 206.615925 
L 108.804343 205.218018 
L 111.855399 203.820111 
L 114.906455 202.422204 
L 117.957511 201.024297 
L 121.008567 199.626389 
L 124.059624 198.228482 
L 127.11068 196.830575 
L 130.161736 195.432668 
L 133.212792 194.034761 
L 136.263848 192.636854 
L 139.314904 191.238947 
L 142.36596 189.84104 
L 145.417016 188.443133 
L 148.468072 187.045226 
L 151.519128 185.647319 
L 154.570184 184.249412 
L 157.62124 182.851505 
L 160.672296 181.453598 
L 163.723352 180.055691 
L 166.774408 178.657784 
L 169.825464 177.259877 
L 172.87652 175.86197 
L 175.927576 174.464063 
L 178.978632 173.066156 
L 182.029688 171.668249 
L 185.080744 170.270342 
L 188.1318 168.872435 
L 191.182856 167.474528 
L 194.233912 166.076621 
L 197.284968 164.678714 
L 200.336024 163.280807 
L 203.38708 161.8829 
L 206.438136 160.484993 
L 209.489192 159.087086 
L 212.540248 157.689179 
L 215.591304 156.291272 
L 218.64236 154.893365 
L 221.693416 153.495458 
L 224.744472 152.097551 
L 227.795528 150.699644 
L 230.846584 149.301737 
L 233.89764 147.90383 
L 236.948696 146.505922 
L 239.999752 145.108015 
L 243.050808 143.710108 
L 246.101864 142.312201 
L 249.15292 140.914294 
L 252.203976 139.516387 
L 255.255032 138.11848 
L 258.306088 136.720573 
L 261.357144 135.322666 
L 264.4082 133.924759 
L 267.459256 132.526852 
L 270.510312 131.128945 
L 273.561368 129.731038 
L 276.612424 128.333131 
L 279.66348 126.935224 
L 282.714536 125.537317 
L 285.765592 124.13941 
L 288.816648 122.741503 
L 291.867704 121.343596 
L 294.91876 119.945689 
L 297.969816 118.547782 
L 301.020872 117.149875 
L 304.071928 115.751968 
L 307.122984 114.354061 
L 310.17404 112.956154 
L 313.225096 111.558247 
L 316.276152 110.16034 
L 319.327208 108.762433 
L 322.378264 107.364526 
L 325.42932 105.966619 
L 328.480376 104.568712 
L 331.531433 103.170805 
L 334.582489 101.772898 
L 337.633545 100.374991 
L 340.684601 98.977084 
L 343.735657 97.579177 
L 346.786713 96.18127 
L 349.837769 94.783363 
L 352.888825 93.385455 
L 355.939881 91.987548 
L 358.990937 90.589641 
L 362.041993 89.191734 
L 365.093049 87.793827 
L 368.144105 86.39592 
L 371.195161 84.998013 
L 374.246217 83.600106 
L 377.297273 82.202199 
" clip-path="url(#pdcfd3af91f)" style="fill: none; stroke: #0173b2; stroke-width: 2.25; stroke-linecap: square"/>
   </g>
   <g id="line2d_30">
    <path d="M 75.242727 221.312842 
L 78.293783 221.310611 
L 81.344839 221.30838 
L 84.395895 221.306149 
L 87.446951 221.303918 
L 90.498007 221.301687 
L 93.549063 221.299456 
L 96.600119 221.297225 
L 99.651175 221.294994 
L 102.702231 221.292764 
L 105.753287 221.290533 
L 108.804343 221.288302 
L 111.855399 221.286071 
L 114.906455 221.28384 
L 117.957511 221.281609 
L 121.008567 221.279378 
L 124.059624 221.277147 
L 127.11068 221.274916 
L 130.161736 221.272685 
L 133.212792 221.270454 
L 136.263848 221.268223 
L 139.314904 221.265993 
L 142.36596 221.263762 
L 145.417016 221.261531 
L 148.468072 221.2593 
L 151.519128 221.257069 
L 154.570184 221.254838 
L 157.62124 221.252607 
L 160.672296 221.250376 
L 163.723352 221.248145 
L 166.774408 221.245914 
L 169.825464 221.243683 
L 172.87652 221.241452 
L 175.927576 221.239222 
L 178.978632 221.236991 
L 182.029688 221.23476 
L 185.080744 221.232529 
L 188.1318 221.230298 
L 191.182856 221.228067 
L 194.233912 221.225836 
L 197.284968 221.223605 
L 200.336024 221.221374 
L 203.38708 221.219143 
L 206.438136 221.216912 
L 209.489192 221.214681 
L 212.540248 221.212451 
L 215.591304 221.21022 
L 218.64236 221.207989 
L 221.693416 221.205758 
L 224.744472 221.203527 
L 227.795528 221.201296 
L 230.846584 221.199065 
L 233.89764 221.196834 
L 236.948696 221.194603 
L 239.999752 221.192372 
L 243.050808 221.190141 
L 246.101864 221.187911 
L 249.15292 221.18568 
L 252.203976 221.183449 
L 255.255032 221.181218 
L 258.306088 221.178987 
L 261.357144 221.176756 
L 264.4082 221.174525 
L 267.459256 221.172294 
L 270.510312 221.170063 
L 273.561368 221.167832 
L 276.612424 221.165601 
L 279.66348 221.16337 
L 282.714536 221.16114 
L 285.765592 221.158909 
L 288.816648 221.156678 
L 291.867704 221.154447 
L 294.91876 221.152216 
L 297.969816 221.149985 
L 301.020872 221.147754 
L 304.071928 221.145523 
L 307.122984 221.143292 
L 310.17404 221.141061 
L 313.225096 221.13883 
L 316.276152 221.136599 
L 319.327208 221.134369 
L 322.378264 221.132138 
L 325.42932 221.129907 
L 328.480376 221.127676 
L 331.531433 221.125445 
L 334.582489 221.123214 
L 337.633545 221.120983 
L 340.684601 221.118752 
L 343.735657 221.116521 
L 346.786713 221.11429 
L 349.837769 221.112059 
L 352.888825 221.109828 
L 355.939881 221.107598 
L 358.990937 221.105367 
L 362.041993 221.103136 
L 365.093049 221.100905 
L 368.144105 221.098674 
L 371.195161 221.096443 
L 374.246217 221.094212 
L 377.297273 221.091981 
" clip-path="url(#pdcfd3af91f)" style="fill: none; stroke: #de8f05; stroke-width: 2.25; stroke-linecap: square"/>
   </g>
   <g id="patch_3">
    <path d="M 60.14 237.4 
L 60.14 32.64 
" style="fill: none; stroke: #000000; stroke-width: 0.8; stroke-linejoin: miter; stroke-linecap: square"/>
   </g>
   <g id="patch_4">
    <path d="M 60.14 237.4 
L 392.4 237.4 
" style="fill: none; stroke: #000000; stroke-width: 0.8; stroke-linejoin: miter; stroke-linecap: square"/>
   </g>
   <g id="text_17">
    <!-- accuracy -->
    <g transform="translate(181.15125 26.64) scale(0.2 -0.2)">
     <use xlink:href="#DejaVuSans-61"/>
     <use xlink:href="#DejaVuSans-63" x="61.279297"/>
     <use xlink:href="#DejaVuSans-63" x="116.259766"/>
     <use xlink:href="#DejaVuSans-75" x="171.240234"/>
     <use xlink:href="#DejaVuSans-72" x="234.619141"/>
     <use xlink:href="#DejaVuSans-61" x="275.732422"/>
     <use xlink:href="#DejaVuSans-63" x="337.011719"/>
     <use xlink:href="#DejaVuSans-79" x="391.992188"/>
    </g>
   </g>
  </g>
 </g>
 <defs>
  <clipPath id="pdcfd3af91f">
   <rect x="60.14" y="32.64" width="332.26" height="204.76"/>
  </clipPath>
 </defs>
</svg>
