<?xml version="1.0" encoding="utf-8" standalone="no"?>
<!DOCTYPE svg PUBLIC "-//W3C//DTD SVG 1.1//EN"
  "http://www.w3.org/Graphics/SVG/1.1/DTD/svg11.dtd">
<svg xmlns:xlink="http://www.w3.org/1999/xlink" width="360pt" height="288pt" viewBox="0 0 360 288" xmlns="http://www.w3.org/2000/svg" version="1.1">
 <metadata>
  <rdf:RDF xmlns:dc="http://purl.org/dc/elements/1.1/" xmlns:cc="http://creativecommons.org/ns#" xmlns:rdf="http://www.w3.org/1999/02/22-rdf-syntax-ns#">
   <cc:Work>
    <dc:type rdf:resource="http://purl.org/dc/dcmitype/StillImage"/>
    <dc:date>2024-03-04T14:25:28.522651</dc:date>
    <dc:format>image/svg+xml</dc:format>
    <dc:creator>
     <cc:Agent>
      <dc:title>Matplotlib v3.8.2, https://matplotlib.org/</dc:title>
     </cc:Agent>
    </dc:creator>
   </cc:Work>
  </rdf:RDF>
 </metadata>
 <defs>
  <style type="text/css">*{stroke-linejoin: round; stroke-linecap: butt}</style>
 </defs>
 <g id="figure_1">
  <g id="patch_1">
   <path d="M 0 288 
L 360 288 
L 360 0 
L 0 0 
z
" style="fill: #ffffff"/>
  </g>
  <g id="axes_1">
   <g id="patch_2">
    <path d="M 74.25 232.74 
L 347.04 232.74 
L 347.04 34.8 
L 74.25 34.8 
z
" style="fill: #ffffff"/>
   </g>
   <g id="matplotlib.axis_1">
    <g id="xtick_1">
     <g id="line2d_1">
      <path d="M 87.902136 232.74 
L 87.902136 34.8 
" clip-path="url(#p0512ffdca5)" style="fill: none; stroke-dasharray: 3.7,1.6; stroke-dashoffset: 0; stroke: #cccccc; stroke-opacity: 0.7"/>
     </g>
     <g id="text_1">
      <!-- 0.2 -->
      <g style="fill: #262626" transform="translate(75.974792 253.637656) scale(0.15 -0.15)">
       <defs>
        <path id="DejaVuSans-30" d="M 2034 4250 
Q 1547 4250 1301 3770 
Q 1056 3291 1056 2328 
Q 1056 1369 1301 889 
Q 1547 409 2034 409 
Q 2525 409 2770 889 
Q 3016 1369 3016 2328 
Q 3016 3291 2770 3770 
Q 2525 4250 2034 4250 
z
M 2034 4750 
Q 2819 4750 3233 4129 
Q 3647 3509 3647 2328 
Q 3647 1150 3233 529 
Q 2819 -91 2034 -91 
Q 1250 -91 836 529 
Q 422 1150 422 2328 
Q 422 3509 836 4129 
Q 1250 4750 2034 4750 
z
" transform="scale(0.015625)"/>
        <path id="DejaVuSans-2e" d="M 684 794 
L 1344 794 
L 1344 0 
L 684 0 
L 684 794 
z
" transform="scale(0.015625)"/>
        <path id="DejaVuSans-32" d="M 1228 531 
L 3431 531 
L 3431 0 
L 469 0 
L 469 531 
Q 828 903 1448 1529 
Q 2069 2156 2228 2338 
Q 2531 2678 2651 2914 
Q 2772 3150 2772 3378 
Q 2772 3750 2511 3984 
Q 2250 4219 1831 4219 
Q 1534 4219 1204 4116 
Q 875 4013 500 3803 
L 500 4441 
Q 881 4594 1212 4672 
Q 1544 4750 1819 4750 
Q 2544 4750 2975 4387 
Q 3406 4025 3406 3419 
Q 3406 3131 3298 2873 
Q 3191 2616 2906 2266 
Q 2828 2175 2409 1742 
Q 1991 1309 1228 531 
z
" transform="scale(0.015625)"/>
       </defs>
       <use xlink:href="#DejaVuSans-30"/>
       <use xlink:href="#DejaVuSans-2e" x="63.623047"/>
       <use xlink:href="#DejaVuSans-32" x="95.410156"/>
      </g>
     </g>
    </g>
    <g id="xtick_2">
     <g id="line2d_2">
      <path d="M 122.974665 232.74 
L 122.974665 34.8 
" clip-path="url(#p0512ffdca5)" style="fill: none; stroke-dasharray: 3.7,1.6; stroke-dashoffset: 0; stroke: #cccccc; stroke-opacity: 0.7"/>
     </g>
     <g id="text_2">
      <!-- 0.3 -->
      <g style="fill: #262626" transform="translate(111.047321 253.637656) scale(0.15 -0.15)">
       <defs>
        <path id="DejaVuSans-33" d="M 2597 2516 
Q 3050 2419 3304 2112 
Q 3559 1806 3559 1356 
Q 3559 666 3084 287 
Q 2609 -91 1734 -91 
Q 1441 -91 1130 -33 
Q 819 25 488 141 
L 488 750 
Q 750 597 1062 519 
Q 1375 441 1716 441 
Q 2309 441 2620 675 
Q 2931 909 2931 1356 
Q 2931 1769 2642 2001 
Q 2353 2234 1838 2234 
L 1294 2234 
L 1294 2753 
L 1863 2753 
Q 2328 2753 2575 2939 
Q 2822 3125 2822 3475 
Q 2822 3834 2567 4026 
Q 2313 4219 1838 4219 
Q 1578 4219 1281 4162 
Q 984 4106 628 3988 
L 628 4550 
Q 988 4650 1302 4700 
Q 1616 4750 1894 4750 
Q 2613 4750 3031 4423 
Q 3450 4097 3450 3541 
Q 3450 3153 3228 2886 
Q 3006 2619 2597 2516 
z
" transform="scale(0.015625)"/>
       </defs>
       <use xlink:href="#DejaVuSans-30"/>
       <use xlink:href="#DejaVuSans-2e" x="63.623047"/>
       <use xlink:href="#DejaVuSans-33" x="95.410156"/>
      </g>
     </g>
    </g>
    <g id="xtick_3">
     <g id="line2d_3">
      <path d="M 158.047194 232.74 
L 158.047194 34.8 
" clip-path="url(#p0512ffdca5)" style="fill: none; stroke-dasharray: 3.7,1.6; stroke-dashoffset: 0; stroke: #cccccc; stroke-opacity: 0.7"/>
     </g>
     <g id="text_3">
      <!-- 0.4 -->
      <g style="fill: #262626" transform="translate(146.11985 253.637656) scale(0.15 -0.15)">
       <defs>
        <path id="DejaVuSans-34" d="M 2419 4116 
L 825 1625 
L 2419 1625 
L 2419 4116 
z
M 2253 4666 
L 3047 4666 
L 3047 1625 
L 3713 1625 
L 3713 1100 
L 3047 1100 
L 3047 0 
L 2419 0 
L 2419 1100 
L 313 1100 
L 313 1709 
L 2253 4666 
z
" transform="scale(0.015625)"/>
       </defs>
       <use xlink:href="#DejaVuSans-30"/>
       <use xlink:href="#DejaVuSans-2e" x="63.623047"/>
       <use xlink:href="#DejaVuSans-34" x="95.410156"/>
      </g>
     </g>
    </g>
    <g id="xtick_4">
     <g id="line2d_4">
      <path d="M 193.119723 232.74 
L 193.119723 34.8 
" clip-path="url(#p0512ffdca5)" style="fill: none; stroke-dasharray: 3.7,1.6; stroke-dashoffset: 0; stroke: #cccccc; stroke-opacity: 0.7"/>
     </g>
     <g id="text_4">
      <!-- 0.5 -->
      <g style="fill: #262626" transform="translate(181.192379 253.637656) scale(0.15 -0.15)">
       <defs>
        <path id="DejaVuSans-35" d="M 691 4666 
L 3169 4666 
L 3169 4134 
L 1269 4134 
L 1269 2991 
Q 1406 3038 1543 3061 
Q 1681 3084 1819 3084 
Q 2600 3084 3056 2656 
Q 3513 2228 3513 1497 
Q 3513 744 3044 326 
Q 2575 -91 1722 -91 
Q 1428 -91 1123 -41 
Q 819 9 494 109 
L 494 744 
Q 775 591 1075 516 
Q 1375 441 1709 441 
Q 2250 441 2565 725 
Q 2881 1009 2881 1497 
Q 2881 1984 2565 2268 
Q 2250 2553 1709 2553 
Q 1456 2553 1204 2497 
Q 953 2441 691 2322 
L 691 4666 
z
" transform="scale(0.015625)"/>
       </defs>
       <use xlink:href="#DejaVuSans-30"/>
       <use xlink:href="#DejaVuSans-2e" x="63.623047"/>
       <use xlink:href="#DejaVuSans-35" x="95.410156"/>
      </g>
     </g>
    </g>
    <g id="xtick_5">
     <g id="line2d_5">
      <path d="M 228.192252 232.74 
L 228.192252 34.8 
" clip-path="url(#p0512ffdca5)" style="fill: none; stroke-dasharray: 3.7,1.6; stroke-dashoffset: 0; stroke: #cccccc; stroke-opacity: 0.7"/>
     </g>
     <g id="text_5">
      <!-- 0.6 -->
      <g style="fill: #262626" transform="translate(216.264908 253.637656) scale(0.15 -0.15)">
       <defs>
        <path id="DejaVuSans-36" d="M 2113 2584 
Q 1688 2584 1439 2293 
Q 1191 2003 1191 1497 
Q 1191 994 1439 701 
Q 1688 409 2113 409 
Q 2538 409 2786 701 
Q 3034 994 3034 1497 
Q 3034 2003 2786 2293 
Q 2538 2584 2113 2584 
z
M 3366 4563 
L 3366 3988 
Q 3128 4100 2886 4159 
Q 2644 4219 2406 4219 
Q 1781 4219 1451 3797 
Q 1122 3375 1075 2522 
Q 1259 2794 1537 2939 
Q 1816 3084 2150 3084 
Q 2853 3084 3261 2657 
Q 3669 2231 3669 1497 
Q 3669 778 3244 343 
Q 2819 -91 2113 -91 
Q 1303 -91 875 529 
Q 447 1150 447 2328 
Q 447 3434 972 4092 
Q 1497 4750 2381 4750 
Q 2619 4750 2861 4703 
Q 3103 4656 3366 4563 
z
" transform="scale(0.015625)"/>
       </defs>
       <use xlink:href="#DejaVuSans-30"/>
       <use xlink:href="#DejaVuSans-2e" x="63.623047"/>
       <use xlink:href="#DejaVuSans-36" x="95.410156"/>
      </g>
     </g>
    </g>
    <g id="xtick_6">
     <g id="line2d_6">
      <path d="M 263.264781 232.74 
L 263.264781 34.8 
" clip-path="url(#p0512ffdca5)" style="fill: none; stroke-dasharray: 3.7,1.6; stroke-dashoffset: 0; stroke: #cccccc; stroke-opacity: 0.7"/>
     </g>
     <g id="text_6">
      <!-- 0.7 -->
      <g style="fill: #262626" transform="translate(251.337438 253.637656) scale(0.15 -0.15)">
       <defs>
        <path id="DejaVuSans-37" d="M 525 4666 
L 3525 4666 
L 3525 4397 
L 1831 0 
L 1172 0 
L 2766 4134 
L 525 4134 
L 525 4666 
z
" transform="scale(0.015625)"/>
       </defs>
       <use xlink:href="#DejaVuSans-30"/>
       <use xlink:href="#DejaVuSans-2e" x="63.623047"/>
       <use xlink:href="#DejaVuSans-37" x="95.410156"/>
      </g>
     </g>
    </g>
    <g id="xtick_7">
     <g id="line2d_7">
      <path d="M 298.33731 232.74 
L 298.33731 34.8 
" clip-path="url(#p0512ffdca5)" style="fill: none; stroke-dasharray: 3.7,1.6; stroke-dashoffset: 0; stroke: #cccccc; stroke-opacity: 0.7"/>
     </g>
     <g id="text_7">
      <!-- 0.8 -->
      <g style="fill: #262626" transform="translate(286.409967 253.637656) scale(0.15 -0.15)">
       <defs>
        <path id="DejaVuSans-38" d="M 2034 2216 
Q 1584 2216 1326 1975 
Q 1069 1734 1069 1313 
Q 1069 891 1326 650 
Q 1584 409 2034 409 
Q 2484 409 2743 651 
Q 3003 894 3003 1313 
Q 3003 1734 2745 1975 
Q 2488 2216 2034 2216 
z
M 1403 2484 
Q 997 2584 770 2862 
Q 544 3141 544 3541 
Q 544 4100 942 4425 
Q 1341 4750 2034 4750 
Q 2731 4750 3128 4425 
Q 3525 4100 3525 3541 
Q 3525 3141 3298 2862 
Q 3072 2584 2669 2484 
Q 3125 2378 3379 2068 
Q 3634 1759 3634 1313 
Q 3634 634 3220 271 
Q 2806 -91 2034 -91 
Q 1263 -91 848 271 
Q 434 634 434 1313 
Q 434 1759 690 2068 
Q 947 2378 1403 2484 
z
M 1172 3481 
Q 1172 3119 1398 2916 
Q 1625 2713 2034 2713 
Q 2441 2713 2670 2916 
Q 2900 3119 2900 3481 
Q 2900 3844 2670 4047 
Q 2441 4250 2034 4250 
Q 1625 4250 1398 4047 
Q 1172 3844 1172 3481 
z
" transform="scale(0.015625)"/>
       </defs>
       <use xlink:href="#DejaVuSans-30"/>
       <use xlink:href="#DejaVuSans-2e" x="63.623047"/>
       <use xlink:href="#DejaVuSans-38" x="95.410156"/>
      </g>
     </g>
    </g>
    <g id="xtick_8">
     <g id="line2d_8">
      <path d="M 333.409839 232.74 
L 333.409839 34.8 
" clip-path="url(#p0512ffdca5)" style="fill: none; stroke-dasharray: 3.7,1.6; stroke-dashoffset: 0; stroke: #cccccc; stroke-opacity: 0.7"/>
     </g>
     <g id="text_8">
      <!-- 0.9 -->
      <g style="fill: #262626" transform="translate(321.482496 253.637656) scale(0.15 -0.15)">
       <defs>
        <path id="DejaVuSans-39" d="M 703 97 
L 703 672 
Q 941 559 1184 500 
Q 1428 441 1663 441 
Q 2288 441 2617 861 
Q 2947 1281 2994 2138 
Q 2813 1869 2534 1725 
Q 2256 1581 1919 1581 
Q 1219 1581 811 2004 
Q 403 2428 403 3163 
Q 403 3881 828 4315 
Q 1253 4750 1959 4750 
Q 2769 4750 3195 4129 
Q 3622 3509 3622 2328 
Q 3622 1225 3098 567 
Q 2575 -91 1691 -91 
Q 1453 -91 1209 -44 
Q 966 3 703 97 
z
M 1959 2075 
Q 2384 2075 2632 2365 
Q 2881 2656 2881 3163 
Q 2881 3666 2632 3958 
Q 2384 4250 1959 4250 
Q 1534 4250 1286 3958 
Q 1038 3666 1038 3163 
Q 1038 2656 1286 2365 
Q 1534 2075 1959 2075 
z
" transform="scale(0.015625)"/>
       </defs>
       <use xlink:href="#DejaVuSans-30"/>
       <use xlink:href="#DejaVuSans-2e" x="63.623047"/>
       <use xlink:href="#DejaVuSans-39" x="95.410156"/>
      </g>
     </g>
    </g>
    <g id="text_9">
     <!-- Tanimoto similarity to closest compound -->
     <g style="fill: #262626" transform="translate(58.973906 272.154844) scale(0.15 -0.15)">
      <defs>
       <path id="DejaVuSans-54" d="M -19 4666 
L 3928 4666 
L 3928 4134 
L 2272 4134 
L 2272 0 
L 1638 0 
L 1638 4134 
L -19 4134 
L -19 4666 
z
" transform="scale(0.015625)"/>
       <path id="DejaVuSans-61" d="M 2194 1759 
Q 1497 1759 1228 1600 
Q 959 1441 959 1056 
Q 959 750 1161 570 
Q 1363 391 1709 391 
Q 2188 391 2477 730 
Q 2766 1069 2766 1631 
L 2766 1759 
L 2194 1759 
z
M 3341 1997 
L 3341 0 
L 2766 0 
L 2766 531 
Q 2569 213 2275 61 
Q 1981 -91 1556 -91 
Q 1019 -91 701 211 
Q 384 513 384 1019 
Q 384 1609 779 1909 
Q 1175 2209 1959 2209 
L 2766 2209 
L 2766 2266 
Q 2766 2663 2505 2880 
Q 2244 3097 1772 3097 
Q 1472 3097 1187 3025 
Q 903 2953 641 2809 
L 641 3341 
Q 956 3463 1253 3523 
Q 1550 3584 1831 3584 
Q 2591 3584 2966 3190 
Q 3341 2797 3341 1997 
z
" transform="scale(0.015625)"/>
       <path id="DejaVuSans-6e" d="M 3513 2113 
L 3513 0 
L 2938 0 
L 2938 2094 
Q 2938 2591 2744 2837 
Q 2550 3084 2163 3084 
Q 1697 3084 1428 2787 
Q 1159 2491 1159 1978 
L 1159 0 
L 581 0 
L 581 3500 
L 1159 3500 
L 1159 2956 
Q 1366 3272 1645 3428 
Q 1925 3584 2291 3584 
Q 2894 3584 3203 3211 
Q 3513 2838 3513 2113 
z
" transform="scale(0.015625)"/>
       <path id="DejaVuSans-69" d="M 603 3500 
L 1178 3500 
L 1178 0 
L 603 0 
L 603 3500 
z
M 603 4863 
L 1178 4863 
L 1178 4134 
L 603 4134 
L 603 4863 
z
" transform="scale(0.015625)"/>
       <path id="DejaVuSans-6d" d="M 3328 2828 
Q 3544 3216 3844 3400 
Q 4144 3584 4550 3584 
Q 5097 3584 5394 3201 
Q 5691 2819 5691 2113 
L 5691 0 
L 5113 0 
L 5113 2094 
Q 5113 2597 4934 2840 
Q 4756 3084 4391 3084 
Q 3944 3084 3684 2787 
Q 3425 2491 3425 1978 
L 3425 0 
L 2847 0 
L 2847 2094 
Q 2847 2600 2669 2842 
Q 2491 3084 2119 3084 
Q 1678 3084 1418 2786 
Q 1159 2488 1159 1978 
L 1159 0 
L 581 0 
L 581 3500 
L 1159 3500 
L 1159 2956 
Q 1356 3278 1631 3431 
Q 1906 3584 2284 3584 
Q 2666 3584 2933 3390 
Q 3200 3197 3328 2828 
z
" transform="scale(0.015625)"/>
       <path id="DejaVuSans-6f" d="M 1959 3097 
Q 1497 3097 1228 2736 
Q 959 2375 959 1747 
Q 959 1119 1226 758 
Q 1494 397 1959 397 
Q 2419 397 2687 759 
Q 2956 1122 2956 1747 
Q 2956 2369 2687 2733 
Q 2419 3097 1959 3097 
z
M 1959 3584 
Q 2709 3584 3137 3096 
Q 3566 2609 3566 1747 
Q 3566 888 3137 398 
Q 2709 -91 1959 -91 
Q 1206 -91 779 398 
Q 353 888 353 1747 
Q 353 2609 779 3096 
Q 1206 3584 1959 3584 
z
" transform="scale(0.015625)"/>
       <path id="DejaVuSans-74" d="M 1172 4494 
L 1172 3500 
L 2356 3500 
L 2356 3053 
L 1172 3053 
L 1172 1153 
Q 1172 725 1289 603 
Q 1406 481 1766 481 
L 2356 481 
L 2356 0 
L 1766 0 
Q 1100 0 847 248 
Q 594 497 594 1153 
L 594 3053 
L 172 3053 
L 172 3500 
L 594 3500 
L 594 4494 
L 1172 4494 
z
" transform="scale(0.015625)"/>
       <path id="DejaVuSans-20" transform="scale(0.015625)"/>
       <path id="DejaVuSans-73" d="M 2834 3397 
L 2834 2853 
Q 2591 2978 2328 3040 
Q 2066 3103 1784 3103 
Q 1356 3103 1142 2972 
Q 928 2841 928 2578 
Q 928 2378 1081 2264 
Q 1234 2150 1697 2047 
L 1894 2003 
Q 2506 1872 2764 1633 
Q 3022 1394 3022 966 
Q 3022 478 2636 193 
Q 2250 -91 1575 -91 
Q 1294 -91 989 -36 
Q 684 19 347 128 
L 347 722 
Q 666 556 975 473 
Q 1284 391 1588 391 
Q 1994 391 2212 530 
Q 2431 669 2431 922 
Q 2431 1156 2273 1281 
Q 2116 1406 1581 1522 
L 1381 1569 
Q 847 1681 609 1914 
Q 372 2147 372 2553 
Q 372 3047 722 3315 
Q 1072 3584 1716 3584 
Q 2034 3584 2315 3537 
Q 2597 3491 2834 3397 
z
" transform="scale(0.015625)"/>
       <path id="DejaVuSans-6c" d="M 603 4863 
L 1178 4863 
L 1178 0 
L 603 0 
L 603 4863 
z
" transform="scale(0.015625)"/>
       <path id="DejaVuSans-72" d="M 2631 2963 
Q 2534 3019 2420 3045 
Q 2306 3072 2169 3072 
Q 1681 3072 1420 2755 
Q 1159 2438 1159 1844 
L 1159 0 
L 581 0 
L 581 3500 
L 1159 3500 
L 1159 2956 
Q 1341 3275 1631 3429 
Q 1922 3584 2338 3584 
Q 2397 3584 2469 3576 
Q 2541 3569 2628 3553 
L 2631 2963 
z
" transform="scale(0.015625)"/>
       <path id="DejaVuSans-79" d="M 2059 -325 
Q 1816 -950 1584 -1140 
Q 1353 -1331 966 -1331 
L 506 -1331 
L 506 -850 
L 844 -850 
Q 1081 -850 1212 -737 
Q 1344 -625 1503 -206 
L 1606 56 
L 191 3500 
L 800 3500 
L 1894 763 
L 2988 3500 
L 3597 3500 
L 2059 -325 
z
" transform="scale(0.015625)"/>
       <path id="DejaVuSans-63" d="M 3122 3366 
L 3122 2828 
Q 2878 2963 2633 3030 
Q 2388 3097 2138 3097 
Q 1578 3097 1268 2742 
Q 959 2388 959 1747 
Q 959 1106 1268 751 
Q 1578 397 2138 397 
Q 2388 397 2633 464 
Q 2878 531 3122 666 
L 3122 134 
Q 2881 22 2623 -34 
Q 2366 -91 2075 -91 
Q 1284 -91 818 406 
Q 353 903 353 1747 
Q 353 2603 823 3093 
Q 1294 3584 2113 3584 
Q 2378 3584 2631 3529 
Q 2884 3475 3122 3366 
z
" transform="scale(0.015625)"/>
       <path id="DejaVuSans-65" d="M 3597 1894 
L 3597 1613 
L 953 1613 
Q 991 1019 1311 708 
Q 1631 397 2203 397 
Q 2534 397 2845 478 
Q 3156 559 3463 722 
L 3463 178 
Q 3153 47 2828 -22 
Q 2503 -91 2169 -91 
Q 1331 -91 842 396 
Q 353 884 353 1716 
Q 353 2575 817 3079 
Q 1281 3584 2069 3584 
Q 2775 3584 3186 3129 
Q 3597 2675 3597 1894 
z
M 3022 2063 
Q 3016 2534 2758 2815 
Q 2500 3097 2075 3097 
Q 1594 3097 1305 2825 
Q 1016 2553 972 2059 
L 3022 2063 
z
" transform="scale(0.015625)"/>
       <path id="DejaVuSans-70" d="M 1159 525 
L 1159 -1331 
L 581 -1331 
L 581 3500 
L 1159 3500 
L 1159 2969 
Q 1341 3281 1617 3432 
Q 1894 3584 2278 3584 
Q 2916 3584 3314 3078 
Q 3713 2572 3713 1747 
Q 3713 922 3314 415 
Q 2916 -91 2278 -91 
Q 1894 -91 1617 61 
Q 1341 213 1159 525 
z
M 3116 1747 
Q 3116 2381 2855 2742 
Q 2594 3103 2138 3103 
Q 1681 3103 1420 2742 
Q 1159 2381 1159 1747 
Q 1159 1113 1420 752 
Q 1681 391 2138 391 
Q 2594 391 2855 752 
Q 3116 1113 3116 1747 
z
" transform="scale(0.015625)"/>
       <path id="DejaVuSans-75" d="M 544 1381 
L 544 3500 
L 1119 3500 
L 1119 1403 
Q 1119 906 1312 657 
Q 1506 409 1894 409 
Q 2359 409 2629 706 
Q 2900 1003 2900 1516 
L 2900 3500 
L 3475 3500 
L 3475 0 
L 2900 0 
L 2900 538 
Q 2691 219 2414 64 
Q 2138 -91 1772 -91 
Q 1169 -91 856 284 
Q 544 659 544 1381 
z
M 1991 3584 
L 1991 3584 
z
" transform="scale(0.015625)"/>
       <path id="DejaVuSans-64" d="M 2906 2969 
L 2906 4863 
L 3481 4863 
L 3481 0 
L 2906 0 
L 2906 525 
Q 2725 213 2448 61 
Q 2172 -91 1784 -91 
Q 1150 -91 751 415 
Q 353 922 353 1747 
Q 353 2572 751 3078 
Q 1150 3584 1784 3584 
Q 2172 3584 2448 3432 
Q 2725 3281 2906 2969 
z
M 947 1747 
Q 947 1113 1208 752 
Q 1469 391 1925 391 
Q 2381 391 2643 752 
Q 2906 1113 2906 1747 
Q 2906 2381 2643 2742 
Q 2381 3103 1925 3103 
Q 1469 3103 1208 2742 
Q 947 2381 947 1747 
z
" transform="scale(0.015625)"/>
      </defs>
      <use xlink:href="#DejaVuSans-54"/>
      <use xlink:href="#DejaVuSans-61" x="44.583984"/>
      <use xlink:href="#DejaVuSans-6e" x="105.863281"/>
      <use xlink:href="#DejaVuSans-69" x="169.242188"/>
      <use xlink:href="#DejaVuSans-6d" x="197.025391"/>
      <use xlink:href="#DejaVuSans-6f" x="294.4375"/>
      <use xlink:href="#DejaVuSans-74" x="355.619141"/>
      <use xlink:href="#DejaVuSans-6f" x="394.828125"/>
      <use xlink:href="#DejaVuSans-20" x="456.009766"/>
      <use xlink:href="#DejaVuSans-73" x="487.796875"/>
      <use xlink:href="#DejaVuSans-69" x="539.896484"/>
      <use xlink:href="#DejaVuSans-6d" x="567.679688"/>
      <use xlink:href="#DejaVuSans-69" x="665.091797"/>
      <use xlink:href="#DejaVuSans-6c" x="692.875"/>
      <use xlink:href="#DejaVuSans-61" x="720.658203"/>
      <use xlink:href="#DejaVuSans-72" x="781.9375"/>
      <use xlink:href="#DejaVuSans-69" x="823.050781"/>
      <use xlink:href="#DejaVuSans-74" x="850.833984"/>
      <use xlink:href="#DejaVuSans-79" x="890.042969"/>
      <use xlink:href="#DejaVuSans-20" x="949.222656"/>
      <use xlink:href="#DejaVuSans-74" x="981.009766"/>
      <use xlink:href="#DejaVuSans-6f" x="1020.21875"/>
      <use xlink:href="#DejaVuSans-20" x="1081.400391"/>
      <use xlink:href="#DejaVuSans-63" x="1113.1875"/>
      <use xlink:href="#DejaVuSans-6c" x="1168.167969"/>
      <use xlink:href="#DejaVuSans-6f" x="1195.951172"/>
      <use xlink:href="#DejaVuSans-73" x="1257.132812"/>
      <use xlink:href="#DejaVuSans-65" x="1309.232422"/>
      <use xlink:href="#DejaVuSans-73" x="1370.755859"/>
      <use xlink:href="#DejaVuSans-74" x="1422.855469"/>
      <use xlink:href="#DejaVuSans-20" x="1462.064453"/>
      <use xlink:href="#DejaVuSans-63" x="1493.851562"/>
      <use xlink:href="#DejaVuSans-6f" x="1548.832031"/>
      <use xlink:href="#DejaVuSans-6d" x="1610.013672"/>
      <use xlink:href="#DejaVuSans-70" x="1707.425781"/>
      <use xlink:href="#DejaVuSans-6f" x="1770.902344"/>
      <use xlink:href="#DejaVuSans-75" x="1832.083984"/>
      <use xlink:href="#DejaVuSans-6e" x="1895.462891"/>
      <use xlink:href="#DejaVuSans-64" x="1958.841797"/>
     </g>
    </g>
   </g>
   <g id="matplotlib.axis_2">
    <g id="ytick_1">
     <g id="line2d_9">
      <path d="M 74.25 223.62185 
L 347.04 223.62185 
" clip-path="url(#p0512ffdca5)" style="fill: none; stroke-dasharray: 3.7,1.6; stroke-dashoffset: 0; stroke: #cccccc; stroke-opacity: 0.7"/>
     </g>
     <g id="text_10">
      <!-- 1.25 -->
      <g style="fill: #262626" transform="translate(31.351562 229.320678) scale(0.15 -0.15)">
       <defs>
        <path id="DejaVuSans-31" d="M 794 531 
L 1825 531 
L 1825 4091 
L 703 3866 
L 703 4441 
L 1819 4666 
L 2450 4666 
L 2450 531 
L 3481 531 
L 3481 0 
L 794 0 
L 794 531 
z
" transform="scale(0.015625)"/>
       </defs>
       <use xlink:href="#DejaVuSans-31"/>
       <use xlink:href="#DejaVuSans-2e" x="63.623047"/>
       <use xlink:href="#DejaVuSans-32" x="95.410156"/>
       <use xlink:href="#DejaVuSans-35" x="159.033203"/>
      </g>
     </g>
    </g>
    <g id="ytick_2">
     <g id="line2d_10">
      <path d="M 74.25 196.424387 
L 347.04 196.424387 
" clip-path="url(#p0512ffdca5)" style="fill: none; stroke-dasharray: 3.7,1.6; stroke-dashoffset: 0; stroke: #cccccc; stroke-opacity: 0.7"/>
     </g>
     <g id="text_11">
      <!-- 1.50 -->
      <g style="fill: #262626" transform="translate(31.351562 202.123215) scale(0.15 -0.15)">
       <use xlink:href="#DejaVuSans-31"/>
       <use xlink:href="#DejaVuSans-2e" x="63.623047"/>
       <use xlink:href="#DejaVuSans-35" x="95.410156"/>
       <use xlink:href="#DejaVuSans-30" x="159.033203"/>
      </g>
     </g>
    </g>
    <g id="ytick_3">
     <g id="line2d_11">
      <path d="M 74.25 169.226923 
L 347.04 169.226923 
" clip-path="url(#p0512ffdca5)" style="fill: none; stroke-dasharray: 3.7,1.6; stroke-dashoffset: 0; stroke: #cccccc; stroke-opacity: 0.7"/>
     </g>
     <g id="text_12">
      <!-- 1.75 -->
      <g style="fill: #262626" transform="translate(31.351562 174.925752) scale(0.15 -0.15)">
       <use xlink:href="#DejaVuSans-31"/>
       <use xlink:href="#DejaVuSans-2e" x="63.623047"/>
       <use xlink:href="#DejaVuSans-37" x="95.410156"/>
       <use xlink:href="#DejaVuSans-35" x="159.033203"/>
      </g>
     </g>
    </g>
    <g id="ytick_4">
     <g id="line2d_12">
      <path d="M 74.25 142.02946 
L 347.04 142.02946 
" clip-path="url(#p0512ffdca5)" style="fill: none; stroke-dasharray: 3.7,1.6; stroke-dashoffset: 0; stroke: #cccccc; stroke-opacity: 0.7"/>
     </g>
     <g id="text_13">
      <!-- 2.00 -->
      <g style="fill: #262626" transform="translate(31.351562 147.728288) scale(0.15 -0.15)">
       <use xlink:href="#DejaVuSans-32"/>
       <use xlink:href="#DejaVuSans-2e" x="63.623047"/>
       <use xlink:href="#DejaVuSans-30" x="95.410156"/>
       <use xlink:href="#DejaVuSans-30" x="159.033203"/>
      </g>
     </g>
    </g>
    <g id="ytick_5">
     <g id="line2d_13">
      <path d="M 74.25 114.831997 
L 347.04 114.831997 
" clip-path="url(#p0512ffdca5)" style="fill: none; stroke-dasharray: 3.7,1.6; stroke-dashoffset: 0; stroke: #cccccc; stroke-opacity: 0.7"/>
     </g>
     <g id="text_14">
      <!-- 2.25 -->
      <g style="fill: #262626" transform="translate(31.351562 120.530825) scale(0.15 -0.15)">
       <use xlink:href="#DejaVuSans-32"/>
       <use xlink:href="#DejaVuSans-2e" x="63.623047"/>
       <use xlink:href="#DejaVuSans-32" x="95.410156"/>
       <use xlink:href="#DejaVuSans-35" x="159.033203"/>
      </g>
     </g>
    </g>
    <g id="ytick_6">
     <g id="line2d_14">
      <path d="M 74.25 87.634534 
L 347.04 87.634534 
" clip-path="url(#p0512ffdca5)" style="fill: none; stroke-dasharray: 3.7,1.6; stroke-dashoffset: 0; stroke: #cccccc; stroke-opacity: 0.7"/>
     </g>
     <g id="text_15">
      <!-- 2.50 -->
      <g style="fill: #262626" transform="translate(31.351562 93.333362) scale(0.15 -0.15)">
       <use xlink:href="#DejaVuSans-32"/>
       <use xlink:href="#DejaVuSans-2e" x="63.623047"/>
       <use xlink:href="#DejaVuSans-35" x="95.410156"/>
       <use xlink:href="#DejaVuSans-30" x="159.033203"/>
      </g>
     </g>
    </g>
    <g id="ytick_7">
     <g id="line2d_15">
      <path d="M 74.25 60.437071 
L 347.04 60.437071 
" clip-path="url(#p0512ffdca5)" style="fill: none; stroke-dasharray: 3.7,1.6; stroke-dashoffset: 0; stroke: #cccccc; stroke-opacity: 0.7"/>
     </g>
     <g id="text_16">
      <!-- 2.75 -->
      <g style="fill: #262626" transform="translate(31.351562 66.135899) scale(0.15 -0.15)">
       <use xlink:href="#DejaVuSans-32"/>
       <use xlink:href="#DejaVuSans-2e" x="63.623047"/>
       <use xlink:href="#DejaVuSans-37" x="95.410156"/>
       <use xlink:href="#DejaVuSans-35" x="159.033203"/>
      </g>
     </g>
    </g>
    <g id="text_17">
     <!-- score -->
     <g style="fill: #262626" transform="translate(24.232031 153.919219) rotate(-90) scale(0.15 -0.15)">
      <use xlink:href="#DejaVuSans-73"/>
      <use xlink:href="#DejaVuSans-63" x="52.099609"/>
      <use xlink:href="#DejaVuSans-6f" x="107.080078"/>
      <use xlink:href="#DejaVuSans-72" x="168.261719"/>
      <use xlink:href="#DejaVuSans-65" x="207.125"/>
     </g>
    </g>
   </g>
   <g id="PathCollection_1">
    <defs>
     <path id="m0868121dd8" d="M 0 3.535534 
C 0.937635 3.535534 1.836992 3.163008 2.5 2.5 
C 3.163008 1.836992 3.535534 0.937635 3.535534 0 
C 3.535534 -0.937635 3.163008 -1.836992 2.5 -2.5 
C 1.836992 -3.163008 0.937635 -3.535534 0 -3.535534 
C -0.937635 -3.535534 -1.836992 -3.163008 -2.5 -2.5 
C -3.163008 -1.836992 -3.535534 -0.937635 -3.535534 0 
C -3.535534 0.937635 -3.163008 1.836992 -2.5 2.5 
C -1.836992 3.163008 -0.937635 3.535534 0 3.535534 
z
" style="stroke: #b22222; stroke-opacity: 0.8"/>
    </defs>
    <g clip-path="url(#p0512ffdca5)">
     <use xlink:href="#m0868121dd8" x="272.494394" y="129.497561" style="fill: #b22222; fill-opacity: 0.8; stroke: #b22222; stroke-opacity: 0.8"/>
     <use xlink:href="#m0868121dd8" x="334.640455" y="172.040454" style="fill: #b22222; fill-opacity: 0.8; stroke: #b22222; stroke-opacity: 0.8"/>
     <use xlink:href="#m0868121dd8" x="208.073127" y="218.081626" style="fill: #b22222; fill-opacity: 0.8; stroke: #b22222; stroke-opacity: 0.8"/>
     <use xlink:href="#m0868121dd8" x="291.399887" y="204.024195" style="fill: #b22222; fill-opacity: 0.8; stroke: #b22222; stroke-opacity: 0.8"/>
     <use xlink:href="#m0868121dd8" x="86.649545" y="50.00247" style="fill: #b22222; fill-opacity: 0.8; stroke: #b22222; stroke-opacity: 0.8"/>
     <use xlink:href="#m0868121dd8" x="93.788434" y="116.231419" style="fill: #b22222; fill-opacity: 0.8; stroke: #b22222; stroke-opacity: 0.8"/>
     <use xlink:href="#m0868121dd8" x="92.912497" y="193.515799" style="fill: #b22222; fill-opacity: 0.8; stroke: #b22222; stroke-opacity: 0.8"/>
     <use xlink:href="#m0868121dd8" x="105.4384" y="220.812722" style="fill: #b22222; fill-opacity: 0.8; stroke: #b22222; stroke-opacity: 0.8"/>
     <use xlink:href="#m0868121dd8" x="272.494394" y="116.203298" style="fill: #b22222; fill-opacity: 0.8; stroke: #b22222; stroke-opacity: 0.8"/>
     <use xlink:href="#m0868121dd8" x="334.640455" y="178.694776" style="fill: #b22222; fill-opacity: 0.8; stroke: #b22222; stroke-opacity: 0.8"/>
     <use xlink:href="#m0868121dd8" x="208.073127" y="223.742727" style="fill: #b22222; fill-opacity: 0.8; stroke: #b22222; stroke-opacity: 0.8"/>
     <use xlink:href="#m0868121dd8" x="291.399887" y="201.362873" style="fill: #b22222; fill-opacity: 0.8; stroke: #b22222; stroke-opacity: 0.8"/>
     <use xlink:href="#m0868121dd8" x="86.649545" y="52.542833" style="fill: #b22222; fill-opacity: 0.8; stroke: #b22222; stroke-opacity: 0.8"/>
     <use xlink:href="#m0868121dd8" x="93.788434" y="104.433593" style="fill: #b22222; fill-opacity: 0.8; stroke: #b22222; stroke-opacity: 0.8"/>
     <use xlink:href="#m0868121dd8" x="92.912497" y="194.43854" style="fill: #b22222; fill-opacity: 0.8; stroke: #b22222; stroke-opacity: 0.8"/>
     <use xlink:href="#m0868121dd8" x="105.4384" y="214.86673" style="fill: #b22222; fill-opacity: 0.8; stroke: #b22222; stroke-opacity: 0.8"/>
     <use xlink:href="#m0868121dd8" x="272.494394" y="131.086102" style="fill: #b22222; fill-opacity: 0.8; stroke: #b22222; stroke-opacity: 0.8"/>
     <use xlink:href="#m0868121dd8" x="334.640455" y="176.973711" style="fill: #b22222; fill-opacity: 0.8; stroke: #b22222; stroke-opacity: 0.8"/>
     <use xlink:href="#m0868121dd8" x="208.073127" y="223.136181" style="fill: #b22222; fill-opacity: 0.8; stroke: #b22222; stroke-opacity: 0.8"/>
     <use xlink:href="#m0868121dd8" x="291.399887" y="201.362873" style="fill: #b22222; fill-opacity: 0.8; stroke: #b22222; stroke-opacity: 0.8"/>
     <use xlink:href="#m0868121dd8" x="86.649545" y="43.797273" style="fill: #b22222; fill-opacity: 0.8; stroke: #b22222; stroke-opacity: 0.8"/>
     <use xlink:href="#m0868121dd8" x="93.788434" y="98.513519" style="fill: #b22222; fill-opacity: 0.8; stroke: #b22222; stroke-opacity: 0.8"/>
     <use xlink:href="#m0868121dd8" x="92.912497" y="188.461971" style="fill: #b22222; fill-opacity: 0.8; stroke: #b22222; stroke-opacity: 0.8"/>
     <use xlink:href="#m0868121dd8" x="105.4384" y="219.662929" style="fill: #b22222; fill-opacity: 0.8; stroke: #b22222; stroke-opacity: 0.8"/>
    </g>
   </g>
   <g id="PolyCollection_1">
    <defs>
     <path id="m827b84766c" d="M 86.649545 -178.651743 
L 86.649545 -104.863911 
L 89.154504 -104.790528 
L 91.659463 -104.902855 
L 94.164421 -105.015181 
L 96.66938 -105.131757 
L 99.174339 -105.250819 
L 101.679298 -105.323239 
L 104.184256 -105.376678 
L 106.689215 -105.428362 
L 109.194174 -105.476918 
L 111.699132 -105.525473 
L 114.204091 -105.574029 
L 116.70905 -105.624263 
L 119.214008 -105.676132 
L 121.718967 -105.681699 
L 124.223926 -105.600101 
L 126.728884 -105.365942 
L 129.233843 -105.324369 
L 131.738802 -105.318234 
L 134.24376 -105.312098 
L 136.748719 -105.305963 
L 139.253678 -105.299827 
L 141.758636 -105.336902 
L 144.263595 -105.375572 
L 146.768554 -105.336895 
L 149.273512 -104.99132 
L 151.778471 -104.649688 
L 154.28343 -104.313753 
L 156.788388 -104.387169 
L 159.293347 -104.299219 
L 161.798306 -104.043905 
L 164.303264 -104.047611 
L 166.808223 -103.870934 
L 169.313182 -103.687663 
L 171.81814 -103.829427 
L 174.323099 -103.957571 
L 176.828058 -103.427737 
L 179.333017 -103.612419 
L 181.837975 -103.524273 
L 184.342934 -103.478657 
L 186.847893 -103.055019 
L 189.352851 -102.827519 
L 191.85781 -102.42032 
L 194.362769 -102.275128 
L 196.867727 -102.029737 
L 199.372686 -102.013517 
L 201.877645 -101.810592 
L 204.382603 -101.219504 
L 206.887562 -100.954783 
L 209.392521 -100.821239 
L 211.897479 -100.141048 
L 214.402438 -99.754508 
L 216.907397 -99.165719 
L 219.412355 -98.530387 
L 221.917314 -98.181879 
L 224.422273 -97.555199 
L 226.927231 -96.928925 
L 229.43219 -96.420224 
L 231.937149 -95.971438 
L 234.442107 -95.538799 
L 236.947066 -94.969867 
L 239.452025 -94.487646 
L 241.956983 -93.875117 
L 244.461942 -93.139313 
L 246.966901 -92.504613 
L 249.47186 -91.772555 
L 251.976818 -91.269516 
L 254.481777 -90.680873 
L 256.986736 -90.333146 
L 259.491694 -89.511767 
L 261.996653 -88.810143 
L 264.501612 -88.196207 
L 267.00657 -87.197557 
L 269.511529 -86.286729 
L 272.016488 -85.655958 
L 274.521446 -84.818969 
L 277.026405 -84.060605 
L 279.531364 -83.029493 
L 282.036322 -82.31718 
L 284.541281 -81.667102 
L 287.04624 -81.017023 
L 289.551198 -80.366944 
L 292.056157 -79.716865 
L 294.561116 -79.066822 
L 297.066074 -78.420957 
L 299.571033 -77.775091 
L 302.075992 -77.129226 
L 304.58095 -76.48336 
L 307.085909 -75.837495 
L 309.590868 -75.121169 
L 312.095826 -74.527894 
L 314.600785 -73.867804 
L 317.105744 -73.166124 
L 319.610702 -72.374467 
L 322.115661 -71.58281 
L 324.62062 -70.791153 
L 327.125579 -69.999496 
L 329.630537 -69.207839 
L 332.135496 -68.311468 
L 334.640455 -67.346183 
L 334.640455 -123.984714 
L 334.640455 -123.984714 
L 332.135496 -124.240437 
L 329.630537 -124.492547 
L 327.125579 -124.740401 
L 324.62062 -124.922297 
L 322.115661 -125.250772 
L 319.610702 -125.390805 
L 317.105744 -125.310904 
L 314.600785 -125.274135 
L 312.095826 -125.430236 
L 309.590868 -125.579023 
L 307.085909 -125.743997 
L 304.58095 -125.924777 
L 302.075992 -126.193181 
L 299.571033 -126.256738 
L 297.066074 -126.419613 
L 294.561116 -126.593669 
L 292.056157 -126.763719 
L 289.551198 -126.930769 
L 287.04624 -127.09023 
L 284.541281 -127.266357 
L 282.036322 -127.413162 
L 279.531364 -127.714323 
L 277.026405 -128.046492 
L 274.521446 -128.339281 
L 272.016488 -128.476744 
L 269.511529 -128.774112 
L 267.00657 -129.093302 
L 264.501612 -129.337153 
L 261.996653 -129.613407 
L 259.491694 -129.771202 
L 256.986736 -130.145486 
L 254.481777 -130.635801 
L 251.976818 -131.14069 
L 249.47186 -131.737454 
L 246.966901 -132.290313 
L 244.461942 -132.901055 
L 241.956983 -133.397468 
L 239.452025 -133.638106 
L 236.947066 -133.933013 
L 234.442107 -134.28673 
L 231.937149 -134.514837 
L 229.43219 -135.344119 
L 226.927231 -135.719239 
L 224.422273 -136.506983 
L 221.917314 -137.415549 
L 219.412355 -137.96548 
L 216.907397 -138.418965 
L 214.402438 -138.966668 
L 211.897479 -139.671228 
L 209.392521 -140.329841 
L 206.887562 -140.881484 
L 204.382603 -141.596174 
L 201.877645 -142.084733 
L 199.372686 -142.628102 
L 196.867727 -143.17147 
L 194.362769 -143.802716 
L 191.85781 -144.667526 
L 189.352851 -145.313601 
L 186.847893 -146.047022 
L 184.342934 -146.62881 
L 181.837975 -147.459181 
L 179.333017 -148.289551 
L 176.828058 -149.118812 
L 174.323099 -149.777508 
L 171.81814 -150.058137 
L 169.313182 -150.970857 
L 166.808223 -151.745424 
L 164.303264 -152.547346 
L 161.798306 -153.470073 
L 159.293347 -154.380351 
L 156.788388 -155.081182 
L 154.28343 -155.612171 
L 151.778471 -156.128702 
L 149.273512 -156.938083 
L 146.768554 -157.892521 
L 144.263595 -158.851547 
L 141.758636 -159.781422 
L 139.253678 -160.760238 
L 136.748719 -161.718117 
L 134.24376 -162.650338 
L 131.738802 -163.606644 
L 129.233843 -164.428986 
L 126.728884 -165.145265 
L 124.223926 -166.072828 
L 121.718967 -166.998594 
L 119.214008 -167.762912 
L 116.70905 -168.485528 
L 114.204091 -169.208144 
L 111.699132 -169.925252 
L 109.194174 -170.618003 
L 106.689215 -171.310754 
L 104.184256 -172.052802 
L 101.679298 -172.999702 
L 99.174339 -173.993263 
L 96.66938 -174.966392 
L 94.164421 -175.936962 
L 91.659463 -176.901514 
L 89.154504 -177.860345 
L 86.649545 -178.651743 
z
" style="stroke: #ffffff; stroke-opacity: 0.15"/>
    </defs>
    <g clip-path="url(#p0512ffdca5)">
     <use xlink:href="#m827b84766c" x="0" y="288" style="fill: #b22222; fill-opacity: 0.15; stroke: #ffffff; stroke-opacity: 0.15"/>
    </g>
   </g>
   <g id="line2d_16">
    <path d="M 86.649545 143.501433 
L 89.154504 143.954079 
L 91.659463 144.406725 
L 94.164421 144.859371 
L 96.66938 145.312017 
L 99.174339 145.764663 
L 101.679298 146.217309 
L 104.184256 146.669955 
L 106.689215 147.122601 
L 109.194174 147.575247 
L 111.699132 148.027893 
L 114.204091 148.480539 
L 116.70905 148.933185 
L 119.214008 149.385831 
L 121.718967 149.838477 
L 124.223926 150.291123 
L 126.728884 150.743769 
L 129.233843 151.196415 
L 131.738802 151.649061 
L 134.24376 152.101707 
L 136.748719 152.554353 
L 139.253678 153.006999 
L 141.758636 153.459645 
L 144.263595 153.912291 
L 146.768554 154.364937 
L 149.273512 154.817583 
L 151.778471 155.270229 
L 154.28343 155.722875 
L 156.788388 156.175521 
L 159.293347 156.628167 
L 161.798306 157.080813 
L 164.303264 157.533459 
L 166.808223 157.986105 
L 169.313182 158.438751 
L 171.81814 158.891397 
L 174.323099 159.344043 
L 176.828058 159.796689 
L 179.333017 160.249335 
L 181.837975 160.701981 
L 184.342934 161.154627 
L 186.847893 161.607273 
L 189.352851 162.059919 
L 191.85781 162.512565 
L 194.362769 162.965211 
L 196.867727 163.417857 
L 199.372686 163.870503 
L 201.877645 164.323149 
L 204.382603 164.775795 
L 206.887562 165.228441 
L 209.392521 165.681087 
L 211.897479 166.133732 
L 214.402438 166.586378 
L 216.907397 167.039024 
L 219.412355 167.49167 
L 221.917314 167.944316 
L 224.422273 168.396962 
L 226.927231 168.849608 
L 229.43219 169.302254 
L 231.937149 169.7549 
L 234.442107 170.207546 
L 236.947066 170.660192 
L 239.452025 171.112838 
L 241.956983 171.565484 
L 244.461942 172.01813 
L 246.966901 172.470776 
L 249.47186 172.923422 
L 251.976818 173.376068 
L 254.481777 173.828714 
L 256.986736 174.28136 
L 259.491694 174.734006 
L 261.996653 175.186652 
L 264.501612 175.639298 
L 267.00657 176.091944 
L 269.511529 176.54459 
L 272.016488 176.997236 
L 274.521446 177.449882 
L 277.026405 177.902528 
L 279.531364 178.355174 
L 282.036322 178.80782 
L 284.541281 179.260466 
L 287.04624 179.713112 
L 289.551198 180.165758 
L 292.056157 180.618404 
L 294.561116 181.07105 
L 297.066074 181.523696 
L 299.571033 181.976342 
L 302.075992 182.428988 
L 304.58095 182.881634 
L 307.085909 183.33428 
L 309.590868 183.786926 
L 312.095826 184.239572 
L 314.600785 184.692218 
L 317.105744 185.144864 
L 319.610702 185.59751 
L 322.115661 186.050156 
L 324.62062 186.502802 
L 327.125579 186.955448 
L 329.630537 187.408094 
L 332.135496 187.86074 
L 334.640455 188.313386 
" clip-path="url(#p0512ffdca5)" style="fill: none; stroke: #b22222; stroke-width: 2.25; stroke-linecap: round"/>
   </g>
   <g id="patch_3">
    <path d="M 74.25 232.74 
L 74.25 34.8 
" style="fill: none; stroke: #cccccc; stroke-width: 1.25; stroke-linejoin: miter; stroke-linecap: square"/>
   </g>
   <g id="patch_4">
    <path d="M 347.04 232.74 
L 347.04 34.8 
" style="fill: none; stroke: #cccccc; stroke-width: 1.25; stroke-linejoin: miter; stroke-linecap: square"/>
   </g>
   <g id="patch_5">
    <path d="M 74.25 232.74 
L 347.04 232.74 
" style="fill: none; stroke: #cccccc; stroke-width: 1.25; stroke-linejoin: miter; stroke-linecap: square"/>
   </g>
   <g id="patch_6">
    <path d="M 74.25 34.8 
L 347.04 34.8 
" style="fill: none; stroke: #cccccc; stroke-width: 1.25; stroke-linejoin: miter; stroke-linecap: square"/>
   </g>
   <g id="text_18">
    <!-- Coverage -->
    <g style="fill: #262626" transform="translate(162.730937 28.8) scale(0.2 -0.2)">
     <defs>
      <path id="DejaVuSans-43" d="M 4122 4306 
L 4122 3641 
Q 3803 3938 3442 4084 
Q 3081 4231 2675 4231 
Q 1875 4231 1450 3742 
Q 1025 3253 1025 2328 
Q 1025 1406 1450 917 
Q 1875 428 2675 428 
Q 3081 428 3442 575 
Q 3803 722 4122 1019 
L 4122 359 
Q 3791 134 3420 21 
Q 3050 -91 2638 -91 
Q 1578 -91 968 557 
Q 359 1206 359 2328 
Q 359 3453 968 4101 
Q 1578 4750 2638 4750 
Q 3056 4750 3426 4639 
Q 3797 4528 4122 4306 
z
" transform="scale(0.015625)"/>
      <path id="DejaVuSans-76" d="M 191 3500 
L 800 3500 
L 1894 563 
L 2988 3500 
L 3597 3500 
L 2284 0 
L 1503 0 
L 191 3500 
z
" transform="scale(0.015625)"/>
      <path id="DejaVuSans-67" d="M 2906 1791 
Q 2906 2416 2648 2759 
Q 2391 3103 1925 3103 
Q 1463 3103 1205 2759 
Q 947 2416 947 1791 
Q 947 1169 1205 825 
Q 1463 481 1925 481 
Q 2391 481 2648 825 
Q 2906 1169 2906 1791 
z
M 3481 434 
Q 3481 -459 3084 -895 
Q 2688 -1331 1869 -1331 
Q 1566 -1331 1297 -1286 
Q 1028 -1241 775 -1147 
L 775 -588 
Q 1028 -725 1275 -790 
Q 1522 -856 1778 -856 
Q 2344 -856 2625 -561 
Q 2906 -266 2906 331 
L 2906 616 
Q 2728 306 2450 153 
Q 2172 0 1784 0 
Q 1141 0 747 490 
Q 353 981 353 1791 
Q 353 2603 747 3093 
Q 1141 3584 1784 3584 
Q 2172 3584 2450 3431 
Q 2728 3278 2906 2969 
L 2906 3500 
L 3481 3500 
L 3481 434 
z
" transform="scale(0.015625)"/>
     </defs>
     <use xlink:href="#DejaVuSans-43"/>
     <use xlink:href="#DejaVuSans-6f" x="69.824219"/>
     <use xlink:href="#DejaVuSans-76" x="131.005859"/>
     <use xlink:href="#DejaVuSans-65" x="190.185547"/>
     <use xlink:href="#DejaVuSans-72" x="251.708984"/>
     <use xlink:href="#DejaVuSans-61" x="292.822266"/>
     <use xlink:href="#DejaVuSans-67" x="354.101562"/>
     <use xlink:href="#DejaVuSans-65" x="417.578125"/>
    </g>
   </g>
  </g>
 </g>
 <defs>
  <clipPath id="p0512ffdca5">
   <rect x="74.25" y="34.8" width="272.79" height="197.94"/>
  </clipPath>
 </defs>
</svg>
