<?xml version="1.0" encoding="utf-8" standalone="no"?>
<!DOCTYPE svg PUBLIC "-//W3C//DTD SVG 1.1//EN"
  "http://www.w3.org/Graphics/SVG/1.1/DTD/svg11.dtd">
<svg xmlns:xlink="http://www.w3.org/1999/xlink" width="360pt" height="288pt" viewBox="0 0 360 288" xmlns="http://www.w3.org/2000/svg" version="1.1">
 <metadata>
  <rdf:RDF xmlns:dc="http://purl.org/dc/elements/1.1/" xmlns:cc="http://creativecommons.org/ns#" xmlns:rdf="http://www.w3.org/1999/02/22-rdf-syntax-ns#">
   <cc:Work>
    <dc:type rdf:resource="http://purl.org/dc/dcmitype/StillImage"/>
    <dc:date>2024-03-04T14:25:29.574024</dc:date>
    <dc:format>image/svg+xml</dc:format>
    <dc:creator>
     <cc:Agent>
      <dc:title>Matplotlib v3.8.2, https://matplotlib.org/</dc:title>
     </cc:Agent>
    </dc:creator>
   </cc:Work>
  </rdf:RDF>
 </metadata>
 <defs>
  <style type="text/css">*{stroke-linejoin: round; stroke-linecap: butt}</style>
 </defs>
 <g id="figure_1">
  <g id="patch_1">
   <path d="M 0 288 
L 360 288 
L 360 0 
L 0 0 
z
" style="fill: #ffffff"/>
  </g>
  <g id="axes_1">
   <g id="patch_2">
    <path d="M 64.8 232.74 
L 347.04 232.74 
L 347.04 34.8 
L 64.8 34.8 
z
" style="fill: #ffffff"/>
   </g>
   <g id="matplotlib.axis_1">
    <g id="xtick_1">
     <g id="line2d_1">
      <path d="M 78.925074 232.74 
L 78.925074 34.8 
" clip-path="url(#p84f4b0cb8c)" style="fill: none; stroke-dasharray: 3.7,1.6; stroke-dashoffset: 0; stroke: #cccccc; stroke-opacity: 0.7"/>
     </g>
     <g id="text_1">
      <!-- 0.2 -->
      <g style="fill: #262626" transform="translate(66.99773 253.637656) scale(0.15 -0.15)">
       <defs>
        <path id="DejaVuSans-30" d="M 2034 4250 
Q 1547 4250 1301 3770 
Q 1056 3291 1056 2328 
Q 1056 1369 1301 889 
Q 1547 409 2034 409 
Q 2525 409 2770 889 
Q 3016 1369 3016 2328 
Q 3016 3291 2770 3770 
Q 2525 4250 2034 4250 
z
M 2034 4750 
Q 2819 4750 3233 4129 
Q 3647 3509 3647 2328 
Q 3647 1150 3233 529 
Q 2819 -91 2034 -91 
Q 1250 -91 836 529 
Q 422 1150 422 2328 
Q 422 3509 836 4129 
Q 1250 4750 2034 4750 
z
" transform="scale(0.015625)"/>
        <path id="DejaVuSans-2e" d="M 684 794 
L 1344 794 
L 1344 0 
L 684 0 
L 684 794 
z
" transform="scale(0.015625)"/>
        <path id="DejaVuSans-32" d="M 1228 531 
L 3431 531 
L 3431 0 
L 469 0 
L 469 531 
Q 828 903 1448 1529 
Q 2069 2156 2228 2338 
Q 2531 2678 2651 2914 
Q 2772 3150 2772 3378 
Q 2772 3750 2511 3984 
Q 2250 4219 1831 4219 
Q 1534 4219 1204 4116 
Q 875 4013 500 3803 
L 500 4441 
Q 881 4594 1212 4672 
Q 1544 4750 1819 4750 
Q 2544 4750 2975 4387 
Q 3406 4025 3406 3419 
Q 3406 3131 3298 2873 
Q 3191 2616 2906 2266 
Q 2828 2175 2409 1742 
Q 1991 1309 1228 531 
z
" transform="scale(0.015625)"/>
       </defs>
       <use xlink:href="#DejaVuSans-30"/>
       <use xlink:href="#DejaVuSans-2e" x="63.623047"/>
       <use xlink:href="#DejaVuSans-32" x="95.410156"/>
      </g>
     </g>
    </g>
    <g id="xtick_2">
     <g id="line2d_2">
      <path d="M 115.212586 232.74 
L 115.212586 34.8 
" clip-path="url(#p84f4b0cb8c)" style="fill: none; stroke-dasharray: 3.7,1.6; stroke-dashoffset: 0; stroke: #cccccc; stroke-opacity: 0.7"/>
     </g>
     <g id="text_2">
      <!-- 0.3 -->
      <g style="fill: #262626" transform="translate(103.285243 253.637656) scale(0.15 -0.15)">
       <defs>
        <path id="DejaVuSans-33" d="M 2597 2516 
Q 3050 2419 3304 2112 
Q 3559 1806 3559 1356 
Q 3559 666 3084 287 
Q 2609 -91 1734 -91 
Q 1441 -91 1130 -33 
Q 819 25 488 141 
L 488 750 
Q 750 597 1062 519 
Q 1375 441 1716 441 
Q 2309 441 2620 675 
Q 2931 909 2931 1356 
Q 2931 1769 2642 2001 
Q 2353 2234 1838 2234 
L 1294 2234 
L 1294 2753 
L 1863 2753 
Q 2328 2753 2575 2939 
Q 2822 3125 2822 3475 
Q 2822 3834 2567 4026 
Q 2313 4219 1838 4219 
Q 1578 4219 1281 4162 
Q 984 4106 628 3988 
L 628 4550 
Q 988 4650 1302 4700 
Q 1616 4750 1894 4750 
Q 2613 4750 3031 4423 
Q 3450 4097 3450 3541 
Q 3450 3153 3228 2886 
Q 3006 2619 2597 2516 
z
" transform="scale(0.015625)"/>
       </defs>
       <use xlink:href="#DejaVuSans-30"/>
       <use xlink:href="#DejaVuSans-2e" x="63.623047"/>
       <use xlink:href="#DejaVuSans-33" x="95.410156"/>
      </g>
     </g>
    </g>
    <g id="xtick_3">
     <g id="line2d_3">
      <path d="M 151.500099 232.74 
L 151.500099 34.8 
" clip-path="url(#p84f4b0cb8c)" style="fill: none; stroke-dasharray: 3.7,1.6; stroke-dashoffset: 0; stroke: #cccccc; stroke-opacity: 0.7"/>
     </g>
     <g id="text_3">
      <!-- 0.4 -->
      <g style="fill: #262626" transform="translate(139.572755 253.637656) scale(0.15 -0.15)">
       <defs>
        <path id="DejaVuSans-34" d="M 2419 4116 
L 825 1625 
L 2419 1625 
L 2419 4116 
z
M 2253 4666 
L 3047 4666 
L 3047 1625 
L 3713 1625 
L 3713 1100 
L 3047 1100 
L 3047 0 
L 2419 0 
L 2419 1100 
L 313 1100 
L 313 1709 
L 2253 4666 
z
" transform="scale(0.015625)"/>
       </defs>
       <use xlink:href="#DejaVuSans-30"/>
       <use xlink:href="#DejaVuSans-2e" x="63.623047"/>
       <use xlink:href="#DejaVuSans-34" x="95.410156"/>
      </g>
     </g>
    </g>
    <g id="xtick_4">
     <g id="line2d_4">
      <path d="M 187.787612 232.74 
L 187.787612 34.8 
" clip-path="url(#p84f4b0cb8c)" style="fill: none; stroke-dasharray: 3.7,1.6; stroke-dashoffset: 0; stroke: #cccccc; stroke-opacity: 0.7"/>
     </g>
     <g id="text_4">
      <!-- 0.5 -->
      <g style="fill: #262626" transform="translate(175.860268 253.637656) scale(0.15 -0.15)">
       <defs>
        <path id="DejaVuSans-35" d="M 691 4666 
L 3169 4666 
L 3169 4134 
L 1269 4134 
L 1269 2991 
Q 1406 3038 1543 3061 
Q 1681 3084 1819 3084 
Q 2600 3084 3056 2656 
Q 3513 2228 3513 1497 
Q 3513 744 3044 326 
Q 2575 -91 1722 -91 
Q 1428 -91 1123 -41 
Q 819 9 494 109 
L 494 744 
Q 775 591 1075 516 
Q 1375 441 1709 441 
Q 2250 441 2565 725 
Q 2881 1009 2881 1497 
Q 2881 1984 2565 2268 
Q 2250 2553 1709 2553 
Q 1456 2553 1204 2497 
Q 953 2441 691 2322 
L 691 4666 
z
" transform="scale(0.015625)"/>
       </defs>
       <use xlink:href="#DejaVuSans-30"/>
       <use xlink:href="#DejaVuSans-2e" x="63.623047"/>
       <use xlink:href="#DejaVuSans-35" x="95.410156"/>
      </g>
     </g>
    </g>
    <g id="xtick_5">
     <g id="line2d_5">
      <path d="M 224.075125 232.74 
L 224.075125 34.8 
" clip-path="url(#p84f4b0cb8c)" style="fill: none; stroke-dasharray: 3.7,1.6; stroke-dashoffset: 0; stroke: #cccccc; stroke-opacity: 0.7"/>
     </g>
     <g id="text_5">
      <!-- 0.6 -->
      <g style="fill: #262626" transform="translate(212.147781 253.637656) scale(0.15 -0.15)">
       <defs>
        <path id="DejaVuSans-36" d="M 2113 2584 
Q 1688 2584 1439 2293 
Q 1191 2003 1191 1497 
Q 1191 994 1439 701 
Q 1688 409 2113 409 
Q 2538 409 2786 701 
Q 3034 994 3034 1497 
Q 3034 2003 2786 2293 
Q 2538 2584 2113 2584 
z
M 3366 4563 
L 3366 3988 
Q 3128 4100 2886 4159 
Q 2644 4219 2406 4219 
Q 1781 4219 1451 3797 
Q 1122 3375 1075 2522 
Q 1259 2794 1537 2939 
Q 1816 3084 2150 3084 
Q 2853 3084 3261 2657 
Q 3669 2231 3669 1497 
Q 3669 778 3244 343 
Q 2819 -91 2113 -91 
Q 1303 -91 875 529 
Q 447 1150 447 2328 
Q 447 3434 972 4092 
Q 1497 4750 2381 4750 
Q 2619 4750 2861 4703 
Q 3103 4656 3366 4563 
z
" transform="scale(0.015625)"/>
       </defs>
       <use xlink:href="#DejaVuSans-30"/>
       <use xlink:href="#DejaVuSans-2e" x="63.623047"/>
       <use xlink:href="#DejaVuSans-36" x="95.410156"/>
      </g>
     </g>
    </g>
    <g id="xtick_6">
     <g id="line2d_6">
      <path d="M 260.362637 232.74 
L 260.362637 34.8 
" clip-path="url(#p84f4b0cb8c)" style="fill: none; stroke-dasharray: 3.7,1.6; stroke-dashoffset: 0; stroke: #cccccc; stroke-opacity: 0.7"/>
     </g>
     <g id="text_6">
      <!-- 0.7 -->
      <g style="fill: #262626" transform="translate(248.435294 253.637656) scale(0.15 -0.15)">
       <defs>
        <path id="DejaVuSans-37" d="M 525 4666 
L 3525 4666 
L 3525 4397 
L 1831 0 
L 1172 0 
L 2766 4134 
L 525 4134 
L 525 4666 
z
" transform="scale(0.015625)"/>
       </defs>
       <use xlink:href="#DejaVuSans-30"/>
       <use xlink:href="#DejaVuSans-2e" x="63.623047"/>
       <use xlink:href="#DejaVuSans-37" x="95.410156"/>
      </g>
     </g>
    </g>
    <g id="xtick_7">
     <g id="line2d_7">
      <path d="M 296.65015 232.74 
L 296.65015 34.8 
" clip-path="url(#p84f4b0cb8c)" style="fill: none; stroke-dasharray: 3.7,1.6; stroke-dashoffset: 0; stroke: #cccccc; stroke-opacity: 0.7"/>
     </g>
     <g id="text_7">
      <!-- 0.8 -->
      <g style="fill: #262626" transform="translate(284.722806 253.637656) scale(0.15 -0.15)">
       <defs>
        <path id="DejaVuSans-38" d="M 2034 2216 
Q 1584 2216 1326 1975 
Q 1069 1734 1069 1313 
Q 1069 891 1326 650 
Q 1584 409 2034 409 
Q 2484 409 2743 651 
Q 3003 894 3003 1313 
Q 3003 1734 2745 1975 
Q 2488 2216 2034 2216 
z
M 1403 2484 
Q 997 2584 770 2862 
Q 544 3141 544 3541 
Q 544 4100 942 4425 
Q 1341 4750 2034 4750 
Q 2731 4750 3128 4425 
Q 3525 4100 3525 3541 
Q 3525 3141 3298 2862 
Q 3072 2584 2669 2484 
Q 3125 2378 3379 2068 
Q 3634 1759 3634 1313 
Q 3634 634 3220 271 
Q 2806 -91 2034 -91 
Q 1263 -91 848 271 
Q 434 634 434 1313 
Q 434 1759 690 2068 
Q 947 2378 1403 2484 
z
M 1172 3481 
Q 1172 3119 1398 2916 
Q 1625 2713 2034 2713 
Q 2441 2713 2670 2916 
Q 2900 3119 2900 3481 
Q 2900 3844 2670 4047 
Q 2441 4250 2034 4250 
Q 1625 4250 1398 4047 
Q 1172 3844 1172 3481 
z
" transform="scale(0.015625)"/>
       </defs>
       <use xlink:href="#DejaVuSans-30"/>
       <use xlink:href="#DejaVuSans-2e" x="63.623047"/>
       <use xlink:href="#DejaVuSans-38" x="95.410156"/>
      </g>
     </g>
    </g>
    <g id="xtick_8">
     <g id="line2d_8">
      <path d="M 332.937663 232.74 
L 332.937663 34.8 
" clip-path="url(#p84f4b0cb8c)" style="fill: none; stroke-dasharray: 3.7,1.6; stroke-dashoffset: 0; stroke: #cccccc; stroke-opacity: 0.7"/>
     </g>
     <g id="text_8">
      <!-- 0.9 -->
      <g style="fill: #262626" transform="translate(321.010319 253.637656) scale(0.15 -0.15)">
       <defs>
        <path id="DejaVuSans-39" d="M 703 97 
L 703 672 
Q 941 559 1184 500 
Q 1428 441 1663 441 
Q 2288 441 2617 861 
Q 2947 1281 2994 2138 
Q 2813 1869 2534 1725 
Q 2256 1581 1919 1581 
Q 1219 1581 811 2004 
Q 403 2428 403 3163 
Q 403 3881 828 4315 
Q 1253 4750 1959 4750 
Q 2769 4750 3195 4129 
Q 3622 3509 3622 2328 
Q 3622 1225 3098 567 
Q 2575 -91 1691 -91 
Q 1453 -91 1209 -44 
Q 966 3 703 97 
z
M 1959 2075 
Q 2384 2075 2632 2365 
Q 2881 2656 2881 3163 
Q 2881 3666 2632 3958 
Q 2384 4250 1959 4250 
Q 1534 4250 1286 3958 
Q 1038 3666 1038 3163 
Q 1038 2656 1286 2365 
Q 1534 2075 1959 2075 
z
" transform="scale(0.015625)"/>
       </defs>
       <use xlink:href="#DejaVuSans-30"/>
       <use xlink:href="#DejaVuSans-2e" x="63.623047"/>
       <use xlink:href="#DejaVuSans-39" x="95.410156"/>
      </g>
     </g>
    </g>
    <g id="text_9">
     <!-- Tanimoto similarity to closest compound -->
     <g style="fill: #262626" transform="translate(54.248906 272.154844) scale(0.15 -0.15)">
      <defs>
       <path id="DejaVuSans-54" d="M -19 4666 
L 3928 4666 
L 3928 4134 
L 2272 4134 
L 2272 0 
L 1638 0 
L 1638 4134 
L -19 4134 
L -19 4666 
z
" transform="scale(0.015625)"/>
       <path id="DejaVuSans-61" d="M 2194 1759 
Q 1497 1759 1228 1600 
Q 959 1441 959 1056 
Q 959 750 1161 570 
Q 1363 391 1709 391 
Q 2188 391 2477 730 
Q 2766 1069 2766 1631 
L 2766 1759 
L 2194 1759 
z
M 3341 1997 
L 3341 0 
L 2766 0 
L 2766 531 
Q 2569 213 2275 61 
Q 1981 -91 1556 -91 
Q 1019 -91 701 211 
Q 384 513 384 1019 
Q 384 1609 779 1909 
Q 1175 2209 1959 2209 
L 2766 2209 
L 2766 2266 
Q 2766 2663 2505 2880 
Q 2244 3097 1772 3097 
Q 1472 3097 1187 3025 
Q 903 2953 641 2809 
L 641 3341 
Q 956 3463 1253 3523 
Q 1550 3584 1831 3584 
Q 2591 3584 2966 3190 
Q 3341 2797 3341 1997 
z
" transform="scale(0.015625)"/>
       <path id="DejaVuSans-6e" d="M 3513 2113 
L 3513 0 
L 2938 0 
L 2938 2094 
Q 2938 2591 2744 2837 
Q 2550 3084 2163 3084 
Q 1697 3084 1428 2787 
Q 1159 2491 1159 1978 
L 1159 0 
L 581 0 
L 581 3500 
L 1159 3500 
L 1159 2956 
Q 1366 3272 1645 3428 
Q 1925 3584 2291 3584 
Q 2894 3584 3203 3211 
Q 3513 2838 3513 2113 
z
" transform="scale(0.015625)"/>
       <path id="DejaVuSans-69" d="M 603 3500 
L 1178 3500 
L 1178 0 
L 603 0 
L 603 3500 
z
M 603 4863 
L 1178 4863 
L 1178 4134 
L 603 4134 
L 603 4863 
z
" transform="scale(0.015625)"/>
       <path id="DejaVuSans-6d" d="M 3328 2828 
Q 3544 3216 3844 3400 
Q 4144 3584 4550 3584 
Q 5097 3584 5394 3201 
Q 5691 2819 5691 2113 
L 5691 0 
L 5113 0 
L 5113 2094 
Q 5113 2597 4934 2840 
Q 4756 3084 4391 3084 
Q 3944 3084 3684 2787 
Q 3425 2491 3425 1978 
L 3425 0 
L 2847 0 
L 2847 2094 
Q 2847 2600 2669 2842 
Q 2491 3084 2119 3084 
Q 1678 3084 1418 2786 
Q 1159 2488 1159 1978 
L 1159 0 
L 581 0 
L 581 3500 
L 1159 3500 
L 1159 2956 
Q 1356 3278 1631 3431 
Q 1906 3584 2284 3584 
Q 2666 3584 2933 3390 
Q 3200 3197 3328 2828 
z
" transform="scale(0.015625)"/>
       <path id="DejaVuSans-6f" d="M 1959 3097 
Q 1497 3097 1228 2736 
Q 959 2375 959 1747 
Q 959 1119 1226 758 
Q 1494 397 1959 397 
Q 2419 397 2687 759 
Q 2956 1122 2956 1747 
Q 2956 2369 2687 2733 
Q 2419 3097 1959 3097 
z
M 1959 3584 
Q 2709 3584 3137 3096 
Q 3566 2609 3566 1747 
Q 3566 888 3137 398 
Q 2709 -91 1959 -91 
Q 1206 -91 779 398 
Q 353 888 353 1747 
Q 353 2609 779 3096 
Q 1206 3584 1959 3584 
z
" transform="scale(0.015625)"/>
       <path id="DejaVuSans-74" d="M 1172 4494 
L 1172 3500 
L 2356 3500 
L 2356 3053 
L 1172 3053 
L 1172 1153 
Q 1172 725 1289 603 
Q 1406 481 1766 481 
L 2356 481 
L 2356 0 
L 1766 0 
Q 1100 0 847 248 
Q 594 497 594 1153 
L 594 3053 
L 172 3053 
L 172 3500 
L 594 3500 
L 594 4494 
L 1172 4494 
z
" transform="scale(0.015625)"/>
       <path id="DejaVuSans-20" transform="scale(0.015625)"/>
       <path id="DejaVuSans-73" d="M 2834 3397 
L 2834 2853 
Q 2591 2978 2328 3040 
Q 2066 3103 1784 3103 
Q 1356 3103 1142 2972 
Q 928 2841 928 2578 
Q 928 2378 1081 2264 
Q 1234 2150 1697 2047 
L 1894 2003 
Q 2506 1872 2764 1633 
Q 3022 1394 3022 966 
Q 3022 478 2636 193 
Q 2250 -91 1575 -91 
Q 1294 -91 989 -36 
Q 684 19 347 128 
L 347 722 
Q 666 556 975 473 
Q 1284 391 1588 391 
Q 1994 391 2212 530 
Q 2431 669 2431 922 
Q 2431 1156 2273 1281 
Q 2116 1406 1581 1522 
L 1381 1569 
Q 847 1681 609 1914 
Q 372 2147 372 2553 
Q 372 3047 722 3315 
Q 1072 3584 1716 3584 
Q 2034 3584 2315 3537 
Q 2597 3491 2834 3397 
z
" transform="scale(0.015625)"/>
       <path id="DejaVuSans-6c" d="M 603 4863 
L 1178 4863 
L 1178 0 
L 603 0 
L 603 4863 
z
" transform="scale(0.015625)"/>
       <path id="DejaVuSans-72" d="M 2631 2963 
Q 2534 3019 2420 3045 
Q 2306 3072 2169 3072 
Q 1681 3072 1420 2755 
Q 1159 2438 1159 1844 
L 1159 0 
L 581 0 
L 581 3500 
L 1159 3500 
L 1159 2956 
Q 1341 3275 1631 3429 
Q 1922 3584 2338 3584 
Q 2397 3584 2469 3576 
Q 2541 3569 2628 3553 
L 2631 2963 
z
" transform="scale(0.015625)"/>
       <path id="DejaVuSans-79" d="M 2059 -325 
Q 1816 -950 1584 -1140 
Q 1353 -1331 966 -1331 
L 506 -1331 
L 506 -850 
L 844 -850 
Q 1081 -850 1212 -737 
Q 1344 -625 1503 -206 
L 1606 56 
L 191 3500 
L 800 3500 
L 1894 763 
L 2988 3500 
L 3597 3500 
L 2059 -325 
z
" transform="scale(0.015625)"/>
       <path id="DejaVuSans-63" d="M 3122 3366 
L 3122 2828 
Q 2878 2963 2633 3030 
Q 2388 3097 2138 3097 
Q 1578 3097 1268 2742 
Q 959 2388 959 1747 
Q 959 1106 1268 751 
Q 1578 397 2138 397 
Q 2388 397 2633 464 
Q 2878 531 3122 666 
L 3122 134 
Q 2881 22 2623 -34 
Q 2366 -91 2075 -91 
Q 1284 -91 818 406 
Q 353 903 353 1747 
Q 353 2603 823 3093 
Q 1294 3584 2113 3584 
Q 2378 3584 2631 3529 
Q 2884 3475 3122 3366 
z
" transform="scale(0.015625)"/>
       <path id="DejaVuSans-65" d="M 3597 1894 
L 3597 1613 
L 953 1613 
Q 991 1019 1311 708 
Q 1631 397 2203 397 
Q 2534 397 2845 478 
Q 3156 559 3463 722 
L 3463 178 
Q 3153 47 2828 -22 
Q 2503 -91 2169 -91 
Q 1331 -91 842 396 
Q 353 884 353 1716 
Q 353 2575 817 3079 
Q 1281 3584 2069 3584 
Q 2775 3584 3186 3129 
Q 3597 2675 3597 1894 
z
M 3022 2063 
Q 3016 2534 2758 2815 
Q 2500 3097 2075 3097 
Q 1594 3097 1305 2825 
Q 1016 2553 972 2059 
L 3022 2063 
z
" transform="scale(0.015625)"/>
       <path id="DejaVuSans-70" d="M 1159 525 
L 1159 -1331 
L 581 -1331 
L 581 3500 
L 1159 3500 
L 1159 2969 
Q 1341 3281 1617 3432 
Q 1894 3584 2278 3584 
Q 2916 3584 3314 3078 
Q 3713 2572 3713 1747 
Q 3713 922 3314 415 
Q 2916 -91 2278 -91 
Q 1894 -91 1617 61 
Q 1341 213 1159 525 
z
M 3116 1747 
Q 3116 2381 2855 2742 
Q 2594 3103 2138 3103 
Q 1681 3103 1420 2742 
Q 1159 2381 1159 1747 
Q 1159 1113 1420 752 
Q 1681 391 2138 391 
Q 2594 391 2855 752 
Q 3116 1113 3116 1747 
z
" transform="scale(0.015625)"/>
       <path id="DejaVuSans-75" d="M 544 1381 
L 544 3500 
L 1119 3500 
L 1119 1403 
Q 1119 906 1312 657 
Q 1506 409 1894 409 
Q 2359 409 2629 706 
Q 2900 1003 2900 1516 
L 2900 3500 
L 3475 3500 
L 3475 0 
L 2900 0 
L 2900 538 
Q 2691 219 2414 64 
Q 2138 -91 1772 -91 
Q 1169 -91 856 284 
Q 544 659 544 1381 
z
M 1991 3584 
L 1991 3584 
z
" transform="scale(0.015625)"/>
       <path id="DejaVuSans-64" d="M 2906 2969 
L 2906 4863 
L 3481 4863 
L 3481 0 
L 2906 0 
L 2906 525 
Q 2725 213 2448 61 
Q 2172 -91 1784 -91 
Q 1150 -91 751 415 
Q 353 922 353 1747 
Q 353 2572 751 3078 
Q 1150 3584 1784 3584 
Q 2172 3584 2448 3432 
Q 2725 3281 2906 2969 
z
M 947 1747 
Q 947 1113 1208 752 
Q 1469 391 1925 391 
Q 2381 391 2643 752 
Q 2906 1113 2906 1747 
Q 2906 2381 2643 2742 
Q 2381 3103 1925 3103 
Q 1469 3103 1208 2742 
Q 947 2381 947 1747 
z
" transform="scale(0.015625)"/>
      </defs>
      <use xlink:href="#DejaVuSans-54"/>
      <use xlink:href="#DejaVuSans-61" x="44.583984"/>
      <use xlink:href="#DejaVuSans-6e" x="105.863281"/>
      <use xlink:href="#DejaVuSans-69" x="169.242188"/>
      <use xlink:href="#DejaVuSans-6d" x="197.025391"/>
      <use xlink:href="#DejaVuSans-6f" x="294.4375"/>
      <use xlink:href="#DejaVuSans-74" x="355.619141"/>
      <use xlink:href="#DejaVuSans-6f" x="394.828125"/>
      <use xlink:href="#DejaVuSans-20" x="456.009766"/>
      <use xlink:href="#DejaVuSans-73" x="487.796875"/>
      <use xlink:href="#DejaVuSans-69" x="539.896484"/>
      <use xlink:href="#DejaVuSans-6d" x="567.679688"/>
      <use xlink:href="#DejaVuSans-69" x="665.091797"/>
      <use xlink:href="#DejaVuSans-6c" x="692.875"/>
      <use xlink:href="#DejaVuSans-61" x="720.658203"/>
      <use xlink:href="#DejaVuSans-72" x="781.9375"/>
      <use xlink:href="#DejaVuSans-69" x="823.050781"/>
      <use xlink:href="#DejaVuSans-74" x="850.833984"/>
      <use xlink:href="#DejaVuSans-79" x="890.042969"/>
      <use xlink:href="#DejaVuSans-20" x="949.222656"/>
      <use xlink:href="#DejaVuSans-74" x="981.009766"/>
      <use xlink:href="#DejaVuSans-6f" x="1020.21875"/>
      <use xlink:href="#DejaVuSans-20" x="1081.400391"/>
      <use xlink:href="#DejaVuSans-63" x="1113.1875"/>
      <use xlink:href="#DejaVuSans-6c" x="1168.167969"/>
      <use xlink:href="#DejaVuSans-6f" x="1195.951172"/>
      <use xlink:href="#DejaVuSans-73" x="1257.132812"/>
      <use xlink:href="#DejaVuSans-65" x="1309.232422"/>
      <use xlink:href="#DejaVuSans-73" x="1370.755859"/>
      <use xlink:href="#DejaVuSans-74" x="1422.855469"/>
      <use xlink:href="#DejaVuSans-20" x="1462.064453"/>
      <use xlink:href="#DejaVuSans-63" x="1493.851562"/>
      <use xlink:href="#DejaVuSans-6f" x="1548.832031"/>
      <use xlink:href="#DejaVuSans-6d" x="1610.013672"/>
      <use xlink:href="#DejaVuSans-70" x="1707.425781"/>
      <use xlink:href="#DejaVuSans-6f" x="1770.902344"/>
      <use xlink:href="#DejaVuSans-75" x="1832.083984"/>
      <use xlink:href="#DejaVuSans-6e" x="1895.462891"/>
      <use xlink:href="#DejaVuSans-64" x="1958.841797"/>
     </g>
    </g>
   </g>
   <g id="matplotlib.axis_2">
    <g id="ytick_1">
     <g id="line2d_9">
      <path d="M 64.8 229.937736 
L 347.04 229.937736 
" clip-path="url(#p84f4b0cb8c)" style="fill: none; stroke-dasharray: 3.7,1.6; stroke-dashoffset: 0; stroke: #cccccc; stroke-opacity: 0.7"/>
     </g>
     <g id="text_10">
      <!-- 0.2 -->
      <g style="fill: #262626" transform="translate(31.445312 235.636564) scale(0.15 -0.15)">
       <use xlink:href="#DejaVuSans-30"/>
       <use xlink:href="#DejaVuSans-2e" x="63.623047"/>
       <use xlink:href="#DejaVuSans-32" x="95.410156"/>
      </g>
     </g>
    </g>
    <g id="ytick_2">
     <g id="line2d_10">
      <path d="M 64.8 202.03877 
L 347.04 202.03877 
" clip-path="url(#p84f4b0cb8c)" style="fill: none; stroke-dasharray: 3.7,1.6; stroke-dashoffset: 0; stroke: #cccccc; stroke-opacity: 0.7"/>
     </g>
     <g id="text_11">
      <!-- 0.4 -->
      <g style="fill: #262626" transform="translate(31.445312 207.737598) scale(0.15 -0.15)">
       <use xlink:href="#DejaVuSans-30"/>
       <use xlink:href="#DejaVuSans-2e" x="63.623047"/>
       <use xlink:href="#DejaVuSans-34" x="95.410156"/>
      </g>
     </g>
    </g>
    <g id="ytick_3">
     <g id="line2d_11">
      <path d="M 64.8 174.139804 
L 347.04 174.139804 
" clip-path="url(#p84f4b0cb8c)" style="fill: none; stroke-dasharray: 3.7,1.6; stroke-dashoffset: 0; stroke: #cccccc; stroke-opacity: 0.7"/>
     </g>
     <g id="text_12">
      <!-- 0.6 -->
      <g style="fill: #262626" transform="translate(31.445312 179.838632) scale(0.15 -0.15)">
       <use xlink:href="#DejaVuSans-30"/>
       <use xlink:href="#DejaVuSans-2e" x="63.623047"/>
       <use xlink:href="#DejaVuSans-36" x="95.410156"/>
      </g>
     </g>
    </g>
    <g id="ytick_4">
     <g id="line2d_12">
      <path d="M 64.8 146.240838 
L 347.04 146.240838 
" clip-path="url(#p84f4b0cb8c)" style="fill: none; stroke-dasharray: 3.7,1.6; stroke-dashoffset: 0; stroke: #cccccc; stroke-opacity: 0.7"/>
     </g>
     <g id="text_13">
      <!-- 0.8 -->
      <g style="fill: #262626" transform="translate(31.445312 151.939666) scale(0.15 -0.15)">
       <use xlink:href="#DejaVuSans-30"/>
       <use xlink:href="#DejaVuSans-2e" x="63.623047"/>
       <use xlink:href="#DejaVuSans-38" x="95.410156"/>
      </g>
     </g>
    </g>
    <g id="ytick_5">
     <g id="line2d_13">
      <path d="M 64.8 118.341871 
L 347.04 118.341871 
" clip-path="url(#p84f4b0cb8c)" style="fill: none; stroke-dasharray: 3.7,1.6; stroke-dashoffset: 0; stroke: #cccccc; stroke-opacity: 0.7"/>
     </g>
     <g id="text_14">
      <!-- 1.0 -->
      <g style="fill: #262626" transform="translate(31.445312 124.0407) scale(0.15 -0.15)">
       <defs>
        <path id="DejaVuSans-31" d="M 794 531 
L 1825 531 
L 1825 4091 
L 703 3866 
L 703 4441 
L 1819 4666 
L 2450 4666 
L 2450 531 
L 3481 531 
L 3481 0 
L 794 0 
L 794 531 
z
" transform="scale(0.015625)"/>
       </defs>
       <use xlink:href="#DejaVuSans-31"/>
       <use xlink:href="#DejaVuSans-2e" x="63.623047"/>
       <use xlink:href="#DejaVuSans-30" x="95.410156"/>
      </g>
     </g>
    </g>
    <g id="ytick_6">
     <g id="line2d_14">
      <path d="M 64.8 90.442905 
L 347.04 90.442905 
" clip-path="url(#p84f4b0cb8c)" style="fill: none; stroke-dasharray: 3.7,1.6; stroke-dashoffset: 0; stroke: #cccccc; stroke-opacity: 0.7"/>
     </g>
     <g id="text_15">
      <!-- 1.2 -->
      <g style="fill: #262626" transform="translate(31.445312 96.141733) scale(0.15 -0.15)">
       <use xlink:href="#DejaVuSans-31"/>
       <use xlink:href="#DejaVuSans-2e" x="63.623047"/>
       <use xlink:href="#DejaVuSans-32" x="95.410156"/>
      </g>
     </g>
    </g>
    <g id="ytick_7">
     <g id="line2d_15">
      <path d="M 64.8 62.543939 
L 347.04 62.543939 
" clip-path="url(#p84f4b0cb8c)" style="fill: none; stroke-dasharray: 3.7,1.6; stroke-dashoffset: 0; stroke: #cccccc; stroke-opacity: 0.7"/>
     </g>
     <g id="text_16">
      <!-- 1.4 -->
      <g style="fill: #262626" transform="translate(31.445312 68.242767) scale(0.15 -0.15)">
       <use xlink:href="#DejaVuSans-31"/>
       <use xlink:href="#DejaVuSans-2e" x="63.623047"/>
       <use xlink:href="#DejaVuSans-34" x="95.410156"/>
      </g>
     </g>
    </g>
    <g id="text_17">
     <!-- score -->
     <g style="fill: #262626" transform="translate(24.325781 153.919219) rotate(-90) scale(0.15 -0.15)">
      <use xlink:href="#DejaVuSans-73"/>
      <use xlink:href="#DejaVuSans-63" x="52.099609"/>
      <use xlink:href="#DejaVuSans-6f" x="107.080078"/>
      <use xlink:href="#DejaVuSans-72" x="168.261719"/>
      <use xlink:href="#DejaVuSans-65" x="207.125"/>
     </g>
    </g>
   </g>
   <g id="PathCollection_1">
    <defs>
     <path id="m9b1298672d" d="M 0 3.535534 
C 0.937635 3.535534 1.836992 3.163008 2.5 2.5 
C 3.163008 1.836992 3.535534 0.937635 3.535534 0 
C 3.535534 -0.937635 3.163008 -1.836992 2.5 -2.5 
C 1.836992 -3.163008 0.937635 -3.535534 0 -3.535534 
C -0.937635 -3.535534 -1.836992 -3.163008 -2.5 -2.5 
C -3.163008 -1.836992 -3.535534 -0.937635 -3.535534 0 
C -3.535534 0.937635 -3.163008 1.836992 -2.5 2.5 
C -1.836992 3.163008 -0.937635 3.535534 0 3.535534 
z
" style="stroke: #b22222; stroke-opacity: 0.8"/>
    </defs>
    <g clip-path="url(#p84f4b0cb8c)">
     <use xlink:href="#m9b1298672d" x="269.911983" y="178.29764" style="fill: #b22222; fill-opacity: 0.8; stroke: #b22222; stroke-opacity: 0.8"/>
     <use xlink:href="#m9b1298672d" x="334.210909" y="220.339564" style="fill: #b22222; fill-opacity: 0.8; stroke: #b22222; stroke-opacity: 0.8"/>
     <use xlink:href="#m9b1298672d" x="203.259032" y="95.883121" style="fill: #b22222; fill-opacity: 0.8; stroke: #b22222; stroke-opacity: 0.8"/>
     <use xlink:href="#m9b1298672d" x="289.4724" y="220.120066" style="fill: #b22222; fill-opacity: 0.8; stroke: #b22222; stroke-opacity: 0.8"/>
     <use xlink:href="#m9b1298672d" x="77.629091" y="146.613481" style="fill: #b22222; fill-opacity: 0.8; stroke: #b22222; stroke-opacity: 0.8"/>
     <use xlink:href="#m9b1298672d" x="85.015285" y="182.382618" style="fill: #b22222; fill-opacity: 0.8; stroke: #b22222; stroke-opacity: 0.8"/>
     <use xlink:href="#m9b1298672d" x="84.109004" y="45.06153" style="fill: #b22222; fill-opacity: 0.8; stroke: #b22222; stroke-opacity: 0.8"/>
     <use xlink:href="#m9b1298672d" x="97.06883" y="151.602638" style="fill: #b22222; fill-opacity: 0.8; stroke: #b22222; stroke-opacity: 0.8"/>
     <use xlink:href="#m9b1298672d" x="269.911983" y="173.821026" style="fill: #b22222; fill-opacity: 0.8; stroke: #b22222; stroke-opacity: 0.8"/>
     <use xlink:href="#m9b1298672d" x="334.210909" y="221.469528" style="fill: #b22222; fill-opacity: 0.8; stroke: #b22222; stroke-opacity: 0.8"/>
     <use xlink:href="#m9b1298672d" x="203.259032" y="93.776276" style="fill: #b22222; fill-opacity: 0.8; stroke: #b22222; stroke-opacity: 0.8"/>
     <use xlink:href="#m9b1298672d" x="289.4724" y="221.471982" style="fill: #b22222; fill-opacity: 0.8; stroke: #b22222; stroke-opacity: 0.8"/>
     <use xlink:href="#m9b1298672d" x="77.629091" y="146.084163" style="fill: #b22222; fill-opacity: 0.8; stroke: #b22222; stroke-opacity: 0.8"/>
     <use xlink:href="#m9b1298672d" x="85.015285" y="183.645371" style="fill: #b22222; fill-opacity: 0.8; stroke: #b22222; stroke-opacity: 0.8"/>
     <use xlink:href="#m9b1298672d" x="84.109004" y="44.504572" style="fill: #b22222; fill-opacity: 0.8; stroke: #b22222; stroke-opacity: 0.8"/>
     <use xlink:href="#m9b1298672d" x="97.06883" y="146.289797" style="fill: #b22222; fill-opacity: 0.8; stroke: #b22222; stroke-opacity: 0.8"/>
     <use xlink:href="#m9b1298672d" x="269.911983" y="176.764721" style="fill: #b22222; fill-opacity: 0.8; stroke: #b22222; stroke-opacity: 0.8"/>
     <use xlink:href="#m9b1298672d" x="334.210909" y="220.630608" style="fill: #b22222; fill-opacity: 0.8; stroke: #b22222; stroke-opacity: 0.8"/>
     <use xlink:href="#m9b1298672d" x="203.259032" y="95.061163" style="fill: #b22222; fill-opacity: 0.8; stroke: #b22222; stroke-opacity: 0.8"/>
     <use xlink:href="#m9b1298672d" x="289.4724" y="221.427352" style="fill: #b22222; fill-opacity: 0.8; stroke: #b22222; stroke-opacity: 0.8"/>
     <use xlink:href="#m9b1298672d" x="77.629091" y="137.749047" style="fill: #b22222; fill-opacity: 0.8; stroke: #b22222; stroke-opacity: 0.8"/>
     <use xlink:href="#m9b1298672d" x="85.015285" y="180.883035" style="fill: #b22222; fill-opacity: 0.8; stroke: #b22222; stroke-opacity: 0.8"/>
     <use xlink:href="#m9b1298672d" x="84.109004" y="43.797273" style="fill: #b22222; fill-opacity: 0.8; stroke: #b22222; stroke-opacity: 0.8"/>
     <use xlink:href="#m9b1298672d" x="97.06883" y="150.458607" style="fill: #b22222; fill-opacity: 0.8; stroke: #b22222; stroke-opacity: 0.8"/>
    </g>
   </g>
   <g id="PolyCollection_1">
    <defs>
     <path id="md69f101a1c" d="M 77.629091 -203.014721 
L 77.629091 -142.697911 
L 80.220826 -142.193711 
L 82.812562 -141.71015 
L 85.404298 -141.169897 
L 87.996033 -140.619854 
L 90.587769 -140.012264 
L 93.179504 -139.355614 
L 95.77124 -138.698964 
L 98.362975 -138.042315 
L 100.954711 -137.386443 
L 103.546446 -136.732621 
L 106.138182 -136.079134 
L 108.729917 -135.425647 
L 111.321653 -134.772159 
L 113.913388 -134.118672 
L 116.505124 -133.465185 
L 119.09686 -132.811697 
L 121.688595 -132.15821 
L 124.280331 -131.504723 
L 126.872066 -130.851235 
L 129.463802 -130.199315 
L 132.055537 -129.52913 
L 134.647273 -128.778109 
L 137.239008 -128.096981 
L 139.830744 -127.56014 
L 142.422479 -126.943075 
L 145.014215 -126.318955 
L 147.60595 -125.620734 
L 150.197686 -124.893664 
L 152.789421 -124.166595 
L 155.381157 -123.440423 
L 157.972893 -122.716972 
L 160.564628 -121.993521 
L 163.156364 -121.270071 
L 165.748099 -120.569221 
L 168.339835 -119.916504 
L 170.93157 -119.10288 
L 173.523306 -118.484002 
L 176.115041 -117.865183 
L 178.706777 -117.246365 
L 181.298512 -116.415127 
L 183.890248 -115.623724 
L 186.481983 -114.863235 
L 189.073719 -114.241467 
L 191.665455 -113.387823 
L 194.25719 -112.569435 
L 196.848926 -111.984577 
L 199.440661 -111.446105 
L 202.032397 -110.82009 
L 204.624132 -109.995797 
L 207.215868 -109.141924 
L 209.807603 -108.303368 
L 212.399339 -107.696915 
L 214.991074 -106.914029 
L 217.58281 -106.132326 
L 220.174545 -105.421912 
L 222.766281 -104.814253 
L 225.358017 -103.899502 
L 227.949752 -103.043058 
L 230.541488 -102.227789 
L 233.133223 -101.370726 
L 235.724959 -100.652973 
L 238.316694 -99.872666 
L 240.90843 -99.17767 
L 243.500165 -98.292605 
L 246.091901 -97.407539 
L 248.683636 -96.550746 
L 251.275372 -95.696445 
L 253.867107 -94.838493 
L 256.458843 -93.988676 
L 259.050579 -93.284319 
L 261.642314 -92.279556 
L 264.23405 -91.416417 
L 266.825785 -90.566032 
L 269.417521 -89.783241 
L 272.009256 -88.93541 
L 274.600992 -88.004627 
L 277.192727 -87.183428 
L 279.784463 -86.291639 
L 282.376198 -85.282876 
L 284.967934 -84.247021 
L 287.559669 -83.102552 
L 290.151405 -81.847558 
L 292.74314 -80.860252 
L 295.334876 -80.107282 
L 297.926612 -79.144298 
L 300.518347 -78.282635 
L 303.110083 -77.295165 
L 305.701818 -76.246108 
L 308.293554 -75.171781 
L 310.885289 -74.063367 
L 313.477025 -73.067829 
L 316.06876 -71.982622 
L 318.660496 -70.975981 
L 321.252231 -69.895634 
L 323.843967 -68.865782 
L 326.435702 -67.873573 
L 329.027438 -66.630138 
L 331.619174 -65.461588 
L 334.210909 -64.257273 
L 334.210909 -106.79335 
L 334.210909 -106.79335 
L 331.619174 -107.426787 
L 329.027438 -108.060224 
L 326.435702 -108.693661 
L 323.843967 -109.325843 
L 321.252231 -109.999806 
L 318.660496 -110.717326 
L 316.06876 -111.282826 
L 313.477025 -111.863211 
L 310.885289 -112.499529 
L 308.293554 -113.148508 
L 305.701818 -113.86509 
L 303.110083 -114.408482 
L 300.518347 -115.0448 
L 297.926612 -115.717885 
L 295.334876 -116.498293 
L 292.74314 -117.1588 
L 290.151405 -117.869643 
L 287.559669 -118.471727 
L 284.967934 -119.144159 
L 282.376198 -119.864076 
L 279.784463 -120.583992 
L 277.192727 -121.302085 
L 274.600992 -122.013142 
L 272.009256 -122.659639 
L 269.417521 -123.271827 
L 266.825785 -124.078164 
L 264.23405 -124.870577 
L 261.642314 -125.589431 
L 259.050579 -126.350432 
L 256.458843 -126.879683 
L 253.867107 -127.344887 
L 251.275372 -127.806752 
L 248.683636 -128.33605 
L 246.091901 -129.418491 
L 243.500165 -130.596716 
L 240.90843 -131.301357 
L 238.316694 -131.653269 
L 235.724959 -132.751141 
L 233.133223 -133.464898 
L 230.541488 -134.146681 
L 227.949752 -134.738656 
L 225.358017 -135.616082 
L 222.766281 -136.844836 
L 220.174545 -137.562993 
L 217.58281 -138.340132 
L 214.991074 -139.831359 
L 212.399339 -140.902957 
L 209.807603 -141.73632 
L 207.215868 -142.657789 
L 204.624132 -143.869307 
L 202.032397 -144.877951 
L 199.440661 -145.831344 
L 196.848926 -146.835668 
L 194.25719 -147.48348 
L 191.665455 -148.682459 
L 189.073719 -150.120781 
L 186.481983 -151.326922 
L 183.890248 -152.550208 
L 181.298512 -153.873994 
L 178.706777 -154.910405 
L 176.115041 -155.722967 
L 173.523306 -156.971813 
L 170.93157 -157.916122 
L 168.339835 -158.903172 
L 165.748099 -159.765632 
L 163.156364 -161.027422 
L 160.564628 -162.295235 
L 157.972893 -163.414953 
L 155.381157 -164.517159 
L 152.789421 -165.610141 
L 150.197686 -166.711232 
L 147.60595 -168.009712 
L 145.014215 -169.345966 
L 142.422479 -170.682221 
L 139.830744 -172.018475 
L 137.239008 -173.354729 
L 134.647273 -174.690983 
L 132.055537 -176.027237 
L 129.463802 -177.363492 
L 126.872066 -178.684989 
L 124.280331 -180.004844 
L 121.688595 -181.324699 
L 119.09686 -182.643024 
L 116.505124 -183.92219 
L 113.913388 -185.195511 
L 111.321653 -186.468832 
L 108.729917 -187.742153 
L 106.138182 -189.015474 
L 103.546446 -190.288796 
L 100.954711 -191.560028 
L 98.362975 -192.805947 
L 95.77124 -194.072255 
L 93.179504 -195.371914 
L 90.587769 -196.646221 
L 87.996033 -197.920529 
L 85.404298 -199.194836 
L 82.812562 -200.469144 
L 80.220826 -201.743451 
L 77.629091 -203.014721 
z
" style="stroke: #ffffff; stroke-opacity: 0.15"/>
    </defs>
    <g clip-path="url(#p84f4b0cb8c)">
     <use xlink:href="#md69f101a1c" x="0" y="288" style="fill: #b22222; fill-opacity: 0.15; stroke: #ffffff; stroke-opacity: 0.15"/>
    </g>
   </g>
   <g id="line2d_16">
    <path d="M 77.629091 118.804766 
L 80.220826 119.697322 
L 82.812562 120.589879 
L 85.404298 121.482436 
L 87.996033 122.374992 
L 90.587769 123.267549 
L 93.179504 124.160106 
L 95.77124 125.052662 
L 98.362975 125.945219 
L 100.954711 126.837776 
L 103.546446 127.730332 
L 106.138182 128.622889 
L 108.729917 129.515445 
L 111.321653 130.408002 
L 113.913388 131.300559 
L 116.505124 132.193115 
L 119.09686 133.085672 
L 121.688595 133.978229 
L 124.280331 134.870785 
L 126.872066 135.763342 
L 129.463802 136.655899 
L 132.055537 137.548455 
L 134.647273 138.441012 
L 137.239008 139.333568 
L 139.830744 140.226125 
L 142.422479 141.118682 
L 145.014215 142.011238 
L 147.60595 142.903795 
L 150.197686 143.796352 
L 152.789421 144.688908 
L 155.381157 145.581465 
L 157.972893 146.474022 
L 160.564628 147.366578 
L 163.156364 148.259135 
L 165.748099 149.151691 
L 168.339835 150.044248 
L 170.93157 150.936805 
L 173.523306 151.829361 
L 176.115041 152.721918 
L 178.706777 153.614475 
L 181.298512 154.507031 
L 183.890248 155.399588 
L 186.481983 156.292145 
L 189.073719 157.184701 
L 191.665455 158.077258 
L 194.25719 158.969814 
L 196.848926 159.862371 
L 199.440661 160.754928 
L 202.032397 161.647484 
L 204.624132 162.540041 
L 207.215868 163.432598 
L 209.807603 164.325154 
L 212.399339 165.217711 
L 214.991074 166.110268 
L 217.58281 167.002824 
L 220.174545 167.895381 
L 222.766281 168.787937 
L 225.358017 169.680494 
L 227.949752 170.573051 
L 230.541488 171.465607 
L 233.133223 172.358164 
L 235.724959 173.250721 
L 238.316694 174.143277 
L 240.90843 175.035834 
L 243.500165 175.928391 
L 246.091901 176.820947 
L 248.683636 177.713504 
L 251.275372 178.60606 
L 253.867107 179.498617 
L 256.458843 180.391174 
L 259.050579 181.28373 
L 261.642314 182.176287 
L 264.23405 183.068844 
L 266.825785 183.9614 
L 269.417521 184.853957 
L 272.009256 185.746513 
L 274.600992 186.63907 
L 277.192727 187.531627 
L 279.784463 188.424183 
L 282.376198 189.31674 
L 284.967934 190.209297 
L 287.559669 191.101853 
L 290.151405 191.99441 
L 292.74314 192.886967 
L 295.334876 193.779523 
L 297.926612 194.67208 
L 300.518347 195.564636 
L 303.110083 196.457193 
L 305.701818 197.34975 
L 308.293554 198.242306 
L 310.885289 199.134863 
L 313.477025 200.02742 
L 316.06876 200.919976 
L 318.660496 201.812533 
L 321.252231 202.70509 
L 323.843967 203.597646 
L 326.435702 204.490203 
L 329.027438 205.382759 
L 331.619174 206.275316 
L 334.210909 207.167873 
" clip-path="url(#p84f4b0cb8c)" style="fill: none; stroke: #b22222; stroke-width: 2.25; stroke-linecap: round"/>
   </g>
   <g id="patch_3">
    <path d="M 64.8 232.74 
L 64.8 34.8 
" style="fill: none; stroke: #cccccc; stroke-width: 1.25; stroke-linejoin: miter; stroke-linecap: square"/>
   </g>
   <g id="patch_4">
    <path d="M 347.04 232.74 
L 347.04 34.8 
" style="fill: none; stroke: #cccccc; stroke-width: 1.25; stroke-linejoin: miter; stroke-linecap: square"/>
   </g>
   <g id="patch_5">
    <path d="M 64.8 232.74 
L 347.04 232.74 
" style="fill: none; stroke: #cccccc; stroke-width: 1.25; stroke-linejoin: miter; stroke-linecap: square"/>
   </g>
   <g id="patch_6">
    <path d="M 64.8 34.8 
L 347.04 34.8 
" style="fill: none; stroke: #cccccc; stroke-width: 1.25; stroke-linejoin: miter; stroke-linecap: square"/>
   </g>
   <g id="text_18">
    <!-- FID -->
    <g style="fill: #262626" transform="translate(189.518437 28.8) scale(0.2 -0.2)">
     <defs>
      <path id="DejaVuSans-46" d="M 628 4666 
L 3309 4666 
L 3309 4134 
L 1259 4134 
L 1259 2759 
L 3109 2759 
L 3109 2228 
L 1259 2228 
L 1259 0 
L 628 0 
L 628 4666 
z
" transform="scale(0.015625)"/>
      <path id="DejaVuSans-49" d="M 628 4666 
L 1259 4666 
L 1259 0 
L 628 0 
L 628 4666 
z
" transform="scale(0.015625)"/>
      <path id="DejaVuSans-44" d="M 1259 4147 
L 1259 519 
L 2022 519 
Q 2988 519 3436 956 
Q 3884 1394 3884 2338 
Q 3884 3275 3436 3711 
Q 2988 4147 2022 4147 
L 1259 4147 
z
M 628 4666 
L 1925 4666 
Q 3281 4666 3915 4102 
Q 4550 3538 4550 2338 
Q 4550 1131 3912 565 
Q 3275 0 1925 0 
L 628 0 
L 628 4666 
z
" transform="scale(0.015625)"/>
     </defs>
     <use xlink:href="#DejaVuSans-46"/>
     <use xlink:href="#DejaVuSans-49" x="57.519531"/>
     <use xlink:href="#DejaVuSans-44" x="87.011719"/>
    </g>
   </g>
  </g>
 </g>
 <defs>
  <clipPath id="p84f4b0cb8c">
   <rect x="64.8" y="34.8" width="282.24" height="197.94"/>
  </clipPath>
 </defs>
</svg>
