<?xml version="1.0" encoding="utf-8" standalone="no"?>
<!DOCTYPE svg PUBLIC "-//W3C//DTD SVG 1.1//EN"
  "http://www.w3.org/Graphics/SVG/1.1/DTD/svg11.dtd">
<svg xmlns:xlink="http://www.w3.org/1999/xlink" width="403.2pt" height="288pt" viewBox="0 0 403.2 288" xmlns="http://www.w3.org/2000/svg" version="1.1">
 <metadata>
  <rdf:RDF xmlns:dc="http://purl.org/dc/elements/1.1/" xmlns:cc="http://creativecommons.org/ns#" xmlns:rdf="http://www.w3.org/1999/02/22-rdf-syntax-ns#">
   <cc:Work>
    <dc:type rdf:resource="http://purl.org/dc/dcmitype/StillImage"/>
    <dc:date>2024-07-07T13:39:11.613132</dc:date>
    <dc:format>image/svg+xml</dc:format>
    <dc:creator>
     <cc:Agent>
      <dc:title>Matplotlib v3.8.2, https://matplotlib.org/</dc:title>
     </cc:Agent>
    </dc:creator>
   </cc:Work>
  </rdf:RDF>
 </metadata>
 <defs>
  <style type="text/css">*{stroke-linejoin: round; stroke-linecap: butt}</style>
 </defs>
 <g id="figure_1">
  <g id="patch_1">
   <path d="M 0 288 
L 403.2 288 
L 403.2 0 
L 0 0 
z
" style="fill: #ffffff"/>
  </g>
  <g id="axes_1">
   <g id="patch_2">
    <path d="M 69.59 237.4 
L 392.4 237.4 
L 392.4 32.64 
L 69.59 32.64 
z
" style="fill: #ffffff"/>
   </g>
   <g id="PathCollection_1">
    <defs>
     <path id="mcd6140b21c" d="M 0 7.071068 
C 1.875269 7.071068 3.673985 6.326016 5 5 
C 6.326016 3.673985 7.071068 1.875269 7.071068 0 
C 7.071068 -1.875269 6.326016 -3.673985 5 -5 
C 3.673985 -6.326016 1.875269 -7.071068 0 -7.071068 
C -1.875269 -7.071068 -3.673985 -6.326016 -5 -5 
C -6.326016 -3.673985 -7.071068 -1.875269 -7.071068 0 
C -7.071068 1.875269 -6.326016 3.673985 -5 5 
C -3.673985 6.326016 -1.875269 7.071068 0 7.071068 
z
" style="stroke: #0173b2; stroke-opacity: 0.8"/>
    </defs>
    <g clip-path="url(#p2171735556)">
     <use xlink:href="#mcd6140b21c" x="304.185377" y="195.558876" style="fill: #0173b2; fill-opacity: 0.8; stroke: #0173b2; stroke-opacity: 0.8"/>
     <use xlink:href="#mcd6140b21c" x="377.726818" y="225.18576" style="fill: #0173b2; fill-opacity: 0.8; stroke: #0173b2; stroke-opacity: 0.8"/>
     <use xlink:href="#mcd6140b21c" x="227.951537" y="137.481484" style="fill: #0173b2; fill-opacity: 0.8; stroke: #0173b2; stroke-opacity: 0.8"/>
     <use xlink:href="#mcd6140b21c" x="326.557466" y="225.03108" style="fill: #0173b2; fill-opacity: 0.8; stroke: #0173b2; stroke-opacity: 0.8"/>
     <use xlink:href="#mcd6140b21c" x="84.263182" y="173.231095" style="fill: #0173b2; fill-opacity: 0.8; stroke: #0173b2; stroke-opacity: 0.8"/>
     <use xlink:href="#mcd6140b21c" x="92.711089" y="198.437554" style="fill: #0173b2; fill-opacity: 0.8; stroke: #0173b2; stroke-opacity: 0.8"/>
     <use xlink:href="#mcd6140b21c" x="91.674536" y="101.667581" style="fill: #0173b2; fill-opacity: 0.8; stroke: #0173b2; stroke-opacity: 0.8"/>
     <use xlink:href="#mcd6140b21c" x="106.497246" y="176.746947" style="fill: #0173b2; fill-opacity: 0.8; stroke: #0173b2; stroke-opacity: 0.8"/>
     <use xlink:href="#mcd6140b21c" x="304.185377" y="192.404213" style="fill: #0173b2; fill-opacity: 0.8; stroke: #0173b2; stroke-opacity: 0.8"/>
     <use xlink:href="#mcd6140b21c" x="377.726818" y="225.982044" style="fill: #0173b2; fill-opacity: 0.8; stroke: #0173b2; stroke-opacity: 0.8"/>
     <use xlink:href="#mcd6140b21c" x="227.951537" y="135.996792" style="fill: #0173b2; fill-opacity: 0.8; stroke: #0173b2; stroke-opacity: 0.8"/>
     <use xlink:href="#mcd6140b21c" x="326.557466" y="225.983773" style="fill: #0173b2; fill-opacity: 0.8; stroke: #0173b2; stroke-opacity: 0.8"/>
     <use xlink:href="#mcd6140b21c" x="84.263182" y="172.858085" style="fill: #0173b2; fill-opacity: 0.8; stroke: #0173b2; stroke-opacity: 0.8"/>
     <use xlink:href="#mcd6140b21c" x="92.711089" y="199.327415" style="fill: #0173b2; fill-opacity: 0.8; stroke: #0173b2; stroke-opacity: 0.8"/>
     <use xlink:href="#mcd6140b21c" x="91.674536" y="101.275093" style="fill: #0173b2; fill-opacity: 0.8; stroke: #0173b2; stroke-opacity: 0.8"/>
     <use xlink:href="#mcd6140b21c" x="106.497246" y="173.002995" style="fill: #0173b2; fill-opacity: 0.8; stroke: #0173b2; stroke-opacity: 0.8"/>
     <use xlink:href="#mcd6140b21c" x="304.185377" y="194.478631" style="fill: #0173b2; fill-opacity: 0.8; stroke: #0173b2; stroke-opacity: 0.8"/>
     <use xlink:href="#mcd6140b21c" x="377.726818" y="225.390858" style="fill: #0173b2; fill-opacity: 0.8; stroke: #0173b2; stroke-opacity: 0.8"/>
     <use xlink:href="#mcd6140b21c" x="227.951537" y="136.902251" style="fill: #0173b2; fill-opacity: 0.8; stroke: #0173b2; stroke-opacity: 0.8"/>
     <use xlink:href="#mcd6140b21c" x="326.557466" y="225.952322" style="fill: #0173b2; fill-opacity: 0.8; stroke: #0173b2; stroke-opacity: 0.8"/>
     <use xlink:href="#mcd6140b21c" x="84.263182" y="166.984341" style="fill: #0173b2; fill-opacity: 0.8; stroke: #0173b2; stroke-opacity: 0.8"/>
     <use xlink:href="#mcd6140b21c" x="92.711089" y="197.3808" style="fill: #0173b2; fill-opacity: 0.8; stroke: #0173b2; stroke-opacity: 0.8"/>
     <use xlink:href="#mcd6140b21c" x="91.674536" y="100.776661" style="fill: #0173b2; fill-opacity: 0.8; stroke: #0173b2; stroke-opacity: 0.8"/>
     <use xlink:href="#mcd6140b21c" x="106.497246" y="175.94075" style="fill: #0173b2; fill-opacity: 0.8; stroke: #0173b2; stroke-opacity: 0.8"/>
    </g>
   </g>
   <g id="PolyCollection_1">
    <path d="M 84.263182 130.757697 
L 84.263182 173.268356 
L 87.227461 173.727387 
L 90.19174 174.092118 
L 93.156019 174.574861 
L 96.120298 175.027338 
L 99.084578 175.462168 
L 102.048857 175.89473 
L 105.013136 176.327292 
L 107.977415 176.754928 
L 110.941694 177.153788 
L 113.905973 177.552649 
L 116.870253 177.951509 
L 119.834532 178.387811 
L 122.798811 178.876652 
L 125.76309 179.360798 
L 128.727369 179.794276 
L 131.691648 180.222805 
L 134.655927 180.645512 
L 137.620207 181.068219 
L 140.584486 181.5288 
L 143.548765 181.965108 
L 146.513044 182.401415 
L 149.477323 182.836998 
L 152.441602 183.294207 
L 155.405882 183.755734 
L 158.370161 184.223867 
L 161.33444 184.688697 
L 164.298719 185.152932 
L 167.262998 185.527202 
L 170.227277 185.988245 
L 173.191556 186.301086 
L 176.155836 186.776257 
L 179.120115 187.276949 
L 182.084394 187.771762 
L 185.048673 188.202062 
L 188.012952 188.685992 
L 190.977231 189.20502 
L 193.941511 189.714114 
L 196.90579 190.176546 
L 199.870069 190.741972 
L 202.834348 191.203996 
L 205.798627 191.600706 
L 208.762906 192.110855 
L 211.727185 192.606354 
L 214.691465 193.181004 
L 217.655744 193.701777 
L 220.620023 194.109205 
L 223.584302 194.674781 
L 226.548581 195.243018 
L 229.51286 195.809977 
L 232.47714 196.350554 
L 235.441419 196.854203 
L 238.405698 197.254689 
L 241.369977 197.649756 
L 244.334256 198.161109 
L 247.298535 198.831256 
L 250.262815 199.252526 
L 253.227094 199.800201 
L 256.191373 200.350135 
L 259.155652 200.91785 
L 262.119931 201.394668 
L 265.08421 201.901191 
L 268.048489 202.403118 
L 271.012769 202.904752 
L 273.977048 203.537433 
L 276.941327 204.199709 
L 279.905606 204.695417 
L 282.869885 205.343384 
L 285.834164 205.993911 
L 288.798444 206.483745 
L 291.762723 207.188943 
L 294.727002 207.944272 
L 297.691281 208.676106 
L 300.65556 209.296151 
L 303.619839 209.914947 
L 306.584118 210.499431 
L 309.548398 211.121493 
L 312.512677 211.76396 
L 315.476956 212.423034 
L 318.441235 213.166324 
L 321.405514 213.971151 
L 324.369793 214.747024 
L 327.334073 215.466857 
L 330.298352 216.194597 
L 333.262631 216.935261 
L 336.22691 217.51967 
L 339.191189 218.233461 
L 342.155468 218.861469 
L 345.119747 219.567474 
L 348.084027 220.398994 
L 351.048306 221.031092 
L 354.012585 221.866025 
L 356.976864 222.573317 
L 359.941143 223.276279 
L 362.905422 224.076184 
L 365.869702 224.964059 
L 368.833981 225.752394 
L 371.79826 226.362475 
L 374.762539 227.192622 
L 377.726818 228.092727 
L 377.726818 196.782263 
L 377.726818 196.782263 
L 374.762539 196.288089 
L 371.79826 195.870306 
L 368.833981 195.568292 
L 365.869702 195.266278 
L 362.905422 194.964264 
L 359.941143 194.665998 
L 356.976864 194.36265 
L 354.012585 193.860356 
L 351.048306 193.319963 
L 348.084027 192.779569 
L 345.119747 192.444391 
L 342.155468 192.150591 
L 339.191189 191.874336 
L 336.22691 191.530404 
L 333.262631 191.152009 
L 330.298352 190.751921 
L 327.334073 190.4013 
L 324.369793 190.112145 
L 321.405514 189.82299 
L 318.441235 189.310436 
L 315.476956 188.737275 
L 312.512677 188.118274 
L 309.548398 187.486435 
L 306.584118 186.854596 
L 303.619839 186.222757 
L 300.65556 185.590918 
L 297.691281 184.959079 
L 294.727002 184.498786 
L 291.762723 184.177838 
L 288.798444 183.85689 
L 285.834164 183.374407 
L 282.869885 182.649494 
L 279.905606 181.927919 
L 276.941327 181.214828 
L 273.977048 180.689285 
L 271.012769 180.299084 
L 268.048489 179.683101 
L 265.08421 179.194316 
L 262.119931 178.904226 
L 259.155652 178.13168 
L 256.191373 177.778806 
L 253.227094 177.12287 
L 250.262815 176.378043 
L 247.298535 175.55561 
L 244.334256 175.127856 
L 241.369977 174.467904 
L 238.405698 173.803865 
L 235.441419 173.071769 
L 232.47714 172.535706 
L 229.51286 171.968767 
L 226.548581 171.148125 
L 223.584302 170.61479 
L 220.620023 169.958134 
L 217.655744 169.127619 
L 214.691465 168.333349 
L 211.727185 167.809036 
L 208.762906 167.09479 
L 205.798627 166.366279 
L 202.834348 165.789269 
L 199.870069 164.932789 
L 196.90579 164.316321 
L 193.941511 163.423011 
L 190.977231 162.525318 
L 188.012952 161.708699 
L 185.048673 161.093714 
L 182.084394 160.240697 
L 179.120115 159.348099 
L 176.155836 158.406798 
L 173.191556 157.567994 
L 170.227277 156.678151 
L 167.262998 155.90388 
L 164.298719 154.994642 
L 161.33444 154.085403 
L 158.370161 153.176164 
L 155.405882 152.266925 
L 152.441602 151.357687 
L 149.477323 150.45497 
L 146.513044 149.61833 
L 143.548765 148.789871 
L 140.584486 147.873968 
L 137.620207 147.022287 
L 134.655927 146.12694 
L 131.691648 145.194896 
L 128.727369 144.262852 
L 125.76309 143.32981 
L 122.798811 142.395506 
L 119.834532 141.461541 
L 116.870253 140.528997 
L 113.905973 139.596452 
L 110.941694 138.663907 
L 107.977415 137.731363 
L 105.013136 136.802096 
L 102.048857 135.891772 
L 99.084578 134.981447 
L 96.120298 134.072884 
L 93.156019 133.241811 
L 90.19174 132.413773 
L 87.227461 131.585735 
L 84.263182 130.757697 
z
" clip-path="url(#p2171735556)" style="fill: #0173b2; fill-opacity: 0.15"/>
   </g>
   <g id="PathCollection_2">
    <defs>
     <path id="m1692825d8c" d="M 0 7.071068 
C 1.875269 7.071068 3.673985 6.326016 5 5 
C 6.326016 3.673985 7.071068 1.875269 7.071068 0 
C 7.071068 -1.875269 6.326016 -3.673985 5 -5 
C 3.673985 -6.326016 1.875269 -7.071068 0 -7.071068 
C -1.875269 -7.071068 -3.673985 -6.326016 -5 -5 
C -6.326016 -3.673985 -7.071068 -1.875269 -7.071068 0 
C -7.071068 1.875269 -6.326016 3.673985 -5 5 
C -3.673985 6.326016 -1.875269 7.071068 0 7.071068 
z
" style="stroke: #de8f05; stroke-opacity: 0.8"/>
    </defs>
    <g clip-path="url(#p2171735556)">
     <use xlink:href="#m1692825d8c" x="304.185377" y="90.310984" style="fill: #de8f05; fill-opacity: 0.8; stroke: #de8f05; stroke-opacity: 0.8"/>
     <use xlink:href="#m1692825d8c" x="377.726818" y="43.842529" style="fill: #de8f05; fill-opacity: 0.8; stroke: #de8f05; stroke-opacity: 0.8"/>
     <use xlink:href="#m1692825d8c" x="227.951537" y="53.848406" style="fill: #de8f05; fill-opacity: 0.8; stroke: #de8f05; stroke-opacity: 0.8"/>
     <use xlink:href="#m1692825d8c" x="326.557466" y="89.585383" style="fill: #de8f05; fill-opacity: 0.8; stroke: #de8f05; stroke-opacity: 0.8"/>
     <use xlink:href="#m1692825d8c" x="84.263182" y="92.987572" style="fill: #de8f05; fill-opacity: 0.8; stroke: #de8f05; stroke-opacity: 0.8"/>
     <use xlink:href="#m1692825d8c" x="92.711089" y="84.089257" style="fill: #de8f05; fill-opacity: 0.8; stroke: #de8f05; stroke-opacity: 0.8"/>
     <use xlink:href="#m1692825d8c" x="91.674536" y="90.028943" style="fill: #de8f05; fill-opacity: 0.8; stroke: #de8f05; stroke-opacity: 0.8"/>
     <use xlink:href="#m1692825d8c" x="106.497246" y="52.2829" style="fill: #de8f05; fill-opacity: 0.8; stroke: #de8f05; stroke-opacity: 0.8"/>
     <use xlink:href="#m1692825d8c" x="304.185377" y="91.480958" style="fill: #de8f05; fill-opacity: 0.8; stroke: #de8f05; stroke-opacity: 0.8"/>
     <use xlink:href="#m1692825d8c" x="377.726818" y="43.413194" style="fill: #de8f05; fill-opacity: 0.8; stroke: #de8f05; stroke-opacity: 0.8"/>
     <use xlink:href="#m1692825d8c" x="227.951537" y="53.854369" style="fill: #de8f05; fill-opacity: 0.8; stroke: #de8f05; stroke-opacity: 0.8"/>
     <use xlink:href="#m1692825d8c" x="326.557466" y="89.097664" style="fill: #de8f05; fill-opacity: 0.8; stroke: #de8f05; stroke-opacity: 0.8"/>
     <use xlink:href="#m1692825d8c" x="84.263182" y="91.89407" style="fill: #de8f05; fill-opacity: 0.8; stroke: #de8f05; stroke-opacity: 0.8"/>
     <use xlink:href="#m1692825d8c" x="92.711089" y="84.230118" style="fill: #de8f05; fill-opacity: 0.8; stroke: #de8f05; stroke-opacity: 0.8"/>
     <use xlink:href="#m1692825d8c" x="91.674536" y="90.917482" style="fill: #de8f05; fill-opacity: 0.8; stroke: #de8f05; stroke-opacity: 0.8"/>
     <use xlink:href="#m1692825d8c" x="106.497246" y="51.99027" style="fill: #de8f05; fill-opacity: 0.8; stroke: #de8f05; stroke-opacity: 0.8"/>
     <use xlink:href="#m1692825d8c" x="304.185377" y="91.138381" style="fill: #de8f05; fill-opacity: 0.8; stroke: #de8f05; stroke-opacity: 0.8"/>
     <use xlink:href="#m1692825d8c" x="377.726818" y="41.947273" style="fill: #de8f05; fill-opacity: 0.8; stroke: #de8f05; stroke-opacity: 0.8"/>
     <use xlink:href="#m1692825d8c" x="227.951537" y="55.58264" style="fill: #de8f05; fill-opacity: 0.8; stroke: #de8f05; stroke-opacity: 0.8"/>
     <use xlink:href="#m1692825d8c" x="326.557466" y="87.966051" style="fill: #de8f05; fill-opacity: 0.8; stroke: #de8f05; stroke-opacity: 0.8"/>
     <use xlink:href="#m1692825d8c" x="84.263182" y="94.012966" style="fill: #de8f05; fill-opacity: 0.8; stroke: #de8f05; stroke-opacity: 0.8"/>
     <use xlink:href="#m1692825d8c" x="92.711089" y="83.26139" style="fill: #de8f05; fill-opacity: 0.8; stroke: #de8f05; stroke-opacity: 0.8"/>
     <use xlink:href="#m1692825d8c" x="91.674536" y="92.804879" style="fill: #de8f05; fill-opacity: 0.8; stroke: #de8f05; stroke-opacity: 0.8"/>
     <use xlink:href="#m1692825d8c" x="106.497246" y="53.36932" style="fill: #de8f05; fill-opacity: 0.8; stroke: #de8f05; stroke-opacity: 0.8"/>
    </g>
   </g>
   <g id="PolyCollection_2">
    <path d="M 84.263182 71.195754 
L 84.263182 89.40368 
L 87.227461 89.171873 
L 90.19174 88.939107 
L 93.156019 88.705443 
L 96.120298 88.417095 
L 99.084578 88.122629 
L 102.048857 87.899733 
L 105.013136 87.66593 
L 107.977415 87.425993 
L 110.941694 87.184925 
L 113.905973 86.911543 
L 116.870253 86.642844 
L 119.834532 86.401991 
L 122.798811 86.133459 
L 125.76309 85.959299 
L 128.727369 85.900431 
L 131.691648 85.676797 
L 134.655927 85.445045 
L 137.620207 85.212276 
L 140.584486 85.043416 
L 143.548765 84.925532 
L 146.513044 84.74833 
L 149.477323 84.52498 
L 152.441602 84.339186 
L 155.405882 84.180466 
L 158.370161 83.962642 
L 161.33444 83.86445 
L 164.298719 83.708575 
L 167.262998 83.556941 
L 170.227277 83.44552 
L 173.191556 83.349916 
L 176.155836 83.253544 
L 179.120115 82.965268 
L 182.084394 82.814351 
L 185.048673 82.746288 
L 188.012952 82.647622 
L 190.977231 82.566725 
L 193.941511 82.485477 
L 196.90579 82.369192 
L 199.870069 82.315251 
L 202.834348 82.230526 
L 205.798627 82.175633 
L 208.762906 82.197073 
L 211.727185 82.141668 
L 214.691465 82.031795 
L 217.655744 81.98182 
L 220.620023 81.95738 
L 223.584302 81.917595 
L 226.548581 81.892424 
L 229.51286 81.859876 
L 232.47714 81.809428 
L 235.441419 81.77183 
L 238.405698 81.70006 
L 241.369977 81.698647 
L 244.334256 81.663466 
L 247.298535 81.698695 
L 250.262815 81.792266 
L 253.227094 81.885838 
L 256.191373 81.928729 
L 259.155652 81.96656 
L 262.119931 82.004391 
L 265.08421 82.042222 
L 268.048489 82.080053 
L 271.012769 82.098942 
L 273.977048 82.100551 
L 276.941327 82.001284 
L 279.905606 81.902017 
L 282.869885 81.837851 
L 285.834164 82.013388 
L 288.798444 82.154465 
L 291.762723 82.16361 
L 294.727002 82.172512 
L 297.691281 82.181413 
L 300.65556 82.190314 
L 303.619839 82.193974 
L 306.584118 82.193077 
L 309.548398 82.19209 
L 312.512677 82.190613 
L 315.476956 82.186096 
L 318.441235 82.172371 
L 321.405514 82.158646 
L 324.369793 82.144922 
L 327.334073 82.130843 
L 330.298352 82.117195 
L 333.262631 82.157234 
L 336.22691 82.171142 
L 339.191189 82.181503 
L 342.155468 82.181479 
L 345.119747 82.22382 
L 348.084027 82.216265 
L 351.048306 82.207413 
L 354.012585 82.242009 
L 356.976864 82.326761 
L 359.941143 82.375558 
L 362.905422 82.428603 
L 365.869702 82.460193 
L 368.833981 82.441618 
L 371.79826 82.422745 
L 374.762539 82.422025 
L 377.726818 82.472173 
L 377.726818 50.612031 
L 377.726818 50.612031 
L 374.762539 50.941232 
L 371.79826 51.199288 
L 368.833981 51.523202 
L 365.869702 51.847569 
L 362.905422 52.171936 
L 359.941143 52.496303 
L 356.976864 52.813905 
L 354.012585 53.118279 
L 351.048306 53.401468 
L 348.084027 53.650428 
L 345.119747 53.920763 
L 342.155468 54.189909 
L 339.191189 54.434252 
L 336.22691 54.678594 
L 333.262631 54.923385 
L 330.298352 55.190129 
L 327.334073 55.458472 
L 324.369793 55.753313 
L 321.405514 56.001447 
L 318.441235 56.30337 
L 315.476956 56.606029 
L 312.512677 56.892662 
L 309.548398 57.206518 
L 306.584118 57.518664 
L 303.619839 57.812485 
L 300.65556 58.073601 
L 297.691281 58.336004 
L 294.727002 58.646538 
L 291.762723 58.858454 
L 288.798444 59.206556 
L 285.834164 59.436048 
L 282.869885 59.796988 
L 279.905606 60.158061 
L 276.941327 60.482634 
L 273.977048 60.778599 
L 271.012769 61.05139 
L 268.048489 61.305462 
L 265.08421 61.563176 
L 262.119931 61.832802 
L 259.155652 62.065744 
L 256.191373 62.316204 
L 253.227094 62.599123 
L 250.262815 62.919936 
L 247.298535 63.24075 
L 244.334256 63.469712 
L 241.369977 63.735334 
L 238.405698 64.060655 
L 235.441419 64.343612 
L 232.47714 64.461718 
L 229.51286 64.58859 
L 226.548581 64.841083 
L 223.584302 65.093577 
L 220.620023 65.281943 
L 217.655744 65.528596 
L 214.691465 65.773706 
L 211.727185 66.021462 
L 208.762906 66.269218 
L 205.798627 66.457886 
L 202.834348 66.684161 
L 199.870069 66.927686 
L 196.90579 67.173414 
L 193.941511 67.309488 
L 190.977231 67.418183 
L 188.012952 67.548455 
L 185.048673 67.694548 
L 182.084394 67.806077 
L 179.120115 67.99888 
L 176.155836 68.150094 
L 173.191556 68.304684 
L 170.227277 68.496975 
L 167.262998 68.742517 
L 164.298719 68.895575 
L 161.33444 69.117437 
L 158.370161 69.351668 
L 155.405882 69.523411 
L 152.441602 69.618516 
L 149.477323 69.749166 
L 146.513044 69.850326 
L 143.548765 69.936768 
L 140.584486 70.025483 
L 137.620207 70.139584 
L 134.655927 70.261279 
L 131.691648 70.39538 
L 128.727369 70.575156 
L 125.76309 70.737383 
L 122.798811 70.756753 
L 119.834532 70.776123 
L 116.870253 70.79481 
L 113.905973 70.812987 
L 110.941694 70.904483 
L 107.977415 70.98335 
L 105.013136 70.939026 
L 102.048857 70.931679 
L 99.084578 70.924332 
L 96.120298 70.968905 
L 93.156019 71.084992 
L 90.19174 71.054324 
L 87.227461 71.091683 
L 84.263182 71.195754 
z
" clip-path="url(#p2171735556)" style="fill: #de8f05; fill-opacity: 0.15"/>
   </g>
   <g id="matplotlib.axis_1">
    <g id="xtick_1">
     <g id="line2d_1">
      <path d="M 85.745453 237.4 
L 85.745453 32.64 
" clip-path="url(#p2171735556)" style="fill: none; stroke-dasharray: 2.96,1.28; stroke-dashoffset: 0; stroke: #b0b0b0; stroke-opacity: 0.7; stroke-width: 0.8"/>
     </g>
     <g id="line2d_2">
      <defs>
       <path id="m47b5abbbb6" d="M 0 0 
L 0 3.5 
" style="stroke: #000000; stroke-width: 0.8"/>
      </defs>
      <g>
       <use xlink:href="#m47b5abbbb6" x="85.745453" y="237.4" style="stroke: #000000; stroke-width: 0.8"/>
      </g>
     </g>
     <g id="text_1">
      <!-- 0.2 -->
      <g transform="translate(73.818109 255.797656) scale(0.15 -0.15)">
       <defs>
        <path id="DejaVuSans-30" d="M 2034 4250 
Q 1547 4250 1301 3770 
Q 1056 3291 1056 2328 
Q 1056 1369 1301 889 
Q 1547 409 2034 409 
Q 2525 409 2770 889 
Q 3016 1369 3016 2328 
Q 3016 3291 2770 3770 
Q 2525 4250 2034 4250 
z
M 2034 4750 
Q 2819 4750 3233 4129 
Q 3647 3509 3647 2328 
Q 3647 1150 3233 529 
Q 2819 -91 2034 -91 
Q 1250 -91 836 529 
Q 422 1150 422 2328 
Q 422 3509 836 4129 
Q 1250 4750 2034 4750 
z
" transform="scale(0.015625)"/>
        <path id="DejaVuSans-2e" d="M 684 794 
L 1344 794 
L 1344 0 
L 684 0 
L 684 794 
z
" transform="scale(0.015625)"/>
        <path id="DejaVuSans-32" d="M 1228 531 
L 3431 531 
L 3431 0 
L 469 0 
L 469 531 
Q 828 903 1448 1529 
Q 2069 2156 2228 2338 
Q 2531 2678 2651 2914 
Q 2772 3150 2772 3378 
Q 2772 3750 2511 3984 
Q 2250 4219 1831 4219 
Q 1534 4219 1204 4116 
Q 875 4013 500 3803 
L 500 4441 
Q 881 4594 1212 4672 
Q 1544 4750 1819 4750 
Q 2544 4750 2975 4387 
Q 3406 4025 3406 3419 
Q 3406 3131 3298 2873 
Q 3191 2616 2906 2266 
Q 2828 2175 2409 1742 
Q 1991 1309 1228 531 
z
" transform="scale(0.015625)"/>
       </defs>
       <use xlink:href="#DejaVuSans-30"/>
       <use xlink:href="#DejaVuSans-2e" x="63.623047"/>
       <use xlink:href="#DejaVuSans-32" x="95.410156"/>
      </g>
     </g>
    </g>
    <g id="xtick_2">
     <g id="line2d_3">
      <path d="M 127.249038 237.4 
L 127.249038 32.64 
" clip-path="url(#p2171735556)" style="fill: none; stroke-dasharray: 2.96,1.28; stroke-dashoffset: 0; stroke: #b0b0b0; stroke-opacity: 0.7; stroke-width: 0.8"/>
     </g>
     <g id="line2d_4">
      <g>
       <use xlink:href="#m47b5abbbb6" x="127.249038" y="237.4" style="stroke: #000000; stroke-width: 0.8"/>
      </g>
     </g>
     <g id="text_2">
      <!-- 0.3 -->
      <g transform="translate(115.321695 255.797656) scale(0.15 -0.15)">
       <defs>
        <path id="DejaVuSans-33" d="M 2597 2516 
Q 3050 2419 3304 2112 
Q 3559 1806 3559 1356 
Q 3559 666 3084 287 
Q 2609 -91 1734 -91 
Q 1441 -91 1130 -33 
Q 819 25 488 141 
L 488 750 
Q 750 597 1062 519 
Q 1375 441 1716 441 
Q 2309 441 2620 675 
Q 2931 909 2931 1356 
Q 2931 1769 2642 2001 
Q 2353 2234 1838 2234 
L 1294 2234 
L 1294 2753 
L 1863 2753 
Q 2328 2753 2575 2939 
Q 2822 3125 2822 3475 
Q 2822 3834 2567 4026 
Q 2313 4219 1838 4219 
Q 1578 4219 1281 4162 
Q 984 4106 628 3988 
L 628 4550 
Q 988 4650 1302 4700 
Q 1616 4750 1894 4750 
Q 2613 4750 3031 4423 
Q 3450 4097 3450 3541 
Q 3450 3153 3228 2886 
Q 3006 2619 2597 2516 
z
" transform="scale(0.015625)"/>
       </defs>
       <use xlink:href="#DejaVuSans-30"/>
       <use xlink:href="#DejaVuSans-2e" x="63.623047"/>
       <use xlink:href="#DejaVuSans-33" x="95.410156"/>
      </g>
     </g>
    </g>
    <g id="xtick_3">
     <g id="line2d_5">
      <path d="M 168.752624 237.4 
L 168.752624 32.64 
" clip-path="url(#p2171735556)" style="fill: none; stroke-dasharray: 2.96,1.28; stroke-dashoffset: 0; stroke: #b0b0b0; stroke-opacity: 0.7; stroke-width: 0.8"/>
     </g>
     <g id="line2d_6">
      <g>
       <use xlink:href="#m47b5abbbb6" x="168.752624" y="237.4" style="stroke: #000000; stroke-width: 0.8"/>
      </g>
     </g>
     <g id="text_3">
      <!-- 0.4 -->
      <g transform="translate(156.82528 255.797656) scale(0.15 -0.15)">
       <defs>
        <path id="DejaVuSans-34" d="M 2419 4116 
L 825 1625 
L 2419 1625 
L 2419 4116 
z
M 2253 4666 
L 3047 4666 
L 3047 1625 
L 3713 1625 
L 3713 1100 
L 3047 1100 
L 3047 0 
L 2419 0 
L 2419 1100 
L 313 1100 
L 313 1709 
L 2253 4666 
z
" transform="scale(0.015625)"/>
       </defs>
       <use xlink:href="#DejaVuSans-30"/>
       <use xlink:href="#DejaVuSans-2e" x="63.623047"/>
       <use xlink:href="#DejaVuSans-34" x="95.410156"/>
      </g>
     </g>
    </g>
    <g id="xtick_4">
     <g id="line2d_7">
      <path d="M 210.25621 237.4 
L 210.25621 32.64 
" clip-path="url(#p2171735556)" style="fill: none; stroke-dasharray: 2.96,1.28; stroke-dashoffset: 0; stroke: #b0b0b0; stroke-opacity: 0.7; stroke-width: 0.8"/>
     </g>
     <g id="line2d_8">
      <g>
       <use xlink:href="#m47b5abbbb6" x="210.25621" y="237.4" style="stroke: #000000; stroke-width: 0.8"/>
      </g>
     </g>
     <g id="text_4">
      <!-- 0.5 -->
      <g transform="translate(198.328866 255.797656) scale(0.15 -0.15)">
       <defs>
        <path id="DejaVuSans-35" d="M 691 4666 
L 3169 4666 
L 3169 4134 
L 1269 4134 
L 1269 2991 
Q 1406 3038 1543 3061 
Q 1681 3084 1819 3084 
Q 2600 3084 3056 2656 
Q 3513 2228 3513 1497 
Q 3513 744 3044 326 
Q 2575 -91 1722 -91 
Q 1428 -91 1123 -41 
Q 819 9 494 109 
L 494 744 
Q 775 591 1075 516 
Q 1375 441 1709 441 
Q 2250 441 2565 725 
Q 2881 1009 2881 1497 
Q 2881 1984 2565 2268 
Q 2250 2553 1709 2553 
Q 1456 2553 1204 2497 
Q 953 2441 691 2322 
L 691 4666 
z
" transform="scale(0.015625)"/>
       </defs>
       <use xlink:href="#DejaVuSans-30"/>
       <use xlink:href="#DejaVuSans-2e" x="63.623047"/>
       <use xlink:href="#DejaVuSans-35" x="95.410156"/>
      </g>
     </g>
    </g>
    <g id="xtick_5">
     <g id="line2d_9">
      <path d="M 251.759795 237.4 
L 251.759795 32.64 
" clip-path="url(#p2171735556)" style="fill: none; stroke-dasharray: 2.96,1.28; stroke-dashoffset: 0; stroke: #b0b0b0; stroke-opacity: 0.7; stroke-width: 0.8"/>
     </g>
     <g id="line2d_10">
      <g>
       <use xlink:href="#m47b5abbbb6" x="251.759795" y="237.4" style="stroke: #000000; stroke-width: 0.8"/>
      </g>
     </g>
     <g id="text_5">
      <!-- 0.6 -->
      <g transform="translate(239.832451 255.797656) scale(0.15 -0.15)">
       <defs>
        <path id="DejaVuSans-36" d="M 2113 2584 
Q 1688 2584 1439 2293 
Q 1191 2003 1191 1497 
Q 1191 994 1439 701 
Q 1688 409 2113 409 
Q 2538 409 2786 701 
Q 3034 994 3034 1497 
Q 3034 2003 2786 2293 
Q 2538 2584 2113 2584 
z
M 3366 4563 
L 3366 3988 
Q 3128 4100 2886 4159 
Q 2644 4219 2406 4219 
Q 1781 4219 1451 3797 
Q 1122 3375 1075 2522 
Q 1259 2794 1537 2939 
Q 1816 3084 2150 3084 
Q 2853 3084 3261 2657 
Q 3669 2231 3669 1497 
Q 3669 778 3244 343 
Q 2819 -91 2113 -91 
Q 1303 -91 875 529 
Q 447 1150 447 2328 
Q 447 3434 972 4092 
Q 1497 4750 2381 4750 
Q 2619 4750 2861 4703 
Q 3103 4656 3366 4563 
z
" transform="scale(0.015625)"/>
       </defs>
       <use xlink:href="#DejaVuSans-30"/>
       <use xlink:href="#DejaVuSans-2e" x="63.623047"/>
       <use xlink:href="#DejaVuSans-36" x="95.410156"/>
      </g>
     </g>
    </g>
    <g id="xtick_6">
     <g id="line2d_11">
      <path d="M 293.263381 237.4 
L 293.263381 32.64 
" clip-path="url(#p2171735556)" style="fill: none; stroke-dasharray: 2.96,1.28; stroke-dashoffset: 0; stroke: #b0b0b0; stroke-opacity: 0.7; stroke-width: 0.8"/>
     </g>
     <g id="line2d_12">
      <g>
       <use xlink:href="#m47b5abbbb6" x="293.263381" y="237.4" style="stroke: #000000; stroke-width: 0.8"/>
      </g>
     </g>
     <g id="text_6">
      <!-- 0.7 -->
      <g transform="translate(281.336037 255.797656) scale(0.15 -0.15)">
       <defs>
        <path id="DejaVuSans-37" d="M 525 4666 
L 3525 4666 
L 3525 4397 
L 1831 0 
L 1172 0 
L 2766 4134 
L 525 4134 
L 525 4666 
z
" transform="scale(0.015625)"/>
       </defs>
       <use xlink:href="#DejaVuSans-30"/>
       <use xlink:href="#DejaVuSans-2e" x="63.623047"/>
       <use xlink:href="#DejaVuSans-37" x="95.410156"/>
      </g>
     </g>
    </g>
    <g id="xtick_7">
     <g id="line2d_13">
      <path d="M 334.766966 237.4 
L 334.766966 32.64 
" clip-path="url(#p2171735556)" style="fill: none; stroke-dasharray: 2.96,1.28; stroke-dashoffset: 0; stroke: #b0b0b0; stroke-opacity: 0.7; stroke-width: 0.8"/>
     </g>
     <g id="line2d_14">
      <g>
       <use xlink:href="#m47b5abbbb6" x="334.766966" y="237.4" style="stroke: #000000; stroke-width: 0.8"/>
      </g>
     </g>
     <g id="text_7">
      <!-- 0.8 -->
      <g transform="translate(322.839623 255.797656) scale(0.15 -0.15)">
       <defs>
        <path id="DejaVuSans-38" d="M 2034 2216 
Q 1584 2216 1326 1975 
Q 1069 1734 1069 1313 
Q 1069 891 1326 650 
Q 1584 409 2034 409 
Q 2484 409 2743 651 
Q 3003 894 3003 1313 
Q 3003 1734 2745 1975 
Q 2488 2216 2034 2216 
z
M 1403 2484 
Q 997 2584 770 2862 
Q 544 3141 544 3541 
Q 544 4100 942 4425 
Q 1341 4750 2034 4750 
Q 2731 4750 3128 4425 
Q 3525 4100 3525 3541 
Q 3525 3141 3298 2862 
Q 3072 2584 2669 2484 
Q 3125 2378 3379 2068 
Q 3634 1759 3634 1313 
Q 3634 634 3220 271 
Q 2806 -91 2034 -91 
Q 1263 -91 848 271 
Q 434 634 434 1313 
Q 434 1759 690 2068 
Q 947 2378 1403 2484 
z
M 1172 3481 
Q 1172 3119 1398 2916 
Q 1625 2713 2034 2713 
Q 2441 2713 2670 2916 
Q 2900 3119 2900 3481 
Q 2900 3844 2670 4047 
Q 2441 4250 2034 4250 
Q 1625 4250 1398 4047 
Q 1172 3844 1172 3481 
z
" transform="scale(0.015625)"/>
       </defs>
       <use xlink:href="#DejaVuSans-30"/>
       <use xlink:href="#DejaVuSans-2e" x="63.623047"/>
       <use xlink:href="#DejaVuSans-38" x="95.410156"/>
      </g>
     </g>
    </g>
    <g id="xtick_8">
     <g id="line2d_15">
      <path d="M 376.270552 237.4 
L 376.270552 32.64 
" clip-path="url(#p2171735556)" style="fill: none; stroke-dasharray: 2.96,1.28; stroke-dashoffset: 0; stroke: #b0b0b0; stroke-opacity: 0.7; stroke-width: 0.8"/>
     </g>
     <g id="line2d_16">
      <g>
       <use xlink:href="#m47b5abbbb6" x="376.270552" y="237.4" style="stroke: #000000; stroke-width: 0.8"/>
      </g>
     </g>
     <g id="text_8">
      <!-- 0.9 -->
      <g transform="translate(364.343208 255.797656) scale(0.15 -0.15)">
       <defs>
        <path id="DejaVuSans-39" d="M 703 97 
L 703 672 
Q 941 559 1184 500 
Q 1428 441 1663 441 
Q 2288 441 2617 861 
Q 2947 1281 2994 2138 
Q 2813 1869 2534 1725 
Q 2256 1581 1919 1581 
Q 1219 1581 811 2004 
Q 403 2428 403 3163 
Q 403 3881 828 4315 
Q 1253 4750 1959 4750 
Q 2769 4750 3195 4129 
Q 3622 3509 3622 2328 
Q 3622 1225 3098 567 
Q 2575 -91 1691 -91 
Q 1453 -91 1209 -44 
Q 966 3 703 97 
z
M 1959 2075 
Q 2384 2075 2632 2365 
Q 2881 2656 2881 3163 
Q 2881 3666 2632 3958 
Q 2384 4250 1959 4250 
Q 1534 4250 1286 3958 
Q 1038 3666 1038 3163 
Q 1038 2656 1286 2365 
Q 1534 2075 1959 2075 
z
" transform="scale(0.015625)"/>
       </defs>
       <use xlink:href="#DejaVuSans-30"/>
       <use xlink:href="#DejaVuSans-2e" x="63.623047"/>
       <use xlink:href="#DejaVuSans-39" x="95.410156"/>
      </g>
     </g>
    </g>
    <g id="text_9">
     <!-- Tanimoto similarity to closest compound -->
     <g transform="translate(79.323906 274.314844) scale(0.15 -0.15)">
      <defs>
       <path id="DejaVuSans-54" d="M -19 4666 
L 3928 4666 
L 3928 4134 
L 2272 4134 
L 2272 0 
L 1638 0 
L 1638 4134 
L -19 4134 
L -19 4666 
z
" transform="scale(0.015625)"/>
       <path id="DejaVuSans-61" d="M 2194 1759 
Q 1497 1759 1228 1600 
Q 959 1441 959 1056 
Q 959 750 1161 570 
Q 1363 391 1709 391 
Q 2188 391 2477 730 
Q 2766 1069 2766 1631 
L 2766 1759 
L 2194 1759 
z
M 3341 1997 
L 3341 0 
L 2766 0 
L 2766 531 
Q 2569 213 2275 61 
Q 1981 -91 1556 -91 
Q 1019 -91 701 211 
Q 384 513 384 1019 
Q 384 1609 779 1909 
Q 1175 2209 1959 2209 
L 2766 2209 
L 2766 2266 
Q 2766 2663 2505 2880 
Q 2244 3097 1772 3097 
Q 1472 3097 1187 3025 
Q 903 2953 641 2809 
L 641 3341 
Q 956 3463 1253 3523 
Q 1550 3584 1831 3584 
Q 2591 3584 2966 3190 
Q 3341 2797 3341 1997 
z
" transform="scale(0.015625)"/>
       <path id="DejaVuSans-6e" d="M 3513 2113 
L 3513 0 
L 2938 0 
L 2938 2094 
Q 2938 2591 2744 2837 
Q 2550 3084 2163 3084 
Q 1697 3084 1428 2787 
Q 1159 2491 1159 1978 
L 1159 0 
L 581 0 
L 581 3500 
L 1159 3500 
L 1159 2956 
Q 1366 3272 1645 3428 
Q 1925 3584 2291 3584 
Q 2894 3584 3203 3211 
Q 3513 2838 3513 2113 
z
" transform="scale(0.015625)"/>
       <path id="DejaVuSans-69" d="M 603 3500 
L 1178 3500 
L 1178 0 
L 603 0 
L 603 3500 
z
M 603 4863 
L 1178 4863 
L 1178 4134 
L 603 4134 
L 603 4863 
z
" transform="scale(0.015625)"/>
       <path id="DejaVuSans-6d" d="M 3328 2828 
Q 3544 3216 3844 3400 
Q 4144 3584 4550 3584 
Q 5097 3584 5394 3201 
Q 5691 2819 5691 2113 
L 5691 0 
L 5113 0 
L 5113 2094 
Q 5113 2597 4934 2840 
Q 4756 3084 4391 3084 
Q 3944 3084 3684 2787 
Q 3425 2491 3425 1978 
L 3425 0 
L 2847 0 
L 2847 2094 
Q 2847 2600 2669 2842 
Q 2491 3084 2119 3084 
Q 1678 3084 1418 2786 
Q 1159 2488 1159 1978 
L 1159 0 
L 581 0 
L 581 3500 
L 1159 3500 
L 1159 2956 
Q 1356 3278 1631 3431 
Q 1906 3584 2284 3584 
Q 2666 3584 2933 3390 
Q 3200 3197 3328 2828 
z
" transform="scale(0.015625)"/>
       <path id="DejaVuSans-6f" d="M 1959 3097 
Q 1497 3097 1228 2736 
Q 959 2375 959 1747 
Q 959 1119 1226 758 
Q 1494 397 1959 397 
Q 2419 397 2687 759 
Q 2956 1122 2956 1747 
Q 2956 2369 2687 2733 
Q 2419 3097 1959 3097 
z
M 1959 3584 
Q 2709 3584 3137 3096 
Q 3566 2609 3566 1747 
Q 3566 888 3137 398 
Q 2709 -91 1959 -91 
Q 1206 -91 779 398 
Q 353 888 353 1747 
Q 353 2609 779 3096 
Q 1206 3584 1959 3584 
z
" transform="scale(0.015625)"/>
       <path id="DejaVuSans-74" d="M 1172 4494 
L 1172 3500 
L 2356 3500 
L 2356 3053 
L 1172 3053 
L 1172 1153 
Q 1172 725 1289 603 
Q 1406 481 1766 481 
L 2356 481 
L 2356 0 
L 1766 0 
Q 1100 0 847 248 
Q 594 497 594 1153 
L 594 3053 
L 172 3053 
L 172 3500 
L 594 3500 
L 594 4494 
L 1172 4494 
z
" transform="scale(0.015625)"/>
       <path id="DejaVuSans-20" transform="scale(0.015625)"/>
       <path id="DejaVuSans-73" d="M 2834 3397 
L 2834 2853 
Q 2591 2978 2328 3040 
Q 2066 3103 1784 3103 
Q 1356 3103 1142 2972 
Q 928 2841 928 2578 
Q 928 2378 1081 2264 
Q 1234 2150 1697 2047 
L 1894 2003 
Q 2506 1872 2764 1633 
Q 3022 1394 3022 966 
Q 3022 478 2636 193 
Q 2250 -91 1575 -91 
Q 1294 -91 989 -36 
Q 684 19 347 128 
L 347 722 
Q 666 556 975 473 
Q 1284 391 1588 391 
Q 1994 391 2212 530 
Q 2431 669 2431 922 
Q 2431 1156 2273 1281 
Q 2116 1406 1581 1522 
L 1381 1569 
Q 847 1681 609 1914 
Q 372 2147 372 2553 
Q 372 3047 722 3315 
Q 1072 3584 1716 3584 
Q 2034 3584 2315 3537 
Q 2597 3491 2834 3397 
z
" transform="scale(0.015625)"/>
       <path id="DejaVuSans-6c" d="M 603 4863 
L 1178 4863 
L 1178 0 
L 603 0 
L 603 4863 
z
" transform="scale(0.015625)"/>
       <path id="DejaVuSans-72" d="M 2631 2963 
Q 2534 3019 2420 3045 
Q 2306 3072 2169 3072 
Q 1681 3072 1420 2755 
Q 1159 2438 1159 1844 
L 1159 0 
L 581 0 
L 581 3500 
L 1159 3500 
L 1159 2956 
Q 1341 3275 1631 3429 
Q 1922 3584 2338 3584 
Q 2397 3584 2469 3576 
Q 2541 3569 2628 3553 
L 2631 2963 
z
" transform="scale(0.015625)"/>
       <path id="DejaVuSans-79" d="M 2059 -325 
Q 1816 -950 1584 -1140 
Q 1353 -1331 966 -1331 
L 506 -1331 
L 506 -850 
L 844 -850 
Q 1081 -850 1212 -737 
Q 1344 -625 1503 -206 
L 1606 56 
L 191 3500 
L 800 3500 
L 1894 763 
L 2988 3500 
L 3597 3500 
L 2059 -325 
z
" transform="scale(0.015625)"/>
       <path id="DejaVuSans-63" d="M 3122 3366 
L 3122 2828 
Q 2878 2963 2633 3030 
Q 2388 3097 2138 3097 
Q 1578 3097 1268 2742 
Q 959 2388 959 1747 
Q 959 1106 1268 751 
Q 1578 397 2138 397 
Q 2388 397 2633 464 
Q 2878 531 3122 666 
L 3122 134 
Q 2881 22 2623 -34 
Q 2366 -91 2075 -91 
Q 1284 -91 818 406 
Q 353 903 353 1747 
Q 353 2603 823 3093 
Q 1294 3584 2113 3584 
Q 2378 3584 2631 3529 
Q 2884 3475 3122 3366 
z
" transform="scale(0.015625)"/>
       <path id="DejaVuSans-65" d="M 3597 1894 
L 3597 1613 
L 953 1613 
Q 991 1019 1311 708 
Q 1631 397 2203 397 
Q 2534 397 2845 478 
Q 3156 559 3463 722 
L 3463 178 
Q 3153 47 2828 -22 
Q 2503 -91 2169 -91 
Q 1331 -91 842 396 
Q 353 884 353 1716 
Q 353 2575 817 3079 
Q 1281 3584 2069 3584 
Q 2775 3584 3186 3129 
Q 3597 2675 3597 1894 
z
M 3022 2063 
Q 3016 2534 2758 2815 
Q 2500 3097 2075 3097 
Q 1594 3097 1305 2825 
Q 1016 2553 972 2059 
L 3022 2063 
z
" transform="scale(0.015625)"/>
       <path id="DejaVuSans-70" d="M 1159 525 
L 1159 -1331 
L 581 -1331 
L 581 3500 
L 1159 3500 
L 1159 2969 
Q 1341 3281 1617 3432 
Q 1894 3584 2278 3584 
Q 2916 3584 3314 3078 
Q 3713 2572 3713 1747 
Q 3713 922 3314 415 
Q 2916 -91 2278 -91 
Q 1894 -91 1617 61 
Q 1341 213 1159 525 
z
M 3116 1747 
Q 3116 2381 2855 2742 
Q 2594 3103 2138 3103 
Q 1681 3103 1420 2742 
Q 1159 2381 1159 1747 
Q 1159 1113 1420 752 
Q 1681 391 2138 391 
Q 2594 391 2855 752 
Q 3116 1113 3116 1747 
z
" transform="scale(0.015625)"/>
       <path id="DejaVuSans-75" d="M 544 1381 
L 544 3500 
L 1119 3500 
L 1119 1403 
Q 1119 906 1312 657 
Q 1506 409 1894 409 
Q 2359 409 2629 706 
Q 2900 1003 2900 1516 
L 2900 3500 
L 3475 3500 
L 3475 0 
L 2900 0 
L 2900 538 
Q 2691 219 2414 64 
Q 2138 -91 1772 -91 
Q 1169 -91 856 284 
Q 544 659 544 1381 
z
M 1991 3584 
L 1991 3584 
z
" transform="scale(0.015625)"/>
       <path id="DejaVuSans-64" d="M 2906 2969 
L 2906 4863 
L 3481 4863 
L 3481 0 
L 2906 0 
L 2906 525 
Q 2725 213 2448 61 
Q 2172 -91 1784 -91 
Q 1150 -91 751 415 
Q 353 922 353 1747 
Q 353 2572 751 3078 
Q 1150 3584 1784 3584 
Q 2172 3584 2448 3432 
Q 2725 3281 2906 2969 
z
M 947 1747 
Q 947 1113 1208 752 
Q 1469 391 1925 391 
Q 2381 391 2643 752 
Q 2906 1113 2906 1747 
Q 2906 2381 2643 2742 
Q 2381 3103 1925 3103 
Q 1469 3103 1208 2742 
Q 947 2381 947 1747 
z
" transform="scale(0.015625)"/>
      </defs>
      <use xlink:href="#DejaVuSans-54"/>
      <use xlink:href="#DejaVuSans-61" x="44.583984"/>
      <use xlink:href="#DejaVuSans-6e" x="105.863281"/>
      <use xlink:href="#DejaVuSans-69" x="169.242188"/>
      <use xlink:href="#DejaVuSans-6d" x="197.025391"/>
      <use xlink:href="#DejaVuSans-6f" x="294.4375"/>
      <use xlink:href="#DejaVuSans-74" x="355.619141"/>
      <use xlink:href="#DejaVuSans-6f" x="394.828125"/>
      <use xlink:href="#DejaVuSans-20" x="456.009766"/>
      <use xlink:href="#DejaVuSans-73" x="487.796875"/>
      <use xlink:href="#DejaVuSans-69" x="539.896484"/>
      <use xlink:href="#DejaVuSans-6d" x="567.679688"/>
      <use xlink:href="#DejaVuSans-69" x="665.091797"/>
      <use xlink:href="#DejaVuSans-6c" x="692.875"/>
      <use xlink:href="#DejaVuSans-61" x="720.658203"/>
      <use xlink:href="#DejaVuSans-72" x="781.9375"/>
      <use xlink:href="#DejaVuSans-69" x="823.050781"/>
      <use xlink:href="#DejaVuSans-74" x="850.833984"/>
      <use xlink:href="#DejaVuSans-79" x="890.042969"/>
      <use xlink:href="#DejaVuSans-20" x="949.222656"/>
      <use xlink:href="#DejaVuSans-74" x="981.009766"/>
      <use xlink:href="#DejaVuSans-6f" x="1020.21875"/>
      <use xlink:href="#DejaVuSans-20" x="1081.400391"/>
      <use xlink:href="#DejaVuSans-63" x="1113.1875"/>
      <use xlink:href="#DejaVuSans-6c" x="1168.167969"/>
      <use xlink:href="#DejaVuSans-6f" x="1195.951172"/>
      <use xlink:href="#DejaVuSans-73" x="1257.132812"/>
      <use xlink:href="#DejaVuSans-65" x="1309.232422"/>
      <use xlink:href="#DejaVuSans-73" x="1370.755859"/>
      <use xlink:href="#DejaVuSans-74" x="1422.855469"/>
      <use xlink:href="#DejaVuSans-20" x="1462.064453"/>
      <use xlink:href="#DejaVuSans-63" x="1493.851562"/>
      <use xlink:href="#DejaVuSans-6f" x="1548.832031"/>
      <use xlink:href="#DejaVuSans-6d" x="1610.013672"/>
      <use xlink:href="#DejaVuSans-70" x="1707.425781"/>
      <use xlink:href="#DejaVuSans-6f" x="1770.902344"/>
      <use xlink:href="#DejaVuSans-75" x="1832.083984"/>
      <use xlink:href="#DejaVuSans-6e" x="1895.462891"/>
      <use xlink:href="#DejaVuSans-64" x="1958.841797"/>
     </g>
    </g>
   </g>
   <g id="matplotlib.axis_2">
    <g id="ytick_1">
     <g id="line2d_17">
      <path d="M 69.59 227.034487 
L 392.4 227.034487 
" clip-path="url(#p2171735556)" style="fill: none; stroke-dasharray: 2.96,1.28; stroke-dashoffset: 0; stroke: #b0b0b0; stroke-opacity: 0.7; stroke-width: 0.8"/>
     </g>
     <g id="line2d_18">
      <defs>
       <path id="m23a8405c7f" d="M 0 0 
L -3.5 0 
" style="stroke: #000000; stroke-width: 0.8"/>
      </defs>
      <g>
       <use xlink:href="#m23a8405c7f" x="69.59" y="227.034487" style="stroke: #000000; stroke-width: 0.8"/>
      </g>
     </g>
     <g id="text_10">
      <!-- 0.25 -->
      <g transform="translate(29.191563 232.733315) scale(0.15 -0.15)">
       <use xlink:href="#DejaVuSans-30"/>
       <use xlink:href="#DejaVuSans-2e" x="63.623047"/>
       <use xlink:href="#DejaVuSans-32" x="95.410156"/>
       <use xlink:href="#DejaVuSans-35" x="159.033203"/>
      </g>
     </g>
    </g>
    <g id="ytick_2">
     <g id="line2d_19">
      <path d="M 69.59 202.459036 
L 392.4 202.459036 
" clip-path="url(#p2171735556)" style="fill: none; stroke-dasharray: 2.96,1.28; stroke-dashoffset: 0; stroke: #b0b0b0; stroke-opacity: 0.7; stroke-width: 0.8"/>
     </g>
     <g id="line2d_20">
      <g>
       <use xlink:href="#m23a8405c7f" x="69.59" y="202.459036" style="stroke: #000000; stroke-width: 0.8"/>
      </g>
     </g>
     <g id="text_11">
      <!-- 0.50 -->
      <g transform="translate(29.191563 208.157864) scale(0.15 -0.15)">
       <use xlink:href="#DejaVuSans-30"/>
       <use xlink:href="#DejaVuSans-2e" x="63.623047"/>
       <use xlink:href="#DejaVuSans-35" x="95.410156"/>
       <use xlink:href="#DejaVuSans-30" x="159.033203"/>
      </g>
     </g>
    </g>
    <g id="ytick_3">
     <g id="line2d_21">
      <path d="M 69.59 177.883584 
L 392.4 177.883584 
" clip-path="url(#p2171735556)" style="fill: none; stroke-dasharray: 2.96,1.28; stroke-dashoffset: 0; stroke: #b0b0b0; stroke-opacity: 0.7; stroke-width: 0.8"/>
     </g>
     <g id="line2d_22">
      <g>
       <use xlink:href="#m23a8405c7f" x="69.59" y="177.883584" style="stroke: #000000; stroke-width: 0.8"/>
      </g>
     </g>
     <g id="text_12">
      <!-- 0.75 -->
      <g transform="translate(29.191563 183.582412) scale(0.15 -0.15)">
       <use xlink:href="#DejaVuSans-30"/>
       <use xlink:href="#DejaVuSans-2e" x="63.623047"/>
       <use xlink:href="#DejaVuSans-37" x="95.410156"/>
       <use xlink:href="#DejaVuSans-35" x="159.033203"/>
      </g>
     </g>
    </g>
    <g id="ytick_4">
     <g id="line2d_23">
      <path d="M 69.59 153.308132 
L 392.4 153.308132 
" clip-path="url(#p2171735556)" style="fill: none; stroke-dasharray: 2.96,1.28; stroke-dashoffset: 0; stroke: #b0b0b0; stroke-opacity: 0.7; stroke-width: 0.8"/>
     </g>
     <g id="line2d_24">
      <g>
       <use xlink:href="#m23a8405c7f" x="69.59" y="153.308132" style="stroke: #000000; stroke-width: 0.8"/>
      </g>
     </g>
     <g id="text_13">
      <!-- 1.00 -->
      <g transform="translate(29.191563 159.006961) scale(0.15 -0.15)">
       <defs>
        <path id="DejaVuSans-31" d="M 794 531 
L 1825 531 
L 1825 4091 
L 703 3866 
L 703 4441 
L 1819 4666 
L 2450 4666 
L 2450 531 
L 3481 531 
L 3481 0 
L 794 0 
L 794 531 
z
" transform="scale(0.015625)"/>
       </defs>
       <use xlink:href="#DejaVuSans-31"/>
       <use xlink:href="#DejaVuSans-2e" x="63.623047"/>
       <use xlink:href="#DejaVuSans-30" x="95.410156"/>
       <use xlink:href="#DejaVuSans-30" x="159.033203"/>
      </g>
     </g>
    </g>
    <g id="ytick_5">
     <g id="line2d_25">
      <path d="M 69.59 128.732681 
L 392.4 128.732681 
" clip-path="url(#p2171735556)" style="fill: none; stroke-dasharray: 2.96,1.28; stroke-dashoffset: 0; stroke: #b0b0b0; stroke-opacity: 0.7; stroke-width: 0.8"/>
     </g>
     <g id="line2d_26">
      <g>
       <use xlink:href="#m23a8405c7f" x="69.59" y="128.732681" style="stroke: #000000; stroke-width: 0.8"/>
      </g>
     </g>
     <g id="text_14">
      <!-- 1.25 -->
      <g transform="translate(29.191563 134.431509) scale(0.15 -0.15)">
       <use xlink:href="#DejaVuSans-31"/>
       <use xlink:href="#DejaVuSans-2e" x="63.623047"/>
       <use xlink:href="#DejaVuSans-32" x="95.410156"/>
       <use xlink:href="#DejaVuSans-35" x="159.033203"/>
      </g>
     </g>
    </g>
    <g id="ytick_6">
     <g id="line2d_27">
      <path d="M 69.59 104.157229 
L 392.4 104.157229 
" clip-path="url(#p2171735556)" style="fill: none; stroke-dasharray: 2.96,1.28; stroke-dashoffset: 0; stroke: #b0b0b0; stroke-opacity: 0.7; stroke-width: 0.8"/>
     </g>
     <g id="line2d_28">
      <g>
       <use xlink:href="#m23a8405c7f" x="69.59" y="104.157229" style="stroke: #000000; stroke-width: 0.8"/>
      </g>
     </g>
     <g id="text_15">
      <!-- 1.50 -->
      <g transform="translate(29.191563 109.856057) scale(0.15 -0.15)">
       <use xlink:href="#DejaVuSans-31"/>
       <use xlink:href="#DejaVuSans-2e" x="63.623047"/>
       <use xlink:href="#DejaVuSans-35" x="95.410156"/>
       <use xlink:href="#DejaVuSans-30" x="159.033203"/>
      </g>
     </g>
    </g>
    <g id="ytick_7">
     <g id="line2d_29">
      <path d="M 69.59 79.581778 
L 392.4 79.581778 
" clip-path="url(#p2171735556)" style="fill: none; stroke-dasharray: 2.96,1.28; stroke-dashoffset: 0; stroke: #b0b0b0; stroke-opacity: 0.7; stroke-width: 0.8"/>
     </g>
     <g id="line2d_30">
      <g>
       <use xlink:href="#m23a8405c7f" x="69.59" y="79.581778" style="stroke: #000000; stroke-width: 0.8"/>
      </g>
     </g>
     <g id="text_16">
      <!-- 1.75 -->
      <g transform="translate(29.191563 85.280606) scale(0.15 -0.15)">
       <use xlink:href="#DejaVuSans-31"/>
       <use xlink:href="#DejaVuSans-2e" x="63.623047"/>
       <use xlink:href="#DejaVuSans-37" x="95.410156"/>
       <use xlink:href="#DejaVuSans-35" x="159.033203"/>
      </g>
     </g>
    </g>
    <g id="ytick_8">
     <g id="line2d_31">
      <path d="M 69.59 55.006326 
L 392.4 55.006326 
" clip-path="url(#p2171735556)" style="fill: none; stroke-dasharray: 2.96,1.28; stroke-dashoffset: 0; stroke: #b0b0b0; stroke-opacity: 0.7; stroke-width: 0.8"/>
     </g>
     <g id="line2d_32">
      <g>
       <use xlink:href="#m23a8405c7f" x="69.59" y="55.006326" style="stroke: #000000; stroke-width: 0.8"/>
      </g>
     </g>
     <g id="text_17">
      <!-- 2.00 -->
      <g transform="translate(29.191563 60.705154) scale(0.15 -0.15)">
       <use xlink:href="#DejaVuSans-32"/>
       <use xlink:href="#DejaVuSans-2e" x="63.623047"/>
       <use xlink:href="#DejaVuSans-30" x="95.410156"/>
       <use xlink:href="#DejaVuSans-30" x="159.033203"/>
      </g>
     </g>
    </g>
    <g id="text_18">
     <!-- score (lower better) -->
     <g transform="translate(22.072031 209.247734) rotate(-90) scale(0.15 -0.15)">
      <defs>
       <path id="DejaVuSans-28" d="M 1984 4856 
Q 1566 4138 1362 3434 
Q 1159 2731 1159 2009 
Q 1159 1288 1364 580 
Q 1569 -128 1984 -844 
L 1484 -844 
Q 1016 -109 783 600 
Q 550 1309 550 2009 
Q 550 2706 781 3412 
Q 1013 4119 1484 4856 
L 1984 4856 
z
" transform="scale(0.015625)"/>
       <path id="DejaVuSans-77" d="M 269 3500 
L 844 3500 
L 1563 769 
L 2278 3500 
L 2956 3500 
L 3675 769 
L 4391 3500 
L 4966 3500 
L 4050 0 
L 3372 0 
L 2619 2869 
L 1863 0 
L 1184 0 
L 269 3500 
z
" transform="scale(0.015625)"/>
       <path id="DejaVuSans-62" d="M 3116 1747 
Q 3116 2381 2855 2742 
Q 2594 3103 2138 3103 
Q 1681 3103 1420 2742 
Q 1159 2381 1159 1747 
Q 1159 1113 1420 752 
Q 1681 391 2138 391 
Q 2594 391 2855 752 
Q 3116 1113 3116 1747 
z
M 1159 2969 
Q 1341 3281 1617 3432 
Q 1894 3584 2278 3584 
Q 2916 3584 3314 3078 
Q 3713 2572 3713 1747 
Q 3713 922 3314 415 
Q 2916 -91 2278 -91 
Q 1894 -91 1617 61 
Q 1341 213 1159 525 
L 1159 0 
L 581 0 
L 581 4863 
L 1159 4863 
L 1159 2969 
z
" transform="scale(0.015625)"/>
       <path id="DejaVuSans-29" d="M 513 4856 
L 1013 4856 
Q 1481 4119 1714 3412 
Q 1947 2706 1947 2009 
Q 1947 1309 1714 600 
Q 1481 -109 1013 -844 
L 513 -844 
Q 928 -128 1133 580 
Q 1338 1288 1338 2009 
Q 1338 2731 1133 3434 
Q 928 4138 513 4856 
z
" transform="scale(0.015625)"/>
      </defs>
      <use xlink:href="#DejaVuSans-73"/>
      <use xlink:href="#DejaVuSans-63" x="52.099609"/>
      <use xlink:href="#DejaVuSans-6f" x="107.080078"/>
      <use xlink:href="#DejaVuSans-72" x="168.261719"/>
      <use xlink:href="#DejaVuSans-65" x="207.125"/>
      <use xlink:href="#DejaVuSans-20" x="268.648438"/>
      <use xlink:href="#DejaVuSans-28" x="300.435547"/>
      <use xlink:href="#DejaVuSans-6c" x="339.449219"/>
      <use xlink:href="#DejaVuSans-6f" x="367.232422"/>
      <use xlink:href="#DejaVuSans-77" x="428.414062"/>
      <use xlink:href="#DejaVuSans-65" x="510.201172"/>
      <use xlink:href="#DejaVuSans-72" x="571.724609"/>
      <use xlink:href="#DejaVuSans-20" x="612.837891"/>
      <use xlink:href="#DejaVuSans-62" x="644.625"/>
      <use xlink:href="#DejaVuSans-65" x="708.101562"/>
      <use xlink:href="#DejaVuSans-74" x="769.625"/>
      <use xlink:href="#DejaVuSans-74" x="808.833984"/>
      <use xlink:href="#DejaVuSans-65" x="848.042969"/>
      <use xlink:href="#DejaVuSans-72" x="909.566406"/>
      <use xlink:href="#DejaVuSans-29" x="950.679688"/>
     </g>
    </g>
   </g>
   <g id="line2d_33">
    <path d="M 84.263182 153.634333 
L 87.227461 154.263317 
L 90.19174 154.8923 
L 93.156019 155.521284 
L 96.120298 156.150267 
L 99.084578 156.77925 
L 102.048857 157.408234 
L 105.013136 158.037217 
L 107.977415 158.6662 
L 110.941694 159.295184 
L 113.905973 159.924167 
L 116.870253 160.553151 
L 119.834532 161.182134 
L 122.798811 161.811117 
L 125.76309 162.440101 
L 128.727369 163.069084 
L 131.691648 163.698067 
L 134.655927 164.327051 
L 137.620207 164.956034 
L 140.584486 165.585018 
L 143.548765 166.214001 
L 146.513044 166.842984 
L 149.477323 167.471968 
L 152.441602 168.100951 
L 155.405882 168.729935 
L 158.370161 169.358918 
L 161.33444 169.987901 
L 164.298719 170.616885 
L 167.262998 171.245868 
L 170.227277 171.874851 
L 173.191556 172.503835 
L 176.155836 173.132818 
L 179.120115 173.761802 
L 182.084394 174.390785 
L 185.048673 175.019768 
L 188.012952 175.648752 
L 190.977231 176.277735 
L 193.941511 176.906718 
L 196.90579 177.535702 
L 199.870069 178.164685 
L 202.834348 178.793669 
L 205.798627 179.422652 
L 208.762906 180.051635 
L 211.727185 180.680619 
L 214.691465 181.309602 
L 217.655744 181.938585 
L 220.620023 182.567569 
L 223.584302 183.196552 
L 226.548581 183.825536 
L 229.51286 184.454519 
L 232.47714 185.083502 
L 235.441419 185.712486 
L 238.405698 186.341469 
L 241.369977 186.970452 
L 244.334256 187.599436 
L 247.298535 188.228419 
L 250.262815 188.857403 
L 253.227094 189.486386 
L 256.191373 190.115369 
L 259.155652 190.744353 
L 262.119931 191.373336 
L 265.08421 192.002319 
L 268.048489 192.631303 
L 271.012769 193.260286 
L 273.977048 193.88927 
L 276.941327 194.518253 
L 279.905606 195.147236 
L 282.869885 195.77622 
L 285.834164 196.405203 
L 288.798444 197.034186 
L 291.762723 197.66317 
L 294.727002 198.292153 
L 297.691281 198.921137 
L 300.65556 199.55012 
L 303.619839 200.179103 
L 306.584118 200.808087 
L 309.548398 201.43707 
L 312.512677 202.066054 
L 315.476956 202.695037 
L 318.441235 203.32402 
L 321.405514 203.953004 
L 324.369793 204.581987 
L 327.334073 205.21097 
L 330.298352 205.839954 
L 333.262631 206.468937 
L 336.22691 207.097921 
L 339.191189 207.726904 
L 342.155468 208.355887 
L 345.119747 208.984871 
L 348.084027 209.613854 
L 351.048306 210.242837 
L 354.012585 210.871821 
L 356.976864 211.500804 
L 359.941143 212.129788 
L 362.905422 212.758771 
L 365.869702 213.387754 
L 368.833981 214.016738 
L 371.79826 214.645721 
L 374.762539 215.274704 
L 377.726818 215.903688 
" clip-path="url(#p2171735556)" style="fill: none; stroke: #0173b2; stroke-width: 2.25; stroke-linecap: square"/>
   </g>
   <g id="line2d_34">
    <path d="M 84.263182 80.92717 
L 87.227461 80.770845 
L 90.19174 80.61452 
L 93.156019 80.458194 
L 96.120298 80.301869 
L 99.084578 80.145543 
L 102.048857 79.989218 
L 105.013136 79.832892 
L 107.977415 79.676567 
L 110.941694 79.520242 
L 113.905973 79.363916 
L 116.870253 79.207591 
L 119.834532 79.051265 
L 122.798811 78.89494 
L 125.76309 78.738615 
L 128.727369 78.582289 
L 131.691648 78.425964 
L 134.655927 78.269638 
L 137.620207 78.113313 
L 140.584486 77.956987 
L 143.548765 77.800662 
L 146.513044 77.644337 
L 149.477323 77.488011 
L 152.441602 77.331686 
L 155.405882 77.17536 
L 158.370161 77.019035 
L 161.33444 76.862709 
L 164.298719 76.706384 
L 167.262998 76.550059 
L 170.227277 76.393733 
L 173.191556 76.237408 
L 176.155836 76.081082 
L 179.120115 75.924757 
L 182.084394 75.768431 
L 185.048673 75.612106 
L 188.012952 75.455781 
L 190.977231 75.299455 
L 193.941511 75.14313 
L 196.90579 74.986804 
L 199.870069 74.830479 
L 202.834348 74.674153 
L 205.798627 74.517828 
L 208.762906 74.361503 
L 211.727185 74.205177 
L 214.691465 74.048852 
L 217.655744 73.892526 
L 220.620023 73.736201 
L 223.584302 73.579875 
L 226.548581 73.42355 
L 229.51286 73.267225 
L 232.47714 73.110899 
L 235.441419 72.954574 
L 238.405698 72.798248 
L 241.369977 72.641923 
L 244.334256 72.485597 
L 247.298535 72.329272 
L 250.262815 72.172947 
L 253.227094 72.016621 
L 256.191373 71.860296 
L 259.155652 71.70397 
L 262.119931 71.547645 
L 265.08421 71.391319 
L 268.048489 71.234994 
L 271.012769 71.078669 
L 273.977048 70.922343 
L 276.941327 70.766018 
L 279.905606 70.609692 
L 282.869885 70.453367 
L 285.834164 70.297042 
L 288.798444 70.140716 
L 291.762723 69.984391 
L 294.727002 69.828065 
L 297.691281 69.67174 
L 300.65556 69.515414 
L 303.619839 69.359089 
L 306.584118 69.202764 
L 309.548398 69.046438 
L 312.512677 68.890113 
L 315.476956 68.733787 
L 318.441235 68.577462 
L 321.405514 68.421136 
L 324.369793 68.264811 
L 327.334073 68.108486 
L 330.298352 67.95216 
L 333.262631 67.795835 
L 336.22691 67.639509 
L 339.191189 67.483184 
L 342.155468 67.326858 
L 345.119747 67.170533 
L 348.084027 67.014208 
L 351.048306 66.857882 
L 354.012585 66.701557 
L 356.976864 66.545231 
L 359.941143 66.388906 
L 362.905422 66.23258 
L 365.869702 66.076255 
L 368.833981 65.91993 
L 371.79826 65.763604 
L 374.762539 65.607279 
L 377.726818 65.450953 
" clip-path="url(#p2171735556)" style="fill: none; stroke: #de8f05; stroke-width: 2.25; stroke-linecap: square"/>
   </g>
   <g id="patch_3">
    <path d="M 69.59 237.4 
L 69.59 32.64 
" style="fill: none; stroke: #000000; stroke-width: 0.8; stroke-linejoin: miter; stroke-linecap: square"/>
   </g>
   <g id="patch_4">
    <path d="M 69.59 237.4 
L 392.4 237.4 
" style="fill: none; stroke: #000000; stroke-width: 0.8; stroke-linejoin: miter; stroke-linecap: square"/>
   </g>
   <g id="text_19">
    <!-- FID -->
    <g transform="translate(214.593437 26.64) scale(0.2 -0.2)">
     <defs>
      <path id="DejaVuSans-46" d="M 628 4666 
L 3309 4666 
L 3309 4134 
L 1259 4134 
L 1259 2759 
L 3109 2759 
L 3109 2228 
L 1259 2228 
L 1259 0 
L 628 0 
L 628 4666 
z
" transform="scale(0.015625)"/>
      <path id="DejaVuSans-49" d="M 628 4666 
L 1259 4666 
L 1259 0 
L 628 0 
L 628 4666 
z
" transform="scale(0.015625)"/>
      <path id="DejaVuSans-44" d="M 1259 4147 
L 1259 519 
L 2022 519 
Q 2988 519 3436 956 
Q 3884 1394 3884 2338 
Q 3884 3275 3436 3711 
Q 2988 4147 2022 4147 
L 1259 4147 
z
M 628 4666 
L 1925 4666 
Q 3281 4666 3915 4102 
Q 4550 3538 4550 2338 
Q 4550 1131 3912 565 
Q 3275 0 1925 0 
L 628 0 
L 628 4666 
z
" transform="scale(0.015625)"/>
     </defs>
     <use xlink:href="#DejaVuSans-46"/>
     <use xlink:href="#DejaVuSans-49" x="57.519531"/>
     <use xlink:href="#DejaVuSans-44" x="87.011719"/>
    </g>
   </g>
  </g>
 </g>
 <defs>
  <clipPath id="p2171735556">
   <rect x="69.59" y="32.64" width="322.81" height="204.76"/>
  </clipPath>
 </defs>
</svg>
