<?xml version="1.0" encoding="utf-8" standalone="no"?>
<!DOCTYPE svg PUBLIC "-//W3C//DTD SVG 1.1//EN"
  "http://www.w3.org/Graphics/SVG/1.1/DTD/svg11.dtd">
<svg xmlns:xlink="http://www.w3.org/1999/xlink" width="361.604688pt" height="209.51625pt" viewBox="0 0 361.604688 209.51625" xmlns="http://www.w3.org/2000/svg" version="1.1">
 <metadata>
  <rdf:RDF xmlns:dc="http://purl.org/dc/elements/1.1/" xmlns:cc="http://creativecommons.org/ns#" xmlns:rdf="http://www.w3.org/1999/02/22-rdf-syntax-ns#">
   <cc:Work>
    <dc:type rdf:resource="http://purl.org/dc/dcmitype/StillImage"/>
    <dc:date>2024-03-04T10:49:29.577672</dc:date>
    <dc:format>image/svg+xml</dc:format>
    <dc:creator>
     <cc:Agent>
      <dc:title>Matplotlib v3.8.2, https://matplotlib.org/</dc:title>
     </cc:Agent>
    </dc:creator>
   </cc:Work>
  </rdf:RDF>
 </metadata>
 <defs>
  <style type="text/css">*{stroke-linejoin: round; stroke-linecap: butt}</style>
 </defs>
 <g id="figure_1">
  <g id="patch_1">
   <path d="M 0 209.51625 
L 361.604688 209.51625 
L 361.604688 0 
L 0 0 
z
" style="fill: #ffffff"/>
  </g>
  <g id="axes_1">
   <g id="patch_2">
    <path d="M 20.878125 188.638125 
L 188.278125 188.638125 
L 188.278125 22.318125 
L 20.878125 22.318125 
z
" style="fill: #ffffff"/>
   </g>
   <g id="PathCollection_1">
    <defs>
     <path id="C0_0_1e543ed62b" d="M 0 4.330127 
C 1.148363 4.330127 2.249847 3.873878 3.061862 3.061862 
C 3.873878 2.249847 4.330127 1.148363 4.330127 -0 
C 4.330127 -1.148363 3.873878 -2.249847 3.061862 -3.061862 
C 2.249847 -3.873878 1.148363 -4.330127 0 -4.330127 
C -1.148363 -4.330127 -2.249847 -3.873878 -3.061862 -3.061862 
C -3.873878 -2.249847 -4.330127 -1.148363 -4.330127 0 
C -4.330127 1.148363 -3.873878 2.249847 -3.061862 3.061862 
C -2.249847 3.873878 -1.148363 4.330127 0 4.330127 
z
"/>
    </defs>
    <g clip-path="url(#p9ca6309920)">
     <use xlink:href="#C0_0_1e543ed62b" x="60.073811" y="124.690229" style="fill: #0173b2"/>
    </g>
    <g clip-path="url(#p9ca6309920)">
     <use xlink:href="#C0_0_1e543ed62b" x="40.02093" y="69.972987" style="fill: #ca9161"/>
    </g>
    <g clip-path="url(#p9ca6309920)">
     <use xlink:href="#C0_0_1e543ed62b" x="107.273753" y="181.078125" style="fill: #de8f05"/>
    </g>
    <g clip-path="url(#p9ca6309920)">
     <use xlink:href="#C0_0_1e543ed62b" x="54.78453" y="125.347898" style="fill: #0173b2"/>
    </g>
    <g clip-path="url(#p9ca6309920)">
     <use xlink:href="#C0_0_1e543ed62b" x="149.045676" y="67.601394" style="fill: #949494"/>
    </g>
    <g clip-path="url(#p9ca6309920)">
     <use xlink:href="#C0_0_1e543ed62b" x="96.475787" y="29.878125" style="fill: #fbafe4"/>
    </g>
    <g clip-path="url(#p9ca6309920)">
     <use xlink:href="#C0_0_1e543ed62b" x="160.009117" y="52.645168" style="fill: #949494"/>
    </g>
    <g clip-path="url(#p9ca6309920)">
     <use xlink:href="#C0_0_1e543ed62b" x="56.040608" y="60.356935" style="fill: #de8f05"/>
    </g>
    <g clip-path="url(#p9ca6309920)">
     <use xlink:href="#C0_0_1e543ed62b" x="180.669034" y="35.719953" style="fill: #949494"/>
    </g>
    <g clip-path="url(#p9ca6309920)">
     <use xlink:href="#C0_0_1e543ed62b" x="79.27443" y="154.906058" style="fill: #cc78bc"/>
    </g>
    <g clip-path="url(#p9ca6309920)">
     <use xlink:href="#C0_0_1e543ed62b" x="115.045154" y="172.27824" style="fill: #d55e00"/>
    </g>
    <g clip-path="url(#p9ca6309920)">
     <use xlink:href="#C0_0_1e543ed62b" x="107.18108" y="149.535235" style="fill: #d55e00"/>
    </g>
    <g clip-path="url(#p9ca6309920)">
     <use xlink:href="#C0_0_1e543ed62b" x="115.481291" y="106.122036" style="fill: #ece133"/>
    </g>
    <g clip-path="url(#p9ca6309920)">
     <use xlink:href="#C0_0_1e543ed62b" x="41.364828" y="66.242383" style="fill: #0173b2"/>
    </g>
    <g clip-path="url(#p9ca6309920)">
     <use xlink:href="#C0_0_1e543ed62b" x="48.962245" y="84.990351" style="fill: #ece133"/>
    </g>
    <g clip-path="url(#p9ca6309920)">
     <use xlink:href="#C0_0_1e543ed62b" x="51.300742" y="58.073879" style="fill: #de8f05"/>
    </g>
    <g clip-path="url(#p9ca6309920)">
     <use xlink:href="#C0_0_1e543ed62b" x="96.056321" y="171.898144" style="fill: #d55e00"/>
    </g>
    <g clip-path="url(#p9ca6309920)">
     <use xlink:href="#C0_0_1e543ed62b" x="77.961844" y="163.446976" style="fill: #cc78bc"/>
    </g>
    <g clip-path="url(#p9ca6309920)">
     <use xlink:href="#C0_0_1e543ed62b" x="66.573642" y="153.132889" style="fill: #cc78bc"/>
    </g>
    <g clip-path="url(#p9ca6309920)">
     <use xlink:href="#C0_0_1e543ed62b" x="65.383612" y="49.652802" style="fill: #029e73"/>
    </g>
    <g clip-path="url(#p9ca6309920)">
     <use xlink:href="#C0_0_1e543ed62b" x="111.026937" y="175.156988" style="fill: #d55e00"/>
    </g>
    <g clip-path="url(#p9ca6309920)">
     <use xlink:href="#C0_0_1e543ed62b" x="79.743934" y="136.265498" style="fill: #cc78bc"/>
    </g>
    <g clip-path="url(#p9ca6309920)">
     <use xlink:href="#C0_0_1e543ed62b" x="28.487216" y="118.354568" style="fill: #ece133"/>
    </g>
    <g clip-path="url(#p9ca6309920)">
     <use xlink:href="#C0_0_1e543ed62b" x="71.91445" y="119.529388" style="fill: #0173b2"/>
    </g>
    <g clip-path="url(#p9ca6309920)">
     <use xlink:href="#C0_0_1e543ed62b" x="28.761142" y="95.744602" style="fill: #56b4e9"/>
    </g>
    <g clip-path="url(#p9ca6309920)">
     <use xlink:href="#C0_0_1e543ed62b" x="32.09094" y="74.583652" style="fill: #ece133"/>
    </g>
   </g>
   <g id="PathCollection_2"/>
   <g id="PathCollection_3"/>
   <g id="PathCollection_4"/>
   <g id="PathCollection_5"/>
   <g id="PathCollection_6"/>
   <g id="PathCollection_7"/>
   <g id="PathCollection_8"/>
   <g id="PathCollection_9"/>
   <g id="PathCollection_10"/>
   <g id="PathCollection_11"/>
   <g id="PathCollection_12"/>
   <g id="PathCollection_13"/>
   <g id="matplotlib.axis_1">
    <g id="text_1">
     <!-- PC1 -->
     <g transform="translate(94.890625 200.236563) scale(0.1 -0.1)">
      <defs>
       <path id="DejaVuSans-50" d="M 1259 4147 
L 1259 2394 
L 2053 2394 
Q 2494 2394 2734 2622 
Q 2975 2850 2975 3272 
Q 2975 3691 2734 3919 
Q 2494 4147 2053 4147 
L 1259 4147 
z
M 628 4666 
L 2053 4666 
Q 2838 4666 3239 4311 
Q 3641 3956 3641 3272 
Q 3641 2581 3239 2228 
Q 2838 1875 2053 1875 
L 1259 1875 
L 1259 0 
L 628 0 
L 628 4666 
z
" transform="scale(0.015625)"/>
       <path id="DejaVuSans-43" d="M 4122 4306 
L 4122 3641 
Q 3803 3938 3442 4084 
Q 3081 4231 2675 4231 
Q 1875 4231 1450 3742 
Q 1025 3253 1025 2328 
Q 1025 1406 1450 917 
Q 1875 428 2675 428 
Q 3081 428 3442 575 
Q 3803 722 4122 1019 
L 4122 359 
Q 3791 134 3420 21 
Q 3050 -91 2638 -91 
Q 1578 -91 968 557 
Q 359 1206 359 2328 
Q 359 3453 968 4101 
Q 1578 4750 2638 4750 
Q 3056 4750 3426 4639 
Q 3797 4528 4122 4306 
z
" transform="scale(0.015625)"/>
       <path id="DejaVuSans-31" d="M 794 531 
L 1825 531 
L 1825 4091 
L 703 3866 
L 703 4441 
L 1819 4666 
L 2450 4666 
L 2450 531 
L 3481 531 
L 3481 0 
L 794 0 
L 794 531 
z
" transform="scale(0.015625)"/>
      </defs>
      <use xlink:href="#DejaVuSans-50"/>
      <use xlink:href="#DejaVuSans-43" x="60.302734"/>
      <use xlink:href="#DejaVuSans-31" x="130.126953"/>
     </g>
    </g>
   </g>
   <g id="matplotlib.axis_2">
    <g id="text_2">
     <!-- PC2 -->
     <g transform="translate(14.798438 115.165625) rotate(-90) scale(0.1 -0.1)">
      <defs>
       <path id="DejaVuSans-32" d="M 1228 531 
L 3431 531 
L 3431 0 
L 469 0 
L 469 531 
Q 828 903 1448 1529 
Q 2069 2156 2228 2338 
Q 2531 2678 2651 2914 
Q 2772 3150 2772 3378 
Q 2772 3750 2511 3984 
Q 2250 4219 1831 4219 
Q 1534 4219 1204 4116 
Q 875 4013 500 3803 
L 500 4441 
Q 881 4594 1212 4672 
Q 1544 4750 1819 4750 
Q 2544 4750 2975 4387 
Q 3406 4025 3406 3419 
Q 3406 3131 3298 2873 
Q 3191 2616 2906 2266 
Q 2828 2175 2409 1742 
Q 1991 1309 1228 531 
z
" transform="scale(0.015625)"/>
      </defs>
      <use xlink:href="#DejaVuSans-50"/>
      <use xlink:href="#DejaVuSans-43" x="60.302734"/>
      <use xlink:href="#DejaVuSans-32" x="130.126953"/>
     </g>
    </g>
   </g>
   <g id="patch_3">
    <path d="M 20.878125 188.638125 
L 20.878125 22.318125 
" style="fill: none; stroke: #000000; stroke-width: 0.8; stroke-linejoin: miter; stroke-linecap: square"/>
   </g>
   <g id="patch_4">
    <path d="M 188.278125 188.638125 
L 188.278125 22.318125 
" style="fill: none; stroke: #000000; stroke-width: 0.8; stroke-linejoin: miter; stroke-linecap: square"/>
   </g>
   <g id="patch_5">
    <path d="M 20.878125 188.638125 
L 188.278125 188.638125 
" style="fill: none; stroke: #000000; stroke-width: 0.8; stroke-linejoin: miter; stroke-linecap: square"/>
   </g>
   <g id="patch_6">
    <path d="M 20.878125 22.318125 
L 188.278125 22.318125 
" style="fill: none; stroke: #000000; stroke-width: 0.8; stroke-linejoin: miter; stroke-linecap: square"/>
   </g>
   <g id="text_3">
    <!-- ANNOT -->
    <g transform="translate(83.108438 16.318125) scale(0.12 -0.12)">
     <defs>
      <path id="DejaVuSans-41" d="M 2188 4044 
L 1331 1722 
L 3047 1722 
L 2188 4044 
z
M 1831 4666 
L 2547 4666 
L 4325 0 
L 3669 0 
L 3244 1197 
L 1141 1197 
L 716 0 
L 50 0 
L 1831 4666 
z
" transform="scale(0.015625)"/>
      <path id="DejaVuSans-4e" d="M 628 4666 
L 1478 4666 
L 3547 763 
L 3547 4666 
L 4159 4666 
L 4159 0 
L 3309 0 
L 1241 3903 
L 1241 0 
L 628 0 
L 628 4666 
z
" transform="scale(0.015625)"/>
      <path id="DejaVuSans-4f" d="M 2522 4238 
Q 1834 4238 1429 3725 
Q 1025 3213 1025 2328 
Q 1025 1447 1429 934 
Q 1834 422 2522 422 
Q 3209 422 3611 934 
Q 4013 1447 4013 2328 
Q 4013 3213 3611 3725 
Q 3209 4238 2522 4238 
z
M 2522 4750 
Q 3503 4750 4090 4092 
Q 4678 3434 4678 2328 
Q 4678 1225 4090 567 
Q 3503 -91 2522 -91 
Q 1538 -91 948 565 
Q 359 1222 359 2328 
Q 359 3434 948 4092 
Q 1538 4750 2522 4750 
z
" transform="scale(0.015625)"/>
      <path id="DejaVuSans-54" d="M -19 4666 
L 3928 4666 
L 3928 4134 
L 2272 4134 
L 2272 0 
L 1638 0 
L 1638 4134 
L -19 4134 
L -19 4666 
z
" transform="scale(0.015625)"/>
     </defs>
     <use xlink:href="#DejaVuSans-41"/>
     <use xlink:href="#DejaVuSans-4e" x="68.408203"/>
     <use xlink:href="#DejaVuSans-4e" x="143.212891"/>
     <use xlink:href="#DejaVuSans-4f" x="218.017578"/>
     <use xlink:href="#DejaVuSans-54" x="296.728516"/>
    </g>
   </g>
   <g id="legend_1">
    <g id="PathCollection_14">
     <defs>
      <path id="m5c2e9b0f04" d="M 0 3 
C 0.795609 3 1.55874 2.683901 2.12132 2.12132 
C 2.683901 1.55874 3 0.795609 3 0 
C 3 -0.795609 2.683901 -1.55874 2.12132 -2.12132 
C 1.55874 -2.683901 0.795609 -3 0 -3 
C -0.795609 -3 -1.55874 -2.683901 -2.12132 -2.12132 
C -2.683901 -1.55874 -3 -0.795609 -3 0 
C -3 0.795609 -2.683901 1.55874 -2.12132 2.12132 
C -1.55874 2.683901 -0.795609 3 0 3 
z
" style="stroke: #0173b2"/>
     </defs>
     <g>
      <use xlink:href="#m5c2e9b0f04" x="207.278125" y="24.882812" style="fill: #0173b2; stroke: #0173b2"/>
     </g>
    </g>
    <g id="text_4">
     <!-- Actin disruptors -->
     <g transform="translate(225.278125 27.507812) scale(0.1 -0.1)">
      <defs>
       <path id="DejaVuSans-63" d="M 3122 3366 
L 3122 2828 
Q 2878 2963 2633 3030 
Q 2388 3097 2138 3097 
Q 1578 3097 1268 2742 
Q 959 2388 959 1747 
Q 959 1106 1268 751 
Q 1578 397 2138 397 
Q 2388 397 2633 464 
Q 2878 531 3122 666 
L 3122 134 
Q 2881 22 2623 -34 
Q 2366 -91 2075 -91 
Q 1284 -91 818 406 
Q 353 903 353 1747 
Q 353 2603 823 3093 
Q 1294 3584 2113 3584 
Q 2378 3584 2631 3529 
Q 2884 3475 3122 3366 
z
" transform="scale(0.015625)"/>
       <path id="DejaVuSans-74" d="M 1172 4494 
L 1172 3500 
L 2356 3500 
L 2356 3053 
L 1172 3053 
L 1172 1153 
Q 1172 725 1289 603 
Q 1406 481 1766 481 
L 2356 481 
L 2356 0 
L 1766 0 
Q 1100 0 847 248 
Q 594 497 594 1153 
L 594 3053 
L 172 3053 
L 172 3500 
L 594 3500 
L 594 4494 
L 1172 4494 
z
" transform="scale(0.015625)"/>
       <path id="DejaVuSans-69" d="M 603 3500 
L 1178 3500 
L 1178 0 
L 603 0 
L 603 3500 
z
M 603 4863 
L 1178 4863 
L 1178 4134 
L 603 4134 
L 603 4863 
z
" transform="scale(0.015625)"/>
       <path id="DejaVuSans-6e" d="M 3513 2113 
L 3513 0 
L 2938 0 
L 2938 2094 
Q 2938 2591 2744 2837 
Q 2550 3084 2163 3084 
Q 1697 3084 1428 2787 
Q 1159 2491 1159 1978 
L 1159 0 
L 581 0 
L 581 3500 
L 1159 3500 
L 1159 2956 
Q 1366 3272 1645 3428 
Q 1925 3584 2291 3584 
Q 2894 3584 3203 3211 
Q 3513 2838 3513 2113 
z
" transform="scale(0.015625)"/>
       <path id="DejaVuSans-20" transform="scale(0.015625)"/>
       <path id="DejaVuSans-64" d="M 2906 2969 
L 2906 4863 
L 3481 4863 
L 3481 0 
L 2906 0 
L 2906 525 
Q 2725 213 2448 61 
Q 2172 -91 1784 -91 
Q 1150 -91 751 415 
Q 353 922 353 1747 
Q 353 2572 751 3078 
Q 1150 3584 1784 3584 
Q 2172 3584 2448 3432 
Q 2725 3281 2906 2969 
z
M 947 1747 
Q 947 1113 1208 752 
Q 1469 391 1925 391 
Q 2381 391 2643 752 
Q 2906 1113 2906 1747 
Q 2906 2381 2643 2742 
Q 2381 3103 1925 3103 
Q 1469 3103 1208 2742 
Q 947 2381 947 1747 
z
" transform="scale(0.015625)"/>
       <path id="DejaVuSans-73" d="M 2834 3397 
L 2834 2853 
Q 2591 2978 2328 3040 
Q 2066 3103 1784 3103 
Q 1356 3103 1142 2972 
Q 928 2841 928 2578 
Q 928 2378 1081 2264 
Q 1234 2150 1697 2047 
L 1894 2003 
Q 2506 1872 2764 1633 
Q 3022 1394 3022 966 
Q 3022 478 2636 193 
Q 2250 -91 1575 -91 
Q 1294 -91 989 -36 
Q 684 19 347 128 
L 347 722 
Q 666 556 975 473 
Q 1284 391 1588 391 
Q 1994 391 2212 530 
Q 2431 669 2431 922 
Q 2431 1156 2273 1281 
Q 2116 1406 1581 1522 
L 1381 1569 
Q 847 1681 609 1914 
Q 372 2147 372 2553 
Q 372 3047 722 3315 
Q 1072 3584 1716 3584 
Q 2034 3584 2315 3537 
Q 2597 3491 2834 3397 
z
" transform="scale(0.015625)"/>
       <path id="DejaVuSans-72" d="M 2631 2963 
Q 2534 3019 2420 3045 
Q 2306 3072 2169 3072 
Q 1681 3072 1420 2755 
Q 1159 2438 1159 1844 
L 1159 0 
L 581 0 
L 581 3500 
L 1159 3500 
L 1159 2956 
Q 1341 3275 1631 3429 
Q 1922 3584 2338 3584 
Q 2397 3584 2469 3576 
Q 2541 3569 2628 3553 
L 2631 2963 
z
" transform="scale(0.015625)"/>
       <path id="DejaVuSans-75" d="M 544 1381 
L 544 3500 
L 1119 3500 
L 1119 1403 
Q 1119 906 1312 657 
Q 1506 409 1894 409 
Q 2359 409 2629 706 
Q 2900 1003 2900 1516 
L 2900 3500 
L 3475 3500 
L 3475 0 
L 2900 0 
L 2900 538 
Q 2691 219 2414 64 
Q 2138 -91 1772 -91 
Q 1169 -91 856 284 
Q 544 659 544 1381 
z
M 1991 3584 
L 1991 3584 
z
" transform="scale(0.015625)"/>
       <path id="DejaVuSans-70" d="M 1159 525 
L 1159 -1331 
L 581 -1331 
L 581 3500 
L 1159 3500 
L 1159 2969 
Q 1341 3281 1617 3432 
Q 1894 3584 2278 3584 
Q 2916 3584 3314 3078 
Q 3713 2572 3713 1747 
Q 3713 922 3314 415 
Q 2916 -91 2278 -91 
Q 1894 -91 1617 61 
Q 1341 213 1159 525 
z
M 3116 1747 
Q 3116 2381 2855 2742 
Q 2594 3103 2138 3103 
Q 1681 3103 1420 2742 
Q 1159 2381 1159 1747 
Q 1159 1113 1420 752 
Q 1681 391 2138 391 
Q 2594 391 2855 752 
Q 3116 1113 3116 1747 
z
" transform="scale(0.015625)"/>
       <path id="DejaVuSans-6f" d="M 1959 3097 
Q 1497 3097 1228 2736 
Q 959 2375 959 1747 
Q 959 1119 1226 758 
Q 1494 397 1959 397 
Q 2419 397 2687 759 
Q 2956 1122 2956 1747 
Q 2956 2369 2687 2733 
Q 2419 3097 1959 3097 
z
M 1959 3584 
Q 2709 3584 3137 3096 
Q 3566 2609 3566 1747 
Q 3566 888 3137 398 
Q 2709 -91 1959 -91 
Q 1206 -91 779 398 
Q 353 888 353 1747 
Q 353 2609 779 3096 
Q 1206 3584 1959 3584 
z
" transform="scale(0.015625)"/>
      </defs>
      <use xlink:href="#DejaVuSans-41"/>
      <use xlink:href="#DejaVuSans-63" x="66.658203"/>
      <use xlink:href="#DejaVuSans-74" x="121.638672"/>
      <use xlink:href="#DejaVuSans-69" x="160.847656"/>
      <use xlink:href="#DejaVuSans-6e" x="188.630859"/>
      <use xlink:href="#DejaVuSans-20" x="252.009766"/>
      <use xlink:href="#DejaVuSans-64" x="283.796875"/>
      <use xlink:href="#DejaVuSans-69" x="347.273438"/>
      <use xlink:href="#DejaVuSans-73" x="375.056641"/>
      <use xlink:href="#DejaVuSans-72" x="427.15625"/>
      <use xlink:href="#DejaVuSans-75" x="468.269531"/>
      <use xlink:href="#DejaVuSans-70" x="531.648438"/>
      <use xlink:href="#DejaVuSans-74" x="595.125"/>
      <use xlink:href="#DejaVuSans-6f" x="634.333984"/>
      <use xlink:href="#DejaVuSans-72" x="695.515625"/>
      <use xlink:href="#DejaVuSans-73" x="736.628906"/>
     </g>
    </g>
    <g id="PathCollection_15">
     <defs>
      <path id="m06944fb198" d="M 0 3 
C 0.795609 3 1.55874 2.683901 2.12132 2.12132 
C 2.683901 1.55874 3 0.795609 3 0 
C 3 -0.795609 2.683901 -1.55874 2.12132 -2.12132 
C 1.55874 -2.683901 0.795609 -3 0 -3 
C -0.795609 -3 -1.55874 -2.683901 -2.12132 -2.12132 
C -2.683901 -1.55874 -3 -0.795609 -3 0 
C -3 0.795609 -2.683901 1.55874 -2.12132 2.12132 
C -1.55874 2.683901 -0.795609 3 0 3 
z
" style="stroke: #de8f05"/>
     </defs>
     <g>
      <use xlink:href="#m06944fb198" x="207.278125" y="39.560938" style="fill: #de8f05; stroke: #de8f05"/>
     </g>
    </g>
    <g id="text_5">
     <!-- Aurora kinase inhibitors -->
     <g transform="translate(225.278125 42.185938) scale(0.1 -0.1)">
      <defs>
       <path id="DejaVuSans-61" d="M 2194 1759 
Q 1497 1759 1228 1600 
Q 959 1441 959 1056 
Q 959 750 1161 570 
Q 1363 391 1709 391 
Q 2188 391 2477 730 
Q 2766 1069 2766 1631 
L 2766 1759 
L 2194 1759 
z
M 3341 1997 
L 3341 0 
L 2766 0 
L 2766 531 
Q 2569 213 2275 61 
Q 1981 -91 1556 -91 
Q 1019 -91 701 211 
Q 384 513 384 1019 
Q 384 1609 779 1909 
Q 1175 2209 1959 2209 
L 2766 2209 
L 2766 2266 
Q 2766 2663 2505 2880 
Q 2244 3097 1772 3097 
Q 1472 3097 1187 3025 
Q 903 2953 641 2809 
L 641 3341 
Q 956 3463 1253 3523 
Q 1550 3584 1831 3584 
Q 2591 3584 2966 3190 
Q 3341 2797 3341 1997 
z
" transform="scale(0.015625)"/>
       <path id="DejaVuSans-6b" d="M 581 4863 
L 1159 4863 
L 1159 1991 
L 2875 3500 
L 3609 3500 
L 1753 1863 
L 3688 0 
L 2938 0 
L 1159 1709 
L 1159 0 
L 581 0 
L 581 4863 
z
" transform="scale(0.015625)"/>
       <path id="DejaVuSans-65" d="M 3597 1894 
L 3597 1613 
L 953 1613 
Q 991 1019 1311 708 
Q 1631 397 2203 397 
Q 2534 397 2845 478 
Q 3156 559 3463 722 
L 3463 178 
Q 3153 47 2828 -22 
Q 2503 -91 2169 -91 
Q 1331 -91 842 396 
Q 353 884 353 1716 
Q 353 2575 817 3079 
Q 1281 3584 2069 3584 
Q 2775 3584 3186 3129 
Q 3597 2675 3597 1894 
z
M 3022 2063 
Q 3016 2534 2758 2815 
Q 2500 3097 2075 3097 
Q 1594 3097 1305 2825 
Q 1016 2553 972 2059 
L 3022 2063 
z
" transform="scale(0.015625)"/>
       <path id="DejaVuSans-68" d="M 3513 2113 
L 3513 0 
L 2938 0 
L 2938 2094 
Q 2938 2591 2744 2837 
Q 2550 3084 2163 3084 
Q 1697 3084 1428 2787 
Q 1159 2491 1159 1978 
L 1159 0 
L 581 0 
L 581 4863 
L 1159 4863 
L 1159 2956 
Q 1366 3272 1645 3428 
Q 1925 3584 2291 3584 
Q 2894 3584 3203 3211 
Q 3513 2838 3513 2113 
z
" transform="scale(0.015625)"/>
       <path id="DejaVuSans-62" d="M 3116 1747 
Q 3116 2381 2855 2742 
Q 2594 3103 2138 3103 
Q 1681 3103 1420 2742 
Q 1159 2381 1159 1747 
Q 1159 1113 1420 752 
Q 1681 391 2138 391 
Q 2594 391 2855 752 
Q 3116 1113 3116 1747 
z
M 1159 2969 
Q 1341 3281 1617 3432 
Q 1894 3584 2278 3584 
Q 2916 3584 3314 3078 
Q 3713 2572 3713 1747 
Q 3713 922 3314 415 
Q 2916 -91 2278 -91 
Q 1894 -91 1617 61 
Q 1341 213 1159 525 
L 1159 0 
L 581 0 
L 581 4863 
L 1159 4863 
L 1159 2969 
z
" transform="scale(0.015625)"/>
      </defs>
      <use xlink:href="#DejaVuSans-41"/>
      <use xlink:href="#DejaVuSans-75" x="68.408203"/>
      <use xlink:href="#DejaVuSans-72" x="131.787109"/>
      <use xlink:href="#DejaVuSans-6f" x="170.650391"/>
      <use xlink:href="#DejaVuSans-72" x="231.832031"/>
      <use xlink:href="#DejaVuSans-61" x="272.945312"/>
      <use xlink:href="#DejaVuSans-20" x="334.224609"/>
      <use xlink:href="#DejaVuSans-6b" x="366.011719"/>
      <use xlink:href="#DejaVuSans-69" x="423.921875"/>
      <use xlink:href="#DejaVuSans-6e" x="451.705078"/>
      <use xlink:href="#DejaVuSans-61" x="515.083984"/>
      <use xlink:href="#DejaVuSans-73" x="576.363281"/>
      <use xlink:href="#DejaVuSans-65" x="628.462891"/>
      <use xlink:href="#DejaVuSans-20" x="689.986328"/>
      <use xlink:href="#DejaVuSans-69" x="721.773438"/>
      <use xlink:href="#DejaVuSans-6e" x="749.556641"/>
      <use xlink:href="#DejaVuSans-68" x="812.935547"/>
      <use xlink:href="#DejaVuSans-69" x="876.314453"/>
      <use xlink:href="#DejaVuSans-62" x="904.097656"/>
      <use xlink:href="#DejaVuSans-69" x="967.574219"/>
      <use xlink:href="#DejaVuSans-74" x="995.357422"/>
      <use xlink:href="#DejaVuSans-6f" x="1034.566406"/>
      <use xlink:href="#DejaVuSans-72" x="1095.748047"/>
      <use xlink:href="#DejaVuSans-73" x="1136.861328"/>
     </g>
    </g>
    <g id="PathCollection_16">
     <defs>
      <path id="m1ba456f84c" d="M 0 3 
C 0.795609 3 1.55874 2.683901 2.12132 2.12132 
C 2.683901 1.55874 3 0.795609 3 0 
C 3 -0.795609 2.683901 -1.55874 2.12132 -2.12132 
C 1.55874 -2.683901 0.795609 -3 0 -3 
C -0.795609 -3 -1.55874 -2.683901 -2.12132 -2.12132 
C -2.683901 -1.55874 -3 -0.795609 -3 0 
C -3 0.795609 -2.683901 1.55874 -2.12132 2.12132 
C -1.55874 2.683901 -0.795609 3 0 3 
z
" style="stroke: #029e73"/>
     </defs>
     <g>
      <use xlink:href="#m1ba456f84c" x="207.278125" y="54.239063" style="fill: #029e73; stroke: #029e73"/>
     </g>
    </g>
    <g id="text_6">
     <!-- Cholesterol-lowering -->
     <g transform="translate(225.278125 56.864063) scale(0.1 -0.1)">
      <defs>
       <path id="DejaVuSans-6c" d="M 603 4863 
L 1178 4863 
L 1178 0 
L 603 0 
L 603 4863 
z
" transform="scale(0.015625)"/>
       <path id="DejaVuSans-2d" d="M 313 2009 
L 1997 2009 
L 1997 1497 
L 313 1497 
L 313 2009 
z
" transform="scale(0.015625)"/>
       <path id="DejaVuSans-77" d="M 269 3500 
L 844 3500 
L 1563 769 
L 2278 3500 
L 2956 3500 
L 3675 769 
L 4391 3500 
L 4966 3500 
L 4050 0 
L 3372 0 
L 2619 2869 
L 1863 0 
L 1184 0 
L 269 3500 
z
" transform="scale(0.015625)"/>
       <path id="DejaVuSans-67" d="M 2906 1791 
Q 2906 2416 2648 2759 
Q 2391 3103 1925 3103 
Q 1463 3103 1205 2759 
Q 947 2416 947 1791 
Q 947 1169 1205 825 
Q 1463 481 1925 481 
Q 2391 481 2648 825 
Q 2906 1169 2906 1791 
z
M 3481 434 
Q 3481 -459 3084 -895 
Q 2688 -1331 1869 -1331 
Q 1566 -1331 1297 -1286 
Q 1028 -1241 775 -1147 
L 775 -588 
Q 1028 -725 1275 -790 
Q 1522 -856 1778 -856 
Q 2344 -856 2625 -561 
Q 2906 -266 2906 331 
L 2906 616 
Q 2728 306 2450 153 
Q 2172 0 1784 0 
Q 1141 0 747 490 
Q 353 981 353 1791 
Q 353 2603 747 3093 
Q 1141 3584 1784 3584 
Q 2172 3584 2450 3431 
Q 2728 3278 2906 2969 
L 2906 3500 
L 3481 3500 
L 3481 434 
z
" transform="scale(0.015625)"/>
      </defs>
      <use xlink:href="#DejaVuSans-43"/>
      <use xlink:href="#DejaVuSans-68" x="69.824219"/>
      <use xlink:href="#DejaVuSans-6f" x="133.203125"/>
      <use xlink:href="#DejaVuSans-6c" x="194.384766"/>
      <use xlink:href="#DejaVuSans-65" x="222.167969"/>
      <use xlink:href="#DejaVuSans-73" x="283.691406"/>
      <use xlink:href="#DejaVuSans-74" x="335.791016"/>
      <use xlink:href="#DejaVuSans-65" x="375"/>
      <use xlink:href="#DejaVuSans-72" x="436.523438"/>
      <use xlink:href="#DejaVuSans-6f" x="475.386719"/>
      <use xlink:href="#DejaVuSans-6c" x="536.568359"/>
      <use xlink:href="#DejaVuSans-2d" x="564.351562"/>
      <use xlink:href="#DejaVuSans-6c" x="600.435547"/>
      <use xlink:href="#DejaVuSans-6f" x="628.21875"/>
      <use xlink:href="#DejaVuSans-77" x="689.400391"/>
      <use xlink:href="#DejaVuSans-65" x="771.1875"/>
      <use xlink:href="#DejaVuSans-72" x="832.710938"/>
      <use xlink:href="#DejaVuSans-69" x="873.824219"/>
      <use xlink:href="#DejaVuSans-6e" x="901.607422"/>
      <use xlink:href="#DejaVuSans-67" x="964.986328"/>
     </g>
    </g>
    <g id="PathCollection_17">
     <defs>
      <path id="m2a45a5f236" d="M 0 3 
C 0.795609 3 1.55874 2.683901 2.12132 2.12132 
C 2.683901 1.55874 3 0.795609 3 0 
C 3 -0.795609 2.683901 -1.55874 2.12132 -2.12132 
C 1.55874 -2.683901 0.795609 -3 0 -3 
C -0.795609 -3 -1.55874 -2.683901 -2.12132 -2.12132 
C -2.683901 -1.55874 -3 -0.795609 -3 0 
C -3 0.795609 -2.683901 1.55874 -2.12132 2.12132 
C -1.55874 2.683901 -0.795609 3 0 3 
z
" style="stroke: #d55e00"/>
     </defs>
     <g>
      <use xlink:href="#m2a45a5f236" x="207.278125" y="68.917188" style="fill: #d55e00; stroke: #d55e00"/>
     </g>
    </g>
    <g id="text_7">
     <!-- DNA damage -->
     <g transform="translate(225.278125 71.542188) scale(0.1 -0.1)">
      <defs>
       <path id="DejaVuSans-44" d="M 1259 4147 
L 1259 519 
L 2022 519 
Q 2988 519 3436 956 
Q 3884 1394 3884 2338 
Q 3884 3275 3436 3711 
Q 2988 4147 2022 4147 
L 1259 4147 
z
M 628 4666 
L 1925 4666 
Q 3281 4666 3915 4102 
Q 4550 3538 4550 2338 
Q 4550 1131 3912 565 
Q 3275 0 1925 0 
L 628 0 
L 628 4666 
z
" transform="scale(0.015625)"/>
       <path id="DejaVuSans-6d" d="M 3328 2828 
Q 3544 3216 3844 3400 
Q 4144 3584 4550 3584 
Q 5097 3584 5394 3201 
Q 5691 2819 5691 2113 
L 5691 0 
L 5113 0 
L 5113 2094 
Q 5113 2597 4934 2840 
Q 4756 3084 4391 3084 
Q 3944 3084 3684 2787 
Q 3425 2491 3425 1978 
L 3425 0 
L 2847 0 
L 2847 2094 
Q 2847 2600 2669 2842 
Q 2491 3084 2119 3084 
Q 1678 3084 1418 2786 
Q 1159 2488 1159 1978 
L 1159 0 
L 581 0 
L 581 3500 
L 1159 3500 
L 1159 2956 
Q 1356 3278 1631 3431 
Q 1906 3584 2284 3584 
Q 2666 3584 2933 3390 
Q 3200 3197 3328 2828 
z
" transform="scale(0.015625)"/>
      </defs>
      <use xlink:href="#DejaVuSans-44"/>
      <use xlink:href="#DejaVuSans-4e" x="77.001953"/>
      <use xlink:href="#DejaVuSans-41" x="151.806641"/>
      <use xlink:href="#DejaVuSans-20" x="220.214844"/>
      <use xlink:href="#DejaVuSans-64" x="252.001953"/>
      <use xlink:href="#DejaVuSans-61" x="315.478516"/>
      <use xlink:href="#DejaVuSans-6d" x="376.757812"/>
      <use xlink:href="#DejaVuSans-61" x="474.169922"/>
      <use xlink:href="#DejaVuSans-67" x="535.449219"/>
      <use xlink:href="#DejaVuSans-65" x="598.925781"/>
     </g>
    </g>
    <g id="PathCollection_18">
     <defs>
      <path id="mfe4c163bb3" d="M 0 3 
C 0.795609 3 1.55874 2.683901 2.12132 2.12132 
C 2.683901 1.55874 3 0.795609 3 0 
C 3 -0.795609 2.683901 -1.55874 2.12132 -2.12132 
C 1.55874 -2.683901 0.795609 -3 0 -3 
C -0.795609 -3 -1.55874 -2.683901 -2.12132 -2.12132 
C -2.683901 -1.55874 -3 -0.795609 -3 0 
C -3 0.795609 -2.683901 1.55874 -2.12132 2.12132 
C -1.55874 2.683901 -0.795609 3 0 3 
z
" style="stroke: #cc78bc"/>
     </defs>
     <g>
      <use xlink:href="#mfe4c163bb3" x="207.278125" y="83.595313" style="fill: #cc78bc; stroke: #cc78bc"/>
     </g>
    </g>
    <g id="text_8">
     <!-- DNA replication -->
     <g transform="translate(225.278125 86.220313) scale(0.1 -0.1)">
      <use xlink:href="#DejaVuSans-44"/>
      <use xlink:href="#DejaVuSans-4e" x="77.001953"/>
      <use xlink:href="#DejaVuSans-41" x="151.806641"/>
      <use xlink:href="#DejaVuSans-20" x="220.214844"/>
      <use xlink:href="#DejaVuSans-72" x="252.001953"/>
      <use xlink:href="#DejaVuSans-65" x="290.865234"/>
      <use xlink:href="#DejaVuSans-70" x="352.388672"/>
      <use xlink:href="#DejaVuSans-6c" x="415.865234"/>
      <use xlink:href="#DejaVuSans-69" x="443.648438"/>
      <use xlink:href="#DejaVuSans-63" x="471.431641"/>
      <use xlink:href="#DejaVuSans-61" x="526.412109"/>
      <use xlink:href="#DejaVuSans-74" x="587.691406"/>
      <use xlink:href="#DejaVuSans-69" x="626.900391"/>
      <use xlink:href="#DejaVuSans-6f" x="654.683594"/>
      <use xlink:href="#DejaVuSans-6e" x="715.865234"/>
     </g>
    </g>
    <g id="PathCollection_19">
     <defs>
      <path id="md53de9bacc" d="M 0 3 
C 0.795609 3 1.55874 2.683901 2.12132 2.12132 
C 2.683901 1.55874 3 0.795609 3 0 
C 3 -0.795609 2.683901 -1.55874 2.12132 -2.12132 
C 1.55874 -2.683901 0.795609 -3 0 -3 
C -0.795609 -3 -1.55874 -2.683901 -2.12132 -2.12132 
C -2.683901 -1.55874 -3 -0.795609 -3 0 
C -3 0.795609 -2.683901 1.55874 -2.12132 2.12132 
C -1.55874 2.683901 -0.795609 3 0 3 
z
" style="stroke: #ca9161"/>
     </defs>
     <g>
      <use xlink:href="#md53de9bacc" x="207.278125" y="98.273438" style="fill: #ca9161; stroke: #ca9161"/>
     </g>
    </g>
    <g id="text_9">
     <!-- Eg5 inhibitors -->
     <g transform="translate(225.278125 100.898438) scale(0.1 -0.1)">
      <defs>
       <path id="DejaVuSans-45" d="M 628 4666 
L 3578 4666 
L 3578 4134 
L 1259 4134 
L 1259 2753 
L 3481 2753 
L 3481 2222 
L 1259 2222 
L 1259 531 
L 3634 531 
L 3634 0 
L 628 0 
L 628 4666 
z
" transform="scale(0.015625)"/>
       <path id="DejaVuSans-35" d="M 691 4666 
L 3169 4666 
L 3169 4134 
L 1269 4134 
L 1269 2991 
Q 1406 3038 1543 3061 
Q 1681 3084 1819 3084 
Q 2600 3084 3056 2656 
Q 3513 2228 3513 1497 
Q 3513 744 3044 326 
Q 2575 -91 1722 -91 
Q 1428 -91 1123 -41 
Q 819 9 494 109 
L 494 744 
Q 775 591 1075 516 
Q 1375 441 1709 441 
Q 2250 441 2565 725 
Q 2881 1009 2881 1497 
Q 2881 1984 2565 2268 
Q 2250 2553 1709 2553 
Q 1456 2553 1204 2497 
Q 953 2441 691 2322 
L 691 4666 
z
" transform="scale(0.015625)"/>
      </defs>
      <use xlink:href="#DejaVuSans-45"/>
      <use xlink:href="#DejaVuSans-67" x="63.183594"/>
      <use xlink:href="#DejaVuSans-35" x="126.660156"/>
      <use xlink:href="#DejaVuSans-20" x="190.283203"/>
      <use xlink:href="#DejaVuSans-69" x="222.070312"/>
      <use xlink:href="#DejaVuSans-6e" x="249.853516"/>
      <use xlink:href="#DejaVuSans-68" x="313.232422"/>
      <use xlink:href="#DejaVuSans-69" x="376.611328"/>
      <use xlink:href="#DejaVuSans-62" x="404.394531"/>
      <use xlink:href="#DejaVuSans-69" x="467.871094"/>
      <use xlink:href="#DejaVuSans-74" x="495.654297"/>
      <use xlink:href="#DejaVuSans-6f" x="534.863281"/>
      <use xlink:href="#DejaVuSans-72" x="596.044922"/>
      <use xlink:href="#DejaVuSans-73" x="637.158203"/>
     </g>
    </g>
    <g id="PathCollection_20">
     <defs>
      <path id="mcd6a5592bd" d="M 0 3 
C 0.795609 3 1.55874 2.683901 2.12132 2.12132 
C 2.683901 1.55874 3 0.795609 3 0 
C 3 -0.795609 2.683901 -1.55874 2.12132 -2.12132 
C 1.55874 -2.683901 0.795609 -3 0 -3 
C -0.795609 -3 -1.55874 -2.683901 -2.12132 -2.12132 
C -2.683901 -1.55874 -3 -0.795609 -3 0 
C -3 0.795609 -2.683901 1.55874 -2.12132 2.12132 
C -1.55874 2.683901 -0.795609 3 0 3 
z
" style="stroke: #fbafe4"/>
     </defs>
     <g>
      <use xlink:href="#mcd6a5592bd" x="207.278125" y="112.951563" style="fill: #fbafe4; stroke: #fbafe4"/>
     </g>
    </g>
    <g id="text_10">
     <!-- Epithelial -->
     <g transform="translate(225.278125 115.576563) scale(0.1 -0.1)">
      <use xlink:href="#DejaVuSans-45"/>
      <use xlink:href="#DejaVuSans-70" x="63.183594"/>
      <use xlink:href="#DejaVuSans-69" x="126.660156"/>
      <use xlink:href="#DejaVuSans-74" x="154.443359"/>
      <use xlink:href="#DejaVuSans-68" x="193.652344"/>
      <use xlink:href="#DejaVuSans-65" x="257.03125"/>
      <use xlink:href="#DejaVuSans-6c" x="318.554688"/>
      <use xlink:href="#DejaVuSans-69" x="346.337891"/>
      <use xlink:href="#DejaVuSans-61" x="374.121094"/>
      <use xlink:href="#DejaVuSans-6c" x="435.400391"/>
     </g>
    </g>
    <g id="PathCollection_21">
     <defs>
      <path id="m78bf881193" d="M 0 3 
C 0.795609 3 1.55874 2.683901 2.12132 2.12132 
C 2.683901 1.55874 3 0.795609 3 0 
C 3 -0.795609 2.683901 -1.55874 2.12132 -2.12132 
C 1.55874 -2.683901 0.795609 -3 0 -3 
C -0.795609 -3 -1.55874 -2.683901 -2.12132 -2.12132 
C -2.683901 -1.55874 -3 -0.795609 -3 0 
C -3 0.795609 -2.683901 1.55874 -2.12132 2.12132 
C -1.55874 2.683901 -0.795609 3 0 3 
z
" style="stroke: #949494"/>
     </defs>
     <g>
      <use xlink:href="#m78bf881193" x="207.278125" y="127.629687" style="fill: #949494; stroke: #949494"/>
     </g>
    </g>
    <g id="text_11">
     <!-- Kinase inhibitors -->
     <g transform="translate(225.278125 130.254687) scale(0.1 -0.1)">
      <defs>
       <path id="DejaVuSans-4b" d="M 628 4666 
L 1259 4666 
L 1259 2694 
L 3353 4666 
L 4166 4666 
L 1850 2491 
L 4331 0 
L 3500 0 
L 1259 2247 
L 1259 0 
L 628 0 
L 628 4666 
z
" transform="scale(0.015625)"/>
      </defs>
      <use xlink:href="#DejaVuSans-4b"/>
      <use xlink:href="#DejaVuSans-69" x="65.576172"/>
      <use xlink:href="#DejaVuSans-6e" x="93.359375"/>
      <use xlink:href="#DejaVuSans-61" x="156.738281"/>
      <use xlink:href="#DejaVuSans-73" x="218.017578"/>
      <use xlink:href="#DejaVuSans-65" x="270.117188"/>
      <use xlink:href="#DejaVuSans-20" x="331.640625"/>
      <use xlink:href="#DejaVuSans-69" x="363.427734"/>
      <use xlink:href="#DejaVuSans-6e" x="391.210938"/>
      <use xlink:href="#DejaVuSans-68" x="454.589844"/>
      <use xlink:href="#DejaVuSans-69" x="517.96875"/>
      <use xlink:href="#DejaVuSans-62" x="545.751953"/>
      <use xlink:href="#DejaVuSans-69" x="609.228516"/>
      <use xlink:href="#DejaVuSans-74" x="637.011719"/>
      <use xlink:href="#DejaVuSans-6f" x="676.220703"/>
      <use xlink:href="#DejaVuSans-72" x="737.402344"/>
      <use xlink:href="#DejaVuSans-73" x="778.515625"/>
     </g>
    </g>
    <g id="PathCollection_22">
     <defs>
      <path id="m5874c02fa8" d="M 0 3 
C 0.795609 3 1.55874 2.683901 2.12132 2.12132 
C 2.683901 1.55874 3 0.795609 3 0 
C 3 -0.795609 2.683901 -1.55874 2.12132 -2.12132 
C 1.55874 -2.683901 0.795609 -3 0 -3 
C -0.795609 -3 -1.55874 -2.683901 -2.12132 -2.12132 
C -2.683901 -1.55874 -3 -0.795609 -3 0 
C -3 0.795609 -2.683901 1.55874 -2.12132 2.12132 
C -1.55874 2.683901 -0.795609 3 0 3 
z
" style="stroke: #ece133"/>
     </defs>
     <g>
      <use xlink:href="#m5874c02fa8" x="207.278125" y="142.307813" style="fill: #ece133; stroke: #ece133"/>
     </g>
    </g>
    <g id="text_12">
     <!-- Microtubule destabilizers -->
     <g transform="translate(225.278125 144.932813) scale(0.1 -0.1)">
      <defs>
       <path id="DejaVuSans-4d" d="M 628 4666 
L 1569 4666 
L 2759 1491 
L 3956 4666 
L 4897 4666 
L 4897 0 
L 4281 0 
L 4281 4097 
L 3078 897 
L 2444 897 
L 1241 4097 
L 1241 0 
L 628 0 
L 628 4666 
z
" transform="scale(0.015625)"/>
       <path id="DejaVuSans-7a" d="M 353 3500 
L 3084 3500 
L 3084 2975 
L 922 459 
L 3084 459 
L 3084 0 
L 275 0 
L 275 525 
L 2438 3041 
L 353 3041 
L 353 3500 
z
" transform="scale(0.015625)"/>
      </defs>
      <use xlink:href="#DejaVuSans-4d"/>
      <use xlink:href="#DejaVuSans-69" x="86.279297"/>
      <use xlink:href="#DejaVuSans-63" x="114.0625"/>
      <use xlink:href="#DejaVuSans-72" x="169.042969"/>
      <use xlink:href="#DejaVuSans-6f" x="207.90625"/>
      <use xlink:href="#DejaVuSans-74" x="269.087891"/>
      <use xlink:href="#DejaVuSans-75" x="308.296875"/>
      <use xlink:href="#DejaVuSans-62" x="371.675781"/>
      <use xlink:href="#DejaVuSans-75" x="435.152344"/>
      <use xlink:href="#DejaVuSans-6c" x="498.53125"/>
      <use xlink:href="#DejaVuSans-65" x="526.314453"/>
      <use xlink:href="#DejaVuSans-20" x="587.837891"/>
      <use xlink:href="#DejaVuSans-64" x="619.625"/>
      <use xlink:href="#DejaVuSans-65" x="683.101562"/>
      <use xlink:href="#DejaVuSans-73" x="744.625"/>
      <use xlink:href="#DejaVuSans-74" x="796.724609"/>
      <use xlink:href="#DejaVuSans-61" x="835.933594"/>
      <use xlink:href="#DejaVuSans-62" x="897.212891"/>
      <use xlink:href="#DejaVuSans-69" x="960.689453"/>
      <use xlink:href="#DejaVuSans-6c" x="988.472656"/>
      <use xlink:href="#DejaVuSans-69" x="1016.255859"/>
      <use xlink:href="#DejaVuSans-7a" x="1044.039062"/>
      <use xlink:href="#DejaVuSans-65" x="1096.529297"/>
      <use xlink:href="#DejaVuSans-72" x="1158.052734"/>
      <use xlink:href="#DejaVuSans-73" x="1199.166016"/>
     </g>
    </g>
    <g id="PathCollection_23">
     <defs>
      <path id="mb73669e72f" d="M 0 3 
C 0.795609 3 1.55874 2.683901 2.12132 2.12132 
C 2.683901 1.55874 3 0.795609 3 0 
C 3 -0.795609 2.683901 -1.55874 2.12132 -2.12132 
C 1.55874 -2.683901 0.795609 -3 0 -3 
C -0.795609 -3 -1.55874 -2.683901 -2.12132 -2.12132 
C -2.683901 -1.55874 -3 -0.795609 -3 0 
C -3 0.795609 -2.683901 1.55874 -2.12132 2.12132 
C -1.55874 2.683901 -0.795609 3 0 3 
z
" style="stroke: #56b4e9"/>
     </defs>
     <g>
      <use xlink:href="#mb73669e72f" x="207.278125" y="156.985937" style="fill: #56b4e9; stroke: #56b4e9"/>
     </g>
    </g>
    <g id="text_13">
     <!-- Microtubule stabilizers -->
     <g transform="translate(225.278125 159.610937) scale(0.1 -0.1)">
      <use xlink:href="#DejaVuSans-4d"/>
      <use xlink:href="#DejaVuSans-69" x="86.279297"/>
      <use xlink:href="#DejaVuSans-63" x="114.0625"/>
      <use xlink:href="#DejaVuSans-72" x="169.042969"/>
      <use xlink:href="#DejaVuSans-6f" x="207.90625"/>
      <use xlink:href="#DejaVuSans-74" x="269.087891"/>
      <use xlink:href="#DejaVuSans-75" x="308.296875"/>
      <use xlink:href="#DejaVuSans-62" x="371.675781"/>
      <use xlink:href="#DejaVuSans-75" x="435.152344"/>
      <use xlink:href="#DejaVuSans-6c" x="498.53125"/>
      <use xlink:href="#DejaVuSans-65" x="526.314453"/>
      <use xlink:href="#DejaVuSans-20" x="587.837891"/>
      <use xlink:href="#DejaVuSans-73" x="619.625"/>
      <use xlink:href="#DejaVuSans-74" x="671.724609"/>
      <use xlink:href="#DejaVuSans-61" x="710.933594"/>
      <use xlink:href="#DejaVuSans-62" x="772.212891"/>
      <use xlink:href="#DejaVuSans-69" x="835.689453"/>
      <use xlink:href="#DejaVuSans-6c" x="863.472656"/>
      <use xlink:href="#DejaVuSans-69" x="891.255859"/>
      <use xlink:href="#DejaVuSans-7a" x="919.039062"/>
      <use xlink:href="#DejaVuSans-65" x="971.529297"/>
      <use xlink:href="#DejaVuSans-72" x="1033.052734"/>
      <use xlink:href="#DejaVuSans-73" x="1074.166016"/>
     </g>
    </g>
    <g id="PathCollection_24">
     <g>
      <use xlink:href="#m5c2e9b0f04" x="207.278125" y="171.664062" style="fill: #0173b2; stroke: #0173b2"/>
     </g>
    </g>
    <g id="text_14">
     <!-- Protein degradation -->
     <g transform="translate(225.278125 174.289062) scale(0.1 -0.1)">
      <use xlink:href="#DejaVuSans-50"/>
      <use xlink:href="#DejaVuSans-72" x="58.552734"/>
      <use xlink:href="#DejaVuSans-6f" x="97.416016"/>
      <use xlink:href="#DejaVuSans-74" x="158.597656"/>
      <use xlink:href="#DejaVuSans-65" x="197.806641"/>
      <use xlink:href="#DejaVuSans-69" x="259.330078"/>
      <use xlink:href="#DejaVuSans-6e" x="287.113281"/>
      <use xlink:href="#DejaVuSans-20" x="350.492188"/>
      <use xlink:href="#DejaVuSans-64" x="382.279297"/>
      <use xlink:href="#DejaVuSans-65" x="445.755859"/>
      <use xlink:href="#DejaVuSans-67" x="507.279297"/>
      <use xlink:href="#DejaVuSans-72" x="570.755859"/>
      <use xlink:href="#DejaVuSans-61" x="611.869141"/>
      <use xlink:href="#DejaVuSans-64" x="673.148438"/>
      <use xlink:href="#DejaVuSans-61" x="736.625"/>
      <use xlink:href="#DejaVuSans-74" x="797.904297"/>
      <use xlink:href="#DejaVuSans-69" x="837.113281"/>
      <use xlink:href="#DejaVuSans-6f" x="864.896484"/>
      <use xlink:href="#DejaVuSans-6e" x="926.078125"/>
     </g>
    </g>
    <g id="PathCollection_25">
     <g>
      <use xlink:href="#m06944fb198" x="207.278125" y="186.342187" style="fill: #de8f05; stroke: #de8f05"/>
     </g>
    </g>
    <g id="text_15">
     <!-- Protein synthesis -->
     <g transform="translate(225.278125 188.967187) scale(0.1 -0.1)">
      <defs>
       <path id="DejaVuSans-79" d="M 2059 -325 
Q 1816 -950 1584 -1140 
Q 1353 -1331 966 -1331 
L 506 -1331 
L 506 -850 
L 844 -850 
Q 1081 -850 1212 -737 
Q 1344 -625 1503 -206 
L 1606 56 
L 191 3500 
L 800 3500 
L 1894 763 
L 2988 3500 
L 3597 3500 
L 2059 -325 
z
" transform="scale(0.015625)"/>
      </defs>
      <use xlink:href="#DejaVuSans-50"/>
      <use xlink:href="#DejaVuSans-72" x="58.552734"/>
      <use xlink:href="#DejaVuSans-6f" x="97.416016"/>
      <use xlink:href="#DejaVuSans-74" x="158.597656"/>
      <use xlink:href="#DejaVuSans-65" x="197.806641"/>
      <use xlink:href="#DejaVuSans-69" x="259.330078"/>
      <use xlink:href="#DejaVuSans-6e" x="287.113281"/>
      <use xlink:href="#DejaVuSans-20" x="350.492188"/>
      <use xlink:href="#DejaVuSans-73" x="382.279297"/>
      <use xlink:href="#DejaVuSans-79" x="434.378906"/>
      <use xlink:href="#DejaVuSans-6e" x="493.558594"/>
      <use xlink:href="#DejaVuSans-74" x="556.9375"/>
      <use xlink:href="#DejaVuSans-68" x="596.146484"/>
      <use xlink:href="#DejaVuSans-65" x="659.525391"/>
      <use xlink:href="#DejaVuSans-73" x="721.048828"/>
      <use xlink:href="#DejaVuSans-69" x="773.148438"/>
      <use xlink:href="#DejaVuSans-73" x="800.931641"/>
     </g>
    </g>
   </g>
  </g>
 </g>
 <defs>
  <clipPath id="p9ca6309920">
   <rect x="20.878125" y="22.318125" width="167.4" height="166.32"/>
  </clipPath>
 </defs>
</svg>
