<?xml version="1.0" encoding="utf-8" standalone="no"?>
<!DOCTYPE svg PUBLIC "-//W3C//DTD SVG 1.1//EN"
  "http://www.w3.org/Graphics/SVG/1.1/DTD/svg11.dtd">
<svg xmlns:xlink="http://www.w3.org/1999/xlink" width="385.837455pt" height="263.525312pt" viewBox="0 0 385.837455 263.525312" xmlns="http://www.w3.org/2000/svg" version="1.1">
 <metadata>
  <rdf:RDF xmlns:dc="http://purl.org/dc/elements/1.1/" xmlns:cc="http://creativecommons.org/ns#" xmlns:rdf="http://www.w3.org/1999/02/22-rdf-syntax-ns#">
   <cc:Work>
    <dc:type rdf:resource="http://purl.org/dc/dcmitype/StillImage"/>
    <dc:date>2024-10-21T12:57:33.412329</dc:date>
    <dc:format>image/svg+xml</dc:format>
    <dc:creator>
     <cc:Agent>
      <dc:title>Matplotlib v3.8.2, https://matplotlib.org/</dc:title>
     </cc:Agent>
    </dc:creator>
   </cc:Work>
  </rdf:RDF>
 </metadata>
 <defs>
  <style type="text/css">*{stroke-linejoin: round; stroke-linecap: butt}</style>
 </defs>
 <g id="figure_1">
  <g id="patch_1">
   <path d="M 0 263.525312 
L 385.837455 263.525312 
L 385.837455 0 
L 0 0 
z
" style="fill: #ffffff"/>
  </g>
  <g id="axes_1">
   <g id="patch_2">
    <path d="M 43.78125 131.678437 
L 378.58125 131.678437 
L 378.58125 20.798437 
L 43.78125 20.798437 
z
" style="fill: #ffffff"/>
   </g>
   <g id="patch_3">
    <path d="M 44.737821 131.678437 
L 52.390393 131.678437 
L 52.390393 26.078437 
L 44.737821 26.078437 
z
" clip-path="url(#p622bf3ed8c)" style="fill: #421654"/>
   </g>
   <g id="patch_4">
    <path d="M 54.303536 131.678437 
L 61.956107 131.678437 
L 61.956107 26.078437 
L 54.303536 26.078437 
z
" clip-path="url(#p622bf3ed8c)" style="fill: #46205e"/>
   </g>
   <g id="patch_5">
    <path d="M 63.86925 131.678437 
L 71.521821 131.678437 
L 71.521821 32.888978 
L 63.86925 32.888978 
z
" clip-path="url(#p622bf3ed8c)" style="fill: #482966"/>
   </g>
   <g id="patch_6">
    <path d="M 73.434964 131.678437 
L 81.087536 131.678437 
L 81.087536 32.888978 
L 73.434964 32.888978 
z
" clip-path="url(#p622bf3ed8c)" style="fill: #4a326e"/>
   </g>
   <g id="patch_7">
    <path d="M 83.000679 131.678437 
L 90.65325 131.678437 
L 90.65325 40.488168 
L 83.000679 40.488168 
z
" clip-path="url(#p622bf3ed8c)" style="fill: #4b3a74"/>
   </g>
   <g id="patch_8">
    <path d="M 92.566393 131.678437 
L 100.218964 131.678437 
L 100.218964 40.488168 
L 92.566393 40.488168 
z
" clip-path="url(#p622bf3ed8c)" style="fill: #4b4279"/>
   </g>
   <g id="patch_9">
    <path d="M 102.132107 131.678437 
L 109.784679 131.678437 
L 109.784679 46.78834 
L 102.132107 46.78834 
z
" clip-path="url(#p622bf3ed8c)" style="fill: #4a4a7e"/>
   </g>
   <g id="patch_10">
    <path d="M 111.697821 131.678437 
L 119.350393 131.678437 
L 119.350393 46.78834 
L 111.697821 46.78834 
z
" clip-path="url(#p622bf3ed8c)" style="fill: #485080"/>
   </g>
   <g id="patch_11">
    <path d="M 121.263536 131.678437 
L 128.916107 131.678437 
L 128.916107 64.012418 
L 121.263536 64.012418 
z
" clip-path="url(#p622bf3ed8c)" style="fill: #455681"/>
   </g>
   <g id="patch_12">
    <path d="M 130.82925 131.678437 
L 138.481821 131.678437 
L 138.481821 64.012418 
L 130.82925 64.012418 
z
" clip-path="url(#p622bf3ed8c)" style="fill: #425c82"/>
   </g>
   <g id="patch_13">
    <path d="M 140.394964 131.678437 
L 148.047536 131.678437 
L 148.047536 67.117439 
L 140.394964 67.117439 
z
" clip-path="url(#p622bf3ed8c)" style="fill: #3f6182"/>
   </g>
   <g id="patch_14">
    <path d="M 149.960679 131.678437 
L 157.61325 131.678437 
L 157.61325 68.256446 
L 149.960679 68.256446 
z
" clip-path="url(#p622bf3ed8c)" style="fill: #3c6682"/>
   </g>
   <g id="patch_15">
    <path d="M 159.526393 131.678437 
L 167.178964 131.678437 
L 167.178964 68.256446 
L 159.526393 68.256446 
z
" clip-path="url(#p622bf3ed8c)" style="fill: #3a6a82"/>
   </g>
   <g id="patch_16">
    <path d="M 169.092107 131.678437 
L 176.744679 131.678437 
L 176.744679 94.7697 
L 169.092107 94.7697 
z
" clip-path="url(#p622bf3ed8c)" style="fill: #376f82"/>
   </g>
   <g id="patch_17">
    <path d="M 178.657821 131.678437 
L 186.310393 131.678437 
L 186.310393 98.740185 
L 178.657821 98.740185 
z
" clip-path="url(#p622bf3ed8c)" style="fill: #357482"/>
   </g>
   <g id="patch_18">
    <path d="M 188.223536 131.678437 
L 195.876107 131.678437 
L 195.876107 98.740185 
L 188.223536 98.740185 
z
" clip-path="url(#p622bf3ed8c)" style="fill: #337881"/>
   </g>
   <g id="patch_19">
    <path d="M 197.78925 131.678437 
L 205.441821 131.678437 
L 205.441821 102.221464 
L 197.78925 102.221464 
z
" clip-path="url(#p622bf3ed8c)" style="fill: #307d80"/>
   </g>
   <g id="patch_20">
    <path d="M 207.354964 131.678437 
L 215.007536 131.678437 
L 215.007536 102.45902 
L 207.354964 102.45902 
z
" clip-path="url(#p622bf3ed8c)" style="fill: #2f837f"/>
   </g>
   <g id="patch_21">
    <path d="M 216.920679 131.678437 
L 224.57325 131.678437 
L 224.57325 104.301686 
L 216.920679 104.301686 
z
" clip-path="url(#p622bf3ed8c)" style="fill: #2e887f"/>
   </g>
   <g id="patch_22">
    <path d="M 226.486393 131.678437 
L 234.138964 131.678437 
L 234.138964 104.74009 
L 226.486393 104.74009 
z
" clip-path="url(#p622bf3ed8c)" style="fill: #2e8e7e"/>
   </g>
   <g id="patch_23">
    <path d="M 236.052107 131.678437 
L 243.704679 131.678437 
L 243.704679 105.950649 
L 236.052107 105.950649 
z
" clip-path="url(#p622bf3ed8c)" style="fill: #31947d"/>
   </g>
   <g id="patch_24">
    <path d="M 245.617821 131.678437 
L 253.270393 131.678437 
L 253.270393 106.177855 
L 245.617821 106.177855 
z
" clip-path="url(#p622bf3ed8c)" style="fill: #359a7c"/>
   </g>
   <g id="patch_25">
    <path d="M 255.183536 131.678437 
L 262.836107 131.678437 
L 262.836107 106.219935 
L 255.183536 106.219935 
z
" clip-path="url(#p622bf3ed8c)" style="fill: #3ca07a"/>
   </g>
   <g id="patch_26">
    <path d="M 264.74925 131.678437 
L 272.401821 131.678437 
L 272.401821 106.309641 
L 264.74925 106.309641 
z
" clip-path="url(#p622bf3ed8c)" style="fill: #45a778"/>
   </g>
   <g id="patch_27">
    <path d="M 274.314964 131.678437 
L 281.967536 131.678437 
L 281.967536 106.34132 
L 274.314964 106.34132 
z
" clip-path="url(#p622bf3ed8c)" style="fill: #50ae75"/>
   </g>
   <g id="patch_28">
    <path d="M 283.880679 131.678437 
L 291.53325 131.678437 
L 291.53325 106.633223 
L 283.880679 106.633223 
z
" clip-path="url(#p622bf3ed8c)" style="fill: #5cb472"/>
   </g>
   <g id="patch_29">
    <path d="M 293.446393 131.678437 
L 301.098964 131.678437 
L 301.098964 107.124305 
L 293.446393 107.124305 
z
" clip-path="url(#p622bf3ed8c)" style="fill: #6cbc6e"/>
   </g>
   <g id="patch_30">
    <path d="M 303.012107 131.678437 
L 310.664679 131.678437 
L 310.664679 107.124305 
L 303.012107 107.124305 
z
" clip-path="url(#p622bf3ed8c)" style="fill: #77bf67"/>
   </g>
   <g id="patch_31">
    <path d="M 312.577821 131.678437 
L 320.230393 131.678437 
L 320.230393 108.720324 
L 312.577821 108.720324 
z
" clip-path="url(#p622bf3ed8c)" style="fill: #83c25f"/>
   </g>
   <g id="patch_32">
    <path d="M 322.143536 131.678437 
L 329.796107 131.678437 
L 329.796107 109.123098 
L 322.143536 109.123098 
z
" clip-path="url(#p622bf3ed8c)" style="fill: #8fc456"/>
   </g>
   <g id="patch_33">
    <path d="M 331.70925 131.678437 
L 339.361821 131.678437 
L 339.361821 111.052966 
L 331.70925 111.052966 
z
" clip-path="url(#p622bf3ed8c)" style="fill: #9cc64c"/>
   </g>
   <g id="patch_34">
    <path d="M 341.274964 131.678437 
L 348.927536 131.678437 
L 348.927536 113.344685 
L 341.274964 113.344685 
z
" clip-path="url(#p622bf3ed8c)" style="fill: #a9c741"/>
   </g>
   <g id="patch_35">
    <path d="M 350.840679 131.678437 
L 358.49325 131.678437 
L 358.49325 113.769762 
L 350.840679 113.769762 
z
" clip-path="url(#p622bf3ed8c)" style="fill: #b6c838"/>
   </g>
   <g id="patch_36">
    <path d="M 360.406393 131.678437 
L 368.058964 131.678437 
L 368.058964 125.633041 
L 360.406393 125.633041 
z
" clip-path="url(#p622bf3ed8c)" style="fill: #c3c932"/>
   </g>
   <g id="patch_37">
    <path d="M 369.972107 131.678437 
L 377.624679 131.678437 
L 377.624679 127.846383 
L 369.972107 127.846383 
z
" clip-path="url(#p622bf3ed8c)" style="fill: #d2cc35"/>
   </g>
   <g id="matplotlib.axis_1">
    <g id="xtick_1">
     <g id="line2d_1">
      <defs>
       <path id="m769f1a6db4" d="M 0 0 
L 0 3.5 
" style="stroke: #000000; stroke-width: 0.8"/>
      </defs>
      <g>
       <use xlink:href="#m769f1a6db4" x="48.564107" y="131.678437" style="stroke: #000000; stroke-width: 0.8"/>
      </g>
     </g>
     <g id="text_1">
      <!-- AZ841 -->
      <g transform="translate(51.323482 171.456562) rotate(-90) scale(0.1 -0.1)">
       <defs>
        <path id="DejaVuSans-41" d="M 2188 4044 
L 1331 1722 
L 3047 1722 
L 2188 4044 
z
M 1831 4666 
L 2547 4666 
L 4325 0 
L 3669 0 
L 3244 1197 
L 1141 1197 
L 716 0 
L 50 0 
L 1831 4666 
z
" transform="scale(0.015625)"/>
        <path id="DejaVuSans-5a" d="M 359 4666 
L 4025 4666 
L 4025 4184 
L 1075 531 
L 4097 531 
L 4097 0 
L 288 0 
L 288 481 
L 3238 4134 
L 359 4134 
L 359 4666 
z
" transform="scale(0.015625)"/>
        <path id="DejaVuSans-38" d="M 2034 2216 
Q 1584 2216 1326 1975 
Q 1069 1734 1069 1313 
Q 1069 891 1326 650 
Q 1584 409 2034 409 
Q 2484 409 2743 651 
Q 3003 894 3003 1313 
Q 3003 1734 2745 1975 
Q 2488 2216 2034 2216 
z
M 1403 2484 
Q 997 2584 770 2862 
Q 544 3141 544 3541 
Q 544 4100 942 4425 
Q 1341 4750 2034 4750 
Q 2731 4750 3128 4425 
Q 3525 4100 3525 3541 
Q 3525 3141 3298 2862 
Q 3072 2584 2669 2484 
Q 3125 2378 3379 2068 
Q 3634 1759 3634 1313 
Q 3634 634 3220 271 
Q 2806 -91 2034 -91 
Q 1263 -91 848 271 
Q 434 634 434 1313 
Q 434 1759 690 2068 
Q 947 2378 1403 2484 
z
M 1172 3481 
Q 1172 3119 1398 2916 
Q 1625 2713 2034 2713 
Q 2441 2713 2670 2916 
Q 2900 3119 2900 3481 
Q 2900 3844 2670 4047 
Q 2441 4250 2034 4250 
Q 1625 4250 1398 4047 
Q 1172 3844 1172 3481 
z
" transform="scale(0.015625)"/>
        <path id="DejaVuSans-34" d="M 2419 4116 
L 825 1625 
L 2419 1625 
L 2419 4116 
z
M 2253 4666 
L 3047 4666 
L 3047 1625 
L 3713 1625 
L 3713 1100 
L 3047 1100 
L 3047 0 
L 2419 0 
L 2419 1100 
L 313 1100 
L 313 1709 
L 2253 4666 
z
" transform="scale(0.015625)"/>
        <path id="DejaVuSans-31" d="M 794 531 
L 1825 531 
L 1825 4091 
L 703 3866 
L 703 4441 
L 1819 4666 
L 2450 4666 
L 2450 531 
L 3481 531 
L 3481 0 
L 794 0 
L 794 531 
z
" transform="scale(0.015625)"/>
       </defs>
       <use xlink:href="#DejaVuSans-41"/>
       <use xlink:href="#DejaVuSans-5a" x="68.408203"/>
       <use xlink:href="#DejaVuSans-38" x="136.914062"/>
       <use xlink:href="#DejaVuSans-34" x="200.537109"/>
       <use xlink:href="#DejaVuSans-31" x="264.160156"/>
      </g>
     </g>
    </g>
    <g id="xtick_2">
     <g id="line2d_2">
      <g>
       <use xlink:href="#m769f1a6db4" x="58.129821" y="131.678437" style="stroke: #000000; stroke-width: 0.8"/>
      </g>
     </g>
     <g id="text_2">
      <!-- AZ258 -->
      <g transform="translate(60.889196 174.5425) rotate(-90) scale(0.1 -0.1)">
       <defs>
        <path id="DejaVuSans-Bold-41" d="M 3419 850 
L 1538 850 
L 1241 0 
L 31 0 
L 1759 4666 
L 3194 4666 
L 4922 0 
L 3713 0 
L 3419 850 
z
M 1838 1716 
L 3116 1716 
L 2478 3572 
L 1838 1716 
z
" transform="scale(0.015625)"/>
        <path id="DejaVuSans-Bold-5a" d="M 359 4666 
L 4281 4666 
L 4281 3938 
L 1778 909 
L 4353 909 
L 4353 0 
L 288 0 
L 288 728 
L 2791 3756 
L 359 3756 
L 359 4666 
z
" transform="scale(0.015625)"/>
        <path id="DejaVuSans-Bold-32" d="M 1844 884 
L 3897 884 
L 3897 0 
L 506 0 
L 506 884 
L 2209 2388 
Q 2438 2594 2547 2791 
Q 2656 2988 2656 3200 
Q 2656 3528 2436 3728 
Q 2216 3928 1850 3928 
Q 1569 3928 1234 3808 
Q 900 3688 519 3450 
L 519 4475 
Q 925 4609 1322 4679 
Q 1719 4750 2100 4750 
Q 2938 4750 3402 4381 
Q 3866 4013 3866 3353 
Q 3866 2972 3669 2642 
Q 3472 2313 2841 1759 
L 1844 884 
z
" transform="scale(0.015625)"/>
        <path id="DejaVuSans-Bold-35" d="M 678 4666 
L 3669 4666 
L 3669 3781 
L 1638 3781 
L 1638 3059 
Q 1775 3097 1914 3117 
Q 2053 3138 2203 3138 
Q 3056 3138 3531 2711 
Q 4006 2284 4006 1522 
Q 4006 766 3489 337 
Q 2972 -91 2053 -91 
Q 1656 -91 1267 -14 
Q 878 63 494 219 
L 494 1166 
Q 875 947 1217 837 
Q 1559 728 1863 728 
Q 2300 728 2551 942 
Q 2803 1156 2803 1522 
Q 2803 1891 2551 2103 
Q 2300 2316 1863 2316 
Q 1603 2316 1309 2248 
Q 1016 2181 678 2041 
L 678 4666 
z
" transform="scale(0.015625)"/>
        <path id="DejaVuSans-Bold-38" d="M 2228 2088 
Q 1891 2088 1709 1903 
Q 1528 1719 1528 1375 
Q 1528 1031 1709 848 
Q 1891 666 2228 666 
Q 2563 666 2741 848 
Q 2919 1031 2919 1375 
Q 2919 1722 2741 1905 
Q 2563 2088 2228 2088 
z
M 1350 2484 
Q 925 2613 709 2878 
Q 494 3144 494 3541 
Q 494 4131 934 4440 
Q 1375 4750 2228 4750 
Q 3075 4750 3515 4442 
Q 3956 4134 3956 3541 
Q 3956 3144 3739 2878 
Q 3522 2613 3097 2484 
Q 3572 2353 3814 2058 
Q 4056 1763 4056 1313 
Q 4056 619 3595 264 
Q 3134 -91 2228 -91 
Q 1319 -91 855 264 
Q 391 619 391 1313 
Q 391 1763 633 2058 
Q 875 2353 1350 2484 
z
M 1631 3419 
Q 1631 3141 1786 2991 
Q 1941 2841 2228 2841 
Q 2509 2841 2662 2991 
Q 2816 3141 2816 3419 
Q 2816 3697 2662 3845 
Q 2509 3994 2228 3994 
Q 1941 3994 1786 3844 
Q 1631 3694 1631 3419 
z
" transform="scale(0.015625)"/>
       </defs>
       <use xlink:href="#DejaVuSans-Bold-41"/>
       <use xlink:href="#DejaVuSans-Bold-5a" x="77.392578"/>
       <use xlink:href="#DejaVuSans-Bold-32" x="149.902344"/>
       <use xlink:href="#DejaVuSans-Bold-35" x="219.482422"/>
       <use xlink:href="#DejaVuSans-Bold-38" x="289.0625"/>
      </g>
     </g>
    </g>
    <g id="xtick_3">
     <g id="line2d_3">
      <g>
       <use xlink:href="#m769f1a6db4" x="67.695536" y="131.678437" style="stroke: #000000; stroke-width: 0.8"/>
      </g>
     </g>
     <g id="text_3">
      <!-- Demecolcine -->
      <g transform="translate(70.454911 203.587812) rotate(-90) scale(0.1 -0.1)">
       <defs>
        <path id="DejaVuSans-44" d="M 1259 4147 
L 1259 519 
L 2022 519 
Q 2988 519 3436 956 
Q 3884 1394 3884 2338 
Q 3884 3275 3436 3711 
Q 2988 4147 2022 4147 
L 1259 4147 
z
M 628 4666 
L 1925 4666 
Q 3281 4666 3915 4102 
Q 4550 3538 4550 2338 
Q 4550 1131 3912 565 
Q 3275 0 1925 0 
L 628 0 
L 628 4666 
z
" transform="scale(0.015625)"/>
        <path id="DejaVuSans-65" d="M 3597 1894 
L 3597 1613 
L 953 1613 
Q 991 1019 1311 708 
Q 1631 397 2203 397 
Q 2534 397 2845 478 
Q 3156 559 3463 722 
L 3463 178 
Q 3153 47 2828 -22 
Q 2503 -91 2169 -91 
Q 1331 -91 842 396 
Q 353 884 353 1716 
Q 353 2575 817 3079 
Q 1281 3584 2069 3584 
Q 2775 3584 3186 3129 
Q 3597 2675 3597 1894 
z
M 3022 2063 
Q 3016 2534 2758 2815 
Q 2500 3097 2075 3097 
Q 1594 3097 1305 2825 
Q 1016 2553 972 2059 
L 3022 2063 
z
" transform="scale(0.015625)"/>
        <path id="DejaVuSans-6d" d="M 3328 2828 
Q 3544 3216 3844 3400 
Q 4144 3584 4550 3584 
Q 5097 3584 5394 3201 
Q 5691 2819 5691 2113 
L 5691 0 
L 5113 0 
L 5113 2094 
Q 5113 2597 4934 2840 
Q 4756 3084 4391 3084 
Q 3944 3084 3684 2787 
Q 3425 2491 3425 1978 
L 3425 0 
L 2847 0 
L 2847 2094 
Q 2847 2600 2669 2842 
Q 2491 3084 2119 3084 
Q 1678 3084 1418 2786 
Q 1159 2488 1159 1978 
L 1159 0 
L 581 0 
L 581 3500 
L 1159 3500 
L 1159 2956 
Q 1356 3278 1631 3431 
Q 1906 3584 2284 3584 
Q 2666 3584 2933 3390 
Q 3200 3197 3328 2828 
z
" transform="scale(0.015625)"/>
        <path id="DejaVuSans-63" d="M 3122 3366 
L 3122 2828 
Q 2878 2963 2633 3030 
Q 2388 3097 2138 3097 
Q 1578 3097 1268 2742 
Q 959 2388 959 1747 
Q 959 1106 1268 751 
Q 1578 397 2138 397 
Q 2388 397 2633 464 
Q 2878 531 3122 666 
L 3122 134 
Q 2881 22 2623 -34 
Q 2366 -91 2075 -91 
Q 1284 -91 818 406 
Q 353 903 353 1747 
Q 353 2603 823 3093 
Q 1294 3584 2113 3584 
Q 2378 3584 2631 3529 
Q 2884 3475 3122 3366 
z
" transform="scale(0.015625)"/>
        <path id="DejaVuSans-6f" d="M 1959 3097 
Q 1497 3097 1228 2736 
Q 959 2375 959 1747 
Q 959 1119 1226 758 
Q 1494 397 1959 397 
Q 2419 397 2687 759 
Q 2956 1122 2956 1747 
Q 2956 2369 2687 2733 
Q 2419 3097 1959 3097 
z
M 1959 3584 
Q 2709 3584 3137 3096 
Q 3566 2609 3566 1747 
Q 3566 888 3137 398 
Q 2709 -91 1959 -91 
Q 1206 -91 779 398 
Q 353 888 353 1747 
Q 353 2609 779 3096 
Q 1206 3584 1959 3584 
z
" transform="scale(0.015625)"/>
        <path id="DejaVuSans-6c" d="M 603 4863 
L 1178 4863 
L 1178 0 
L 603 0 
L 603 4863 
z
" transform="scale(0.015625)"/>
        <path id="DejaVuSans-69" d="M 603 3500 
L 1178 3500 
L 1178 0 
L 603 0 
L 603 3500 
z
M 603 4863 
L 1178 4863 
L 1178 4134 
L 603 4134 
L 603 4863 
z
" transform="scale(0.015625)"/>
        <path id="DejaVuSans-6e" d="M 3513 2113 
L 3513 0 
L 2938 0 
L 2938 2094 
Q 2938 2591 2744 2837 
Q 2550 3084 2163 3084 
Q 1697 3084 1428 2787 
Q 1159 2491 1159 1978 
L 1159 0 
L 581 0 
L 581 3500 
L 1159 3500 
L 1159 2956 
Q 1366 3272 1645 3428 
Q 1925 3584 2291 3584 
Q 2894 3584 3203 3211 
Q 3513 2838 3513 2113 
z
" transform="scale(0.015625)"/>
       </defs>
       <use xlink:href="#DejaVuSans-44"/>
       <use xlink:href="#DejaVuSans-65" x="77.001953"/>
       <use xlink:href="#DejaVuSans-6d" x="138.525391"/>
       <use xlink:href="#DejaVuSans-65" x="235.9375"/>
       <use xlink:href="#DejaVuSans-63" x="297.460938"/>
       <use xlink:href="#DejaVuSans-6f" x="352.441406"/>
       <use xlink:href="#DejaVuSans-6c" x="413.623047"/>
       <use xlink:href="#DejaVuSans-63" x="441.40625"/>
       <use xlink:href="#DejaVuSans-69" x="496.386719"/>
       <use xlink:href="#DejaVuSans-6e" x="524.169922"/>
       <use xlink:href="#DejaVuSans-65" x="587.548828"/>
      </g>
     </g>
    </g>
    <g id="xtick_4">
     <g id="line2d_4">
      <g>
       <use xlink:href="#m769f1a6db4" x="77.26125" y="131.678437" style="stroke: #000000; stroke-width: 0.8"/>
      </g>
     </g>
     <g id="text_4">
      <!-- Colchicine -->
      <g transform="translate(80.020625 196.04875) rotate(-90) scale(0.1 -0.1)">
       <defs>
        <path id="DejaVuSans-Bold-43" d="M 4288 256 
Q 3956 84 3597 -3 
Q 3238 -91 2847 -91 
Q 1681 -91 1000 561 
Q 319 1213 319 2328 
Q 319 3447 1000 4098 
Q 1681 4750 2847 4750 
Q 3238 4750 3597 4662 
Q 3956 4575 4288 4403 
L 4288 3438 
Q 3953 3666 3628 3772 
Q 3303 3878 2944 3878 
Q 2300 3878 1931 3465 
Q 1563 3053 1563 2328 
Q 1563 1606 1931 1193 
Q 2300 781 2944 781 
Q 3303 781 3628 887 
Q 3953 994 4288 1222 
L 4288 256 
z
" transform="scale(0.015625)"/>
        <path id="DejaVuSans-Bold-6f" d="M 2203 2784 
Q 1831 2784 1636 2517 
Q 1441 2250 1441 1747 
Q 1441 1244 1636 976 
Q 1831 709 2203 709 
Q 2569 709 2762 976 
Q 2956 1244 2956 1747 
Q 2956 2250 2762 2517 
Q 2569 2784 2203 2784 
z
M 2203 3584 
Q 3106 3584 3614 3096 
Q 4122 2609 4122 1747 
Q 4122 884 3614 396 
Q 3106 -91 2203 -91 
Q 1297 -91 786 396 
Q 275 884 275 1747 
Q 275 2609 786 3096 
Q 1297 3584 2203 3584 
z
" transform="scale(0.015625)"/>
        <path id="DejaVuSans-Bold-6c" d="M 538 4863 
L 1656 4863 
L 1656 0 
L 538 0 
L 538 4863 
z
" transform="scale(0.015625)"/>
        <path id="DejaVuSans-Bold-63" d="M 3366 3391 
L 3366 2478 
Q 3138 2634 2908 2709 
Q 2678 2784 2431 2784 
Q 1963 2784 1702 2511 
Q 1441 2238 1441 1747 
Q 1441 1256 1702 982 
Q 1963 709 2431 709 
Q 2694 709 2930 787 
Q 3166 866 3366 1019 
L 3366 103 
Q 3103 6 2833 -42 
Q 2563 -91 2291 -91 
Q 1344 -91 809 395 
Q 275 881 275 1747 
Q 275 2613 809 3098 
Q 1344 3584 2291 3584 
Q 2566 3584 2833 3536 
Q 3100 3488 3366 3391 
z
" transform="scale(0.015625)"/>
        <path id="DejaVuSans-Bold-68" d="M 4056 2131 
L 4056 0 
L 2931 0 
L 2931 347 
L 2931 1625 
Q 2931 2084 2911 2256 
Q 2891 2428 2841 2509 
Q 2775 2619 2662 2680 
Q 2550 2741 2406 2741 
Q 2056 2741 1856 2470 
Q 1656 2200 1656 1722 
L 1656 0 
L 538 0 
L 538 4863 
L 1656 4863 
L 1656 2988 
Q 1909 3294 2193 3439 
Q 2478 3584 2822 3584 
Q 3428 3584 3742 3212 
Q 4056 2841 4056 2131 
z
" transform="scale(0.015625)"/>
        <path id="DejaVuSans-Bold-69" d="M 538 3500 
L 1656 3500 
L 1656 0 
L 538 0 
L 538 3500 
z
M 538 4863 
L 1656 4863 
L 1656 3950 
L 538 3950 
L 538 4863 
z
" transform="scale(0.015625)"/>
        <path id="DejaVuSans-Bold-6e" d="M 4056 2131 
L 4056 0 
L 2931 0 
L 2931 347 
L 2931 1631 
Q 2931 2084 2911 2256 
Q 2891 2428 2841 2509 
Q 2775 2619 2662 2680 
Q 2550 2741 2406 2741 
Q 2056 2741 1856 2470 
Q 1656 2200 1656 1722 
L 1656 0 
L 538 0 
L 538 3500 
L 1656 3500 
L 1656 2988 
Q 1909 3294 2193 3439 
Q 2478 3584 2822 3584 
Q 3428 3584 3742 3212 
Q 4056 2841 4056 2131 
z
" transform="scale(0.015625)"/>
        <path id="DejaVuSans-Bold-65" d="M 4031 1759 
L 4031 1441 
L 1416 1441 
Q 1456 1047 1700 850 
Q 1944 653 2381 653 
Q 2734 653 3104 758 
Q 3475 863 3866 1075 
L 3866 213 
Q 3469 63 3072 -14 
Q 2675 -91 2278 -91 
Q 1328 -91 801 392 
Q 275 875 275 1747 
Q 275 2603 792 3093 
Q 1309 3584 2216 3584 
Q 3041 3584 3536 3087 
Q 4031 2591 4031 1759 
z
M 2881 2131 
Q 2881 2450 2695 2645 
Q 2509 2841 2209 2841 
Q 1884 2841 1681 2658 
Q 1478 2475 1428 2131 
L 2881 2131 
z
" transform="scale(0.015625)"/>
       </defs>
       <use xlink:href="#DejaVuSans-Bold-43"/>
       <use xlink:href="#DejaVuSans-Bold-6f" x="73.388672"/>
       <use xlink:href="#DejaVuSans-Bold-6c" x="142.089844"/>
       <use xlink:href="#DejaVuSans-Bold-63" x="176.367188"/>
       <use xlink:href="#DejaVuSans-Bold-68" x="235.644531"/>
       <use xlink:href="#DejaVuSans-Bold-69" x="306.835938"/>
       <use xlink:href="#DejaVuSans-Bold-63" x="341.113281"/>
       <use xlink:href="#DejaVuSans-Bold-69" x="400.390625"/>
       <use xlink:href="#DejaVuSans-Bold-6e" x="434.667969"/>
       <use xlink:href="#DejaVuSans-Bold-65" x="505.859375"/>
      </g>
     </g>
    </g>
    <g id="xtick_5">
     <g id="line2d_5">
      <g>
       <use xlink:href="#m769f1a6db4" x="86.826964" y="131.678437" style="stroke: #000000; stroke-width: 0.8"/>
      </g>
     </g>
     <g id="text_5">
      <!-- Mevinolin/lovastatin -->
      <g transform="translate(89.586339 239.112812) rotate(-90) scale(0.1 -0.1)">
       <defs>
        <path id="DejaVuSans-4d" d="M 628 4666 
L 1569 4666 
L 2759 1491 
L 3956 4666 
L 4897 4666 
L 4897 0 
L 4281 0 
L 4281 4097 
L 3078 897 
L 2444 897 
L 1241 4097 
L 1241 0 
L 628 0 
L 628 4666 
z
" transform="scale(0.015625)"/>
        <path id="DejaVuSans-76" d="M 191 3500 
L 800 3500 
L 1894 563 
L 2988 3500 
L 3597 3500 
L 2284 0 
L 1503 0 
L 191 3500 
z
" transform="scale(0.015625)"/>
        <path id="DejaVuSans-2f" d="M 1625 4666 
L 2156 4666 
L 531 -594 
L 0 -594 
L 1625 4666 
z
" transform="scale(0.015625)"/>
        <path id="DejaVuSans-61" d="M 2194 1759 
Q 1497 1759 1228 1600 
Q 959 1441 959 1056 
Q 959 750 1161 570 
Q 1363 391 1709 391 
Q 2188 391 2477 730 
Q 2766 1069 2766 1631 
L 2766 1759 
L 2194 1759 
z
M 3341 1997 
L 3341 0 
L 2766 0 
L 2766 531 
Q 2569 213 2275 61 
Q 1981 -91 1556 -91 
Q 1019 -91 701 211 
Q 384 513 384 1019 
Q 384 1609 779 1909 
Q 1175 2209 1959 2209 
L 2766 2209 
L 2766 2266 
Q 2766 2663 2505 2880 
Q 2244 3097 1772 3097 
Q 1472 3097 1187 3025 
Q 903 2953 641 2809 
L 641 3341 
Q 956 3463 1253 3523 
Q 1550 3584 1831 3584 
Q 2591 3584 2966 3190 
Q 3341 2797 3341 1997 
z
" transform="scale(0.015625)"/>
        <path id="DejaVuSans-73" d="M 2834 3397 
L 2834 2853 
Q 2591 2978 2328 3040 
Q 2066 3103 1784 3103 
Q 1356 3103 1142 2972 
Q 928 2841 928 2578 
Q 928 2378 1081 2264 
Q 1234 2150 1697 2047 
L 1894 2003 
Q 2506 1872 2764 1633 
Q 3022 1394 3022 966 
Q 3022 478 2636 193 
Q 2250 -91 1575 -91 
Q 1294 -91 989 -36 
Q 684 19 347 128 
L 347 722 
Q 666 556 975 473 
Q 1284 391 1588 391 
Q 1994 391 2212 530 
Q 2431 669 2431 922 
Q 2431 1156 2273 1281 
Q 2116 1406 1581 1522 
L 1381 1569 
Q 847 1681 609 1914 
Q 372 2147 372 2553 
Q 372 3047 722 3315 
Q 1072 3584 1716 3584 
Q 2034 3584 2315 3537 
Q 2597 3491 2834 3397 
z
" transform="scale(0.015625)"/>
        <path id="DejaVuSans-74" d="M 1172 4494 
L 1172 3500 
L 2356 3500 
L 2356 3053 
L 1172 3053 
L 1172 1153 
Q 1172 725 1289 603 
Q 1406 481 1766 481 
L 2356 481 
L 2356 0 
L 1766 0 
Q 1100 0 847 248 
Q 594 497 594 1153 
L 594 3053 
L 172 3053 
L 172 3500 
L 594 3500 
L 594 4494 
L 1172 4494 
z
" transform="scale(0.015625)"/>
       </defs>
       <use xlink:href="#DejaVuSans-4d"/>
       <use xlink:href="#DejaVuSans-65" x="86.279297"/>
       <use xlink:href="#DejaVuSans-76" x="147.802734"/>
       <use xlink:href="#DejaVuSans-69" x="206.982422"/>
       <use xlink:href="#DejaVuSans-6e" x="234.765625"/>
       <use xlink:href="#DejaVuSans-6f" x="298.144531"/>
       <use xlink:href="#DejaVuSans-6c" x="359.326172"/>
       <use xlink:href="#DejaVuSans-69" x="387.109375"/>
       <use xlink:href="#DejaVuSans-6e" x="414.892578"/>
       <use xlink:href="#DejaVuSans-2f" x="478.271484"/>
       <use xlink:href="#DejaVuSans-6c" x="511.962891"/>
       <use xlink:href="#DejaVuSans-6f" x="539.746094"/>
       <use xlink:href="#DejaVuSans-76" x="600.927734"/>
       <use xlink:href="#DejaVuSans-61" x="660.107422"/>
       <use xlink:href="#DejaVuSans-73" x="721.386719"/>
       <use xlink:href="#DejaVuSans-74" x="773.486328"/>
       <use xlink:href="#DejaVuSans-61" x="812.695312"/>
       <use xlink:href="#DejaVuSans-74" x="873.974609"/>
       <use xlink:href="#DejaVuSans-69" x="913.183594"/>
       <use xlink:href="#DejaVuSans-6e" x="940.966797"/>
      </g>
     </g>
    </g>
    <g id="xtick_6">
     <g id="line2d_6">
      <g>
       <use xlink:href="#m769f1a6db4" x="96.392679" y="131.678437" style="stroke: #000000; stroke-width: 0.8"/>
      </g>
     </g>
     <g id="text_6">
      <!-- Simvastatin -->
      <g transform="translate(99.152054 205.801875) rotate(-90) scale(0.1 -0.1)">
       <defs>
        <path id="DejaVuSans-Bold-53" d="M 3834 4519 
L 3834 3531 
Q 3450 3703 3084 3790 
Q 2719 3878 2394 3878 
Q 1963 3878 1756 3759 
Q 1550 3641 1550 3391 
Q 1550 3203 1689 3098 
Q 1828 2994 2194 2919 
L 2706 2816 
Q 3484 2659 3812 2340 
Q 4141 2022 4141 1434 
Q 4141 663 3683 286 
Q 3225 -91 2284 -91 
Q 1841 -91 1394 -6 
Q 947 78 500 244 
L 500 1259 
Q 947 1022 1364 901 
Q 1781 781 2169 781 
Q 2563 781 2772 912 
Q 2981 1044 2981 1288 
Q 2981 1506 2839 1625 
Q 2697 1744 2272 1838 
L 1806 1941 
Q 1106 2091 782 2419 
Q 459 2747 459 3303 
Q 459 4000 909 4375 
Q 1359 4750 2203 4750 
Q 2588 4750 2994 4692 
Q 3400 4634 3834 4519 
z
" transform="scale(0.015625)"/>
        <path id="DejaVuSans-Bold-6d" d="M 3781 2919 
Q 3994 3244 4286 3414 
Q 4578 3584 4928 3584 
Q 5531 3584 5847 3212 
Q 6163 2841 6163 2131 
L 6163 0 
L 5038 0 
L 5038 1825 
Q 5041 1866 5042 1909 
Q 5044 1953 5044 2034 
Q 5044 2406 4934 2573 
Q 4825 2741 4581 2741 
Q 4263 2741 4089 2478 
Q 3916 2216 3909 1719 
L 3909 0 
L 2784 0 
L 2784 1825 
Q 2784 2406 2684 2573 
Q 2584 2741 2328 2741 
Q 2006 2741 1831 2477 
Q 1656 2213 1656 1722 
L 1656 0 
L 531 0 
L 531 3500 
L 1656 3500 
L 1656 2988 
Q 1863 3284 2130 3434 
Q 2397 3584 2719 3584 
Q 3081 3584 3359 3409 
Q 3638 3234 3781 2919 
z
" transform="scale(0.015625)"/>
        <path id="DejaVuSans-Bold-76" d="M 97 3500 
L 1216 3500 
L 2088 1081 
L 2956 3500 
L 4078 3500 
L 2700 0 
L 1472 0 
L 97 3500 
z
" transform="scale(0.015625)"/>
        <path id="DejaVuSans-Bold-61" d="M 2106 1575 
Q 1756 1575 1579 1456 
Q 1403 1338 1403 1106 
Q 1403 894 1545 773 
Q 1688 653 1941 653 
Q 2256 653 2472 879 
Q 2688 1106 2688 1447 
L 2688 1575 
L 2106 1575 
z
M 3816 1997 
L 3816 0 
L 2688 0 
L 2688 519 
Q 2463 200 2181 54 
Q 1900 -91 1497 -91 
Q 953 -91 614 226 
Q 275 544 275 1050 
Q 275 1666 698 1953 
Q 1122 2241 2028 2241 
L 2688 2241 
L 2688 2328 
Q 2688 2594 2478 2717 
Q 2269 2841 1825 2841 
Q 1466 2841 1156 2769 
Q 847 2697 581 2553 
L 581 3406 
Q 941 3494 1303 3539 
Q 1666 3584 2028 3584 
Q 2975 3584 3395 3211 
Q 3816 2838 3816 1997 
z
" transform="scale(0.015625)"/>
        <path id="DejaVuSans-Bold-73" d="M 3272 3391 
L 3272 2541 
Q 2913 2691 2578 2766 
Q 2244 2841 1947 2841 
Q 1628 2841 1473 2761 
Q 1319 2681 1319 2516 
Q 1319 2381 1436 2309 
Q 1553 2238 1856 2203 
L 2053 2175 
Q 2913 2066 3209 1816 
Q 3506 1566 3506 1031 
Q 3506 472 3093 190 
Q 2681 -91 1863 -91 
Q 1516 -91 1145 -36 
Q 775 19 384 128 
L 384 978 
Q 719 816 1070 734 
Q 1422 653 1784 653 
Q 2113 653 2278 743 
Q 2444 834 2444 1013 
Q 2444 1163 2330 1236 
Q 2216 1309 1875 1350 
L 1678 1375 
Q 931 1469 631 1722 
Q 331 1975 331 2491 
Q 331 3047 712 3315 
Q 1094 3584 1881 3584 
Q 2191 3584 2531 3537 
Q 2872 3491 3272 3391 
z
" transform="scale(0.015625)"/>
        <path id="DejaVuSans-Bold-74" d="M 1759 4494 
L 1759 3500 
L 2913 3500 
L 2913 2700 
L 1759 2700 
L 1759 1216 
Q 1759 972 1856 886 
Q 1953 800 2241 800 
L 2816 800 
L 2816 0 
L 1856 0 
Q 1194 0 917 276 
Q 641 553 641 1216 
L 641 2700 
L 84 2700 
L 84 3500 
L 641 3500 
L 641 4494 
L 1759 4494 
z
" transform="scale(0.015625)"/>
       </defs>
       <use xlink:href="#DejaVuSans-Bold-53"/>
       <use xlink:href="#DejaVuSans-Bold-69" x="72.021484"/>
       <use xlink:href="#DejaVuSans-Bold-6d" x="106.298828"/>
       <use xlink:href="#DejaVuSans-Bold-76" x="210.498047"/>
       <use xlink:href="#DejaVuSans-Bold-61" x="275.683594"/>
       <use xlink:href="#DejaVuSans-Bold-73" x="343.164062"/>
       <use xlink:href="#DejaVuSans-Bold-74" x="402.685547"/>
       <use xlink:href="#DejaVuSans-Bold-61" x="450.488281"/>
       <use xlink:href="#DejaVuSans-Bold-74" x="517.96875"/>
       <use xlink:href="#DejaVuSans-Bold-69" x="565.771484"/>
       <use xlink:href="#DejaVuSans-Bold-6e" x="600.048828"/>
      </g>
     </g>
    </g>
    <g id="xtick_7">
     <g id="line2d_7">
      <g>
       <use xlink:href="#m769f1a6db4" x="105.958393" y="131.678437" style="stroke: #000000; stroke-width: 0.8"/>
      </g>
     </g>
     <g id="text_7">
      <!-- Taxol -->
      <g transform="translate(108.717768 167.709687) rotate(-90) scale(0.1 -0.1)">
       <defs>
        <path id="DejaVuSans-Bold-54" d="M 31 4666 
L 4331 4666 
L 4331 3756 
L 2784 3756 
L 2784 0 
L 1581 0 
L 1581 3756 
L 31 3756 
L 31 4666 
z
" transform="scale(0.015625)"/>
        <path id="DejaVuSans-Bold-78" d="M 1422 1791 
L 159 3500 
L 1344 3500 
L 2059 2463 
L 2784 3500 
L 3969 3500 
L 2706 1797 
L 4031 0 
L 2847 0 
L 2059 1106 
L 1281 0 
L 97 0 
L 1422 1791 
z
" transform="scale(0.015625)"/>
       </defs>
       <use xlink:href="#DejaVuSans-Bold-54"/>
       <use xlink:href="#DejaVuSans-Bold-61" x="55.337891"/>
       <use xlink:href="#DejaVuSans-Bold-78" x="122.818359"/>
       <use xlink:href="#DejaVuSans-Bold-6f" x="187.320312"/>
       <use xlink:href="#DejaVuSans-Bold-6c" x="256.021484"/>
      </g>
     </g>
    </g>
    <g id="xtick_8">
     <g id="line2d_8">
      <g>
       <use xlink:href="#m769f1a6db4" x="115.524107" y="131.678437" style="stroke: #000000; stroke-width: 0.8"/>
      </g>
     </g>
     <g id="text_8">
      <!-- Docetaxel -->
      <g transform="translate(118.283482 188.734687) rotate(-90) scale(0.1 -0.1)">
       <defs>
        <path id="DejaVuSans-78" d="M 3513 3500 
L 2247 1797 
L 3578 0 
L 2900 0 
L 1881 1375 
L 863 0 
L 184 0 
L 1544 1831 
L 300 3500 
L 978 3500 
L 1906 2253 
L 2834 3500 
L 3513 3500 
z
" transform="scale(0.015625)"/>
       </defs>
       <use xlink:href="#DejaVuSans-44"/>
       <use xlink:href="#DejaVuSans-6f" x="77.001953"/>
       <use xlink:href="#DejaVuSans-63" x="138.183594"/>
       <use xlink:href="#DejaVuSans-65" x="193.164062"/>
       <use xlink:href="#DejaVuSans-74" x="254.6875"/>
       <use xlink:href="#DejaVuSans-61" x="293.896484"/>
       <use xlink:href="#DejaVuSans-78" x="355.175781"/>
       <use xlink:href="#DejaVuSans-65" x="411.230469"/>
       <use xlink:href="#DejaVuSans-6c" x="472.753906"/>
      </g>
     </g>
    </g>
    <g id="xtick_9">
     <g id="line2d_9">
      <g>
       <use xlink:href="#m769f1a6db4" x="125.089821" y="131.678437" style="stroke: #000000; stroke-width: 0.8"/>
      </g>
     </g>
     <g id="text_9">
      <!-- MG-132 -->
      <g transform="translate(127.849196 181.86125) rotate(-90) scale(0.1 -0.1)">
       <defs>
        <path id="DejaVuSans-Bold-4d" d="M 588 4666 
L 2119 4666 
L 3181 2169 
L 4250 4666 
L 5778 4666 
L 5778 0 
L 4641 0 
L 4641 3413 
L 3566 897 
L 2803 897 
L 1728 3413 
L 1728 0 
L 588 0 
L 588 4666 
z
" transform="scale(0.015625)"/>
        <path id="DejaVuSans-Bold-47" d="M 4781 347 
Q 4331 128 3847 18 
Q 3363 -91 2847 -91 
Q 1681 -91 1000 561 
Q 319 1213 319 2328 
Q 319 3456 1012 4103 
Q 1706 4750 2913 4750 
Q 3378 4750 3804 4662 
Q 4231 4575 4609 4403 
L 4609 3438 
Q 4219 3659 3833 3768 
Q 3447 3878 3059 3878 
Q 2341 3878 1952 3476 
Q 1563 3075 1563 2328 
Q 1563 1588 1938 1184 
Q 2313 781 3003 781 
Q 3191 781 3352 804 
Q 3513 828 3641 878 
L 3641 1784 
L 2906 1784 
L 2906 2591 
L 4781 2591 
L 4781 347 
z
" transform="scale(0.015625)"/>
        <path id="DejaVuSans-Bold-2d" d="M 347 2297 
L 2309 2297 
L 2309 1388 
L 347 1388 
L 347 2297 
z
" transform="scale(0.015625)"/>
        <path id="DejaVuSans-Bold-31" d="M 750 831 
L 1813 831 
L 1813 3847 
L 722 3622 
L 722 4441 
L 1806 4666 
L 2950 4666 
L 2950 831 
L 4013 831 
L 4013 0 
L 750 0 
L 750 831 
z
" transform="scale(0.015625)"/>
        <path id="DejaVuSans-Bold-33" d="M 2981 2516 
Q 3453 2394 3698 2092 
Q 3944 1791 3944 1325 
Q 3944 631 3412 270 
Q 2881 -91 1863 -91 
Q 1503 -91 1142 -33 
Q 781 25 428 141 
L 428 1069 
Q 766 900 1098 814 
Q 1431 728 1753 728 
Q 2231 728 2486 893 
Q 2741 1059 2741 1369 
Q 2741 1688 2480 1852 
Q 2219 2016 1709 2016 
L 1228 2016 
L 1228 2791 
L 1734 2791 
Q 2188 2791 2409 2933 
Q 2631 3075 2631 3366 
Q 2631 3634 2415 3781 
Q 2200 3928 1806 3928 
Q 1516 3928 1219 3862 
Q 922 3797 628 3669 
L 628 4550 
Q 984 4650 1334 4700 
Q 1684 4750 2022 4750 
Q 2931 4750 3382 4451 
Q 3834 4153 3834 3553 
Q 3834 3144 3618 2883 
Q 3403 2622 2981 2516 
z
" transform="scale(0.015625)"/>
       </defs>
       <use xlink:href="#DejaVuSans-Bold-4d"/>
       <use xlink:href="#DejaVuSans-Bold-47" x="99.511719"/>
       <use xlink:href="#DejaVuSans-Bold-2d" x="181.591797"/>
       <use xlink:href="#DejaVuSans-Bold-31" x="223.095703"/>
       <use xlink:href="#DejaVuSans-Bold-33" x="292.675781"/>
       <use xlink:href="#DejaVuSans-Bold-32" x="362.255859"/>
      </g>
     </g>
    </g>
    <g id="xtick_10">
     <g id="line2d_10">
      <g>
       <use xlink:href="#m769f1a6db4" x="134.655536" y="131.678437" style="stroke: #000000; stroke-width: 0.8"/>
      </g>
     </g>
     <g id="text_10">
      <!-- Proteasome inhibitor -->
      <g transform="translate(137.414911 242.647187) rotate(-90) scale(0.1 -0.1)">
       <defs>
        <path id="DejaVuSans-50" d="M 1259 4147 
L 1259 2394 
L 2053 2394 
Q 2494 2394 2734 2622 
Q 2975 2850 2975 3272 
Q 2975 3691 2734 3919 
Q 2494 4147 2053 4147 
L 1259 4147 
z
M 628 4666 
L 2053 4666 
Q 2838 4666 3239 4311 
Q 3641 3956 3641 3272 
Q 3641 2581 3239 2228 
Q 2838 1875 2053 1875 
L 1259 1875 
L 1259 0 
L 628 0 
L 628 4666 
z
" transform="scale(0.015625)"/>
        <path id="DejaVuSans-72" d="M 2631 2963 
Q 2534 3019 2420 3045 
Q 2306 3072 2169 3072 
Q 1681 3072 1420 2755 
Q 1159 2438 1159 1844 
L 1159 0 
L 581 0 
L 581 3500 
L 1159 3500 
L 1159 2956 
Q 1341 3275 1631 3429 
Q 1922 3584 2338 3584 
Q 2397 3584 2469 3576 
Q 2541 3569 2628 3553 
L 2631 2963 
z
" transform="scale(0.015625)"/>
        <path id="DejaVuSans-20" transform="scale(0.015625)"/>
        <path id="DejaVuSans-68" d="M 3513 2113 
L 3513 0 
L 2938 0 
L 2938 2094 
Q 2938 2591 2744 2837 
Q 2550 3084 2163 3084 
Q 1697 3084 1428 2787 
Q 1159 2491 1159 1978 
L 1159 0 
L 581 0 
L 581 4863 
L 1159 4863 
L 1159 2956 
Q 1366 3272 1645 3428 
Q 1925 3584 2291 3584 
Q 2894 3584 3203 3211 
Q 3513 2838 3513 2113 
z
" transform="scale(0.015625)"/>
        <path id="DejaVuSans-62" d="M 3116 1747 
Q 3116 2381 2855 2742 
Q 2594 3103 2138 3103 
Q 1681 3103 1420 2742 
Q 1159 2381 1159 1747 
Q 1159 1113 1420 752 
Q 1681 391 2138 391 
Q 2594 391 2855 752 
Q 3116 1113 3116 1747 
z
M 1159 2969 
Q 1341 3281 1617 3432 
Q 1894 3584 2278 3584 
Q 2916 3584 3314 3078 
Q 3713 2572 3713 1747 
Q 3713 922 3314 415 
Q 2916 -91 2278 -91 
Q 1894 -91 1617 61 
Q 1341 213 1159 525 
L 1159 0 
L 581 0 
L 581 4863 
L 1159 4863 
L 1159 2969 
z
" transform="scale(0.015625)"/>
       </defs>
       <use xlink:href="#DejaVuSans-50"/>
       <use xlink:href="#DejaVuSans-72" x="58.552734"/>
       <use xlink:href="#DejaVuSans-6f" x="97.416016"/>
       <use xlink:href="#DejaVuSans-74" x="158.597656"/>
       <use xlink:href="#DejaVuSans-65" x="197.806641"/>
       <use xlink:href="#DejaVuSans-61" x="259.330078"/>
       <use xlink:href="#DejaVuSans-73" x="320.609375"/>
       <use xlink:href="#DejaVuSans-6f" x="372.708984"/>
       <use xlink:href="#DejaVuSans-6d" x="433.890625"/>
       <use xlink:href="#DejaVuSans-65" x="531.302734"/>
       <use xlink:href="#DejaVuSans-20" x="592.826172"/>
       <use xlink:href="#DejaVuSans-69" x="624.613281"/>
       <use xlink:href="#DejaVuSans-6e" x="652.396484"/>
       <use xlink:href="#DejaVuSans-68" x="715.775391"/>
       <use xlink:href="#DejaVuSans-69" x="779.154297"/>
       <use xlink:href="#DejaVuSans-62" x="806.9375"/>
       <use xlink:href="#DejaVuSans-69" x="870.414062"/>
       <use xlink:href="#DejaVuSans-74" x="898.197266"/>
       <use xlink:href="#DejaVuSans-6f" x="937.40625"/>
       <use xlink:href="#DejaVuSans-72" x="998.587891"/>
      </g>
     </g>
    </g>
    <g id="xtick_11">
     <g id="line2d_11">
      <g>
       <use xlink:href="#m769f1a6db4" x="144.22125" y="131.678437" style="stroke: #000000; stroke-width: 0.8"/>
      </g>
     </g>
     <g id="text_11">
      <!-- ALLN -->
      <g transform="translate(146.980625 167.53) rotate(-90) scale(0.1 -0.1)">
       <defs>
        <path id="DejaVuSans-Bold-4c" d="M 588 4666 
L 1791 4666 
L 1791 909 
L 3903 909 
L 3903 0 
L 588 0 
L 588 4666 
z
" transform="scale(0.015625)"/>
        <path id="DejaVuSans-Bold-4e" d="M 588 4666 
L 1931 4666 
L 3628 1466 
L 3628 4666 
L 4769 4666 
L 4769 0 
L 3425 0 
L 1728 3200 
L 1728 0 
L 588 0 
L 588 4666 
z
" transform="scale(0.015625)"/>
       </defs>
       <use xlink:href="#DejaVuSans-Bold-41"/>
       <use xlink:href="#DejaVuSans-Bold-4c" x="77.392578"/>
       <use xlink:href="#DejaVuSans-Bold-4c" x="141.113281"/>
       <use xlink:href="#DejaVuSans-Bold-4e" x="204.833984"/>
      </g>
     </g>
    </g>
    <g id="xtick_12">
     <g id="line2d_12">
      <g>
       <use xlink:href="#m769f1a6db4" x="153.786964" y="131.678437" style="stroke: #000000; stroke-width: 0.8"/>
      </g>
     </g>
     <g id="text_12">
      <!-- Cytochalasin D -->
      <g transform="translate(156.546339 213.6925) rotate(-90) scale(0.1 -0.1)">
       <defs>
        <path id="DejaVuSans-43" d="M 4122 4306 
L 4122 3641 
Q 3803 3938 3442 4084 
Q 3081 4231 2675 4231 
Q 1875 4231 1450 3742 
Q 1025 3253 1025 2328 
Q 1025 1406 1450 917 
Q 1875 428 2675 428 
Q 3081 428 3442 575 
Q 3803 722 4122 1019 
L 4122 359 
Q 3791 134 3420 21 
Q 3050 -91 2638 -91 
Q 1578 -91 968 557 
Q 359 1206 359 2328 
Q 359 3453 968 4101 
Q 1578 4750 2638 4750 
Q 3056 4750 3426 4639 
Q 3797 4528 4122 4306 
z
" transform="scale(0.015625)"/>
        <path id="DejaVuSans-79" d="M 2059 -325 
Q 1816 -950 1584 -1140 
Q 1353 -1331 966 -1331 
L 506 -1331 
L 506 -850 
L 844 -850 
Q 1081 -850 1212 -737 
Q 1344 -625 1503 -206 
L 1606 56 
L 191 3500 
L 800 3500 
L 1894 763 
L 2988 3500 
L 3597 3500 
L 2059 -325 
z
" transform="scale(0.015625)"/>
       </defs>
       <use xlink:href="#DejaVuSans-43"/>
       <use xlink:href="#DejaVuSans-79" x="69.824219"/>
       <use xlink:href="#DejaVuSans-74" x="129.003906"/>
       <use xlink:href="#DejaVuSans-6f" x="168.212891"/>
       <use xlink:href="#DejaVuSans-63" x="229.394531"/>
       <use xlink:href="#DejaVuSans-68" x="284.375"/>
       <use xlink:href="#DejaVuSans-61" x="347.753906"/>
       <use xlink:href="#DejaVuSans-6c" x="409.033203"/>
       <use xlink:href="#DejaVuSans-61" x="436.816406"/>
       <use xlink:href="#DejaVuSans-73" x="498.095703"/>
       <use xlink:href="#DejaVuSans-69" x="550.195312"/>
       <use xlink:href="#DejaVuSans-6e" x="577.978516"/>
       <use xlink:href="#DejaVuSans-20" x="641.357422"/>
       <use xlink:href="#DejaVuSans-44" x="673.144531"/>
      </g>
     </g>
    </g>
    <g id="xtick_13">
     <g id="line2d_13">
      <g>
       <use xlink:href="#m769f1a6db4" x="163.352679" y="131.678437" style="stroke: #000000; stroke-width: 0.8"/>
      </g>
     </g>
     <g id="text_13">
      <!-- Cytochalasin B -->
      <g transform="translate(166.072991 221.759687) rotate(-90) scale(0.1 -0.1)">
       <defs>
        <path id="DejaVuSans-Bold-79" d="M 78 3500 
L 1197 3500 
L 2138 1125 
L 2938 3500 
L 4056 3500 
L 2584 -331 
Q 2363 -916 2067 -1148 
Q 1772 -1381 1288 -1381 
L 641 -1381 
L 641 -647 
L 991 -647 
Q 1275 -647 1404 -556 
Q 1534 -466 1606 -231 
L 1638 -134 
L 78 3500 
z
" transform="scale(0.015625)"/>
        <path id="DejaVuSans-Bold-20" transform="scale(0.015625)"/>
        <path id="DejaVuSans-Bold-42" d="M 2456 2859 
Q 2741 2859 2887 2984 
Q 3034 3109 3034 3353 
Q 3034 3594 2887 3720 
Q 2741 3847 2456 3847 
L 1791 3847 
L 1791 2859 
L 2456 2859 
z
M 2497 819 
Q 2859 819 3042 972 
Q 3225 1125 3225 1434 
Q 3225 1738 3044 1889 
Q 2863 2041 2497 2041 
L 1791 2041 
L 1791 819 
L 2497 819 
z
M 3616 2497 
Q 4003 2384 4215 2081 
Q 4428 1778 4428 1338 
Q 4428 663 3972 331 
Q 3516 0 2584 0 
L 588 0 
L 588 4666 
L 2394 4666 
Q 3366 4666 3802 4372 
Q 4238 4078 4238 3431 
Q 4238 3091 4078 2852 
Q 3919 2613 3616 2497 
z
" transform="scale(0.015625)"/>
       </defs>
       <use xlink:href="#DejaVuSans-Bold-43"/>
       <use xlink:href="#DejaVuSans-Bold-79" x="73.388672"/>
       <use xlink:href="#DejaVuSans-Bold-74" x="138.574219"/>
       <use xlink:href="#DejaVuSans-Bold-6f" x="186.376953"/>
       <use xlink:href="#DejaVuSans-Bold-63" x="255.078125"/>
       <use xlink:href="#DejaVuSans-Bold-68" x="314.355469"/>
       <use xlink:href="#DejaVuSans-Bold-61" x="385.546875"/>
       <use xlink:href="#DejaVuSans-Bold-6c" x="453.027344"/>
       <use xlink:href="#DejaVuSans-Bold-61" x="487.304688"/>
       <use xlink:href="#DejaVuSans-Bold-73" x="554.785156"/>
       <use xlink:href="#DejaVuSans-Bold-69" x="614.306641"/>
       <use xlink:href="#DejaVuSans-Bold-6e" x="648.583984"/>
       <use xlink:href="#DejaVuSans-Bold-20" x="719.775391"/>
       <use xlink:href="#DejaVuSans-Bold-42" x="754.589844"/>
      </g>
     </g>
    </g>
    <g id="xtick_14">
     <g id="line2d_14">
      <g>
       <use xlink:href="#m769f1a6db4" x="172.918393" y="131.678437" style="stroke: #000000; stroke-width: 0.8"/>
      </g>
     </g>
     <g id="text_14">
      <!-- Emetine -->
      <g transform="translate(175.677768 180.08) rotate(-90) scale(0.1 -0.1)">
       <defs>
        <path id="DejaVuSans-45" d="M 628 4666 
L 3578 4666 
L 3578 4134 
L 1259 4134 
L 1259 2753 
L 3481 2753 
L 3481 2222 
L 1259 2222 
L 1259 531 
L 3634 531 
L 3634 0 
L 628 0 
L 628 4666 
z
" transform="scale(0.015625)"/>
       </defs>
       <use xlink:href="#DejaVuSans-45"/>
       <use xlink:href="#DejaVuSans-6d" x="63.183594"/>
       <use xlink:href="#DejaVuSans-65" x="160.595703"/>
       <use xlink:href="#DejaVuSans-74" x="222.119141"/>
       <use xlink:href="#DejaVuSans-69" x="261.328125"/>
       <use xlink:href="#DejaVuSans-6e" x="289.111328"/>
       <use xlink:href="#DejaVuSans-65" x="352.490234"/>
      </g>
     </g>
    </g>
    <g id="xtick_15">
     <g id="line2d_15">
      <g>
       <use xlink:href="#m769f1a6db4" x="182.484107" y="131.678437" style="stroke: #000000; stroke-width: 0.8"/>
      </g>
     </g>
     <g id="text_15">
      <!-- Alsterpaullone -->
      <g transform="translate(185.243482 210.670625) rotate(-90) scale(0.1 -0.1)">
       <defs>
        <path id="DejaVuSans-70" d="M 1159 525 
L 1159 -1331 
L 581 -1331 
L 581 3500 
L 1159 3500 
L 1159 2969 
Q 1341 3281 1617 3432 
Q 1894 3584 2278 3584 
Q 2916 3584 3314 3078 
Q 3713 2572 3713 1747 
Q 3713 922 3314 415 
Q 2916 -91 2278 -91 
Q 1894 -91 1617 61 
Q 1341 213 1159 525 
z
M 3116 1747 
Q 3116 2381 2855 2742 
Q 2594 3103 2138 3103 
Q 1681 3103 1420 2742 
Q 1159 2381 1159 1747 
Q 1159 1113 1420 752 
Q 1681 391 2138 391 
Q 2594 391 2855 752 
Q 3116 1113 3116 1747 
z
" transform="scale(0.015625)"/>
        <path id="DejaVuSans-75" d="M 544 1381 
L 544 3500 
L 1119 3500 
L 1119 1403 
Q 1119 906 1312 657 
Q 1506 409 1894 409 
Q 2359 409 2629 706 
Q 2900 1003 2900 1516 
L 2900 3500 
L 3475 3500 
L 3475 0 
L 2900 0 
L 2900 538 
Q 2691 219 2414 64 
Q 2138 -91 1772 -91 
Q 1169 -91 856 284 
Q 544 659 544 1381 
z
M 1991 3584 
L 1991 3584 
z
" transform="scale(0.015625)"/>
       </defs>
       <use xlink:href="#DejaVuSans-41"/>
       <use xlink:href="#DejaVuSans-6c" x="68.408203"/>
       <use xlink:href="#DejaVuSans-73" x="96.191406"/>
       <use xlink:href="#DejaVuSans-74" x="148.291016"/>
       <use xlink:href="#DejaVuSans-65" x="187.5"/>
       <use xlink:href="#DejaVuSans-72" x="249.023438"/>
       <use xlink:href="#DejaVuSans-70" x="290.136719"/>
       <use xlink:href="#DejaVuSans-61" x="353.613281"/>
       <use xlink:href="#DejaVuSans-75" x="414.892578"/>
       <use xlink:href="#DejaVuSans-6c" x="478.271484"/>
       <use xlink:href="#DejaVuSans-6c" x="506.054688"/>
       <use xlink:href="#DejaVuSans-6f" x="533.837891"/>
       <use xlink:href="#DejaVuSans-6e" x="595.019531"/>
       <use xlink:href="#DejaVuSans-65" x="658.398438"/>
      </g>
     </g>
    </g>
    <g id="xtick_16">
     <g id="line2d_16">
      <g>
       <use xlink:href="#m769f1a6db4" x="192.049821" y="131.678437" style="stroke: #000000; stroke-width: 0.8"/>
      </g>
     </g>
     <g id="text_16">
      <!-- PD-169316 -->
      <g transform="translate(194.809196 194.190937) rotate(-90) scale(0.1 -0.1)">
       <defs>
        <path id="DejaVuSans-2d" d="M 313 2009 
L 1997 2009 
L 1997 1497 
L 313 1497 
L 313 2009 
z
" transform="scale(0.015625)"/>
        <path id="DejaVuSans-36" d="M 2113 2584 
Q 1688 2584 1439 2293 
Q 1191 2003 1191 1497 
Q 1191 994 1439 701 
Q 1688 409 2113 409 
Q 2538 409 2786 701 
Q 3034 994 3034 1497 
Q 3034 2003 2786 2293 
Q 2538 2584 2113 2584 
z
M 3366 4563 
L 3366 3988 
Q 3128 4100 2886 4159 
Q 2644 4219 2406 4219 
Q 1781 4219 1451 3797 
Q 1122 3375 1075 2522 
Q 1259 2794 1537 2939 
Q 1816 3084 2150 3084 
Q 2853 3084 3261 2657 
Q 3669 2231 3669 1497 
Q 3669 778 3244 343 
Q 2819 -91 2113 -91 
Q 1303 -91 875 529 
Q 447 1150 447 2328 
Q 447 3434 972 4092 
Q 1497 4750 2381 4750 
Q 2619 4750 2861 4703 
Q 3103 4656 3366 4563 
z
" transform="scale(0.015625)"/>
        <path id="DejaVuSans-39" d="M 703 97 
L 703 672 
Q 941 559 1184 500 
Q 1428 441 1663 441 
Q 2288 441 2617 861 
Q 2947 1281 2994 2138 
Q 2813 1869 2534 1725 
Q 2256 1581 1919 1581 
Q 1219 1581 811 2004 
Q 403 2428 403 3163 
Q 403 3881 828 4315 
Q 1253 4750 1959 4750 
Q 2769 4750 3195 4129 
Q 3622 3509 3622 2328 
Q 3622 1225 3098 567 
Q 2575 -91 1691 -91 
Q 1453 -91 1209 -44 
Q 966 3 703 97 
z
M 1959 2075 
Q 2384 2075 2632 2365 
Q 2881 2656 2881 3163 
Q 2881 3666 2632 3958 
Q 2384 4250 1959 4250 
Q 1534 4250 1286 3958 
Q 1038 3666 1038 3163 
Q 1038 2656 1286 2365 
Q 1534 2075 1959 2075 
z
" transform="scale(0.015625)"/>
        <path id="DejaVuSans-33" d="M 2597 2516 
Q 3050 2419 3304 2112 
Q 3559 1806 3559 1356 
Q 3559 666 3084 287 
Q 2609 -91 1734 -91 
Q 1441 -91 1130 -33 
Q 819 25 488 141 
L 488 750 
Q 750 597 1062 519 
Q 1375 441 1716 441 
Q 2309 441 2620 675 
Q 2931 909 2931 1356 
Q 2931 1769 2642 2001 
Q 2353 2234 1838 2234 
L 1294 2234 
L 1294 2753 
L 1863 2753 
Q 2328 2753 2575 2939 
Q 2822 3125 2822 3475 
Q 2822 3834 2567 4026 
Q 2313 4219 1838 4219 
Q 1578 4219 1281 4162 
Q 984 4106 628 3988 
L 628 4550 
Q 988 4650 1302 4700 
Q 1616 4750 1894 4750 
Q 2613 4750 3031 4423 
Q 3450 4097 3450 3541 
Q 3450 3153 3228 2886 
Q 3006 2619 2597 2516 
z
" transform="scale(0.015625)"/>
       </defs>
       <use xlink:href="#DejaVuSans-50"/>
       <use xlink:href="#DejaVuSans-44" x="60.302734"/>
       <use xlink:href="#DejaVuSans-2d" x="137.304688"/>
       <use xlink:href="#DejaVuSans-31" x="173.388672"/>
       <use xlink:href="#DejaVuSans-36" x="237.011719"/>
       <use xlink:href="#DejaVuSans-39" x="300.634766"/>
       <use xlink:href="#DejaVuSans-33" x="364.257812"/>
       <use xlink:href="#DejaVuSans-31" x="427.880859"/>
       <use xlink:href="#DejaVuSans-36" x="491.503906"/>
      </g>
     </g>
    </g>
    <g id="xtick_17">
     <g id="line2d_17">
      <g>
       <use xlink:href="#m769f1a6db4" x="201.615536" y="131.678437" style="stroke: #000000; stroke-width: 0.8"/>
      </g>
     </g>
     <g id="text_17">
      <!-- Anisomycin -->
      <g transform="translate(204.374911 196.23625) rotate(-90) scale(0.1 -0.1)">
       <use xlink:href="#DejaVuSans-41"/>
       <use xlink:href="#DejaVuSans-6e" x="68.408203"/>
       <use xlink:href="#DejaVuSans-69" x="131.787109"/>
       <use xlink:href="#DejaVuSans-73" x="159.570312"/>
       <use xlink:href="#DejaVuSans-6f" x="211.669922"/>
       <use xlink:href="#DejaVuSans-6d" x="272.851562"/>
       <use xlink:href="#DejaVuSans-79" x="370.263672"/>
       <use xlink:href="#DejaVuSans-63" x="429.443359"/>
       <use xlink:href="#DejaVuSans-69" x="484.423828"/>
       <use xlink:href="#DejaVuSans-6e" x="512.207031"/>
      </g>
     </g>
    </g>
    <g id="xtick_18">
     <g id="line2d_18">
      <g>
       <use xlink:href="#m769f1a6db4" x="211.18125" y="131.678437" style="stroke: #000000; stroke-width: 0.8"/>
      </g>
     </g>
     <g id="text_18">
      <!-- Lactacystin -->
      <g transform="translate(213.940625 195.587812) rotate(-90) scale(0.1 -0.1)">
       <defs>
        <path id="DejaVuSans-4c" d="M 628 4666 
L 1259 4666 
L 1259 531 
L 3531 531 
L 3531 0 
L 628 0 
L 628 4666 
z
" transform="scale(0.015625)"/>
       </defs>
       <use xlink:href="#DejaVuSans-4c"/>
       <use xlink:href="#DejaVuSans-61" x="55.712891"/>
       <use xlink:href="#DejaVuSans-63" x="116.992188"/>
       <use xlink:href="#DejaVuSans-74" x="171.972656"/>
       <use xlink:href="#DejaVuSans-61" x="211.181641"/>
       <use xlink:href="#DejaVuSans-63" x="272.460938"/>
       <use xlink:href="#DejaVuSans-79" x="327.441406"/>
       <use xlink:href="#DejaVuSans-73" x="386.621094"/>
       <use xlink:href="#DejaVuSans-74" x="438.720703"/>
       <use xlink:href="#DejaVuSans-69" x="477.929688"/>
       <use xlink:href="#DejaVuSans-6e" x="505.712891"/>
      </g>
     </g>
    </g>
    <g id="xtick_19">
     <g id="line2d_19">
      <g>
       <use xlink:href="#m769f1a6db4" x="220.746964" y="131.678437" style="stroke: #000000; stroke-width: 0.8"/>
      </g>
     </g>
     <g id="text_19">
      <!-- Camptothecin -->
      <g transform="translate(223.506339 208.9425) rotate(-90) scale(0.1 -0.1)">
       <use xlink:href="#DejaVuSans-43"/>
       <use xlink:href="#DejaVuSans-61" x="69.824219"/>
       <use xlink:href="#DejaVuSans-6d" x="131.103516"/>
       <use xlink:href="#DejaVuSans-70" x="228.515625"/>
       <use xlink:href="#DejaVuSans-74" x="291.992188"/>
       <use xlink:href="#DejaVuSans-6f" x="331.201172"/>
       <use xlink:href="#DejaVuSans-74" x="392.382812"/>
       <use xlink:href="#DejaVuSans-68" x="431.591797"/>
       <use xlink:href="#DejaVuSans-65" x="494.970703"/>
       <use xlink:href="#DejaVuSans-63" x="556.494141"/>
       <use xlink:href="#DejaVuSans-69" x="611.474609"/>
       <use xlink:href="#DejaVuSans-6e" x="639.257812"/>
      </g>
     </g>
    </g>
    <g id="xtick_20">
     <g id="line2d_20">
      <g>
       <use xlink:href="#m769f1a6db4" x="230.312679" y="131.678437" style="stroke: #000000; stroke-width: 0.8"/>
      </g>
     </g>
     <g id="text_20">
      <!-- Bryostatin -->
      <g transform="translate(233.032991 197.426875) rotate(-90) scale(0.1 -0.1)">
       <defs>
        <path id="DejaVuSans-Bold-72" d="M 3138 2547 
Q 2991 2616 2845 2648 
Q 2700 2681 2553 2681 
Q 2122 2681 1889 2404 
Q 1656 2128 1656 1613 
L 1656 0 
L 538 0 
L 538 3500 
L 1656 3500 
L 1656 2925 
Q 1872 3269 2151 3426 
Q 2431 3584 2822 3584 
Q 2878 3584 2943 3579 
Q 3009 3575 3134 3559 
L 3138 2547 
z
" transform="scale(0.015625)"/>
       </defs>
       <use xlink:href="#DejaVuSans-Bold-42"/>
       <use xlink:href="#DejaVuSans-Bold-72" x="76.220703"/>
       <use xlink:href="#DejaVuSans-Bold-79" x="125.537109"/>
       <use xlink:href="#DejaVuSans-Bold-6f" x="190.722656"/>
       <use xlink:href="#DejaVuSans-Bold-73" x="259.423828"/>
       <use xlink:href="#DejaVuSans-Bold-74" x="318.945312"/>
       <use xlink:href="#DejaVuSans-Bold-61" x="366.748047"/>
       <use xlink:href="#DejaVuSans-Bold-74" x="434.228516"/>
       <use xlink:href="#DejaVuSans-Bold-69" x="482.03125"/>
       <use xlink:href="#DejaVuSans-Bold-6e" x="516.308594"/>
      </g>
     </g>
    </g>
    <g id="xtick_21">
     <g id="line2d_21">
      <g>
       <use xlink:href="#m769f1a6db4" x="239.878393" y="131.678437" style="stroke: #000000; stroke-width: 0.8"/>
      </g>
     </g>
     <g id="text_21">
      <!-- Etoposide -->
      <g transform="translate(242.637768 187.9925) rotate(-90) scale(0.1 -0.1)">
       <defs>
        <path id="DejaVuSans-64" d="M 2906 2969 
L 2906 4863 
L 3481 4863 
L 3481 0 
L 2906 0 
L 2906 525 
Q 2725 213 2448 61 
Q 2172 -91 1784 -91 
Q 1150 -91 751 415 
Q 353 922 353 1747 
Q 353 2572 751 3078 
Q 1150 3584 1784 3584 
Q 2172 3584 2448 3432 
Q 2725 3281 2906 2969 
z
M 947 1747 
Q 947 1113 1208 752 
Q 1469 391 1925 391 
Q 2381 391 2643 752 
Q 2906 1113 2906 1747 
Q 2906 2381 2643 2742 
Q 2381 3103 1925 3103 
Q 1469 3103 1208 2742 
Q 947 2381 947 1747 
z
" transform="scale(0.015625)"/>
       </defs>
       <use xlink:href="#DejaVuSans-45"/>
       <use xlink:href="#DejaVuSans-74" x="63.183594"/>
       <use xlink:href="#DejaVuSans-6f" x="102.392578"/>
       <use xlink:href="#DejaVuSans-70" x="163.574219"/>
       <use xlink:href="#DejaVuSans-6f" x="227.050781"/>
       <use xlink:href="#DejaVuSans-73" x="288.232422"/>
       <use xlink:href="#DejaVuSans-69" x="340.332031"/>
       <use xlink:href="#DejaVuSans-64" x="368.115234"/>
       <use xlink:href="#DejaVuSans-65" x="431.591797"/>
      </g>
     </g>
    </g>
    <g id="xtick_22">
     <g id="line2d_22">
      <g>
       <use xlink:href="#m769f1a6db4" x="249.444107" y="131.678437" style="stroke: #000000; stroke-width: 0.8"/>
      </g>
     </g>
     <g id="text_22">
      <!-- Vincristine -->
      <g transform="translate(252.203482 191.195625) rotate(-90) scale(0.1 -0.1)">
       <defs>
        <path id="DejaVuSans-56" d="M 1831 0 
L 50 4666 
L 709 4666 
L 2188 738 
L 3669 4666 
L 4325 4666 
L 2547 0 
L 1831 0 
z
" transform="scale(0.015625)"/>
       </defs>
       <use xlink:href="#DejaVuSans-56"/>
       <use xlink:href="#DejaVuSans-69" x="66.158203"/>
       <use xlink:href="#DejaVuSans-6e" x="93.941406"/>
       <use xlink:href="#DejaVuSans-63" x="157.320312"/>
       <use xlink:href="#DejaVuSans-72" x="212.300781"/>
       <use xlink:href="#DejaVuSans-69" x="253.414062"/>
       <use xlink:href="#DejaVuSans-73" x="281.197266"/>
       <use xlink:href="#DejaVuSans-74" x="333.296875"/>
       <use xlink:href="#DejaVuSans-69" x="372.505859"/>
       <use xlink:href="#DejaVuSans-6e" x="400.289062"/>
       <use xlink:href="#DejaVuSans-65" x="463.667969"/>
      </g>
     </g>
    </g>
    <g id="xtick_23">
     <g id="line2d_23">
      <g>
       <use xlink:href="#m769f1a6db4" x="259.009821" y="131.678437" style="stroke: #000000; stroke-width: 0.8"/>
      </g>
     </g>
     <g id="text_23">
      <!-- Nocodazole -->
      <g transform="translate(261.769196 196.670625) rotate(-90) scale(0.1 -0.1)">
       <defs>
        <path id="DejaVuSans-4e" d="M 628 4666 
L 1478 4666 
L 3547 763 
L 3547 4666 
L 4159 4666 
L 4159 0 
L 3309 0 
L 1241 3903 
L 1241 0 
L 628 0 
L 628 4666 
z
" transform="scale(0.015625)"/>
        <path id="DejaVuSans-7a" d="M 353 3500 
L 3084 3500 
L 3084 2975 
L 922 459 
L 3084 459 
L 3084 0 
L 275 0 
L 275 525 
L 2438 3041 
L 353 3041 
L 353 3500 
z
" transform="scale(0.015625)"/>
       </defs>
       <use xlink:href="#DejaVuSans-4e"/>
       <use xlink:href="#DejaVuSans-6f" x="74.804688"/>
       <use xlink:href="#DejaVuSans-63" x="135.986328"/>
       <use xlink:href="#DejaVuSans-6f" x="190.966797"/>
       <use xlink:href="#DejaVuSans-64" x="252.148438"/>
       <use xlink:href="#DejaVuSans-61" x="315.625"/>
       <use xlink:href="#DejaVuSans-7a" x="376.904297"/>
       <use xlink:href="#DejaVuSans-6f" x="429.394531"/>
       <use xlink:href="#DejaVuSans-6c" x="490.576172"/>
       <use xlink:href="#DejaVuSans-65" x="518.359375"/>
      </g>
     </g>
    </g>
    <g id="xtick_24">
     <g id="line2d_24">
      <g>
       <use xlink:href="#m769f1a6db4" x="268.575536" y="131.678437" style="stroke: #000000; stroke-width: 0.8"/>
      </g>
     </g>
     <g id="text_24">
      <!-- AZ138 -->
      <g transform="translate(271.334911 171.456562) rotate(-90) scale(0.1 -0.1)">
       <use xlink:href="#DejaVuSans-41"/>
       <use xlink:href="#DejaVuSans-5a" x="68.408203"/>
       <use xlink:href="#DejaVuSans-31" x="136.914062"/>
       <use xlink:href="#DejaVuSans-33" x="200.537109"/>
       <use xlink:href="#DejaVuSans-38" x="264.160156"/>
      </g>
     </g>
    </g>
    <g id="xtick_25">
     <g id="line2d_25">
      <g>
       <use xlink:href="#m769f1a6db4" x="278.14125" y="131.678437" style="stroke: #000000; stroke-width: 0.8"/>
      </g>
     </g>
     <g id="text_25">
      <!-- Latrunculin B -->
      <g transform="translate(280.900625 204.853437) rotate(-90) scale(0.1 -0.1)">
       <defs>
        <path id="DejaVuSans-42" d="M 1259 2228 
L 1259 519 
L 2272 519 
Q 2781 519 3026 730 
Q 3272 941 3272 1375 
Q 3272 1813 3026 2020 
Q 2781 2228 2272 2228 
L 1259 2228 
z
M 1259 4147 
L 1259 2741 
L 2194 2741 
Q 2656 2741 2882 2914 
Q 3109 3088 3109 3444 
Q 3109 3797 2882 3972 
Q 2656 4147 2194 4147 
L 1259 4147 
z
M 628 4666 
L 2241 4666 
Q 2963 4666 3353 4366 
Q 3744 4066 3744 3513 
Q 3744 3084 3544 2831 
Q 3344 2578 2956 2516 
Q 3422 2416 3680 2098 
Q 3938 1781 3938 1306 
Q 3938 681 3513 340 
Q 3088 0 2303 0 
L 628 0 
L 628 4666 
z
" transform="scale(0.015625)"/>
       </defs>
       <use xlink:href="#DejaVuSans-4c"/>
       <use xlink:href="#DejaVuSans-61" x="55.712891"/>
       <use xlink:href="#DejaVuSans-74" x="116.992188"/>
       <use xlink:href="#DejaVuSans-72" x="156.201172"/>
       <use xlink:href="#DejaVuSans-75" x="197.314453"/>
       <use xlink:href="#DejaVuSans-6e" x="260.693359"/>
       <use xlink:href="#DejaVuSans-63" x="324.072266"/>
       <use xlink:href="#DejaVuSans-75" x="379.052734"/>
       <use xlink:href="#DejaVuSans-6c" x="442.431641"/>
       <use xlink:href="#DejaVuSans-69" x="470.214844"/>
       <use xlink:href="#DejaVuSans-6e" x="497.998047"/>
       <use xlink:href="#DejaVuSans-20" x="561.376953"/>
       <use xlink:href="#DejaVuSans-42" x="593.164062"/>
      </g>
     </g>
    </g>
    <g id="xtick_26">
     <g id="line2d_26">
      <g>
       <use xlink:href="#m769f1a6db4" x="287.706964" y="131.678437" style="stroke: #000000; stroke-width: 0.8"/>
      </g>
     </g>
     <g id="text_26">
      <!-- Epothilone B -->
      <g transform="translate(290.466339 201.926875) rotate(-90) scale(0.1 -0.1)">
       <use xlink:href="#DejaVuSans-45"/>
       <use xlink:href="#DejaVuSans-70" x="63.183594"/>
       <use xlink:href="#DejaVuSans-6f" x="126.660156"/>
       <use xlink:href="#DejaVuSans-74" x="187.841797"/>
       <use xlink:href="#DejaVuSans-68" x="227.050781"/>
       <use xlink:href="#DejaVuSans-69" x="290.429688"/>
       <use xlink:href="#DejaVuSans-6c" x="318.212891"/>
       <use xlink:href="#DejaVuSans-6f" x="345.996094"/>
       <use xlink:href="#DejaVuSans-6e" x="407.177734"/>
       <use xlink:href="#DejaVuSans-65" x="470.556641"/>
       <use xlink:href="#DejaVuSans-20" x="532.080078"/>
       <use xlink:href="#DejaVuSans-42" x="563.867188"/>
      </g>
     </g>
    </g>
    <g id="xtick_27">
     <g id="line2d_27">
      <g>
       <use xlink:href="#m769f1a6db4" x="297.272679" y="131.678437" style="stroke: #000000; stroke-width: 0.8"/>
      </g>
     </g>
     <g id="text_27">
      <!-- Chlorambucil -->
      <g transform="translate(300.032054 204.615937) rotate(-90) scale(0.1 -0.1)">
       <use xlink:href="#DejaVuSans-43"/>
       <use xlink:href="#DejaVuSans-68" x="69.824219"/>
       <use xlink:href="#DejaVuSans-6c" x="133.203125"/>
       <use xlink:href="#DejaVuSans-6f" x="160.986328"/>
       <use xlink:href="#DejaVuSans-72" x="222.167969"/>
       <use xlink:href="#DejaVuSans-61" x="263.28125"/>
       <use xlink:href="#DejaVuSans-6d" x="324.560547"/>
       <use xlink:href="#DejaVuSans-62" x="421.972656"/>
       <use xlink:href="#DejaVuSans-75" x="485.449219"/>
       <use xlink:href="#DejaVuSans-63" x="548.828125"/>
       <use xlink:href="#DejaVuSans-69" x="603.808594"/>
       <use xlink:href="#DejaVuSans-6c" x="631.591797"/>
      </g>
     </g>
    </g>
    <g id="xtick_28">
     <g id="line2d_28">
      <g>
       <use xlink:href="#m769f1a6db4" x="306.838393" y="131.678437" style="stroke: #000000; stroke-width: 0.8"/>
      </g>
     </g>
     <g id="text_28">
      <!-- Methotrexate -->
      <g transform="translate(309.597768 215.43625) rotate(-90) scale(0.1 -0.1)">
       <use xlink:href="#DejaVuSans-Bold-4d"/>
       <use xlink:href="#DejaVuSans-Bold-65" x="99.511719"/>
       <use xlink:href="#DejaVuSans-Bold-74" x="167.333984"/>
       <use xlink:href="#DejaVuSans-Bold-68" x="215.136719"/>
       <use xlink:href="#DejaVuSans-Bold-6f" x="286.328125"/>
       <use xlink:href="#DejaVuSans-Bold-74" x="355.029297"/>
       <use xlink:href="#DejaVuSans-Bold-72" x="402.832031"/>
       <use xlink:href="#DejaVuSans-Bold-65" x="452.148438"/>
       <use xlink:href="#DejaVuSans-Bold-78" x="519.970703"/>
       <use xlink:href="#DejaVuSans-Bold-61" x="584.472656"/>
       <use xlink:href="#DejaVuSans-Bold-74" x="651.953125"/>
       <use xlink:href="#DejaVuSans-Bold-65" x="699.755859"/>
      </g>
     </g>
    </g>
    <g id="xtick_29">
     <g id="line2d_29">
      <g>
       <use xlink:href="#m769f1a6db4" x="316.404107" y="131.678437" style="stroke: #000000; stroke-width: 0.8"/>
      </g>
     </g>
     <g id="text_29">
      <!-- Cyclohexamide -->
      <g transform="translate(319.163482 215.358125) rotate(-90) scale(0.1 -0.1)">
       <use xlink:href="#DejaVuSans-43"/>
       <use xlink:href="#DejaVuSans-79" x="69.824219"/>
       <use xlink:href="#DejaVuSans-63" x="129.003906"/>
       <use xlink:href="#DejaVuSans-6c" x="183.984375"/>
       <use xlink:href="#DejaVuSans-6f" x="211.767578"/>
       <use xlink:href="#DejaVuSans-68" x="272.949219"/>
       <use xlink:href="#DejaVuSans-65" x="336.328125"/>
       <use xlink:href="#DejaVuSans-78" x="396.101562"/>
       <use xlink:href="#DejaVuSans-61" x="455.28125"/>
       <use xlink:href="#DejaVuSans-6d" x="516.560547"/>
       <use xlink:href="#DejaVuSans-69" x="613.972656"/>
       <use xlink:href="#DejaVuSans-64" x="641.755859"/>
       <use xlink:href="#DejaVuSans-65" x="705.232422"/>
      </g>
     </g>
    </g>
    <g id="xtick_30">
     <g id="line2d_30">
      <g>
       <use xlink:href="#m769f1a6db4" x="325.969821" y="131.678437" style="stroke: #000000; stroke-width: 0.8"/>
      </g>
     </g>
     <g id="text_30">
      <!-- PP-2 -->
      <g transform="translate(328.729196 160.483125) rotate(-90) scale(0.1 -0.1)">
       <defs>
        <path id="DejaVuSans-32" d="M 1228 531 
L 3431 531 
L 3431 0 
L 469 0 
L 469 531 
Q 828 903 1448 1529 
Q 2069 2156 2228 2338 
Q 2531 2678 2651 2914 
Q 2772 3150 2772 3378 
Q 2772 3750 2511 3984 
Q 2250 4219 1831 4219 
Q 1534 4219 1204 4116 
Q 875 4013 500 3803 
L 500 4441 
Q 881 4594 1212 4672 
Q 1544 4750 1819 4750 
Q 2544 4750 2975 4387 
Q 3406 4025 3406 3419 
Q 3406 3131 3298 2873 
Q 3191 2616 2906 2266 
Q 2828 2175 2409 1742 
Q 1991 1309 1228 531 
z
" transform="scale(0.015625)"/>
       </defs>
       <use xlink:href="#DejaVuSans-50"/>
       <use xlink:href="#DejaVuSans-50" x="60.302734"/>
       <use xlink:href="#DejaVuSans-2d" x="118.355469"/>
       <use xlink:href="#DejaVuSans-32" x="154.439453"/>
      </g>
     </g>
    </g>
    <g id="xtick_31">
     <g id="line2d_31">
      <g>
       <use xlink:href="#m769f1a6db4" x="335.535536" y="131.678437" style="stroke: #000000; stroke-width: 0.8"/>
      </g>
     </g>
     <g id="text_31">
      <!-- Floxuridine -->
      <g transform="translate(338.294911 193.776875) rotate(-90) scale(0.1 -0.1)">
       <defs>
        <path id="DejaVuSans-46" d="M 628 4666 
L 3309 4666 
L 3309 4134 
L 1259 4134 
L 1259 2759 
L 3109 2759 
L 3109 2228 
L 1259 2228 
L 1259 0 
L 628 0 
L 628 4666 
z
" transform="scale(0.015625)"/>
       </defs>
       <use xlink:href="#DejaVuSans-46"/>
       <use xlink:href="#DejaVuSans-6c" x="57.519531"/>
       <use xlink:href="#DejaVuSans-6f" x="85.302734"/>
       <use xlink:href="#DejaVuSans-78" x="143.359375"/>
       <use xlink:href="#DejaVuSans-75" x="202.539062"/>
       <use xlink:href="#DejaVuSans-72" x="265.917969"/>
       <use xlink:href="#DejaVuSans-69" x="307.03125"/>
       <use xlink:href="#DejaVuSans-64" x="334.814453"/>
       <use xlink:href="#DejaVuSans-69" x="398.291016"/>
       <use xlink:href="#DejaVuSans-6e" x="426.074219"/>
       <use xlink:href="#DejaVuSans-65" x="489.453125"/>
      </g>
     </g>
    </g>
    <g id="xtick_32">
     <g id="line2d_32">
      <g>
       <use xlink:href="#m769f1a6db4" x="345.10125" y="131.678437" style="stroke: #000000; stroke-width: 0.8"/>
      </g>
     </g>
     <g id="text_32">
      <!-- Mitomycin C -->
      <g transform="translate(347.860625 200.558125) rotate(-90) scale(0.1 -0.1)">
       <use xlink:href="#DejaVuSans-4d"/>
       <use xlink:href="#DejaVuSans-69" x="86.279297"/>
       <use xlink:href="#DejaVuSans-74" x="114.0625"/>
       <use xlink:href="#DejaVuSans-6f" x="153.271484"/>
       <use xlink:href="#DejaVuSans-6d" x="214.453125"/>
       <use xlink:href="#DejaVuSans-79" x="311.865234"/>
       <use xlink:href="#DejaVuSans-63" x="371.044922"/>
       <use xlink:href="#DejaVuSans-69" x="426.025391"/>
       <use xlink:href="#DejaVuSans-6e" x="453.808594"/>
       <use xlink:href="#DejaVuSans-20" x="517.1875"/>
       <use xlink:href="#DejaVuSans-43" x="548.974609"/>
      </g>
     </g>
    </g>
    <g id="xtick_33">
     <g id="line2d_33">
      <g>
       <use xlink:href="#m769f1a6db4" x="354.666964" y="131.678437" style="stroke: #000000; stroke-width: 0.8"/>
      </g>
     </g>
     <g id="text_33">
      <!-- Mitoxantrone -->
      <g transform="translate(357.426339 204.61125) rotate(-90) scale(0.1 -0.1)">
       <use xlink:href="#DejaVuSans-4d"/>
       <use xlink:href="#DejaVuSans-69" x="86.279297"/>
       <use xlink:href="#DejaVuSans-74" x="114.0625"/>
       <use xlink:href="#DejaVuSans-6f" x="153.271484"/>
       <use xlink:href="#DejaVuSans-78" x="211.328125"/>
       <use xlink:href="#DejaVuSans-61" x="270.507812"/>
       <use xlink:href="#DejaVuSans-6e" x="331.787109"/>
       <use xlink:href="#DejaVuSans-74" x="395.166016"/>
       <use xlink:href="#DejaVuSans-72" x="434.375"/>
       <use xlink:href="#DejaVuSans-6f" x="473.238281"/>
       <use xlink:href="#DejaVuSans-6e" x="534.419922"/>
       <use xlink:href="#DejaVuSans-65" x="597.798828"/>
      </g>
     </g>
    </g>
    <g id="xtick_34">
     <g id="line2d_34">
      <g>
       <use xlink:href="#m769f1a6db4" x="364.232679" y="131.678437" style="stroke: #000000; stroke-width: 0.8"/>
      </g>
     </g>
     <g id="text_34">
      <!-- DMSO -->
      <g transform="translate(366.992054 169.226875) rotate(-90) scale(0.1 -0.1)">
       <defs>
        <path id="DejaVuSans-53" d="M 3425 4513 
L 3425 3897 
Q 3066 4069 2747 4153 
Q 2428 4238 2131 4238 
Q 1616 4238 1336 4038 
Q 1056 3838 1056 3469 
Q 1056 3159 1242 3001 
Q 1428 2844 1947 2747 
L 2328 2669 
Q 3034 2534 3370 2195 
Q 3706 1856 3706 1288 
Q 3706 609 3251 259 
Q 2797 -91 1919 -91 
Q 1588 -91 1214 -16 
Q 841 59 441 206 
L 441 856 
Q 825 641 1194 531 
Q 1563 422 1919 422 
Q 2459 422 2753 634 
Q 3047 847 3047 1241 
Q 3047 1584 2836 1778 
Q 2625 1972 2144 2069 
L 1759 2144 
Q 1053 2284 737 2584 
Q 422 2884 422 3419 
Q 422 4038 858 4394 
Q 1294 4750 2059 4750 
Q 2388 4750 2728 4690 
Q 3069 4631 3425 4513 
z
" transform="scale(0.015625)"/>
        <path id="DejaVuSans-4f" d="M 2522 4238 
Q 1834 4238 1429 3725 
Q 1025 3213 1025 2328 
Q 1025 1447 1429 934 
Q 1834 422 2522 422 
Q 3209 422 3611 934 
Q 4013 1447 4013 2328 
Q 4013 3213 3611 3725 
Q 3209 4238 2522 4238 
z
M 2522 4750 
Q 3503 4750 4090 4092 
Q 4678 3434 4678 2328 
Q 4678 1225 4090 567 
Q 3503 -91 2522 -91 
Q 1538 -91 948 565 
Q 359 1222 359 2328 
Q 359 3434 948 4092 
Q 1538 4750 2522 4750 
z
" transform="scale(0.015625)"/>
       </defs>
       <use xlink:href="#DejaVuSans-44"/>
       <use xlink:href="#DejaVuSans-4d" x="77.001953"/>
       <use xlink:href="#DejaVuSans-53" x="163.28125"/>
       <use xlink:href="#DejaVuSans-4f" x="226.757812"/>
      </g>
     </g>
    </g>
    <g id="xtick_35">
     <g id="line2d_35">
      <g>
       <use xlink:href="#m769f1a6db4" x="373.798393" y="131.678437" style="stroke: #000000; stroke-width: 0.8"/>
      </g>
     </g>
     <g id="text_35">
      <!-- Cisplatin -->
      <g transform="translate(376.557768 188.058125) rotate(-90) scale(0.1 -0.1)">
       <defs>
        <path id="DejaVuSans-Bold-70" d="M 1656 506 
L 1656 -1331 
L 538 -1331 
L 538 3500 
L 1656 3500 
L 1656 2988 
Q 1888 3294 2169 3439 
Q 2450 3584 2816 3584 
Q 3463 3584 3878 3070 
Q 4294 2556 4294 1747 
Q 4294 938 3878 423 
Q 3463 -91 2816 -91 
Q 2450 -91 2169 54 
Q 1888 200 1656 506 
z
M 2400 2772 
Q 2041 2772 1848 2508 
Q 1656 2244 1656 1747 
Q 1656 1250 1848 986 
Q 2041 722 2400 722 
Q 2759 722 2948 984 
Q 3138 1247 3138 1747 
Q 3138 2247 2948 2509 
Q 2759 2772 2400 2772 
z
" transform="scale(0.015625)"/>
       </defs>
       <use xlink:href="#DejaVuSans-Bold-43"/>
       <use xlink:href="#DejaVuSans-Bold-69" x="73.388672"/>
       <use xlink:href="#DejaVuSans-Bold-73" x="107.666016"/>
       <use xlink:href="#DejaVuSans-Bold-70" x="167.1875"/>
       <use xlink:href="#DejaVuSans-Bold-6c" x="238.769531"/>
       <use xlink:href="#DejaVuSans-Bold-61" x="273.046875"/>
       <use xlink:href="#DejaVuSans-Bold-74" x="340.527344"/>
       <use xlink:href="#DejaVuSans-Bold-69" x="388.330078"/>
       <use xlink:href="#DejaVuSans-Bold-6e" x="422.607422"/>
      </g>
     </g>
    </g>
    <g id="text_36">
     <!-- Compound Name -->
     <g transform="translate(167.674219 254.245625) scale(0.1 -0.1)">
      <use xlink:href="#DejaVuSans-43"/>
      <use xlink:href="#DejaVuSans-6f" x="69.824219"/>
      <use xlink:href="#DejaVuSans-6d" x="131.005859"/>
      <use xlink:href="#DejaVuSans-70" x="228.417969"/>
      <use xlink:href="#DejaVuSans-6f" x="291.894531"/>
      <use xlink:href="#DejaVuSans-75" x="353.076172"/>
      <use xlink:href="#DejaVuSans-6e" x="416.455078"/>
      <use xlink:href="#DejaVuSans-64" x="479.833984"/>
      <use xlink:href="#DejaVuSans-20" x="543.310547"/>
      <use xlink:href="#DejaVuSans-4e" x="575.097656"/>
      <use xlink:href="#DejaVuSans-61" x="649.902344"/>
      <use xlink:href="#DejaVuSans-6d" x="711.181641"/>
      <use xlink:href="#DejaVuSans-65" x="808.59375"/>
     </g>
    </g>
   </g>
   <g id="matplotlib.axis_2">
    <g id="ytick_1">
     <g id="line2d_36">
      <defs>
       <path id="m06b8545599" d="M 0 0 
L -3.5 0 
" style="stroke: #000000; stroke-width: 0.8"/>
      </defs>
      <g>
       <use xlink:href="#m06b8545599" x="43.78125" y="131.678437" style="stroke: #000000; stroke-width: 0.8"/>
      </g>
     </g>
     <g id="text_37">
      <!-- 0.0 -->
      <g transform="translate(20.878125 135.477656) scale(0.1 -0.1)">
       <defs>
        <path id="DejaVuSans-30" d="M 2034 4250 
Q 1547 4250 1301 3770 
Q 1056 3291 1056 2328 
Q 1056 1369 1301 889 
Q 1547 409 2034 409 
Q 2525 409 2770 889 
Q 3016 1369 3016 2328 
Q 3016 3291 2770 3770 
Q 2525 4250 2034 4250 
z
M 2034 4750 
Q 2819 4750 3233 4129 
Q 3647 3509 3647 2328 
Q 3647 1150 3233 529 
Q 2819 -91 2034 -91 
Q 1250 -91 836 529 
Q 422 1150 422 2328 
Q 422 3509 836 4129 
Q 1250 4750 2034 4750 
z
" transform="scale(0.015625)"/>
        <path id="DejaVuSans-2e" d="M 684 794 
L 1344 794 
L 1344 0 
L 684 0 
L 684 794 
z
" transform="scale(0.015625)"/>
       </defs>
       <use xlink:href="#DejaVuSans-30"/>
       <use xlink:href="#DejaVuSans-2e" x="63.623047"/>
       <use xlink:href="#DejaVuSans-30" x="95.410156"/>
      </g>
     </g>
    </g>
    <g id="ytick_2">
     <g id="line2d_37">
      <g>
       <use xlink:href="#m06b8545599" x="43.78125" y="108.302904" style="stroke: #000000; stroke-width: 0.8"/>
      </g>
     </g>
     <g id="text_38">
      <!-- 0.2 -->
      <g transform="translate(20.878125 112.102122) scale(0.1 -0.1)">
       <use xlink:href="#DejaVuSans-30"/>
       <use xlink:href="#DejaVuSans-2e" x="63.623047"/>
       <use xlink:href="#DejaVuSans-32" x="95.410156"/>
      </g>
     </g>
    </g>
    <g id="ytick_3">
     <g id="line2d_38">
      <g>
       <use xlink:href="#m06b8545599" x="43.78125" y="84.92737" style="stroke: #000000; stroke-width: 0.8"/>
      </g>
     </g>
     <g id="text_39">
      <!-- 0.4 -->
      <g transform="translate(20.878125 88.726588) scale(0.1 -0.1)">
       <use xlink:href="#DejaVuSans-30"/>
       <use xlink:href="#DejaVuSans-2e" x="63.623047"/>
       <use xlink:href="#DejaVuSans-34" x="95.410156"/>
      </g>
     </g>
    </g>
    <g id="ytick_4">
     <g id="line2d_39">
      <g>
       <use xlink:href="#m06b8545599" x="43.78125" y="61.551836" style="stroke: #000000; stroke-width: 0.8"/>
      </g>
     </g>
     <g id="text_40">
      <!-- 0.6 -->
      <g transform="translate(20.878125 65.351054) scale(0.1 -0.1)">
       <use xlink:href="#DejaVuSans-30"/>
       <use xlink:href="#DejaVuSans-2e" x="63.623047"/>
       <use xlink:href="#DejaVuSans-36" x="95.410156"/>
      </g>
     </g>
    </g>
    <g id="ytick_5">
     <g id="line2d_40">
      <g>
       <use xlink:href="#m06b8545599" x="43.78125" y="38.176302" style="stroke: #000000; stroke-width: 0.8"/>
      </g>
     </g>
     <g id="text_41">
      <!-- 0.8 -->
      <g transform="translate(20.878125 41.97552) scale(0.1 -0.1)">
       <use xlink:href="#DejaVuSans-30"/>
       <use xlink:href="#DejaVuSans-2e" x="63.623047"/>
       <use xlink:href="#DejaVuSans-38" x="95.410156"/>
      </g>
     </g>
    </g>
    <g id="text_42">
     <!-- Tanimoto Similarity -->
     <g transform="translate(14.798438 124.267344) rotate(-90) scale(0.1 -0.1)">
      <defs>
       <path id="DejaVuSans-54" d="M -19 4666 
L 3928 4666 
L 3928 4134 
L 2272 4134 
L 2272 0 
L 1638 0 
L 1638 4134 
L -19 4134 
L -19 4666 
z
" transform="scale(0.015625)"/>
      </defs>
      <use xlink:href="#DejaVuSans-54"/>
      <use xlink:href="#DejaVuSans-61" x="44.583984"/>
      <use xlink:href="#DejaVuSans-6e" x="105.863281"/>
      <use xlink:href="#DejaVuSans-69" x="169.242188"/>
      <use xlink:href="#DejaVuSans-6d" x="197.025391"/>
      <use xlink:href="#DejaVuSans-6f" x="294.4375"/>
      <use xlink:href="#DejaVuSans-74" x="355.619141"/>
      <use xlink:href="#DejaVuSans-6f" x="394.828125"/>
      <use xlink:href="#DejaVuSans-20" x="456.009766"/>
      <use xlink:href="#DejaVuSans-53" x="487.796875"/>
      <use xlink:href="#DejaVuSans-69" x="551.273438"/>
      <use xlink:href="#DejaVuSans-6d" x="579.056641"/>
      <use xlink:href="#DejaVuSans-69" x="676.46875"/>
      <use xlink:href="#DejaVuSans-6c" x="704.251953"/>
      <use xlink:href="#DejaVuSans-61" x="732.035156"/>
      <use xlink:href="#DejaVuSans-72" x="793.314453"/>
      <use xlink:href="#DejaVuSans-69" x="834.427734"/>
      <use xlink:href="#DejaVuSans-74" x="862.210938"/>
      <use xlink:href="#DejaVuSans-79" x="901.419922"/>
     </g>
    </g>
   </g>
   <g id="line2d_41">
    <path clip-path="url(#p622bf3ed8c)" style="fill: none; stroke: #424242; stroke-width: 2.7; stroke-linecap: square"/>
   </g>
   <g id="line2d_42">
    <path clip-path="url(#p622bf3ed8c)" style="fill: none; stroke: #424242; stroke-width: 2.7; stroke-linecap: square"/>
   </g>
   <g id="line2d_43">
    <path clip-path="url(#p622bf3ed8c)" style="fill: none; stroke: #424242; stroke-width: 2.7; stroke-linecap: square"/>
   </g>
   <g id="line2d_44">
    <path clip-path="url(#p622bf3ed8c)" style="fill: none; stroke: #424242; stroke-width: 2.7; stroke-linecap: square"/>
   </g>
   <g id="line2d_45">
    <path clip-path="url(#p622bf3ed8c)" style="fill: none; stroke: #424242; stroke-width: 2.7; stroke-linecap: square"/>
   </g>
   <g id="line2d_46">
    <path clip-path="url(#p622bf3ed8c)" style="fill: none; stroke: #424242; stroke-width: 2.7; stroke-linecap: square"/>
   </g>
   <g id="line2d_47">
    <path clip-path="url(#p622bf3ed8c)" style="fill: none; stroke: #424242; stroke-width: 2.7; stroke-linecap: square"/>
   </g>
   <g id="line2d_48">
    <path clip-path="url(#p622bf3ed8c)" style="fill: none; stroke: #424242; stroke-width: 2.7; stroke-linecap: square"/>
   </g>
   <g id="line2d_49">
    <path clip-path="url(#p622bf3ed8c)" style="fill: none; stroke: #424242; stroke-width: 2.7; stroke-linecap: square"/>
   </g>
   <g id="line2d_50">
    <path clip-path="url(#p622bf3ed8c)" style="fill: none; stroke: #424242; stroke-width: 2.7; stroke-linecap: square"/>
   </g>
   <g id="line2d_51">
    <path clip-path="url(#p622bf3ed8c)" style="fill: none; stroke: #424242; stroke-width: 2.7; stroke-linecap: square"/>
   </g>
   <g id="line2d_52">
    <path clip-path="url(#p622bf3ed8c)" style="fill: none; stroke: #424242; stroke-width: 2.7; stroke-linecap: square"/>
   </g>
   <g id="line2d_53">
    <path clip-path="url(#p622bf3ed8c)" style="fill: none; stroke: #424242; stroke-width: 2.7; stroke-linecap: square"/>
   </g>
   <g id="line2d_54">
    <path clip-path="url(#p622bf3ed8c)" style="fill: none; stroke: #424242; stroke-width: 2.7; stroke-linecap: square"/>
   </g>
   <g id="line2d_55">
    <path clip-path="url(#p622bf3ed8c)" style="fill: none; stroke: #424242; stroke-width: 2.7; stroke-linecap: square"/>
   </g>
   <g id="line2d_56">
    <path clip-path="url(#p622bf3ed8c)" style="fill: none; stroke: #424242; stroke-width: 2.7; stroke-linecap: square"/>
   </g>
   <g id="line2d_57">
    <path clip-path="url(#p622bf3ed8c)" style="fill: none; stroke: #424242; stroke-width: 2.7; stroke-linecap: square"/>
   </g>
   <g id="line2d_58">
    <path clip-path="url(#p622bf3ed8c)" style="fill: none; stroke: #424242; stroke-width: 2.7; stroke-linecap: square"/>
   </g>
   <g id="line2d_59">
    <path clip-path="url(#p622bf3ed8c)" style="fill: none; stroke: #424242; stroke-width: 2.7; stroke-linecap: square"/>
   </g>
   <g id="line2d_60">
    <path clip-path="url(#p622bf3ed8c)" style="fill: none; stroke: #424242; stroke-width: 2.7; stroke-linecap: square"/>
   </g>
   <g id="line2d_61">
    <path clip-path="url(#p622bf3ed8c)" style="fill: none; stroke: #424242; stroke-width: 2.7; stroke-linecap: square"/>
   </g>
   <g id="line2d_62">
    <path clip-path="url(#p622bf3ed8c)" style="fill: none; stroke: #424242; stroke-width: 2.7; stroke-linecap: square"/>
   </g>
   <g id="line2d_63">
    <path clip-path="url(#p622bf3ed8c)" style="fill: none; stroke: #424242; stroke-width: 2.7; stroke-linecap: square"/>
   </g>
   <g id="line2d_64">
    <path clip-path="url(#p622bf3ed8c)" style="fill: none; stroke: #424242; stroke-width: 2.7; stroke-linecap: square"/>
   </g>
   <g id="line2d_65">
    <path clip-path="url(#p622bf3ed8c)" style="fill: none; stroke: #424242; stroke-width: 2.7; stroke-linecap: square"/>
   </g>
   <g id="line2d_66">
    <path clip-path="url(#p622bf3ed8c)" style="fill: none; stroke: #424242; stroke-width: 2.7; stroke-linecap: square"/>
   </g>
   <g id="line2d_67">
    <path clip-path="url(#p622bf3ed8c)" style="fill: none; stroke: #424242; stroke-width: 2.7; stroke-linecap: square"/>
   </g>
   <g id="line2d_68">
    <path clip-path="url(#p622bf3ed8c)" style="fill: none; stroke: #424242; stroke-width: 2.7; stroke-linecap: square"/>
   </g>
   <g id="line2d_69">
    <path clip-path="url(#p622bf3ed8c)" style="fill: none; stroke: #424242; stroke-width: 2.7; stroke-linecap: square"/>
   </g>
   <g id="line2d_70">
    <path clip-path="url(#p622bf3ed8c)" style="fill: none; stroke: #424242; stroke-width: 2.7; stroke-linecap: square"/>
   </g>
   <g id="line2d_71">
    <path clip-path="url(#p622bf3ed8c)" style="fill: none; stroke: #424242; stroke-width: 2.7; stroke-linecap: square"/>
   </g>
   <g id="line2d_72">
    <path clip-path="url(#p622bf3ed8c)" style="fill: none; stroke: #424242; stroke-width: 2.7; stroke-linecap: square"/>
   </g>
   <g id="line2d_73">
    <path clip-path="url(#p622bf3ed8c)" style="fill: none; stroke: #424242; stroke-width: 2.7; stroke-linecap: square"/>
   </g>
   <g id="line2d_74">
    <path clip-path="url(#p622bf3ed8c)" style="fill: none; stroke: #424242; stroke-width: 2.7; stroke-linecap: square"/>
   </g>
   <g id="line2d_75">
    <path clip-path="url(#p622bf3ed8c)" style="fill: none; stroke: #424242; stroke-width: 2.7; stroke-linecap: square"/>
   </g>
   <g id="patch_38">
    <path d="M 43.78125 131.678437 
L 43.78125 20.798437 
" style="fill: none; stroke: #000000; stroke-width: 0.8; stroke-linejoin: miter; stroke-linecap: square"/>
   </g>
   <g id="patch_39">
    <path d="M 378.58125 131.678437 
L 378.58125 20.798437 
" style="fill: none; stroke: #000000; stroke-width: 0.8; stroke-linejoin: miter; stroke-linecap: square"/>
   </g>
   <g id="patch_40">
    <path d="M 43.78125 131.678437 
L 378.58125 131.678437 
" style="fill: none; stroke: #000000; stroke-width: 0.8; stroke-linejoin: miter; stroke-linecap: square"/>
   </g>
   <g id="patch_41">
    <path d="M 43.78125 20.798437 
L 378.58125 20.798437 
" style="fill: none; stroke: #000000; stroke-width: 0.8; stroke-linejoin: miter; stroke-linecap: square"/>
   </g>
   <g id="text_43">
    <!-- Tanimoto Similarity to closest compound -->
    <g transform="translate(109.497656 14.798437) scale(0.1 -0.1)">
     <use xlink:href="#DejaVuSans-54"/>
     <use xlink:href="#DejaVuSans-61" x="44.583984"/>
     <use xlink:href="#DejaVuSans-6e" x="105.863281"/>
     <use xlink:href="#DejaVuSans-69" x="169.242188"/>
     <use xlink:href="#DejaVuSans-6d" x="197.025391"/>
     <use xlink:href="#DejaVuSans-6f" x="294.4375"/>
     <use xlink:href="#DejaVuSans-74" x="355.619141"/>
     <use xlink:href="#DejaVuSans-6f" x="394.828125"/>
     <use xlink:href="#DejaVuSans-20" x="456.009766"/>
     <use xlink:href="#DejaVuSans-53" x="487.796875"/>
     <use xlink:href="#DejaVuSans-69" x="551.273438"/>
     <use xlink:href="#DejaVuSans-6d" x="579.056641"/>
     <use xlink:href="#DejaVuSans-69" x="676.46875"/>
     <use xlink:href="#DejaVuSans-6c" x="704.251953"/>
     <use xlink:href="#DejaVuSans-61" x="732.035156"/>
     <use xlink:href="#DejaVuSans-72" x="793.314453"/>
     <use xlink:href="#DejaVuSans-69" x="834.427734"/>
     <use xlink:href="#DejaVuSans-74" x="862.210938"/>
     <use xlink:href="#DejaVuSans-79" x="901.419922"/>
     <use xlink:href="#DejaVuSans-20" x="960.599609"/>
     <use xlink:href="#DejaVuSans-74" x="992.386719"/>
     <use xlink:href="#DejaVuSans-6f" x="1031.595703"/>
     <use xlink:href="#DejaVuSans-20" x="1092.777344"/>
     <use xlink:href="#DejaVuSans-63" x="1124.564453"/>
     <use xlink:href="#DejaVuSans-6c" x="1179.544922"/>
     <use xlink:href="#DejaVuSans-6f" x="1207.328125"/>
     <use xlink:href="#DejaVuSans-73" x="1268.509766"/>
     <use xlink:href="#DejaVuSans-65" x="1320.609375"/>
     <use xlink:href="#DejaVuSans-73" x="1382.132812"/>
     <use xlink:href="#DejaVuSans-74" x="1434.232422"/>
     <use xlink:href="#DejaVuSans-20" x="1473.441406"/>
     <use xlink:href="#DejaVuSans-63" x="1505.228516"/>
     <use xlink:href="#DejaVuSans-6f" x="1560.208984"/>
     <use xlink:href="#DejaVuSans-6d" x="1621.390625"/>
     <use xlink:href="#DejaVuSans-70" x="1718.802734"/>
     <use xlink:href="#DejaVuSans-6f" x="1782.279297"/>
     <use xlink:href="#DejaVuSans-75" x="1843.460938"/>
     <use xlink:href="#DejaVuSans-6e" x="1906.839844"/>
     <use xlink:href="#DejaVuSans-64" x="1970.21875"/>
    </g>
   </g>
  </g>
 </g>
 <defs>
  <clipPath id="p622bf3ed8c">
   <rect x="43.78125" y="20.798437" width="334.8" height="110.88"/>
  </clipPath>
 </defs>
</svg>
